<svg xmlns="http://www.w3.org/2000/svg" xmlns:xlink="http://www.w3.org/1999/xlink" xmlns:ifc="http://www.ifcopenshell.org/ns" width="381mm" height="381mm" viewBox="0 0 381 381">
    <defs>
        <marker id="arrowend" markerWidth="10" markerHeight="7" refX="10" refY="3.5" orient="auto">
          <polygon points="0 0, 10 3.5, 0 7"/>
        </marker>
        <marker id="arrowstart" markerWidth="10" markerHeight="7" refX="0" refY="3.5" orient="auto">
          <polygon points="10 0, 0 3.5, 10 7"/>
        </marker>
    </defs>
    <g ifc:name="Elevation FLOOR -  ROOF STEP (layers)" class="section" ifc:plane="[[1.000000,0.000000,0.000000,0.000000],[0.000000,1.000000,0.000000,0.000000],[0.000000,0.000000,1.000000,0.000000],[0.000000,0.000000,0.000000,1.000000]]" ifc:matrix3="[[41.666668,0.000000,63.500003],[0.000000,41.666668,317.500019],[0.000000,0.000000,1.000000]]">
        <g id="product-85362d87-afdd-4025-801e-30f8c86ec0a5" class="IfcSlab material-null projection" ifc:name="Cube" ifc:guid="25DYs7hzr09O0UCFZ8Ri2b">
            <path d="M127,308.411 L46.9637,308.411"/>
            <path d="M127,307.288 L127,308.411"/>
            <path d="M127,308.411 L127,309.533"/>
            <path d="M127,307.288 L127,307.288"/>
            <path d="M46.9637,307.288 L127,307.288"/>
            <path d="M46.9637,308.411 L46.9637,307.288"/>
            <path d="M46.9637,307.288 L46.9637,307.288"/>
            <path d="M46.9637,308.411 L46.9637,309.533"/>
            <path d="M46.9637,307.288 L46.9637,290.45"/>
            <path d="M127,307.288 L46.9637,307.288"/>
            <path d="M46.9637,307.288 L46.9637,308.411"/>
            <path d="M127,307.288 L127,308.411"/>
            <path d="M127,290.45 L127,307.288"/>
            <path d="M46.9637,290.45 L127,290.45"/>
            <path d="M127,290.45 L127,307.288"/>
            <path d="M46.9637,290.45 L46.9637,307.288"/>
            <path d="M127,290.45 L69.85,290.45"/>
            <path d="M127,290.45 L127,307.288"/>
            <path d="M127,289.515 L127,290.45"/>
            <path d="M127,289.515 L127,290.45"/>
            <path d="M69.85,289.515 L127,289.515"/>
            <path d="M69.85,290.45 L69.85,289.515"/>
            <path d="M69.85,289.515 L69.85,290.45"/>
            <path d="M69.85,290.45 L69.85,307.288"/>
            <path d="M46.9637,309.533 L46.9637,308.411"/>
            <path d="M46.9637,309.533 L46.9637,357.54"/>
            <path d="M127,309.533 L46.9637,309.533"/>
            <path d="M46.9637,357.54 L127,357.539"/>
            <path d="M127,309.533 L127,327.615"/>
            <path d="M127,347.53 L127,357.539"/>
            <path d="M127,308.411 L127,309.533"/>
            <path d="M46.9637,308.411 L127,308.411"/>
            <path d="M127,309.533 L127,308.411"/>
            <path d="M46.9637,308.411 L46.9637,309.533"/>
        </g>
        <g id="product-e8c5619c-d890-4412-92e0-191ad0fb7a31" class="IfcSlab material-null projection" ifc:name="Cube" ifc:guid="3enM6Ss9144fBW6HhG_ten">
            <path d="M110.464,345.388 L334.036,345.388"/>
            <path d="M110.464,346.511 L110.464,345.388"/>
            <path d="M110.464,346.511 L110.464,345.388"/>
            <path d="M334.036,345.388 L334.036,346.511"/>
            <path d="M334.036,345.388 L334.036,345.388"/>
            <path d="M334.036,346.511 L110.464,346.511"/>
            <path d="M110.464,347.53 L110.464,346.511"/>
            <path d="M334.036,347.53 L110.464,347.53"/>
            <path d="M334.036,346.511 L334.036,347.53"/>
            <path d="M110.464,328.55 L334.036,328.55"/>
            <path d="M110.464,345.388 L110.464,328.55"/>
            <path d="M110.464,345.388 L110.464,328.55"/>
            <path d="M334.036,328.55 L334.036,345.388"/>
            <path d="M334.036,328.55 L334.036,345.388"/>
            <path d="M334.036,345.388 L110.464,345.388"/>
            <path d="M110.464,346.511 L110.464,345.388"/>
            <path d="M334.036,345.388 L334.036,346.511"/>
            <path d="M110.464,327.615 L334.036,327.615"/>
            <path d="M110.464,328.55 L110.464,327.615"/>
            <path d="M110.464,328.55 L110.464,327.615"/>
            <path d="M334.036,328.55 L334.036,327.615"/>
            <path d="M334.036,327.615 L334.036,328.55"/>
            <path d="M110.464,345.388 L110.464,328.55"/>
            <path d="M334.036,347.53 L334.036,328.55"/>
            <path d="M334.036,328.55 L110.464,328.55"/>
            <path d="M334.036,347.53 L334.036,347.53"/>
            <path d="M334.036,347.53 L334.036,347.53"/>
            <path d="M110.464,346.511 L334.036,346.511"/>
            <path d="M334.036,347.53 L110.464,347.53"/>
            <path d="M110.464,347.53 L334.036,347.53"/>
            <path d="M110.464,347.53 L110.464,346.511"/>
            <path d="M110.464,347.53 L110.464,346.511"/>
            <path d="M110.464,347.53 L110.464,347.53"/>
            <path d="M334.036,346.511 L334.036,347.53"/>
            <path d="M334.036,347.53 L334.036,347.53"/>
            <path d="M334.036,346.511 L334.036,347.53"/>
        </g>
        <g id="product-e0eec433-7a0f-4648-b8e1-48a8704a4ed7" class="IfcWall material-null projection" ifc:name="Cube" ifc:guid="3WxiGpUWz6IBZXIAXmIaxN">
            <path d="M190.5,310.489 L190.5,311.15"/>
            <path d="M190.5,310.489 L127,310.489"/>
            <path d="M190.5,311.15 L190.5,316.971"/>
            <path d="M190.5,316.971 L127,316.971"/>
            <path d="M190.5,311.15 L127,311.15"/>
            <path d="M190.5,316.971 L190.5,317.5"/>
            <path d="M190.5,317.5 L127,317.5"/>
            <path d="M190.5,316.971 L127,316.971"/>
            <path d="M127,318.558 L190.5,318.558"/>
            <path d="M190.5,318.558 L190.5,317.5"/>
            <path d="M190.5,317.5 L127,317.5"/>
            <path d="M127,322.262 L190.5,322.262"/>
            <path d="M127,318.558 L190.5,318.558"/>
            <path d="M190.5,322.262 L190.5,318.558"/>
        </g>
        <g id="product-ecf3b84c-62e0-480e-9b8e-0fb8ee0dd302" class="IfcWall material-null projection" ifc:name="Cube" ifc:guid="3iyxXCOk183fkE3xZk3TC2">
            <path d="M70.5115,289.515 L69.85,289.515"/>
            <path d="M69.85,190.5 L70.5115,190.5"/>
            <path d="M70.5115,190.5 L70.5115,289.515"/>
            <path d="M70.5115,289.515 L70.5115,289.515"/>
            <path d="M69.85,190.5 L69.85,190.5"/>
            <path d="M69.85,190.5 L69.85,289.515"/>
            <path d="M69.85,289.515 L69.85,290.45"/>
            <path d="M69.85,289.515 L69.85,190.5"/>
            <path d="M69.85,290.45 L64.0292,290.45"/>
            <path d="M64.0292,290.45 L64.0292,190.5"/>
            <path d="M64.0292,290.45 L64.0292,290.45"/>
            <path d="M64.0292,190.5 L69.85,190.5"/>
            <path d="M69.85,190.5 L69.85,290.45"/>
            <path d="M69.85,290.45 L69.85,290.45"/>
            <path d="M69.85,190.5 L69.85,190.5"/>
            <path d="M69.85,190.5 L64.0292,190.5"/>
            <path d="M64.0292,190.5 L64.0292,290.45"/>
            <path d="M64.0292,290.45 L63.5,290.45"/>
            <path d="M63.5,290.45 L63.5,190.5"/>
            <path d="M63.5,290.45 L63.5,290.45"/>
            <path d="M63.5,190.5 L64.0292,190.5"/>
            <path d="M64.0292,190.5 L64.0292,290.45"/>
            <path d="M64.0292,290.45 L64.0292,290.45"/>
            <path d="M64.0292,190.5 L63.5,190.5"/>
            <path d="M63.5,190.5 L63.5,290.45"/>
            <path d="M63.5,290.45 L62.4417,290.45"/>
            <path d="M62.4417,190.5 L63.5,190.5"/>
            <path d="M63.5,190.5 L63.5,290.45"/>
            <path d="M63.5,290.45 L63.5,290.45"/>
            <path d="M62.4417,290.45 L62.4417,190.5"/>
            <path d="M62.4417,290.45 L62.4417,290.45"/>
            <path d="M63.5,190.5 L62.4417,190.5"/>
            <path d="M62.4417,190.5 L62.4417,290.45"/>
            <path d="M63.5,190.5 L63.5,290.45"/>
            <path d="M62.4417,290.45 L58.7375,290.45"/>
            <path d="M58.7375,290.45 L58.7375,290.45"/>
            <path d="M58.7375,290.45 L58.7375,190.5"/>
            <path d="M58.7375,290.45 L58.7375,190.5"/>
            <path d="M58.7375,190.5 L62.4417,190.5"/>
            <path d="M58.7375,190.5 L62.4417,190.5"/>
            <path d="M62.4417,190.5 L62.4417,190.5"/>
            <path d="M62.4417,190.5 L62.4417,290.45"/>
            <path d="M62.4417,190.5 L62.4417,290.45"/>
        </g>
        <g id="product-d8df14fc-3d4e-4e58-9847-17674f4e8307" class="IfcWall material-null projection" ifc:name="Cube" ifc:guid="3OtnJyFKvEM9X75sTFJeC7">
            <path d="M316.971,64.0292 L316.971,64.0291"/>
            <path d="M317.5,63.5 L316.971,64.0291"/>
            <path d="M317.5,63.5 L190.5,63.5"/>
            <path d="M190.5,64.0291 L316.971,64.0291"/>
            <path d="M317.5,63.5 L318.558,62.4417"/>
            <path d="M317.5,63.5 L190.5,63.5"/>
            <path d="M318.558,62.4417 L190.5,62.4416"/>
            <path d="M318.558,62.4417 L322.263,58.7375"/>
            <path d="M318.558,62.4417 L190.5,62.4416"/>
            <path d="M322.263,58.7375 L190.5,58.7374"/>
        </g>
        <g id="product-46af7981-84fa-427d-9902-91ec2e72c8bd" class="IfcWall material-null projection" ifc:name="Cube" ifc:guid="16htc1XFf2VPa2aUmkSiYz">
            <path d="M69.85,91.4855 L70.5115,91.4855"/>
            <path d="M70.5115,91.4855 L70.5115,190.5"/>
            <path d="M70.5115,190.5 L69.85,190.5"/>
            <path d="M69.85,190.5 L69.85,91.4855"/>
            <path d="M69.85,91.4855 L69.85,190.5"/>
            <path d="M69.85,190.5 L69.85,190.5"/>
            <path d="M64.0292,90.5501 L69.85,90.5501"/>
            <path d="M69.85,190.5 L64.0292,190.5"/>
            <path d="M64.0292,190.5 L64.0292,90.5501"/>
            <path d="M69.85,90.5501 L69.85,190.5"/>
            <path d="M64.0292,90.5501 L64.0292,190.5"/>
            <path d="M64.0292,190.5 L69.85,190.5"/>
            <path d="M63.5,90.5501 L64.0292,90.5501"/>
            <path d="M63.5,190.5 L63.5,90.5501"/>
            <path d="M64.0292,90.5501 L64.0292,190.5"/>
            <path d="M64.0292,190.5 L63.5,190.5"/>
            <path d="M63.5,190.5 L63.5,90.5501"/>
            <path d="M63.5,190.5 L64.0292,190.5"/>
            <path d="M62.4417,90.5501 L63.5,90.5501"/>
            <path d="M62.4417,190.5 L62.4417,90.5501"/>
            <path d="M63.5,90.5501 L63.5,190.5"/>
            <path d="M63.5,190.5 L62.4417,190.5"/>
            <path d="M62.4417,190.5 L63.5,190.5"/>
            <path d="M63.5,190.5 L63.5,90.5501"/>
            <path d="M62.4417,190.5 L62.4417,91.4855"/>
            <path d="M58.7375,90.5501 L62.4417,90.5501"/>
            <path d="M58.7375,190.5 L62.4417,190.5"/>
            <path d="M62.4417,190.5 L58.7375,190.5"/>
            <path d="M58.7375,190.5 L58.7375,90.5501"/>
            <path d="M58.7375,190.5 L58.7375,91.4855"/>
            <path d="M62.4417,91.4855 L62.4417,190.5"/>
            <path d="M62.4417,90.5501 L62.4417,190.5"/>
        </g>
        <g id="product-8d8ecc6f-4583-472d-a6b0-ebcfbeed9a6c" class="IfcSlab material-null projection" ifc:name="Cube" ifc:guid="2DZinlHOD7BQQmwy__xPfi">
            <path d="M70.5115,289.515 L70.5115,91.4855"/>
            <path d="M133.35,190.5 L127,190.5"/>
            <path d="M190.5,70.5114 L134.011,70.5114"/>
            <path d="M190.5,69.8499 L190.5,70.5114"/>
            <path d="M190.5,64.0292 L316.971,64.0292"/>
            <path d="M316.971,316.971 L316.971,64.0292"/>
            <path d="M190.5,316.971 L316.971,316.971"/>
            <path d="M190.5,310.489 L190.5,316.971"/>
            <path d="M127,310.489 L190.5,310.489"/>
            <path d="M190.5,311.15 L190.5,311.15"/>
            <path d="M69.85,289.515 L69.85,91.4855"/>
            <path d="M190.5,316.971 L190.5,316.971"/>
            <path d="M64.0292,290.45 L64.0292,190.5"/>
            <path d="M64.0292,290.45 L64.0292,190.5"/>
        </g>
        <g id="product-ee2a1954-b22b-41c3-8882-c374035e0dee" class="IfcWall material-null projection" ifc:name="Cube" ifc:guid="3kAXbKiYj1muY2mtG3NWtk">
            <path d="M316.971,64.0292 L316.971,64.0291"/>
            <path d="M316.971,64.0291 L316.971,190.5"/>
            <path d="M316.971,190.5 L316.971,190.5"/>
            <path d="M317.5,63.4999 L317.5,190.5"/>
            <path d="M317.5,63.4999 L316.971,64.0291"/>
            <path d="M317.5,190.5 L316.971,190.5"/>
            <path d="M316.971,64.0291 L316.971,190.5"/>
            <path d="M318.558,62.4416 L317.5,63.4999"/>
            <path d="M318.558,62.4416 L318.558,190.5"/>
            <path d="M318.558,190.5 L317.5,190.5"/>
            <path d="M317.5,63.4999 L317.5,190.5"/>
            <path d="M318.558,62.4416 L322.263,58.7374"/>
            <path d="M322.263,58.7374 L322.263,190.5"/>
            <path d="M322.263,190.5 L318.558,190.5"/>
            <path d="M318.558,62.4416 L318.558,190.5"/>
        </g>
        <g id="product-ef9dc3e9-f5c0-49b3-b719-af81659c0d9f" class="IfcSlab material-null projection" ifc:name="Cube" ifc:guid="3ldSFfzS19ixSPhu5bd0sV">
            <path d="M127,72.5895 L127,73.7121"/>
            <path d="M46.9636,72.5896 L127,72.5895"/>
            <path d="M46.9636,73.7121 L46.9636,72.5896"/>
            <path d="M127,73.7121 L46.9636,73.7121"/>
            <path d="M127,73.7121 L127,72.5895"/>
            <path d="M127,73.7121 L127,90.55"/>
            <path d="M46.9636,73.7121 L127,73.7121"/>
            <path d="M46.9636,90.5501 L46.9636,73.7121"/>
            <path d="M109.382,90.5501 L52.6154,90.5501"/>
            <path d="M64.0292,91.4855 L64.0292,90.5501"/>
            <path d="M127,91.4855 L64.0292,91.4855"/>
            <path d="M127,90.55 L127,91.4855"/>
            <path d="M64.0292,90.5501 L127,90.55"/>
            <path d="M127,90.55 L127,64.0291"/>
            <path d="M63.5,91.4855 L46.9636,91.4855"/>
            <path d="M63.5,90.5501 L63.5,91.4855"/>
            <path d="M46.9636,91.4855 L46.9636,90.5501"/>
            <path d="M46.9636,90.5501 L63.5,90.5501"/>
            <path d="M46.9636,90.5501 L46.9636,90.5501"/>
            <path d="M46.9636,23.4606 L46.9636,71.4671"/>
            <path d="M127,23.4606 L127,33.4698"/>
            <path d="M127,53.3855 L127,58.7374"/>
            <path d="M46.9636,23.4606 L127,23.4606"/>
            <path d="M46.9636,71.4671 L127,71.467"/>
            <path d="M46.9636,72.5896 L46.9636,71.4671"/>
            <path d="M127,72.5895 L46.9636,72.5896"/>
            <path d="M127,71.467 L127,72.5895"/>
        </g>
        <g id="product-9b68de88-278b-4aa7-bc16-d6b3b1303df2" class="IfcSlab material-null projection" ifc:name="Cube" ifc:guid="2RQDw89ujAfxmMrhEnC3to">
            <path d="M110.464,35.6121 L110.464,34.4895"/>
            <path d="M334.036,35.612 L110.464,35.6121"/>
            <path d="M334.036,34.4895 L334.036,35.612"/>
            <path d="M110.464,34.4895 L334.036,34.4895"/>
            <path d="M110.464,33.4698 L249.984,33.4698"/>
            <path d="M110.464,33.4698 L110.464,33.4698"/>
            <path d="M110.464,52.45 L110.464,35.6121"/>
            <path d="M334.036,52.45 L110.464,52.45"/>
            <path d="M334.036,35.612 L334.036,52.45"/>
            <path d="M110.464,35.6121 L334.036,35.612"/>
            <path d="M334.036,34.4895 L334.036,52.45"/>
            <path d="M110.464,33.4698 L110.464,33.4698"/>
            <path d="M110.464,33.4698 L110.464,52.4501"/>
            <path d="M110.464,52.4501 L334.036,52.45"/>
            <path d="M110.464,53.3855 L110.464,52.4501"/>
            <path d="M334.036,53.3854 L110.464,53.3855"/>
            <path d="M334.036,52.45 L334.036,53.3854"/>
            <path d="M334.036,34.4895 L110.464,34.4895"/>
            <path d="M334.036,33.4698 L334.036,34.4895"/>
            <path d="M110.464,33.4698 L334.036,33.4698"/>
            <path d="M110.464,34.4895 L110.464,33.4698"/>
        </g>
        <g id="product-7f4c2e04-e912-421e-9d9f-7a097ca1f2bb" class="IfcWall material-null projection" ifc:name="Cube" ifc:guid="1$J2u4wH927fsVUWbyeVAx">
            <path d="M127,70.5114 L127,70.5114"/>
            <path d="M127,69.85 L127,69.85"/>
            <path d="M127.529,64.0291 L190.5,64.0291"/>
            <path d="M127.529,69.85 L127.529,64.0291"/>
            <path d="M190.5,69.8499 L127.529,69.85"/>
            <path d="M190.5,64.0291 L190.5,69.8499"/>
            <path d="M127,64.0291 L127,64.0291"/>
            <path d="M127,63.5 L127,63.5"/>
            <path d="M127,63.5 L190.5,63.4999"/>
            <path d="M127,64.0291 L127,63.5"/>
            <path d="M190.5,64.0291 L127,64.0291"/>
            <path d="M190.5,63.4999 L190.5,64.0291"/>
            <path d="M190.5,62.4416 L190.5,63.4999"/>
            <path d="M125.942,62.4416 L190.5,62.4416"/>
            <path d="M125.942,63.4999 L125.942,62.4416"/>
            <path d="M190.5,63.4999 L125.942,63.4999"/>
            <path d="M190.5,58.7374 L190.5,62.4416"/>
            <path d="M122.238,58.7374 L190.5,58.7374"/>
            <path d="M122.238,62.4416 L122.238,58.7374"/>
            <path d="M190.5,62.4416 L122.238,62.4416"/>
        </g>
        <g id="product-97e442c2-2d55-446b-b835-9c1c458632aa" class="IfcWall material-null projection" ifc:name="Cube" ifc:guid="2Nv4B2BLL4QxWrd1n5XZAg">
            <path d="M134.011,190.5 L133.35,190.5"/>
            <path d="M134.011,70.5114 L134.011,190.5"/>
            <path d="M133.35,70.5114 L134.011,70.5114"/>
            <path d="M133.35,190.5 L133.35,70.5114"/>
            <path d="M133.35,190.5 L127.529,190.5"/>
            <path d="M133.35,69.8499 L133.35,190.5"/>
            <path d="M127.529,69.8499 L133.35,69.8499"/>
            <path d="M127.529,190.5 L127.529,69.8499"/>
            <path d="M127.529,64.0291 L127.529,190.5"/>
            <path d="M127,64.0291 L127.529,64.0291"/>
            <path d="M127,190.5 L127,64.0291"/>
            <path d="M127.529,190.5 L127,190.5"/>
            <path d="M125.942,63.4999 L127,63.4999"/>
            <path d="M125.942,72.5895 L125.942,63.4999"/>
            <path d="M127,72.5895 L125.942,72.5895"/>
            <path d="M127,63.4999 L127,72.5895"/>
            <path d="M127,190.5 L125.942,190.5"/>
            <path d="M127,90.55 L127,190.5"/>
            <path d="M125.942,190.5 L125.942,90.5501"/>
            <path d="M125.942,90.5501 L126.588,90.55"/>
            <path d="M122.238,62.4416 L125.942,62.4416"/>
            <path d="M122.238,72.5895 L122.238,62.4416"/>
            <path d="M125.942,72.5895 L122.238,72.5895"/>
            <path d="M125.942,62.4416 L125.942,72.5895"/>
            <path d="M122.238,90.55 L125.942,90.5501"/>
            <path d="M122.238,190.5 L122.238,90.55"/>
            <path d="M125.942,190.5 L122.238,190.5"/>
            <path d="M125.942,90.5501 L125.942,190.5"/>
        </g>
        <g id="product-bd933419-2e92-4186-b35b-13cf4399c256" class="IfcWall material-null projection" ifc:name="Cube" ifc:guid="2zapGPBf91XhDR4yz3cS9M">
            <path d="M63.5,290.45 L63.5,90.5501"/>
            <path d="M62.4417,91.4855 L62.4417,290.45"/>
            <path d="M62.4417,91.4855 L62.4417,290.45"/>
            <path d="M58.7375,91.4855 L58.7375,290.45"/>
        </g>
    <g ifc:guid="3enM6Ss9144fBW6HhG_ten" ifc:name="Cube" class="IfcSlab material-null cut"><path d="M113.51363857587178,345.3880945841471 L110.46369870503743,345.3880945841471"/><path d="M110.46369870503743,345.3880945841471 L110.46370367209116,346.50327761967975"/><path d="M334.0364595254262,346.503218015035 L334.0364595254262,345.3880349795023"/><path d="M113.51363857587178,345.3880945841471 L334.0364595254262,345.3880349795023"/><path d="M334.0364595254262,346.51055932044983 L334.0364595254262,346.503218015035"/><path d="M334.0364595254262,346.51055932044983 L111.91544433434804,346.5106189250946"/><path d="M111.91544433434804,346.5106189250946 L110.46370367209116,346.5106189250946"/><path d="M110.46370367209116,346.50327761967975 L110.46370367209116,346.5106189250946"/><path d="M137.48681545257568,328.5501003265381 L110.46368877092996,328.5501003265381"/><path d="M110.46368877092996,328.5501003265381 L110.46369870503743,345.1308210690816"/><path d="M137.48681545257568,328.5501003265381 L334.0364396572113,328.5500605901082"/><path d="M334.0364595254262,345.1307415962219 L334.0364396572113,328.5500605901082"/><path d="M334.0364595254262,345.3880449136098 L334.0364595254262,345.1307415962219"/><path d="M334.0364595254262,345.3880449136098 L113.51361870765686,345.3880945841471"/><path d="M113.51361870765686,345.3880945841471 L110.46369870503743,345.3881045182546"/><path d="M110.46369870503743,345.1308210690816 L110.46369870503743,345.3881045182546"/><path d="M138.8187011082967,327.6146650314331 L110.46368877092996,327.6146650314331"/><path d="M110.46368877092996,327.6146650314331 L110.46368877092996,328.43637466430664"/><path d="M138.8187011082967,327.6146650314331 L334.0364595254262,327.61462529500324"/><path d="M334.0364595254262,328.4363051255544 L334.0364595254262,327.61462529500324"/><path d="M334.0364595254262,328.5500407218933 L334.0364595254262,328.4363051255544"/><path d="M334.0364595254262,328.5500407218933 L137.4868353207906,328.5501003265381"/><path d="M137.4868353207906,328.5501003265381 L110.46368877092996,328.550120194753"/><path d="M110.46368877092996,328.43637466430664 L110.46368877092996,328.550120194753"/><path d="M110.46370367209116,347.53028551737464 L313.55745593706763,347.53026564915973"/><path d="M110.46370367209116,346.5106089909871 L110.46370367209116,347.53028551737464"/><path d="M111.91544433434804,346.5106089909871 L110.46370367209116,346.5106089909871"/><path d="M334.0364595254262,347.53026564915973 L313.55745593706763,347.53026564915973"/><path d="M334.0364595254262,347.53026564915973 L334.0364595254262,346.51054938634235"/><path d="M111.91544433434804,346.5106089909871 L334.0364595254262,346.51054938634235"/></g><g ifc:guid="25DYs7hzr09O0UCFZ8Ri2b" ifc:name="Cube" class="IfcSlab material-null cut"><path d="M127.00001895427702,308.41051538785297 L70.31306624412537,308.4105352560679"/><path d="M127.00001895427702,308.41051538785297 L127.00001895427702,308.1157108147939"/><path d="M127.00001895427702,308.1157108147939 L127.00001895427702,307.3219358921051"/><path d="M103.3806006113688,307.28800098101294 L127.00001895427702,307.2879910469055"/><path d="M127.00001895427702,307.3219358921051 L127.00001895427702,307.2879910469055"/><path d="M70.31306624412537,308.4105352560679 L46.963671843210854,308.4105352560679"/><path d="M46.963671843210854,307.2880109151204 L103.3806006113688,307.28800098101294"/><path d="M46.963671843210854,307.2880109151204 L46.963671843210854,308.0819447835286"/><path d="M46.963671843210854,308.0819447835286 L46.963671843210854,308.4105352560679"/><path d="M46.963661909103394,302.0353615283966 L46.963671843210854,307.2880208492279"/><path d="M70.66150506337483,307.2880208492279 L46.963671843210854,307.2880208492279"/><path d="M127.00001895427702,307.28800098101294 L70.66150506337483,307.2880208492279"/><path d="M127.00001895427702,307.28800098101294 L127.0000139872233,302.03534166018164"/><path d="M46.963661909103394,290.45002659161884 L46.963661909103394,302.0353615283966"/><path d="M46.963661909103394,290.45002659161884 L99.2379585901896,290.45000672340393"/><path d="M99.2379585901896,290.45000672340393 L127.0000139872233,290.44999678929645"/><path d="M127.0000139872233,302.03534166018164 L127.0000139872233,290.44999678929645"/><path d="M127.0000139872233,290.44999678929645 L79.65522011121114,290.45001665751136"/><path d="M127.0000139872233,290.44999678929645 L127.0000139872233,290.28888543446857"/><path d="M116.79119865099588,289.51457142829895 L127.0000139872233,289.51456149419147"/><path d="M127.0000139872233,290.28888543446857 L127.0000139872233,289.51456149419147"/><path d="M79.65522011121114,290.45001665751136 L69.85000769297281,290.45001665751136"/><path d="M69.85000769297281,289.5145813624064 L116.79119865099588,289.51457142829895"/><path d="M69.85000769297281,289.5145813624064 L69.85000769297281,290.2889053026835"/><path d="M69.85000769297281,290.2889053026835 L69.85000769297281,290.45001665751136"/><path d="M69.96568044026692,309.5330595970154 L46.963671843210854,309.5330695311228"/><path d="M46.963671843210854,309.20936663945514 L46.963671843210854,309.5330695311228"/><path d="M127.00001895427702,309.5330496629079 L69.96568044026692,309.5330595970154"/><path d="M127.00001895427702,309.5330496629079 L127.00001895427702,309.20933683713275"/><path d="M46.963671843210854,308.41054519017536 L46.963671843210854,309.20936663945514"/><path d="M46.963671843210854,308.41054519017536 L103.7289003531138,308.4105352560679"/><path d="M103.7289003531138,308.4105352560679 L127.00001895427702,308.41051538785297"/><path d="M127.00001895427702,309.20933683713275 L127.00001895427702,308.41051538785297"/></g><g ifc:guid="3iyxXCOk183fkE3xZk3TC2" ifc:name="Cube" class="IfcWall material-null cut"><path d="M70.51146030426025,289.51454162597656 L69.96546188990274,289.51454162597656"/><path d="M70.51146030426025,289.51454162597656 L70.51146030426025,190.4999812444051"/><path d="M70.20919521649678,190.49997131029764 L70.51146030426025,190.4999812444051"/><path d="M69.84998782475789,190.49996137619019 L70.20919521649678,190.49997131029764"/><path d="M69.84998782475789,289.51454162597656 L69.84998782475789,190.49996137619019"/><path d="M69.96546188990274,289.51454162597656 L69.84998782475789,289.51454162597656"/><path d="M65.02784291903177,290.44999678929645 L64.0291670958201,290.44999678929645"/><path d="M64.0291670958201,190.49996137619019 L64.0291670958201,290.44999678929645"/><path d="M64.0291670958201,190.49996137619019 L67.18781590461731,190.49996137619019"/><path d="M69.84998782475789,290.44999678929645 L65.02784291903177,290.44999678929645"/><path d="M69.84998782475789,290.44999678929645 L69.84998782475789,190.49997131029764"/><path d="M67.18781590461731,190.49996137619019 L69.84998782475789,190.49997131029764"/><path d="M63.91820311546325,290.44999678929645 L63.49999705950419,290.44999678929645"/><path d="M63.49999705950419,290.44999678929645 L63.49999705950419,190.49996137619019"/><path d="M63.793987035751336,190.49996137619019 L63.49999705950419,190.49996137619019"/><path d="M64.0291670958201,290.44999678929645 L63.91820311546325,290.44999678929645"/><path d="M64.0291670958201,290.44999678929645 L64.0291670958201,190.49996137619019"/><path d="M64.0291670958201,190.49996137619019 L63.793987035751336,190.49996137619019"/><path d="M63.49999705950419,290.44999678929645 L63.27458222707112,290.44999678929645"/><path d="M63.49999705950419,290.44999678929645 L63.49999705950419,190.49996137619019"/><path d="M63.49999705950419,190.49996137619019 L63.029636939366654,190.49996137619019"/><path d="M63.029636939366654,190.49996137619019 L62.44167685508728,190.49996137619019"/><path d="M62.44167685508728,190.49996137619019 L62.44167685508728,290.44999678929645"/><path d="M63.27458222707112,290.44999678929645 L62.44167685508728,290.44999678929645"/><path d="M59.55055356025696,290.44999678929645 L58.737506469090775,290.44999678929645"/><path d="M58.737506469090775,190.49996137619019 L58.737506469090775,290.44999678929645"/><path d="M58.737506469090775,190.49996137619019 L60.79539656639099,190.49996137619019"/><path d="M62.44167685508728,290.44999678929645 L59.55055356025696,290.44999678929645"/><path d="M62.44167685508728,290.44999678929645 L62.44167685508728,190.49997131029764"/><path d="M60.79539656639099,190.49996137619019 L62.44167685508728,190.49997131029764"/></g><g ifc:guid="16htc1XFf2VPa2aUmkSiYz" ifc:name="Cube" class="IfcWall material-null cut"><path d="M69.96860106786092,91.48549040158589 L70.51146030426025,91.48547053337097"/><path d="M70.51146030426025,91.48547053337097 L70.51146030426025,190.49996137619019"/><path d="M70.51146030426025,190.49996137619019 L70.15225291252136,190.49996137619019"/><path d="M69.84998782475789,91.48547053337097 L69.96860106786092,91.48549040158589"/><path d="M69.84998782475789,190.49996137619019 L69.84998782475789,91.48547053337097"/><path d="M70.15225291252136,190.49996137619019 L69.84998782475789,190.49996137619019"/><path d="M64.02915716171265,90.55003523826599 L65.24978081385294,90.55003523826599"/><path d="M64.02915716171265,90.55003523826599 L64.02915716171265,190.49996137619019"/><path d="M66.6913390159607,190.49996137619019 L64.02915716171265,190.49996137619019"/><path d="M69.84998782475789,190.49996137619019 L66.6913390159607,190.49996137619019"/><path d="M69.84998782475789,90.55005510648091 L69.84998782475789,190.49996137619019"/><path d="M65.24978081385294,90.55003523826599 L69.84998782475789,90.55005510648091"/><path d="M63.49998712539672,90.55005510648091 L63.612699508666985,90.55005510648091"/><path d="M63.612699508666985,90.55005510648091 L64.02915716171265,90.55005510648091"/><path d="M63.49998712539672,90.55005510648091 L63.49998712539672,190.49996137619019"/><path d="M64.02915716171265,90.55005510648091 L64.02915716171265,190.4999514420827"/><path d="M64.02915716171265,190.4999514420827 L63.793977101643875,190.4999514420827"/><path d="M63.793977101643875,190.4999514420827 L63.49998712539672,190.49996137619019"/><path d="M62.44166692097981,90.55005510648091 L63.267687956492104,90.55005510648091"/><path d="M63.267687956492104,90.55005510648091 L63.49998712539672,90.55005510648091"/><path d="M62.44166692097981,90.55005510648091 L62.44166692097981,190.49996137619019"/><path d="M63.49998712539672,90.55005510648091 L63.49998712539672,190.4999812444051"/><path d="M63.49998712539672,190.4999812444051 L63.029627005259194,190.49997131029764"/><path d="M63.029627005259194,190.49997131029764 L62.44166692097981,190.49996137619019"/><path d="M58.737496534983315,90.55007497469583 L59.6318244934082,90.55007497469583"/><path d="M58.737496534983315,90.55007497469583 L58.737496534983315,190.49996137619019"/><path d="M60.383776823679604,190.49996137619019 L58.737496534983315,190.49996137619019"/><path d="M62.44166692097981,190.49996137619019 L60.383776823679604,190.49996137619019"/><path d="M62.44166692097981,190.49996137619019 L62.44166692097981,90.55007497469583"/><path d="M59.6318244934082,90.55007497469583 L62.44166692097981,90.55007497469583"/></g><g ifc:guid="2Nv4B2BLL4QxWrd1n5XZAg" ifc:name="Cube" class="IfcWall material-null cut"><path d="M134.01145736376444,190.49996137619019 L133.65547855695087,190.49996137619019"/><path d="M134.01145736376444,190.49996137619019 L134.01145736376444,85.75645089149475"/><path d="M134.01145736376444,85.75645089149475 L134.01145736376444,70.51137089729309"/><path d="M134.01145736376444,70.51137089729309 L133.92741481463113,70.51137089729309"/><path d="M133.65547855695087,190.49996137619019 L133.34998488426208,190.49996137619019"/><path d="M133.92741481463113,70.51137089729309 L133.34998488426208,70.51137089729309"/><path d="M133.34998488426208,70.51137089729309 L133.34998488426208,85.75645089149475"/><path d="M133.34998488426208,85.75645089149475 L133.34998488426208,190.49996137619019"/><path d="M133.34998488426208,85.28704444567362 L133.34998488426208,69.84989841779073"/><path d="M133.34998488426208,69.84989841779073 L132.6052149136861,69.84989841779073"/><path d="M133.34998488426208,190.49996137619019 L133.34998488426208,85.28704444567362"/><path d="M133.34998488426208,190.49996137619019 L130.66025575002033,190.49996137619019"/><path d="M130.66025575002033,190.49996137619019 L127.52915422121683,190.49996137619019"/><path d="M132.6052149136861,69.84989841779073 L127.52915422121683,69.84989841779073"/><path d="M127.52915422121683,69.84989841779073 L127.52915422121683,85.28706431388855"/><path d="M127.52915422121683,85.28706431388855 L127.52915422121683,190.49996137619019"/><path d="M127.36833095550536,64.0290876229604 L127.24096576372781,64.0290876229604"/><path d="M127.24096576372781,64.0290876229604 L127.22490231196085,64.0290876229604"/><path d="M127.52915422121683,64.0290876229604 L127.36833095550536,64.0290876229604"/><path d="M127.52915422121683,75.27916630109151 L127.52915422121683,64.0290876229604"/><path d="M126.99998418490091,75.19919673601785 L126.99998418490091,90.55003523826599"/><path d="M126.99997425079344,72.67170151074727 L126.99997425079344,73.71204098065694"/><path d="M126.99997425079344,73.71204098065694 L126.99998418490091,75.19919673601785"/><path d="M126.99997425079344,72.58952657381693 L126.99997425079344,72.67170151074727"/><path d="M126.99997425079344,72.58952657381693 L126.99997425079344,64.0290876229604"/><path d="M127.22490231196085,64.0290876229604 L126.99997425079344,64.0290876229604"/><path d="M127.52915422121683,190.4999514420827 L127.52915422121683,75.27916630109151"/><path d="M127.52915422121683,190.4999514420827 L127.2625724474589,190.49999117851257"/><path d="M127.2625724474589,190.49999117851257 L127.2420287132263,190.50001104672748"/><path d="M127.2420287132263,190.50001104672748 L127.0000139872233,190.50001104672748"/><path d="M126.99998418490091,90.55003523826599 L127.0000139872233,190.50001104672748"/><path d="M126.9238789876302,72.589506705602 L125.94167391459146,72.58952657381693"/><path d="M125.94167391459146,72.58952657381693 L125.94167391459146,63.499917586644486"/><path d="M126.5223224957784,63.499917586644486 L125.94167391459146,63.499917586644486"/><path d="M126.99997425079344,63.499917586644486 L126.5223224957784,63.499917586644486"/><path d="M126.99997425079344,72.589506705602 L126.99997425079344,63.499917586644486"/><path d="M126.99997425079344,72.589506705602 L126.9238789876302,72.589506705602"/><path d="M127.0000139872233,190.50002098083496 L126.42569343249002,190.50000111262003"/><path d="M126.99997425079344,90.55003523826599 L127.0000139872233,190.50002098083496"/><path d="M126.77454948425292,90.55003523826599 L126.99997425079344,90.55003523826599"/><path d="M125.94167391459146,90.54999550183614 L126.77454948425292,90.55003523826599"/><path d="M125.941663980484,190.49999117851257 L125.94167391459146,90.54999550183614"/><path d="M126.42569343249002,190.50000111262003 L125.941663980484,190.49999117851257"/><path d="M125.67538022994994,72.58952657381693 L122.2374935944875,72.58952657381693"/><path d="M124.07520413398743,62.441637118657425 L122.2374935944875,62.441637118657425"/><path d="M122.2374935944875,72.58952657381693 L122.2374935944875,62.441637118657425"/><path d="M125.94167391459146,72.58952657381693 L125.67538022994994,72.58952657381693"/><path d="M125.94167391459146,72.58952657381693 L125.94167391459146,62.99578150113423"/><path d="M125.94167391459146,62.99578150113423 L125.941663980484,62.441637118657425"/><path d="M125.941663980484,62.441637118657425 L124.07520413398743,62.441637118657425"/><path d="M122.2374935944875,90.54997563362122 L125.15270709991454,90.54999550183614"/><path d="M122.2374935944875,190.49999117851257 L122.2374935944875,90.54997563362122"/><path d="M123.93160661061604,190.49999117851257 L122.2374935944875,190.49999117851257"/><path d="M125.941663980484,190.49999117851257 L123.93160661061604,190.49999117851257"/><path d="M125.941663980484,190.49999117851257 L125.94167391459146,90.54999550183614"/><path d="M125.15270709991454,90.54999550183614 L125.94167391459146,90.54999550183614"/></g><g ifc:guid="3ldSFfzS19ixSPhu5bd0sV" ifc:name="Cube" class="IfcSlab material-null cut"><path d="M46.96362217267354,72.589506705602 L46.96362217267354,72.91921973228455"/><path d="M46.96362217267354,72.589506705602 L116.24625821908315,72.58944710095723"/><path d="M116.24625821908315,72.58944710095723 L121.55844271183014,72.58946696917215"/><path d="M46.96362217267354,72.91921973228455 L46.96362217267354,73.71204098065694"/><path d="M115.61266581217447,73.71200124422708 L46.96362217267354,73.71204098065694"/><path d="M120.8722045024236,73.71200124422708 L115.61266581217447,73.71200124422708"/><path d="M121.55844271183014,72.58946696917215 L126.99997425079344,72.58946696917215"/><path d="M126.99997425079344,73.71200124422708 L120.8722045024236,73.71200124422708"/><path d="M126.99997425079344,73.71200124422708 L126.99997425079344,72.6661185423533"/><path d="M126.99997425079344,72.6661185423533 L126.99997425079344,72.58946696917215"/><path d="M120.43522298336029,73.71198137601216 L126.99997921784718,73.71198137601216"/><path d="M126.99997921784718,75.19913713137308 L126.99997921784718,73.71198137601216"/><path d="M46.96362217267354,73.71204098065694 L46.96362217267354,79.2609949906667"/><path d="M46.96362217267354,73.71204098065694 L115.14648795127869,73.71200124422708"/><path d="M115.14648795127869,73.71200124422708 L120.43522298336029,73.71198137601216"/><path d="M126.99999411900838,90.54997563362122 L126.99997921784718,75.19913713137308"/><path d="M126.99999411900838,90.54997563362122 L113.7950321038564,90.54997563362122"/><path d="M113.7950321038564,90.54997563362122 L64.02913729349771,90.54999550183614"/><path d="M64.02913729349771,90.54999550183614 L63.91817331314086,90.54997563362122"/><path d="M46.96362217267354,79.2609949906667 L46.963632106781006,90.55003523826599"/><path d="M63.49998712539672,90.55001537005106 L63.91817331314086,90.54997563362122"/><path d="M63.49998712539672,90.55001537005106 L59.97788906097412,90.55001537005106"/><path d="M46.963632106781006,90.55003523826599 L59.97788906097412,90.55001537005106"/><path d="M122.23749856154123,91.4854109287262 L79.24432555834451,91.48545066515604"/><path d="M122.23749856154123,91.4854109287262 L122.23749856154123,90.71170290311177"/><path d="M79.24432555834451,91.48545066515604 L69.84996795654297,91.48545066515604"/><path d="M69.84996795654297,90.71174263954163 L69.84996795654297,91.48545066515604"/><path d="M122.23749856154123,90.71170290311177 L122.23749856154123,90.54995576540628"/><path d="M69.84996795654297,90.55001537005106 L69.84996795654297,90.71174263954163"/><path d="M69.84996795654297,90.55001537005106 L78.87311776479085,90.54999550183614"/><path d="M78.87311776479085,90.54999550183614 L122.23749856154123,90.54995576540628"/><path d="M58.737506469090775,91.48545066515604 L58.737506469090775,90.77746669451395"/><path d="M58.737506469090775,91.48545066515604 L55.81125617027283,91.48547053337097"/><path d="M55.884718894958496,90.55001537005106 L58.737506469090775,90.55001537005106"/><path d="M58.737506469090775,90.77746669451395 L58.737506469090775,90.55001537005106"/><path d="M46.963632106781006,91.48547053337097 L55.81125617027283,91.48547053337097"/><path d="M46.963632106781006,90.55003523826599 L55.884718894958496,90.55001537005106"/><path d="M46.963632106781006,90.55003523826599 L46.963632106781006,90.89387456576029"/><path d="M46.963632106781006,90.89387456576029 L46.963632106781006,91.48547053337097"/><path d="M46.96362217267354,71.79179787635803 L46.96362217267354,72.589506705602"/><path d="M114.32404319445291,72.58948683738708 L46.96362217267354,72.589506705602"/><path d="M122.2374935944875,72.58946696917215 L114.32404319445291,72.58948683738708"/><path d="M122.2374935944875,71.57630721728006 L122.2374935944875,72.58946696917215"/><path d="M122.2374935944875,71.46695256233215 L122.2374935944875,71.57630721728006"/><path d="M46.96362217267354,71.466992298762 L46.96362217267354,71.79179787635803"/><path d="M46.96362217267354,71.466992298762 L114.93421097596486,71.46695256233215"/><path d="M114.93421097596486,71.46695256233215 L122.2374935944875,71.46695256233215"/></g><g ifc:guid="1$J2u4wH927fsVUWbyeVAx" ifc:name="Cube" class="IfcWall material-null cut"><path d="M127.52914428710936,69.84993815422058 L127.5291492541631,66.11713767051697"/><path d="M127.52914428710936,69.84993815422058 L161.74184282620746,69.84991828600565"/><path d="M127.5291492541631,66.11713767051697 L127.5291492541631,64.02910749117532"/><path d="M171.36239012082416,64.0290876229604 L127.5291492541631,64.02910749117532"/><path d="M161.74184282620746,69.84991828600565 L190.50000111262003,69.84991828600565"/><path d="M190.50000111262003,69.84991828600565 L190.50000111262003,64.54687317212422"/><path d="M190.50000111262003,64.54687317212422 L190.50000111262003,64.0290876229604"/><path d="M171.36239012082416,64.0290876229604 L190.50000111262003,64.0290876229604"/><path d="M126.99997921784718,64.02910749117532 L126.99998418490091,63.65558505058288"/><path d="M126.99997921784718,64.02910749117532 L171.20157678922016,64.0290876229604"/><path d="M126.99998418490091,63.65558505058288 L126.99998418490091,63.499957323074334"/><path d="M172.08350698153177,63.499917586644486 L126.99998418490091,63.499957323074334"/><path d="M190.50000111262003,64.0290876229604 L171.20157678922016,64.0290876229604"/><path d="M190.50000111262003,64.0290876229604 L190.50000111262003,63.54291240374247"/><path d="M190.50000111262003,63.54291240374247 L190.50000111262003,63.499917586644486"/><path d="M172.08350698153177,63.499917586644486 L190.50000111262003,63.499917586644486"/><path d="M125.9416490793228,63.499917586644486 L125.9416490793228,62.99578150113423"/><path d="M125.9416490793228,63.499917586644486 L126.41929586728413,63.499917586644486"/><path d="M126.4666865269343,62.441637118657425 L125.94164411226907,62.441637118657425"/><path d="M125.9416490793228,62.99578150113423 L125.94164411226907,62.441637118657425"/><path d="M158.99643301963806,62.44159738222758 L126.4666865269343,62.441637118657425"/><path d="M158.99643301963806,62.44159738222758 L160.65964102745056,62.44159738222758"/><path d="M190.50000111262003,62.51995762189229 L190.50000111262003,62.44159738222758"/><path d="M173.84735743204752,62.44159738222758 L190.50000111262003,62.44159738222758"/><path d="M160.65964102745056,62.44159738222758 L173.84735743204752,62.44159738222758"/><path d="M190.50000111262003,63.499917586644486 L190.50000111262003,62.51995762189229"/><path d="M172.08348711331683,63.499917586644486 L190.50000111262003,63.499917586644486"/><path d="M157.49891599019367,63.499917586644486 L172.08348711331683,63.499917586644486"/><path d="M126.41929586728413,63.499917586644486 L126.99993948141733,63.499917586644486"/><path d="M126.99993948141733,63.499917586644486 L155.6595265865326,63.49989771842956"/><path d="M155.6595265865326,63.49989771842956 L157.49891599019367,63.499917586644486"/><path d="M190.50000111262003,58.91488989194234 L190.50000111262003,58.73740712801615"/><path d="M180.02099792162576,58.73740712801615 L190.50000111262003,58.73740712801615"/><path d="M122.2374935944875,60.154487689336136 L122.23748862743378,58.73742699623108"/><path d="M171.7223823070526,58.73740712801615 L180.02099792162576,58.73740712801615"/><path d="M122.23748862743378,58.73742699623108 L123.72428675492604,58.73742699623108"/><path d="M123.72428675492604,58.73742699623108 L170.67575454711914,58.73740712801615"/><path d="M170.67575454711914,58.73740712801615 L171.7223823070526,58.73740712801615"/><path d="M122.23749856154123,62.441617250442505 L122.2374935944875,60.154487689336136"/><path d="M122.23749856154123,62.441617250442505 L124.60023661454518,62.441617250442505"/><path d="M124.60023661454518,62.441617250442505 L158.99646282196045,62.44159738222758"/><path d="M160.6596807638804,62.44159738222758 L158.99646282196045,62.44159738222758"/><path d="M190.50000111262003,62.44159738222758 L190.50000111262003,58.91488989194234"/><path d="M190.50000111262003,62.44159738222758 L173.84737730026245,62.44159738222758"/><path d="M173.84737730026245,62.44159738222758 L160.6596807638804,62.44159738222758"/></g><g ifc:guid="2RQDw89ujAfxmMrhEnC3to" ifc:name="Cube" class="IfcSlab material-null cut"><path d="M330.9863706429799,35.6119970480601 L334.0362807114919,35.6119970480601"/><path d="M334.0362807114919,35.6119970480601 L334.0362807114919,34.49679414431254"/><path d="M110.46355962753296,34.496853748957314 L110.46355962753296,35.612036784489945"/><path d="M330.9863706429799,35.6119970480601 L110.46355962753296,35.612036784489945"/><path d="M110.46355962753296,34.48952237764994 L110.46355962753296,34.496853748957314"/><path d="M110.46355962753296,34.48952237764994 L332.5845698515574,34.489462773005165"/><path d="M332.5845698515574,34.489462773005165 L334.0362807114919,34.489462773005165"/><path d="M334.0362807114919,34.49679414431254 L334.0362807114919,34.489462773005165"/><path d="M121.06291453043619,52.450031042099 L120.73424955209096,52.450031042099"/><path d="M205.77584703763324,52.45001117388407 L121.06291453043619,52.450031042099"/><path d="M205.77584703763324,52.45001117388407 L334.0363005797068,52.449971437454224"/><path d="M334.0363005797068,52.449971437454224 L334.0362807114919,35.86927056312561"/><path d="M120.73424955209096,52.450031042099 L110.46356956164041,52.45001117388407"/><path d="M110.46355962753296,35.86931029955546 L110.46356956164041,52.45001117388407"/><path d="M110.46355962753296,35.612036784489945 L110.46355962753296,35.86931029955546"/><path d="M110.46355962753296,35.612036784489945 L330.9863905111948,35.61197717984517"/><path d="M330.9863905111948,35.61197717984517 L334.0362807114919,35.61197717984517"/><path d="M334.0362807114919,35.86927056312561 L334.0362807114919,35.61197717984517"/><path d="M244.88672614097595,52.449991305669144 L259.1507335503896,52.449971437454224"/><path d="M226.21663411458331,52.449971437454224 L243.31586559613544,52.449971437454224"/><path d="M243.31586559613544,52.449971437454224 L244.88672614097595,52.449991305669144"/><path d="M170.58425148328143,52.449991305669144 L226.21663411458331,52.449971437454224"/><path d="M110.46356459458669,52.45001117388407 L110.46356459458669,52.563776572545365"/><path d="M110.46356459458669,52.45001117388407 L119.30772165457407,52.45001117388407"/><path d="M170.58425148328143,52.449991305669144 L119.30772165457407,52.45001117388407"/><path d="M110.46356459458669,52.563776572545365 L110.46356459458669,53.38544646898905"/><path d="M173.54737718900043,53.38544646898905 L119.74361538887024,53.38546633720398"/><path d="M119.74361538887024,53.38546633720398 L110.46356459458669,53.38544646898905"/><path d="M220.90259194374084,53.38544646898905 L173.54737718900043,53.38544646898905"/><path d="M220.90259194374084,53.38544646898905 L238.8446033000946,53.385426600774124"/><path d="M238.8446033000946,53.385426600774124 L240.49300948778787,53.385426600774124"/><path d="M240.49300948778787,53.385426600774124 L255.4600139458974,53.385406732559204"/><path d="M259.1507335503896,52.449971437454224 L334.0363005797068,52.449991305669144"/><path d="M255.4600139458974,53.385406732559204 L334.0363005797068,53.385426600774124"/><path d="M334.0363005797068,53.385426600774124 L334.0363005797068,52.56371696790059"/><path d="M334.0363005797068,52.56371696790059 L334.0363005797068,52.449991305669144"/><path d="M334.0362807114919,33.469825983047485 L130.94650705655414,33.469825983047485"/><path d="M334.0362807114919,34.489462773005165 L334.0362807114919,33.469825983047485"/><path d="M332.58454998334247,34.489462773005165 L334.0362807114919,34.489462773005165"/><path d="M110.46355962753296,33.469825983047485 L130.94650705655414,33.469825983047485"/><path d="M110.46355962753296,33.469825983047485 L110.46355962753296,34.48952237764994"/><path d="M332.58454998334247,34.489462773005165 L110.46355962753296,34.48952237764994"/></g></g>
</svg>