<svg xmlns="http://www.w3.org/2000/svg" xmlns:xlink="http://www.w3.org/1999/xlink" xmlns:ifc="http://www.ifcopenshell.org/ns" width="355.956mm" height="525.467mm" viewBox="0 0 355.956 525.467">
    <defs>
        <marker id="arrowend" markerWidth="10" markerHeight="7" refX="10" refY="3.5" orient="auto">
          <polygon points="0 0, 10 3.5, 0 7"/>
        </marker>
        <marker id="arrowstart" markerWidth="10" markerHeight="7" refX="0" refY="3.5" orient="auto">
          <polygon points="10 0, 0 3.5, 10 7"/>
        </marker>
    </defs>
    <g ifc:name="Elevation NORTH SECTION" class="section" ifc:plane="[[1.000000,0.000000,0.000000,0.000000],[0.000000,1.000000,0.000000,0.000000],[0.000000,0.000000,1.000000,0.000000],[0.000000,0.000000,0.000000,1.000000]]" ifc:matrix3="[[41.666668,0.000000,115.036581],[0.000000,41.666668,427.833408],[0.000000,0.000000,1.000000]]">
        <g id="product-2e376fdc-4778-4e76-b364-be588bc494c0" class="IfcSlab material-null projection" ifc:name="Cube" ifc:guid="0kDs$SHtXEThDalbYBn9J0">
            <path d="M238.068,427.833 L238.068,427.833"/>
        </g>
        <g id="product-85362d87-afdd-4025-801e-30f8c86ec0a5" class="IfcSlab material-null projection" ifc:name="Cube" ifc:guid="25DYs7hzr09O0UCFZ8Ri2b">
            <path d="M98.5002,148.736 L174.7,148.736"/>
            <path d="M174.7,149.858 L98.5002,149.858"/>
            <path d="M174.7,148.736 L174.7,149.858"/>
            <path d="M174.7,149.858 L174.7,148.736"/>
            <path d="M174.7,147.613 L174.7,148.736"/>
            <path d="M98.5002,148.736 L98.5002,149.858"/>
            <path d="M98.5002,149.858 L98.5002,148.736"/>
            <path d="M98.5002,147.613 L98.5002,148.736"/>
            <path d="M98.5002,149.858 L174.7,149.858"/>
            <path d="M174.7,166.696 L98.5002,166.696"/>
            <path d="M174.7,148.736 L174.7,149.858"/>
            <path d="M174.7,149.858 L174.7,166.696"/>
            <path d="M174.7,149.858 L174.7,166.696"/>
            <path d="M98.5002,149.858 L98.5002,166.696"/>
            <path d="M98.5002,166.696 L98.5002,149.858"/>
            <path d="M98.5002,148.736 L98.5002,149.858"/>
            <path d="M121.387,166.696 L174.7,166.696"/>
            <path d="M174.7,167.632 L121.387,167.632"/>
            <path d="M174.7,149.858 L174.7,166.696"/>
            <path d="M174.7,166.696 L174.7,167.632"/>
            <path d="M174.7,166.696 L174.7,167.632"/>
            <path d="M121.387,166.696 L121.387,167.632"/>
            <path d="M121.387,167.632 L121.387,166.696"/>
            <path d="M121.387,149.858 L121.387,166.696"/>
            <path d="M98.5002,147.613 L174.7,147.613"/>
            <path d="M174.7,148.736 L98.5002,148.736"/>
            <path d="M174.7,147.613 L174.7,148.736"/>
            <path d="M174.7,147.613 L174.7,148.736"/>
            <path d="M174.7,147.613 L174.7,63.2106"/>
            <path d="M174.7,63.2106 L98.5002,63.2106"/>
            <path d="M98.5002,147.613 L98.5002,148.736"/>
            <path d="M98.5002,148.736 L98.5002,147.613"/>
            <path d="M98.5002,63.2106 L98.5002,147.613"/>
        </g>
        <g id="product-445e1497-61bf-4048-920f-0e595b3cd455" class="IfcWall material-null projection" ifc:name="Wall" ifc:guid="14NXINORz0I98F3bbRFDHL">
            <path d="M115.037,434.183 L115.037,434.183"/>
            <path d="M110.803,434.183 L110.803,434.183"/>
            <path d="M115.037,427.833 L115.037,427.833"/>
            <path d="M115.037,427.833 L115.037,427.833"/>
        </g>
        <g id="product-a9327ce8-ee51-40d2-84d4-59c3cf784176" class="IfcWall material-null projection" ifc:name="Cube" ifc:guid="2fCdpexb50qeJKMSFFU45s">
            <path d="M121.387,427.833 L121.387,328.218"/>
            <path d="M121.387,427.833 L121.387,328.218"/>
            <path d="M121.387,427.833 L122.048,427.833"/>
            <path d="M121.387,427.833 L121.387,427.833"/>
            <path d="M122.048,427.833 L122.048,328.218"/>
            <path d="M122.048,328.218 L122.048,427.833"/>
            <path d="M122.048,427.833 L122.048,427.833"/>
            <path d="M122.048,328.218 L121.387,328.218"/>
            <path d="M121.387,328.218 L121.387,328.218"/>
            <path d="M121.387,328.218 L122.048,328.218"/>
            <path d="M122.048,328.218 L122.048,328.218"/>
            <path d="M115.566,427.833 L121.387,427.833"/>
            <path d="M115.566,427.833 L115.566,327.027"/>
            <path d="M115.566,427.833 L115.566,427.833"/>
            <path d="M115.566,427.833 L115.566,327.027"/>
            <path d="M115.566,327.027 L115.566,327.027"/>
            <path d="M115.566,327.027 L121.387,327.027"/>
            <path d="M115.566,327.027 L121.387,327.027"/>
            <path d="M121.387,427.833 L121.387,327.027"/>
            <path d="M121.387,327.027 L121.387,327.027"/>
            <path d="M121.387,327.027 L121.387,427.833"/>
            <path d="M121.387,427.833 L121.387,427.833"/>
            <path d="M115.037,300.833 L115.566,300.833"/>
            <path d="M115.037,300.833 L115.566,300.833"/>
            <path d="M115.037,427.833 L115.566,427.833"/>
            <path d="M115.037,427.833 L115.037,427.833"/>
            <path d="M115.037,427.833 L115.037,300.833"/>
            <path d="M115.037,427.833 L115.037,427.833"/>
            <path d="M115.037,427.833 L115.037,300.833"/>
            <path d="M115.037,300.833 L115.037,300.833"/>
            <path d="M115.566,427.833 L115.566,427.833"/>
            <path d="M115.566,300.833 L115.566,427.833"/>
            <path d="M115.566,300.833 L115.566,300.833"/>
            <path d="M115.566,300.833 L115.566,427.833"/>
            <path d="M113.978,307.183 L115.037,307.183"/>
            <path d="M113.978,307.183 L115.037,307.183"/>
            <path d="M113.978,434.183 L113.978,307.183"/>
            <path d="M113.978,434.183 L113.978,307.183"/>
            <path d="M113.978,307.183 L113.978,307.183"/>
            <path d="M115.037,307.183 L115.037,427.833"/>
            <path d="M115.037,307.183 L115.037,307.183"/>
            <path d="M110.274,307.183 L113.978,307.183"/>
            <path d="M110.803,434.183 L110.274,434.183"/>
            <path d="M110.274,434.183 L110.803,434.183"/>
            <path d="M110.274,307.183 L113.978,307.183"/>
            <path d="M110.274,434.183 L110.274,307.183"/>
            <path d="M110.274,434.183 L110.274,434.183"/>
            <path d="M110.274,434.183 L110.274,307.183"/>
            <path d="M110.274,307.183 L110.274,307.183"/>
            <path d="M113.978,307.183 L113.978,434.183"/>
            <path d="M113.978,307.183 L113.978,307.183"/>
            <path d="M113.978,307.183 L113.978,434.183"/>
        </g>
        <g id="product-bdc6c913-75cb-4171-87c9-26e92334af77" class="IfcRoof material-null projection" ifc:name="Roof" ifc:guid="2zniaJTSj1SOV99kaZDAzt">
            <path d="M250.9,202.159 L174.7,202.159"/>
            <path d="M250.9,129.532 L250.9,202.159"/>
            <path d="M174.7,202.159 L174.7,167.632"/>
            <path d="M174.7,63.2106 L174.7,45.129"/>
        </g>
        <g id="product-ae27d215-a6f3-47d7-8416-37233098fda4" class="IfcWall material-null projection" ifc:name="Wall" ifc:guid="2k9z8LflD7ruGMDoCmcFsa">
            <path d="M238.068,478.633 L238.068,432.067"/>
            <path d="M238.068,478.633 L238.068,478.633"/>
            <path d="M238.068,432.067 L238.068,432.067"/>
            <path d="M123.503,427.833 L123.503,427.833"/>
            <path d="M238.068,427.833 L238.068,432.067"/>
            <path d="M110.803,478.633 L238.068,478.633"/>
            <path d="M110.803,478.633 L110.803,434.183"/>
            <path d="M115.037,427.833 L238.068,427.833"/>
            <path d="M110.803,434.183 L238.068,434.183"/>
            <path d="M115.037,427.833 L115.037,434.183"/>
            <path d="M238.068,478.633 L238.068,434.183"/>
            <path d="M238.068,434.183 L238.068,427.833"/>
            <path d="M238.068,427.833 L238.068,427.833"/>
            <path d="M238.068,427.833 L238.068,427.833"/>
            <path d="M115.037,427.833 L115.037,427.833"/>
            <path d="M110.803,434.183 L110.803,434.183"/>
        </g>
        <g id="product-54803f38-9221-477e-890d-aa85527955c5" class="IfcRoof material-null projection" ifc:name="Roof" ifc:guid="1KW3yuaY57VeaDgeLIULN5">
            <path d="M250.9,129.532 L250.9,109.513"/>
            <path d="M174.7,109.513 L174.7,129.532"/>
            <path d="M174.7,129.532 L250.9,129.532"/>
            <path d="M250.9,109.513 L250.9,109.513"/>
            <path d="M174.7,25.1106 L174.7,25.1106"/>
            <path d="M174.7,25.1106 L174.7,109.513"/>
            <path d="M174.7,109.513 L250.9,109.513"/>
        </g>
        <g id="product-9d66dfea-44da-4277-8954-138d482b2132" class="IfcWall material-null projection" ifc:name="Cube" ifc:guid="2TPj$gHDf2TubK4ur8Ao4o">
            <path d="M123.503,299.907 L123.503,299.907"/>
            <path d="M123.503,299.51 L123.503,203.218"/>
            <path d="M242.037,299.907 L242.037,203.218"/>
            <path d="M123.503,299.907 L242.037,299.907"/>
            <path d="M242.037,203.218 L123.503,203.218"/>
            <path d="M123.503,299.907 L123.503,299.907"/>
            <path d="M123.503,299.51 L123.503,203.218"/>
            <path d="M242.037,300.833 L242.037,202.944"/>
            <path d="M238.068,300.833 L242.037,300.833"/>
            <path d="M242.037,202.944 L174.7,202.944"/>
            <path d="M242.037,300.833 L242.037,300.833"/>
            <path d="M123.503,300.833 L123.503,300.833"/>
        </g>
        <g id="product-ef9dc3e9-f5c0-49b3-b719-af81659c0d9f" class="IfcSlab material-null projection" ifc:name="Cube" ifc:guid="3ldSFfzS19ixSPhu5bd0sV">
            <path d="M98.5002,231.373 L98.5002,113.263"/>
            <path d="M98.5002,231.373 L98.5002,231.373"/>
            <path d="M174.7,73.781 L174.7,73.781"/>
            <path d="M174.7,202.944 L174.7,167.632"/>
            <path d="M174.7,123.133 L174.7,108.39"/>
            <path d="M98.5002,239.792 L98.5002,127.904"/>
            <path d="M98.5002,231.373 L98.5002,239.792"/>
            <path d="M98.5002,239.792 L110.274,239.792"/>
            <path d="M123.503,239.792 L123.503,239.792"/>
            <path d="M174.7,73.8746 L174.7,73.8746"/>
            <path d="M174.7,82.2936 L174.7,82.2936"/>
            <path d="M174.7,82.7613 L174.7,82.7613"/>
            <path d="M174.7,83.2291 L174.7,109.041"/>
            <path d="M174.7,83.2291 L174.7,83.2291"/>
            <path d="M122.048,203.218 L174.7,203.218"/>
            <path d="M174.7,73.2198 L174.7,73.2198"/>
        </g>
        <g id="product-9b68de88-278b-4aa7-bc16-d6b3b1303df2" class="IfcSlab material-null projection" ifc:name="Cube" ifc:guid="2RQDw89ujAfxmMrhEnC3to">
            <path d="M174.7,202.159 L174.7,202.159"/>
            <path d="M174.7,25.1106 L174.7,25.1105"/>
            <path d="M174.7,25.1106 L174.7,25.1105"/>
            <path d="M174.7,25.1105 L174.7,25.1105"/>
            <path d="M208.49,25.1105 L250.9,25.1105"/>
            <path d="M250.9,25.1106 L250.9,25.1105"/>
        </g>
        <g id="product-a8583bc2-8cdc-4098-a457-337638c476fd" class="IfcWall material-null projection" ifc:name="Cube" ifc:guid="2eM3l2ZDn0cAHNCtOun7Rz">
            <path d="M123.503,203.218 L123.503,299.51"/>
            <path d="M123.503,299.907 L123.503,299.907"/>
            <path d="M123.503,203.218 L122.048,203.218"/>
            <path d="M122.048,299.907 L123.503,299.907"/>
            <path d="M122.048,167.632 L122.048,299.907"/>
            <path d="M122.048,299.907 L121.387,299.907"/>
            <path d="M123.503,299.907 L123.503,299.907"/>
            <path d="M123.503,299.51 L123.503,203.218"/>
            <path d="M115.566,300.833 L115.566,300.833"/>
            <path d="M115.037,300.833 L115.037,300.833"/>
            <path d="M113.978,307.183 L113.978,307.183"/>
            <path d="M123.503,300.833 L123.503,300.833"/>
            <path d="M113.978,307.183 L113.978,307.183"/>
            <path d="M110.274,307.183 L110.274,307.183"/>
        </g>
        <g id="product-8d8ecc6f-4583-472d-a6b0-ebcfbeed9a6c" class="IfcSlab material-null projection" ifc:name="Cube" ifc:guid="2DZinlHOD7BQQmwy__xPfi">
            <path d="M122.048,299.51 L238.068,299.51"/>
            <path d="M238.068,299.907 L122.048,299.907"/>
            <path d="M238.068,299.907 L238.068,299.907"/>
            <path d="M238.068,299.51 L238.068,299.51"/>
            <path d="M238.068,299.51 L238.068,299.907"/>
            <path d="M238.068,299.907 L238.068,299.51"/>
            <path d="M238.068,299.51 L122.048,299.51"/>
            <path d="M238.068,299.907 L122.048,299.907"/>
            <path d="M122.048,299.51 L122.048,299.51"/>
            <path d="M122.048,299.907 L122.048,299.907"/>
            <path d="M122.048,299.907 L122.048,299.51"/>
            <path d="M121.387,300.701 L238.068,300.701"/>
            <path d="M238.068,300.833 L121.387,300.833"/>
            <path d="M238.068,300.833 L238.068,300.833"/>
            <path d="M238.068,300.701 L238.068,300.701"/>
            <path d="M238.068,300.701 L238.068,300.833"/>
            <path d="M238.068,300.833 L238.068,300.701"/>
            <path d="M238.068,300.701 L121.387,300.701"/>
            <path d="M238.068,300.833 L121.387,300.833"/>
            <path d="M121.387,300.701 L121.387,300.701"/>
            <path d="M121.387,300.833 L121.387,300.833"/>
            <path d="M121.387,300.833 L121.387,300.701"/>
            <path d="M121.387,299.907 L238.068,299.907"/>
            <path d="M238.068,300.701 L121.387,300.701"/>
            <path d="M238.068,300.701 L238.068,300.701"/>
            <path d="M238.068,299.907 L238.068,299.907"/>
            <path d="M238.068,299.907 L238.068,300.701"/>
            <path d="M238.068,300.701 L238.068,299.907"/>
            <path d="M238.068,300.701 L121.387,300.701"/>
            <path d="M121.387,299.907 L121.387,299.907"/>
            <path d="M121.387,300.701 L121.387,300.701"/>
            <path d="M121.387,300.701 L121.387,299.907"/>
            <path d="M121.387,327.027 L238.068,327.027"/>
            <path d="M238.068,327.556 L121.387,327.556"/>
            <path d="M238.068,327.556 L238.068,327.556"/>
            <path d="M238.068,327.027 L238.068,327.027"/>
            <path d="M238.068,327.027 L238.068,327.556"/>
            <path d="M238.068,327.556 L238.068,327.027"/>
            <path d="M238.068,327.027 L121.387,327.027"/>
            <path d="M238.068,327.556 L121.387,327.556"/>
            <path d="M121.387,327.027 L121.387,327.027"/>
            <path d="M121.387,327.027 L121.387,327.027"/>
            <path d="M121.387,327.556 L121.387,327.556"/>
            <path d="M121.387,327.556 L121.387,327.027"/>
            <path d="M115.566,300.833 L238.068,300.833"/>
            <path d="M238.068,301.627 L115.566,301.627"/>
            <path d="M238.068,300.833 L238.068,301.627"/>
            <path d="M238.068,301.627 L238.068,301.627"/>
            <path d="M238.068,300.833 L238.068,300.833"/>
            <path d="M238.068,301.627 L238.068,300.833"/>
            <path d="M238.068,300.833 L115.566,300.833"/>
            <path d="M238.068,301.627 L115.566,301.627"/>
            <path d="M115.566,301.627 L115.566,301.627"/>
            <path d="M115.566,301.627 L115.566,300.833"/>
            <path d="M115.566,300.833 L115.566,300.833"/>
            <path d="M115.566,301.627 L238.068,301.627"/>
            <path d="M238.068,327.027 L115.566,327.027"/>
            <path d="M238.068,327.027 L238.068,327.027"/>
            <path d="M238.068,301.627 L238.068,301.627"/>
            <path d="M238.068,301.627 L238.068,327.027"/>
            <path d="M238.068,327.027 L238.068,301.627"/>
            <path d="M238.068,301.627 L115.566,301.627"/>
            <path d="M121.387,327.027 L115.566,327.027"/>
            <path d="M115.566,301.627 L115.566,301.627"/>
            <path d="M115.566,327.027 L115.566,327.027"/>
            <path d="M115.566,327.027 L115.566,301.627"/>
            <path d="M121.387,328.218 L121.387,327.556"/>
            <path d="M121.387,327.556 L121.387,327.556"/>
            <path d="M121.387,327.556 L238.068,327.556"/>
            <path d="M121.387,327.556 L238.068,327.556"/>
            <path d="M238.068,328.218 L121.387,328.218"/>
            <path d="M121.387,328.218 L121.387,328.218"/>
            <path d="M121.387,328.218 L238.068,328.218"/>
            <path d="M238.068,328.218 L238.068,328.218"/>
            <path d="M238.068,327.556 L238.068,328.218"/>
            <path d="M238.068,327.556 L238.068,327.556"/>
            <path d="M238.068,327.556 L238.068,328.218"/>
        </g>
        <g id="product-e8c5619c-d890-4412-92e0-191ad0fb7a31" class="IfcSlab material-null projection" ifc:name="Cube" ifc:guid="3enM6Ss9144fBW6HhG_ten">
            <path d="M250.9,111.758 L174.7,111.758"/>
            <path d="M174.7,111.758 L174.7,110.636"/>
            <path d="M250.9,110.636 L250.9,111.758"/>
            <path d="M250.9,111.758 L250.9,111.758"/>
            <path d="M174.7,110.636 L250.9,110.636"/>
            <path d="M250.9,109.513 L250.9,110.636"/>
            <path d="M250.9,128.596 L174.7,128.596"/>
            <path d="M174.7,128.596 L174.7,111.758"/>
            <path d="M250.9,111.758 L250.9,128.596"/>
            <path d="M250.9,111.758 L250.9,128.596"/>
            <path d="M174.7,111.758 L250.9,111.758"/>
            <path d="M250.9,110.636 L250.9,111.758"/>
            <path d="M250.9,129.532 L174.7,129.532"/>
            <path d="M174.7,129.532 L174.7,128.596"/>
            <path d="M250.9,128.596 L250.9,129.532"/>
            <path d="M250.9,129.532 L250.9,128.596"/>
            <path d="M250.9,128.596 L250.9,111.758"/>
            <path d="M174.7,128.596 L250.9,128.596"/>
            <path d="M250.9,110.636 L174.7,110.636"/>
            <path d="M174.7,110.636 L174.7,109.513"/>
            <path d="M250.9,109.513 L250.9,110.636"/>
            <path d="M250.9,110.636 L250.9,109.513"/>
            <path d="M174.7,109.513 L250.9,109.513"/>
            <path d="M250.9,109.513 L250.9,25.1105"/>
            <path d="M174.7,109.513 L174.7,25.1105"/>
            <path d="M250.9,25.1105 L250.9,25.1105"/>
            <path d="M212.8,25.1105 L174.7,25.1105"/>
        </g>
        <g id="product-69dd3656-38ac-4b0b-af07-1fb0fb76169c" class="IfcWall material-null projection" ifc:name="Cube" ifc:guid="1ftJPMEAnB2wy77x3xTXQS">
            <path d="M121.387,299.907 L121.387,167.632"/>
            <path d="M121.387,299.907 L121.387,167.632"/>
            <path d="M121.387,299.907 L122.048,299.907"/>
            <path d="M122.048,299.907 L121.387,299.907"/>
            <path d="M121.387,299.907 L121.387,299.907"/>
            <path d="M122.048,299.907 L122.048,299.907"/>
            <path d="M122.048,299.907 L122.048,167.632"/>
            <path d="M122.048,167.632 L122.048,299.907"/>
            <path d="M121.387,167.632 L121.387,166.696"/>
            <path d="M121.387,167.632 L122.048,167.632"/>
            <path d="M122.048,167.632 L122.048,167.632"/>
            <path d="M115.566,300.833 L121.387,300.833"/>
            <path d="M121.387,300.833 L115.566,300.833"/>
            <path d="M115.566,300.833 L115.566,300.833"/>
            <path d="M115.566,300.833 L115.566,166.696"/>
            <path d="M115.566,300.833 L115.566,166.696"/>
            <path d="M115.566,166.696 L115.566,166.696"/>
            <path d="M115.566,166.696 L121.387,166.696"/>
            <path d="M121.387,166.696 L121.387,300.833"/>
            <path d="M121.387,300.833 L121.387,300.833"/>
            <path d="M121.387,167.632 L121.387,300.833"/>
            <path d="M115.037,166.696 L115.566,166.696"/>
            <path d="M115.037,300.833 L115.566,300.833"/>
            <path d="M115.566,300.833 L115.037,300.833"/>
            <path d="M115.037,300.833 L115.037,300.833"/>
            <path d="M115.037,300.833 L115.037,166.696"/>
            <path d="M115.037,149.858 L115.037,166.696"/>
            <path d="M115.037,300.833 L115.037,166.696"/>
            <path d="M115.566,300.833 L115.566,166.696"/>
            <path d="M115.566,166.696 L115.566,149.858"/>
            <path d="M115.566,166.696 L115.566,300.833"/>
            <path d="M115.566,300.833 L115.566,300.833"/>
            <path d="M113.978,307.183 L115.037,307.183"/>
            <path d="M115.037,307.183 L113.978,307.183"/>
            <path d="M113.978,166.696 L115.037,166.696"/>
            <path d="M113.978,307.183 L113.978,307.183"/>
            <path d="M113.978,307.183 L113.978,166.696"/>
            <path d="M113.978,149.858 L113.978,166.696"/>
            <path d="M113.978,307.183 L113.978,166.696"/>
            <path d="M115.037,307.183 L115.037,166.696"/>
            <path d="M115.037,166.696 L115.037,149.858"/>
            <path d="M115.037,166.696 L115.037,307.183"/>
            <path d="M115.037,307.183 L115.037,307.183"/>
            <path d="M113.978,166.696 L113.978,307.183"/>
            <path d="M110.274,166.696 L113.978,166.696"/>
            <path d="M113.978,149.858 L113.978,166.696"/>
            <path d="M113.978,307.183 L113.978,307.183"/>
            <path d="M113.978,307.183 L110.274,307.183"/>
            <path d="M113.978,307.183 L110.274,307.183"/>
            <path d="M113.978,307.183 L113.978,166.696"/>
            <path d="M110.274,307.183 L110.274,307.183"/>
            <path d="M110.274,307.183 L110.274,166.696"/>
            <path d="M110.274,149.858 L110.274,166.696"/>
            <path d="M110.274,307.183 L110.274,166.696"/>
        </g>
        <g id="product-d8df14fc-3d4e-4e58-9847-17674f4e8307" class="IfcWall material-null projection" ifc:name="Cube" ifc:guid="3OtnJyFKvEM9X75sTFJeC7">
            <path d="M242.037,427.833 L123.503,427.833"/>
            <path d="M242.037,427.833 L242.037,328.218"/>
            <path d="M123.503,427.833 L123.503,328.218"/>
            <path d="M242.037,328.218 L123.503,328.218"/>
            <path d="M123.503,328.218 L123.503,328.218"/>
            <path d="M123.503,327.556 L123.503,327.556"/>
            <path d="M238.068,327.027 L242.037,327.027"/>
            <path d="M242.037,328.218 L242.037,327.027"/>
            <path d="M123.503,301.627 L123.503,301.627"/>
            <path d="M238.068,300.833 L242.037,300.833"/>
            <path d="M242.037,300.833 L242.037,327.027"/>
            <path d="M242.037,427.833 L242.037,434.183"/>
            <path d="M238.068,434.183 L242.037,434.183"/>
        </g>
        <g id="product-bd933419-2e92-4186-b35b-13cf4399c256" class="IfcWall material-null projection" ifc:name="Cube" ifc:guid="2zapGPBf91XhDR4yz3cS9M">
            <path d="M123.503,427.833 L123.503,328.218"/>
            <path d="M123.503,427.833 L122.048,427.833"/>
            <path d="M122.048,328.218 L122.048,328.218"/>
            <path d="M121.387,427.833 L121.387,427.833"/>
            <path d="M122.048,427.833 L122.048,328.218"/>
            <path d="M122.048,328.218 L122.048,328.218"/>
            <path d="M122.048,328.218 L122.048,328.218"/>
            <path d="M122.048,328.218 L123.503,328.218"/>
            <path d="M122.048,328.218 L122.048,328.218"/>
            <path d="M123.503,328.218 L123.503,328.218"/>
            <path d="M123.503,327.556 L123.503,327.556"/>
            <path d="M115.566,427.833 L115.566,427.833"/>
            <path d="M121.387,427.833 L121.387,427.833"/>
            <path d="M123.503,301.627 L123.503,301.627"/>
            <path d="M110.274,307.183 L110.274,307.183"/>
        </g>
    <g ifc:guid="0kDs$SHtXEThDalbYBn9J0" ifc:name="Cube" class="IfcSlab material-null cut"><path d="M139.99710088194163,434.18337901433307 L238.06786144992464,434.18337901433307"/><path d="M238.06786144992464,438.4167194366455 L221.57401447714122,438.4167194366455"/><path d="M238.06786144992464,438.4167194366455 L238.06786144992464,434.79285637537635"/><path d="M238.06786144992464,434.79285637537635 L238.06786144992464,434.18337901433307"/><path d="M221.57401447714122,438.4167194366455 L123.50325390915825,438.4167194366455"/><path d="M123.50325390915825,434.18337901433307 L139.99710088194163,434.18337901433307"/><path d="M123.50325390915825,434.18337901433307 L123.50325390915825,437.8072420756022"/><path d="M123.50325390915825,437.8072420756022 L123.50325390915825,438.4167194366455"/><path d="M139.99710088194163,432.0667187372843 L238.06786144992464,432.0667187372843"/><path d="M238.06786144992464,434.18337901433307 L221.57401447714122,434.18337901433307"/><path d="M238.06786144992464,434.18337901433307 L238.06786144992464,432.37145741780597"/><path d="M238.06786144992464,432.37145741780597 L238.06786144992464,432.0667187372843"/><path d="M221.57401447714122,434.18337901433307 L123.50325390915825,434.18337901433307"/><path d="M123.50325390915825,432.0667187372843 L139.99710088194163,432.0667187372843"/><path d="M123.50325390915825,432.0667187372843 L123.50325390915825,433.8786403338114"/><path d="M123.50325390915825,433.8786403338114 L123.50325390915825,434.18337901433307"/><path d="M238.06786144992464,428.48217487335205 L238.06786144992464,427.83338824907935"/><path d="M120.32823369126274,427.83338824907935 L120.32823369126274,431.4179221789042"/><path d="M120.32823369126274,427.83338824907935 L138.37274516841524,427.83338824907935"/><path d="M138.37274516841524,427.83338824907935 L238.06786144992464,427.83338824907935"/><path d="M120.32823369126274,431.4179221789042 L120.32823369126274,432.0667187372843"/><path d="M238.06786144992464,432.0667187372843 L238.06786144992464,428.48217487335205"/><path d="M238.06786144992464,432.0667187372843 L220.02334997277214,432.0667187372843"/><path d="M220.02334997277214,432.0667187372843 L120.32823369126274,432.0667187372843"/></g><g ifc:guid="14NXINORz0I98F3bbRFDHL" ifc:name="Wall" class="IfcWall material-null cut"><path d="M123.50326881031944,478.6333839098612 L123.50326881031944,465.2249813079834"/><path d="M123.50326881031944,478.6333839098612 L122.89379641632988,478.6333839098612"/><path d="M122.89379641632988,478.6333839098612 L121.38660356621696,478.6333839098612"/><path d="M121.38660356621696,478.6333839098612 L121.38660356621696,465.2249813079834"/><path d="M121.38660356621696,465.2249813079834 L121.38660356621696,432.0667187372843"/><path d="M123.50326881031944,465.2249813079834 L123.50326881031944,432.0667187372843"/><path d="M123.50326881031944,432.0667187372843 L122.89379641632988,432.0667187372843"/><path d="M122.89379641632988,432.0667187372843 L121.38660356621696,432.0667187372843"/><path d="M115.03658299864087,434.18337901433307 L115.03658299864087,429.66179052988684"/><path d="M115.03658299864087,434.18337901433307 L113.81764317771547,434.18337901433307"/><path d="M120.32824859242393,432.0667187372843 L120.32824859242393,430.84776401519775"/><path d="M121.38660356621696,465.2249813079834 L121.38660356621696,432.0667187372843"/><path d="M121.38660356621696,432.0667187372843 L121.08185991864158,432.0667187372843"/><path d="M121.08185991864158,432.0667187372843 L120.32824859242393,432.0667187372843"/><path d="M113.81764317771547,434.18337901433307 L110.8032674115971,434.18337901433307"/><path d="M110.8032674115971,446.9823042551676 L110.8032674115971,434.18337901433307"/><path d="M115.03658299864087,429.66179052988684 L115.03658299864087,427.8333783149719"/><path d="M120.32824859242393,430.84776401519775 L120.32824859242393,427.8333783149719"/><path d="M120.32824859242393,427.8333783149719 L118.80456512392315,427.8333783149719"/><path d="M118.80456512392315,427.8333783149719 L115.03658299864087,427.8333783149719"/><path d="M121.38660356621696,478.6333839098612 L121.38660356621696,465.2249813079834"/><path d="M121.38660356621696,478.6333839098612 L118.3392366292154,478.6333839098612"/><path d="M118.3392366292154,478.6333839098612 L110.8032674115971,478.6333839098612"/><path d="M110.8032674115971,478.6333839098612 L110.8032674115971,446.9823042551676"/></g><g ifc:guid="25DYs7hzr09O0UCFZ8Ri2b" ifc:name="Cube" class="IfcSlab material-null cut"><path d="M174.7002463064666,148.735910654068 L174.7002463064666,149.2893397808075"/><path d="M137.1328890842274,148.735910654068 L174.7002463064666,148.735910654068"/><path d="M174.7002463064666,149.2893397808075 L174.7002463064666,149.85844492912292"/><path d="M135.93690201859428,149.858425060908 L174.7002463064666,149.85844492912292"/><path d="M98.50023791413261,148.73589078585306 L137.1328890842274,148.735910654068"/><path d="M98.50023791413261,149.858425060908 L135.93690201859428,149.858425060908"/><path d="M98.50023791413261,149.858425060908 L98.50023791413261,149.28930004437763"/><path d="M98.50023791413261,149.28930004437763 L98.50023791413261,148.73589078585306"/><path d="M132.07034374496095,166.69643918673196 L174.70024133941286,166.69643918673196"/><path d="M137.26357475142433,149.85844492912292 L174.7002463064666,149.85846479733783"/><path d="M174.7002463064666,149.85846479733783 L174.7002463064666,157.73138403892517"/><path d="M174.7002463064666,157.73138403892517 L174.70024133941286,166.69643918673196"/><path d="M98.50023791413261,149.858425060908 L137.26357475142433,149.85844492912292"/><path d="M98.50023791413261,166.69641931851703 L132.07034374496095,166.69643918673196"/><path d="M98.50023791413261,166.69641931851703 L98.50023791413261,158.88187289237976"/><path d="M98.50023791413261,158.88187289237976 L98.50023791413261,149.858425060908"/><path d="M137.34187041939052,167.63187448183695 L174.70024133941286,167.63187448183695"/><path d="M158.68309741438182,166.69643918673196 L174.70024133941286,166.69643918673196"/><path d="M174.70024133941286,166.69643918673196 L174.70024133941286,166.97640220324197"/><path d="M174.70024133941286,166.97640220324197 L174.70024133941286,167.63187448183695"/><path d="M121.38658369800203,166.69641931851703 L158.68309741438182,166.69643918673196"/><path d="M121.38658369800203,167.63187448183695 L137.34187041939052,167.63187448183695"/><path d="M121.38658369800203,167.63187448183695 L121.38658369800203,166.97638233502704"/><path d="M121.38658369800203,166.97638233502704 L121.38658369800203,166.69641931851703"/><path d="M137.00308755259468,147.61339624722797 L174.7002463064666,147.61339624722797"/><path d="M174.7002463064666,147.61339624722797 L174.7002463064666,148.16873272260028"/><path d="M174.7002463064666,148.16873272260028 L174.7002463064666,148.7359305222829"/><path d="M136.06759513637178,148.735910654068 L174.7002463064666,148.7359305222829"/><path d="M98.50023791413261,147.61337637901306 L137.00308755259468,147.61339624722797"/><path d="M98.50023791413261,148.735910654068 L136.06759513637178,148.735910654068"/><path d="M98.50023791413261,148.735910654068 L98.50023791413261,148.16869298617044"/><path d="M98.50023791413261,148.16869298617044 L98.50023791413261,147.61337637901306"/></g><g ifc:guid="2fCdpexb50qeJKMSFFU45s" ifc:name="Cube" class="IfcWall material-null cut"><path d="M121.85756966690971,427.8333783149719 L121.38656879684083,427.8333783149719"/><path d="M121.38656879684083,427.8333783149719 L121.38656879684083,356.901079416275"/><path d="M122.048026375182,427.8333783149719 L121.85756966690971,427.8333783149719"/><path d="M122.048026375182,427.8333783149719 L122.048026375182,399.1500635941823"/><path d="M121.38656879684083,356.901079416275 L121.38656879684083,328.2177696625391"/><path d="M122.048026375182,399.1500635941823 L122.048026375182,328.2177696625391"/><path d="M122.048026375182,328.2177696625391 L121.85756966690971,328.2177696625391"/><path d="M121.85756966690971,328.2177696625391 L121.38656879684083,328.2177696625391"/><path d="M119.71052095513298,427.8333783149719 L115.56573316674186,427.8333783149719"/><path d="M115.56573316674186,398.8072375456492 L115.56573316674186,427.8333783149719"/><path d="M115.56573316674186,327.0271370808283 L115.56573316674186,398.8072375456492"/><path d="M119.71052095513298,327.0271370808283 L115.56573316674186,327.0271370808283"/><path d="M121.38656879684083,327.0271370808283 L119.71052095513298,327.0271370808283"/><path d="M121.38656879684083,427.8333783149719 L119.71052095513298,427.8333783149719"/><path d="M121.38656879684083,427.8333783149719 L121.38656879684083,398.8072375456492"/><path d="M121.38656879684083,398.8072375456492 L121.38656879684083,327.0271370808283"/><path d="M115.18893743774049,427.8333783149719 L115.03656809747967,427.8333783149719"/><path d="M115.41336879353477,300.8333717783292 L115.03656809747967,300.8333717783292"/><path d="M115.03656809747967,300.8333717783292 L115.03656809747967,391.26500487327576"/><path d="M115.03656809747967,391.26500487327576 L115.03656809747967,427.8333783149719"/><path d="M115.56573813379559,300.8333717783292 L115.41336879353477,300.8333717783292"/><path d="M115.56573813379559,427.8333783149719 L115.18893743774049,427.8333783149719"/><path d="M115.56573813379559,427.8333783149719 L115.56573813379559,337.4017427364985"/><path d="M115.56573813379559,337.4017427364985 L115.56573813379559,300.8333717783292"/><path d="M114.28297167242322,434.18337901433307 L113.97823299190156,434.18337901433307"/><path d="M114.73182941695802,307.18337992827094 L113.97823299190156,307.18337992827094"/><path d="M113.97823299190156,307.18337992827094 L113.97823299190156,397.6150155067444"/><path d="M113.97823299190156,397.6150155067444 L113.97823299190156,434.18337901433307"/><path d="M115.03656809747967,307.18337992827094 L114.73182941695802,307.18337992827094"/><path d="M115.03656809747967,434.18337901433307 L114.28297167242322,434.18337901433307"/><path d="M115.03656809747967,434.18337901433307 L115.03656809747967,343.7517533699671"/><path d="M115.03656809747967,343.7517533699671 L115.03656809747967,307.18337992827094"/><path d="M111.3406430206771,434.18337901433307 L110.2740675729588,434.18337901433307"/><path d="M112.91165754418327,307.18337992827094 L110.2740675729588,307.18337992827094"/><path d="M110.2740675729588,307.18337992827094 L110.2740675729588,397.6150155067444"/><path d="M110.2740675729588,397.6150155067444 L110.2740675729588,434.18337901433307"/><path d="M113.97823299190156,307.18337992827094 L112.91165754418327,307.18337992827094"/><path d="M113.97823299190156,434.18337901433307 L111.3406430206771,434.18337901433307"/><path d="M113.97823299190156,434.18337901433307 L113.97823299190156,343.7517533699671"/><path d="M113.97823299190156,343.7517533699671 L113.97823299190156,307.18337992827094"/></g><g ifc:guid="1ftJPMEAnB2wy77x3xTXQS" ifc:name="Cube" class="IfcWall material-null cut"><path d="M121.85756966690971,299.90734408299124 L121.38656879684083,299.90734408299124"/><path d="M121.38656879684083,299.90734408299124 L121.38656879684083,230.0222391883532"/><path d="M122.048026375182,299.90734408299124 L121.85756966690971,299.90734408299124"/><path d="M122.048026375182,299.90734408299124 L122.048026375182,230.0222391883532"/><path d="M121.38656879684083,230.0222391883532 L121.38656879684083,167.63187448183695"/><path d="M122.048026375182,230.0222391883532 L122.048026375182,167.63187448183695"/><path d="M122.048026375182,167.63187448183695 L121.85756966690971,167.63187448183695"/><path d="M121.85756966690971,167.63187448183695 L121.38656879684083,167.63187448183695"/><path d="M119.71052095513298,300.8333717783292 L115.56573316674186,300.8333717783292"/><path d="M115.56573316674186,229.62276885906854 L115.56573316674186,300.8333717783292"/><path d="M115.56573316674186,166.69641931851703 L115.56573316674186,229.62276885906854"/><path d="M119.71051598807924,166.69641931851703 L115.56573316674186,166.69641931851703"/><path d="M121.38656879684083,300.8333717783292 L119.71052095513298,300.8333717783292"/><path d="M121.38656879684083,300.8333717783292 L121.38656879684083,229.62276885906854"/><path d="M121.38656879684083,229.62276885906854 L121.38656879684083,166.69641931851703"/><path d="M121.38656879684083,166.69641931851703 L119.71051598807924,166.69641931851703"/><path d="M115.18893743774049,300.8333717783292 L115.03656809747967,300.8333717783292"/><path d="M115.03656809747967,166.69641931851703 L115.18893743774049,166.69641931851703"/><path d="M115.03656809747967,166.69641931851703 L115.03656809747967,229.62276885906854"/><path d="M115.03656809747967,229.62276885906854 L115.03656809747967,300.8333717783292"/><path d="M115.18893743774049,166.69641931851703 L115.56573813379559,166.69641931851703"/><path d="M115.56573813379559,300.8333717783292 L115.18893743774049,300.8333717783292"/><path d="M115.56573813379559,300.8333717783292 L115.56573813379559,229.62276885906854"/><path d="M115.56573813379559,166.69641931851703 L115.56573813379559,229.62276885906854"/><path d="M114.28297167242322,307.18337992827094 L113.97823299190156,307.18337992827094"/><path d="M113.97823299190156,166.69641931851703 L114.73182941695802,166.69641931851703"/><path d="M113.97823299190156,166.69641931851703 L113.97823299190156,231.45120094219843"/><path d="M113.97823299190156,231.45120094219843 L113.97823299190156,307.18337992827094"/><path d="M114.73182941695802,166.69641931851703 L115.03656809747967,166.69641931851703"/><path d="M115.03656809747967,307.18337992827094 L114.28297167242322,307.18337992827094"/><path d="M115.03656809747967,307.18337992827094 L115.03656809747967,231.45120094219843"/><path d="M115.03656809747967,166.69641931851703 L115.03656809747967,231.45120094219843"/><path d="M113.97823299190156,166.69641931851703 L113.97823299190156,231.45120094219843"/><path d="M112.91165754418327,166.69641931851703 L113.97823299190156,166.69641931851703"/><path d="M113.97823299190156,307.18337992827094 L113.97823299190156,231.45120094219843"/><path d="M113.97823299190156,307.18337992827094 L111.34064798773083,307.18337992827094"/><path d="M111.34064798773083,307.18337992827094 L110.2740675729588,307.18337992827094"/><path d="M110.2740675729588,166.69641931851703 L112.91165754418327,166.69641931851703"/><path d="M110.2740675729588,166.69641931851703 L110.2740675729588,231.45120094219843"/><path d="M110.2740675729588,231.45120094219843 L110.2740675729588,307.18337992827094"/></g><g ifc:guid="2DZinlHOD7BQQmwy__xPfi" ifc:name="Cube" class="IfcSlab material-null cut"><path d="M139.2524302524403,299.5104665557543 L238.06786144992464,299.5104665557543"/><path d="M238.06786144992464,299.90734408299124 L220.8634675067738,299.90734408299124"/><path d="M238.06786144992464,299.90734408299124 L238.06786144992464,299.848494430383"/><path d="M238.06786144992464,299.848494430383 L238.06786144992464,299.5104665557543"/><path d="M220.8634675067738,299.90734408299124 L122.04803630928947,299.90734408299124"/><path d="M122.04803630928947,299.5104665557543 L139.2524302524403,299.5104665557543"/><path d="M122.04803630928947,299.5104665557543 L122.04803630928947,299.56932614247"/><path d="M122.04803630928947,299.56932614247 L122.04803630928947,299.90734408299124"/><path d="M138.91396527708324,300.7010991374651 L238.06786144992464,300.7010991374651"/><path d="M238.06786144992464,300.8333817124367 L220.54046993673595,300.8333817124367"/><path d="M238.06786144992464,300.8333817124367 L238.06786144992464,300.7209673523903"/><path d="M238.06786144992464,300.7209673523903 L238.06786144992464,300.7010991374651"/><path d="M220.54046993673595,300.8333817124367 L121.38657376389457,300.8333817124367"/><path d="M121.38657376389457,300.7010991374651 L138.91396527708324,300.7010991374651"/><path d="M121.38657376389457,300.7010991374651 L121.38657376389457,300.8135035634041"/><path d="M121.38657376389457,300.8135035634041 L121.38657376389457,300.8333817124367"/><path d="M138.91396527708324,299.90734408299124 L238.06786144992464,299.90734408299124"/><path d="M238.06786144992464,300.7010991374651 L220.54046993673595,300.7010991374651"/><path d="M238.06786144992464,300.7010991374651 L238.06786144992464,300.0265831748644"/><path d="M238.06786144992464,300.0265831748644 L238.06786144992464,299.90734408299124"/><path d="M220.54046993673595,300.7010991374651 L121.38657376389457,300.7010991374651"/><path d="M121.38657376389457,299.90734408299124 L138.91396527708324,299.90734408299124"/><path d="M121.38657376389457,299.90734408299124 L121.38657376389457,300.58186004559195"/><path d="M121.38657376389457,300.58186004559195 L121.38657376389457,300.7010991374651"/><path d="M138.91396527708324,327.0271370808283 L238.06786144992464,327.0271370808283"/><path d="M238.06786144992464,327.55630711714423 L220.54046993673595,327.55630711714423"/><path d="M238.06786144992464,327.55630711714423 L238.06786144992464,327.1066298087438"/><path d="M238.06786144992464,327.1066298087438 L238.06786144992464,327.0271370808283"/><path d="M220.54046993673595,327.55630711714423 L121.38657376389457,327.55630711714423"/><path d="M121.38657376389457,327.0271370808283 L138.91396527708324,327.0271370808283"/><path d="M121.38657376389457,327.0271370808283 L121.38657376389457,327.4768143892288"/><path d="M121.38657376389457,327.4768143892288 L121.38657376389457,327.55630711714423"/><path d="M135.93966370046886,300.8333916465441 L238.06786144992464,300.8333916465441"/><path d="M238.06786144992464,301.62713676691055 L217.6939408503051,301.62713676691055"/><path d="M238.06786144992464,301.62713676691055 L238.06786144992464,300.9653960665067"/><path d="M238.06786144992464,300.9653960665067 L238.06786144992464,300.8333916465441"/><path d="M217.6939408503051,301.62713676691055 L115.56574310084932,301.62713676691055"/><path d="M115.56574310084932,300.8333916465441 L135.93966370046886,300.8333916465441"/><path d="M115.56574310084932,300.8333916465441 L115.56574310084932,301.4951224128405"/><path d="M115.56574310084932,301.4951224128405 L115.56574310084932,301.62713676691055"/><path d="M135.9396537663614,301.62713676691055 L238.06786144992464,301.62713676691055"/><path d="M238.06786144992464,327.0271370808283 L217.6939408503051,327.0271370808283"/><path d="M238.06786144992464,327.0271370808283 L238.06786144992464,305.8515340089798"/><path d="M238.06786144992464,305.8515340089798 L238.06786144992464,301.62713676691055"/><path d="M217.6939408503051,327.0271370808283 L115.56573316674186,327.0271370808283"/><path d="M115.56573316674186,301.62713676691055 L135.9396537663614,301.62713676691055"/><path d="M115.56573316674186,301.62713676691055 L115.56573316674186,322.80273735523224"/><path d="M115.56573316674186,322.80273735523224 L115.56573316674186,327.0271370808283"/><path d="M121.38657376389457,327.5563170512517 L121.38657376389457,328.11840871969855"/><path d="M121.38657376389457,327.5563170512517 L138.91396527708324,327.5563170512517"/><path d="M121.38657376389457,328.11840871969855 L121.38657376389457,328.2177696625391"/><path d="M220.54046993673595,328.2177696625391 L121.38657376389457,328.2177696625391"/><path d="M138.91396527708324,327.5563170512517 L238.06786144992464,327.5563170512517"/><path d="M238.06786144992464,328.2177696625391 L220.54046993673595,328.2177696625391"/><path d="M238.06786144992464,328.2177696625391 L238.06786144992464,327.6556779940923"/><path d="M238.06786144992464,327.6556779940923 L238.06786144992464,327.5563170512517"/></g><g ifc:guid="2k9z8LflD7ruGMDoCmcFsa" ifc:name="Wall" class="IfcWall material-null cut"/><g ifc:guid="1KW3yuaY57VeaDgeLIULN5" ifc:name="Roof" class="IfcRoof material-null cut"><path d="M174.7002463064666,129.53181068102518 L209.94323099872224,129.5318305492401 L250.90028450112297,129.53185041745502 L250.90028450112297,118.77201994260152 L250.90028450112297,109.51335231463113 L209.94323099872224,109.51335231463113 L174.7002463064666,109.51333244641621 L174.7002463064666,118.77201994260152 Z"/></g><g ifc:guid="3enM6Ss9144fBW6HhG_ten" ifc:name="Cube" class="IfcSlab material-null cut"><path d="M250.9003540398752,110.63584685325623 L174.70034068048747,110.63578724861145"/><path d="M250.9003540398752,111.75838112831116 L250.9003540398752,110.63584685325623"/><path d="M174.70034068048747,110.63578724861145 L174.70034068048747,111.7583413918813"/><path d="M250.9003540398752,111.75838112831116 L174.70034068048747,111.7583413918813"/><path d="M250.9003540398752,111.75838112831116 L174.70034068048747,111.75832152366638"/><path d="M250.90034410576774,128.5963753859202 L250.9003540398752,111.75838112831116"/><path d="M174.70034068048747,111.75832152366638 L174.70034068048747,128.59631578127542"/><path d="M250.90034410576774,128.5963753859202 L174.70034068048747,128.59631578127542"/><path d="M250.9003540398752,110.63584685325623 L174.70034068048747,110.63580711682637"/><path d="M250.9003540398752,128.5963753859202 L174.70034068048747,128.59631578127542"/><path d="M250.9003540398752,129.53181068102518 L250.9003540398752,128.5963753859202"/><path d="M174.70034068048747,128.59631578127542 L174.70034068048747,129.5317510763804"/><path d="M250.9003540398752,129.53181068102518 L174.70034068048747,129.5317510763804"/><path d="M174.70034068048747,109.51327284177144 L174.70034068048747,110.63580711682637"/><path d="M250.9003540398752,109.51333244641621 L174.70034068048747,109.51327284177144"/><path d="M250.9003540398752,110.63584685325623 L250.9003540398752,109.51333244641621"/></g></g>
</svg>