<svg xmlns="http://www.w3.org/2000/svg" xmlns:xlink="http://www.w3.org/1999/xlink" xmlns:ifc="http://www.ifcopenshell.org/ns" width="635mm" height="533.712mm" viewBox="0 0 635 533.712">
    <defs>
        <marker id="arrowend" markerWidth="10" markerHeight="7" refX="10" refY="3.5" orient="auto">
          <polygon points="0 0, 10 3.5, 0 7"/>
        </marker>
        <marker id="arrowstart" markerWidth="10" markerHeight="7" refX="0" refY="3.5" orient="auto">
          <polygon points="10 0, 0 3.5, 10 7"/>
        </marker>
    </defs>
    <g ifc:name="Elevation SECTION - WEST - BUTTED ROOF_layers" class="section" ifc:plane="[[1.000000,0.000000,0.000000,0.000000],[0.000000,1.000000,0.000000,0.000000],[0.000000,0.000000,1.000000,0.000000],[0.000000,0.000000,0.000000,1.000000]]" ifc:matrix3="[[41.666668,0.000000,190.500003],[0.000000,41.666668,431.955841],[0.000000,0.000000,1.000000]]">
        <g id="product-d0d891f6-24f8-45ee-bba3-0e1d6711372e" class="IfcWall material-null predefinedtype-ELEMENTEDWALL projection" ifc:name="Wall" ifc:guid="3Gs97s9FX5xhkZ3Xrd4JSk">
            <path d="M438.15,436.189 L436.033,436.189"/>
            <path d="M438.15,436.189 L438.15,436.189"/>
            <path d="M438.15,482.756 L438.15,436.189"/>
            <path d="M438.15,436.189 L436.033,436.189"/>
            <path d="M438.15,436.189 L438.15,482.756"/>
            <path d="M436.033,436.189 L436.033,436.189"/>
            <path d="M436.033,436.189 L436.033,482.756"/>
            <path d="M436.033,436.189 L436.033,436.189"/>
            <path d="M436.033,442.539 L436.033,482.756"/>
            <path d="M436.033,482.756 L438.15,482.756"/>
            <path d="M438.15,482.756 L438.15,482.756"/>
            <path d="M436.033,482.756 L438.15,482.756"/>
            <path d="M436.033,482.756 L436.033,482.756"/>
            <path d="M444.5,438.306 L444.5,431.956"/>
            <path d="M444.5,431.956 L444.5,431.956"/>
            <path d="M444.5,431.956 L439.208,431.956"/>
            <path d="M439.208,431.956 L439.208,431.956"/>
            <path d="M439.208,431.956 L439.208,436.189"/>
            <path d="M444.5,438.306 L444.5,438.306"/>
            <path d="M448.733,438.306 L444.5,438.306"/>
            <path d="M448.733,438.306 L448.733,438.306"/>
            <path d="M448.733,482.756 L448.733,438.306"/>
            <path d="M443.971,431.956 L444.5,431.956"/>
            <path d="M444.5,431.956 L444.5,438.306"/>
            <path d="M444.5,438.306 L448.733,438.306"/>
            <path d="M448.733,438.306 L448.733,482.756"/>
            <path d="M448.733,482.756 L448.733,482.756"/>
            <path d="M448.733,482.756 L438.15,482.756"/>
            <path d="M438.15,482.756 L448.733,482.756"/>
            <path d="M439.208,436.189 L438.15,436.189"/>
            <path d="M439.208,436.189 L438.15,436.189"/>
            <path d="M439.208,436.189 L439.208,436.189"/>
            <path d="M438.15,436.189 L438.15,482.756"/>
            <path d="M438.15,482.756 L438.15,482.756"/>
            <path d="M438.15,436.189 L438.15,436.189"/>
            <path d="M438.15,436.189 L438.15,436.189"/>
        </g>
        <g id="product-ae27d215-a6f3-47d7-8416-37233098fda4" class="IfcWall material-null predefinedtype-ELEMENTEDWALL projection" ifc:name="Wall" ifc:guid="2k9z8LflD7ruGMDoCmcFsa">
            <path d="M196.85,482.756 L196.85,436.189"/>
            <path d="M196.85,482.756 L196.85,436.189"/>
            <path d="M198.967,436.189 L198.967,482.756"/>
            <path d="M198.967,482.756 L198.967,468.104"/>
            <path d="M198.967,436.189 L198.967,436.189"/>
            <path d="M198.967,482.756 L196.85,482.756"/>
            <path d="M196.85,482.756 L196.85,482.756"/>
            <path d="M198.967,482.756 L196.85,482.756"/>
            <path d="M198.967,482.756 L198.967,482.756"/>
            <path d="M198.967,436.189 L196.85,436.189"/>
            <path d="M196.85,436.189 L196.85,436.189"/>
            <path d="M196.85,436.189 L198.967,436.189"/>
            <path d="M198.967,436.189 L198.967,436.189"/>
            <path d="M196.85,482.756 L186.267,482.756"/>
            <path d="M196.85,482.756 L196.85,482.756"/>
            <path d="M196.85,436.189 L196.85,482.756"/>
            <path d="M195.792,431.956 L195.792,436.189"/>
            <path d="M190.5,438.306 L190.5,431.956"/>
            <path d="M196.85,482.756 L186.267,482.756"/>
            <path d="M195.792,436.189 L196.85,436.189"/>
            <path d="M196.85,436.189 L196.85,436.189"/>
            <path d="M195.792,436.189 L195.792,436.189"/>
            <path d="M189.442,438.306 L186.267,438.306"/>
            <path d="M186.267,438.306 L190.5,438.306"/>
            <path d="M190.5,438.306 L190.5,438.306"/>
            <path d="M195.792,436.189 L195.792,431.956"/>
            <path d="M196.85,436.189 L196.85,431.956"/>
            <path d="M195.792,436.189 L196.85,436.189"/>
            <path d="M186.267,482.756 L186.267,438.306"/>
            <path d="M186.267,482.756 L186.267,482.756"/>
            <path d="M186.267,482.756 L186.267,438.306"/>
            <path d="M186.267,438.306 L186.267,438.306"/>
            <path d="M196.85,431.956 L195.792,431.956"/>
            <path d="M196.85,431.956 L196.85,431.956"/>
            <path d="M190.5,431.956 L190.5,431.956"/>
            <path d="M190.5,431.956 L195.792,431.956"/>
            <path d="M195.792,431.956 L195.792,431.956"/>
            <path d="M190.5,431.956 L190.5,438.306"/>
            <path d="M190.5,438.306 L196.85,438.306"/>
            <path d="M190.5,431.956 L191.029,431.956"/>
        </g>
        <g id="product-476b1527-9c27-47cb-93e9-6a0894831a55" class="IfcWall material-null predefinedtype-ELEMENTEDWALL projection" ifc:name="Wall" ifc:guid="17QnKdd2T7ovFfQWYKWnfL">
            <path d="M438.15,482.756 L438.15,436.189"/>
            <path d="M198.967,482.756 L198.967,436.189"/>
            <path d="M198.967,482.756 L438.15,482.756"/>
            <path d="M438.15,436.189 L438.15,436.189"/>
            <path d="M436.033,436.189 L198.967,436.189"/>
            <path d="M448.733,482.756 L196.85,482.756"/>
            <path d="M448.733,482.756 L448.733,438.306"/>
            <path d="M439.208,436.189 L438.15,436.189"/>
            <path d="M436.033,436.189 L198.967,436.189"/>
            <path d="M196.85,436.189 L196.85,436.189"/>
            <path d="M448.733,438.306 L448.733,438.306"/>
            <path d="M448.733,438.306 L448.733,438.306"/>
            <path d="M439.208,436.189 L439.208,431.956"/>
            <path d="M196.85,431.956 L196.85,431.956"/>
            <path d="M196.85,482.756 L196.85,436.189"/>
        </g>
        <g id="product-85362d87-afdd-4025-801e-30f8c86ec0a5" class="IfcSlab material-null predefinedtype-ROOF projection" ifc:name="Cube" ifc:guid="25DYs7hzr09O0UCFZ8Ri2b">
            <path d="M317.501,68.4549 L318.061,69.0174"/>
            <path d="M151.022,234.934 L317.501,68.4549"/>
            <path d="M318.061,69.0174 L151.583,235.495"/>
            <path d="M317.5,69.5781 L151.583,235.495"/>
            <path d="M318.061,69.0174 L317.785,68.7406"/>
            <path d="M317.5,68.4555 L151.022,234.934"/>
            <path d="M151.022,234.934 L151.022,234.934"/>
            <path d="M151.583,235.495 L151.022,234.934"/>
            <path d="M151.583,235.495 L151.583,235.495"/>
            <path d="M151.583,235.495 L151.022,234.934"/>
            <path d="M317.51,69.5684 L325.909,78.0067"/>
            <path d="M321.709,73.7867 L325.909,78.0067"/>
            <path d="M151.583,235.495 L317.51,69.5684"/>
            <path d="M317.5,69.5781 L151.583,235.495"/>
            <path d="M325.909,78.0067 L160.002,243.914"/>
            <path d="M243.021,160.895 L160.002,243.914"/>
            <path d="M151.583,235.495 L151.583,235.495"/>
            <path d="M160.002,243.914 L151.583,235.495"/>
            <path d="M160.002,243.914 L160.002,243.914"/>
            <path d="M160.002,243.914 L151.583,235.495"/>
            <path d="M317.501,86.4155 L317.967,86.8843"/>
            <path d="M196.85,207.066 L317.501,86.4155"/>
            <path d="M317.967,86.8843 L196.85,208.001"/>
            <path d="M317.5,87.3515 L196.85,208.001"/>
            <path d="M317.967,86.8843 L317.735,86.6508"/>
            <path d="M317.5,86.4161 L196.85,207.066"/>
            <path d="M196.85,207.066 L196.85,207.066"/>
            <path d="M196.85,208.001 L196.85,207.066"/>
            <path d="M196.85,208.001 L196.85,208.001"/>
            <path d="M196.85,208.001 L196.85,207.066"/>
            <path d="M317.501,67.3323 L318.061,67.8949"/>
            <path d="M317.501,67.3323 L318.061,67.8949"/>
            <path d="M317.501,67.3323 L150.461,234.372"/>
            <path d="M150.461,234.372 L317.501,67.3323"/>
            <path d="M317.501,67.3323 L317.501,67.3323"/>
            <path d="M150.461,234.372 L151.022,234.934"/>
            <path d="M151.022,234.934 L150.461,234.372"/>
            <path d="M150.461,234.372 L150.461,234.372"/>
            <path d="M318.061,67.8949 L151.022,234.934"/>
            <path d="M151.022,234.934 L151.022,234.934"/>
            <path d="M317.5,68.4555 L151.022,234.934"/>
        </g>
        <g id="product-5afe24e6-b053-4d21-8629-9a17b632780b" class="IfcWall material-null predefinedtype-ELEMENTEDWALL projection" ifc:name="Cube" ifc:guid="1Q$YJci5DD8OOfcXUsCdWB">
            <path d="M196.85,431.956 L197.512,431.956"/>
            <path d="M197.512,431.956 L196.85,431.956"/>
            <path d="M196.85,431.956 L196.85,332.34"/>
            <path d="M196.85,431.956 L196.85,431.956"/>
            <path d="M196.85,431.956 L196.85,332.34"/>
            <path d="M197.512,431.956 L197.512,332.34"/>
            <path d="M197.512,332.34 L197.512,431.956"/>
            <path d="M197.512,431.956 L197.512,431.956"/>
            <path d="M196.85,332.34 L196.85,332.34"/>
            <path d="M196.85,332.34 L196.85,332.34"/>
            <path d="M196.85,332.34 L197.512,332.34"/>
            <path d="M191.029,431.956 L196.85,431.956"/>
            <path d="M196.85,431.956 L191.029,431.956"/>
            <path d="M191.029,431.956 L191.029,331.15"/>
            <path d="M191.029,431.956 L191.029,431.956"/>
            <path d="M191.029,431.956 L191.029,331.15"/>
            <path d="M191.029,331.15 L191.029,331.15"/>
            <path d="M191.029,331.15 L196.85,331.15"/>
            <path d="M191.029,331.15 L196.85,331.15"/>
            <path d="M196.85,431.956 L196.85,431.956"/>
            <path d="M196.85,331.15 L196.85,331.15"/>
            <path d="M196.85,331.15 L196.85,331.15"/>
            <path d="M196.85,331.15 L196.85,431.956"/>
            <path d="M190.5,311.306 L191.029,311.306"/>
            <path d="M190.5,311.306 L191.029,311.306"/>
            <path d="M190.5,431.956 L191.029,431.956"/>
            <path d="M191.029,431.956 L190.5,431.956"/>
            <path d="M190.5,431.956 L190.5,311.306"/>
            <path d="M190.5,431.956 L190.5,431.956"/>
            <path d="M190.5,431.956 L190.5,311.306"/>
            <path d="M190.5,311.306 L190.5,311.306"/>
            <path d="M191.029,431.956 L191.029,431.956"/>
            <path d="M191.029,311.306 L191.029,431.956"/>
            <path d="M189.442,438.306 L190.5,438.306"/>
            <path d="M190.5,438.306 L189.442,438.306"/>
            <path d="M189.442,311.306 L190.5,311.306"/>
            <path d="M189.442,311.306 L190.5,311.306"/>
            <path d="M189.442,438.306 L189.442,311.306"/>
            <path d="M189.442,438.306 L189.442,438.306"/>
            <path d="M189.442,438.306 L189.442,311.306"/>
            <path d="M189.442,311.306 L189.442,311.306"/>
            <path d="M190.5,438.306 L190.5,438.306"/>
            <path d="M190.5,311.306 L190.5,311.306"/>
            <path d="M190.5,311.306 L190.5,438.306"/>
            <path d="M185.738,311.306 L189.442,311.306"/>
            <path d="M189.442,438.306 L185.738,438.306"/>
            <path d="M185.738,438.306 L186.267,438.306"/>
            <path d="M185.738,311.306 L189.442,311.306"/>
            <path d="M185.738,438.306 L185.738,311.306"/>
            <path d="M185.738,438.306 L185.738,438.306"/>
            <path d="M185.738,438.306 L185.738,311.306"/>
            <path d="M185.738,311.306 L185.738,311.306"/>
            <path d="M189.442,438.306 L189.442,438.306"/>
            <path d="M189.442,311.306 L189.442,311.306"/>
            <path d="M189.442,311.306 L189.442,438.306"/>
        </g>
        <g id="product-ecf3b84c-62e0-480e-9b8e-0fb8ee0dd302" class="IfcWall material-null predefinedtype-ELEMENTEDWALL projection" ifc:name="Cube" ifc:guid="3iyxXCOk183fkE3xZk3TC2">
            <path d="M317.5,87.3515 L197.544,207.308"/>
            <path d="M317.5,87.3516 L317.5,303.633"/>
            <path d="M317.5,303.633 L317.5,87.3516"/>
            <path d="M289.333,115.518 L197.544,207.308"/>
            <path d="M197.544,207.308 L197.544,303.633"/>
            <path d="M197.544,304.03 L197.544,304.03"/>
            <path d="M317.5,86.416 L237.375,166.541"/>
            <path d="M317.5,87.3516 L317.5,303.633"/>
            <path d="M196.85,207.066 L196.85,207.989"/>
            <path d="M196.85,208.001 L196.85,304.956"/>
            <path d="M317.5,86.416 L223.249,180.667"/>
            <path d="M196.85,207.066 L191.029,212.887"/>
            <path d="M317.5,87.3516 L317.5,303.633"/>
            <path d="M317.5,304.956 L317.5,304.956"/>
            <path d="M191.029,212.887 L191.029,305.75"/>
            <path d="M191.029,212.887 L190.5,213.416"/>
            <path d="M191.029,311.306 L190.5,311.306"/>
            <path d="M190.5,213.416 L190.5,311.306"/>
            <path d="M189.442,214.474 L190.5,213.416"/>
            <path d="M190.5,311.306 L189.442,311.306"/>
            <path d="M189.442,311.306 L189.442,214.474"/>
            <path d="M189.442,214.474 L190.5,213.416"/>
        </g>
        <g id="product-d8df14fc-3d4e-4e58-9847-17674f4e8307" class="IfcWall material-null predefinedtype-ELEMENTEDWALL projection" ifc:name="Cube" ifc:guid="3OtnJyFKvEM9X75sTFJeC7">
            <path d="M437.489,332.34 L438.15,332.34"/>
            <path d="M438.15,332.34 L438.15,332.34"/>
            <path d="M438.15,332.34 L438.15,431.956"/>
            <path d="M438.15,431.956 L437.489,431.956"/>
            <path d="M438.15,431.956 L438.15,431.956"/>
            <path d="M437.489,431.956 L437.489,332.34"/>
            <path d="M437.489,332.34 L437.489,332.34"/>
            <path d="M437.489,431.956 L437.489,431.956"/>
            <path d="M437.489,332.34 L437.489,431.956"/>
            <path d="M437.489,431.956 L438.15,431.956"/>
            <path d="M438.15,431.956 L438.15,332.34"/>
            <path d="M437.489,332.34 L438.15,332.34"/>
            <path d="M438.15,331.15 L443.971,331.15"/>
            <path d="M438.15,431.956 L438.15,331.15"/>
            <path d="M438.15,331.15 L438.15,331.15"/>
            <path d="M443.971,431.956 L438.15,431.956"/>
            <path d="M438.15,431.956 L438.15,431.956"/>
            <path d="M443.971,331.15 L443.971,431.956"/>
            <path d="M443.971,431.956 L443.971,431.956"/>
            <path d="M443.971,331.15 L443.971,331.15"/>
            <path d="M438.15,431.956 L443.971,431.956"/>
            <path d="M443.971,431.956 L443.971,331.15"/>
            <path d="M443.971,331.15 L438.15,331.15"/>
            <path d="M438.15,332.34 L438.15,331.15"/>
            <path d="M443.971,311.306 L444.5,311.306"/>
            <path d="M444.5,431.956 L443.971,431.956"/>
            <path d="M444.5,431.956 L444.5,431.956"/>
            <path d="M444.5,311.306 L444.5,311.306"/>
            <path d="M444.5,311.306 L444.5,431.956"/>
            <path d="M444.5,431.956 L444.5,431.956"/>
            <path d="M444.5,431.956 L444.5,311.306"/>
            <path d="M444.5,311.306 L443.971,311.306"/>
            <path d="M443.971,431.956 L443.971,431.956"/>
            <path d="M443.971,431.956 L443.971,311.306"/>
            <path d="M443.971,311.306 L443.971,311.306"/>
            <path d="M443.971,331.15 L443.971,311.306"/>
            <path d="M444.5,311.306 L445.558,311.306"/>
            <path d="M444.5,438.306 L444.5,311.306"/>
            <path d="M444.5,311.306 L444.5,311.306"/>
            <path d="M445.558,438.306 L444.5,438.306"/>
            <path d="M444.5,438.306 L444.5,438.306"/>
            <path d="M445.558,311.306 L445.558,438.306"/>
            <path d="M445.558,438.306 L445.558,438.306"/>
            <path d="M445.558,311.306 L445.558,311.306"/>
            <path d="M444.5,431.956 L444.5,438.306"/>
            <path d="M445.558,438.306 L445.558,311.306"/>
            <path d="M444.5,311.306 L445.558,311.306"/>
            <path d="M445.558,438.306 L445.558,311.306"/>
            <path d="M445.558,311.306 L445.558,311.306"/>
            <path d="M445.558,311.306 L449.263,311.306"/>
            <path d="M449.263,438.306 L445.558,438.306"/>
            <path d="M445.558,438.306 L445.558,438.306"/>
            <path d="M449.263,311.306 L449.263,438.306"/>
            <path d="M449.263,438.306 L449.263,438.306"/>
            <path d="M449.263,311.306 L449.263,311.306"/>
            <path d="M448.733,438.306 L449.263,438.306"/>
            <path d="M449.263,438.306 L449.263,311.306"/>
            <path d="M445.558,311.306 L449.263,311.306"/>
        </g>
        <g id="product-2e376fdc-4778-4e76-b364-be588bc494c0" class="IfcSlab material-null predefinedtype-BASESLAB projection" ifc:name="Cube" ifc:guid="0kDs$SHtXEThDalbYBn9J0">
            <path d="M198.967,442.539 L198.967,438.306"/>
            <path d="M198.967,438.306 L436.033,438.306"/>
            <path d="M198.967,438.306 L198.967,438.306"/>
            <path d="M436.033,438.306 L436.033,438.306"/>
            <path d="M436.033,438.306 L436.033,442.539"/>
            <path d="M198.967,438.306 L198.967,442.539"/>
            <path d="M436.033,438.306 L436.033,442.539"/>
            <path d="M198.967,438.306 L436.033,438.306"/>
            <path d="M436.033,442.539 L198.967,442.539"/>
            <path d="M198.967,442.539 L198.967,442.539"/>
            <path d="M436.033,442.539 L198.967,442.539"/>
            <path d="M436.033,442.539 L436.033,442.539"/>
            <path d="M436.033,438.306 L198.967,438.306"/>
            <path d="M198.967,438.306 L198.967,438.306"/>
            <path d="M198.967,438.306 L198.967,436.189"/>
            <path d="M198.967,436.189 L436.033,436.189"/>
            <path d="M198.967,436.189 L198.967,436.189"/>
            <path d="M436.033,438.306 L436.033,438.306"/>
            <path d="M436.033,436.189 L436.033,436.189"/>
            <path d="M436.033,436.189 L436.033,438.306"/>
            <path d="M198.967,436.189 L198.967,438.306"/>
            <path d="M198.967,438.306 L436.033,438.306"/>
            <path d="M436.033,438.306 L436.033,436.189"/>
            <path d="M198.967,436.189 L436.033,436.189"/>
            <path d="M195.792,436.189 L195.792,431.956"/>
            <path d="M439.208,436.189 L195.792,436.189"/>
            <path d="M195.792,436.189 L195.792,436.189"/>
            <path d="M439.208,436.189 L439.208,436.189"/>
            <path d="M439.208,431.956 L439.208,436.189"/>
            <path d="M195.792,436.189 L195.792,431.956"/>
            <path d="M195.792,436.189 L196.85,436.189"/>
            <path d="M195.792,431.956 L439.208,431.956"/>
            <path d="M439.208,431.956 L439.208,431.956"/>
            <path d="M195.792,431.956 L196.85,431.956"/>
            <path d="M195.792,431.956 L195.792,431.956"/>
        </g>
        <g id="product-46af7981-84fa-427d-9902-91ec2e72c8bd" class="IfcWall material-null predefinedtype-ELEMENTEDWALL projection" ifc:name="Cube" ifc:guid="16htc1XFf2VPa2aUmkSiYz">
            <path d="M382.869,152.72 L317.5,87.3516"/>
            <path d="M317.5,87.3516 L317.5,303.633"/>
            <path d="M317.968,86.8838 L317.741,86.6575"/>
            <path d="M317.741,86.6575 L317.968,86.8838"/>
            <path d="M317.5,87.3516 L317.5,303.633"/>
            <path d="M317.739,86.6549 L317.968,86.8838"/>
            <path d="M443.971,212.887 L444.4,213.316"/>
            <path d="M444.5,213.416 L444.5,213.416"/>
        </g>
        <g id="product-8d8ecc6f-4583-472d-a6b0-ebcfbeed9a6c" class="IfcSlab material-null predefinedtype-FLOOR projection" ifc:name="Cube" ifc:guid="2DZinlHOD7BQQmwy__xPfi">
            <path d="M437.489,303.633 L437.489,304.03"/>
            <path d="M197.512,303.633 L437.489,303.633"/>
            <path d="M197.512,304.03 L197.512,303.633"/>
            <path d="M437.489,304.03 L197.512,304.03"/>
            <path d="M438.15,304.824 L438.15,304.956"/>
            <path d="M196.85,304.824 L438.15,304.824"/>
            <path d="M196.85,304.956 L196.85,304.824"/>
            <path d="M438.15,304.956 L196.85,304.956"/>
            <path d="M196.85,304.824 L196.85,304.03"/>
            <path d="M438.15,304.824 L196.85,304.824"/>
            <path d="M438.15,304.03 L438.15,304.824"/>
            <path d="M196.85,304.03 L438.15,304.03"/>
            <path d="M438.15,331.15 L438.15,331.679"/>
            <path d="M196.85,331.15 L438.15,331.15"/>
            <path d="M196.85,331.679 L196.85,331.15"/>
            <path d="M438.15,331.679 L196.85,331.679"/>
            <path d="M191.029,304.956 L443.971,304.956"/>
            <path d="M191.029,305.75 L191.029,304.956"/>
            <path d="M443.971,305.75 L191.029,305.75"/>
            <path d="M443.971,304.956 L443.971,305.75"/>
            <path d="M191.029,305.75 L443.971,305.75"/>
            <path d="M191.029,331.15 L191.029,305.75"/>
            <path d="M443.971,331.15 L191.029,331.15"/>
            <path d="M443.971,305.75 L443.971,331.15"/>
            <path d="M196.85,331.679 L438.15,331.679"/>
            <path d="M196.85,332.34 L196.85,331.679"/>
            <path d="M438.15,332.34 L196.85,332.34"/>
            <path d="M438.15,331.679 L438.15,332.34"/>
        </g>
        <g id="product-ef9dc3e9-f5c0-49b3-b719-af81659c0d9f" class="IfcSlab material-null predefinedtype-ROOF projection" ifc:name="Cube" ifc:guid="3ldSFfzS19ixSPhu5bd0sV">
            <path d="M483.417,235.495 L317.5,69.5781"/>
            <path d="M483.978,234.934 L483.417,235.495"/>
            <path d="M318.061,69.0168 L483.978,234.934"/>
            <path d="M317.5,69.5781 L318.061,69.0168"/>
            <path d="M474.998,243.914 L317.5,86.416"/>
            <path d="M483.417,235.495 L474.998,243.914"/>
            <path d="M325.919,77.997 L483.417,235.495"/>
            <path d="M317.5,86.416 L325.919,77.997"/>
            <path d="M317.5,87.3515 L317.968,86.8838"/>
            <path d="M443.971,213.822 L317.5,87.3515"/>
            <path d="M443.971,213.822 L443.971,212.887"/>
            <path d="M317.968,86.8838 L443.971,212.887"/>
            <path d="M444.5,213.416 L474.998,243.914"/>
            <path d="M444.5,213.416 L444.5,214.352"/>
            <path d="M474.53,244.382 L444.5,214.352"/>
            <path d="M474.998,243.914 L474.53,244.382"/>
            <path d="M317.5,68.4555 L318.061,67.8943"/>
            <path d="M483.978,234.934 L317.5,68.4555"/>
            <path d="M484.539,234.372 L483.978,234.934"/>
            <path d="M318.061,67.8943 L484.539,234.372"/>
        </g>
        <g id="product-e0eec433-7a0f-4648-b8e1-48a8704a4ed7" class="IfcWall material-null predefinedtype-ELEMENTEDWALL projection" ifc:name="Cube" ifc:guid="3WxiGpUWz6IBZXIAXmIaxN">
            <path d="M196.85,208.001 L196.85,304.031"/>
            <path d="M196.85,304.031 L196.85,208.001"/>
            <path d="M197.512,207.34 L197.512,304.03"/>
            <path d="M197.512,207.34 L197.512,304.031"/>
            <path d="M197.512,207.34 L197.512,207.34"/>
            <path d="M196.85,208.001 L197.512,207.34"/>
            <path d="M196.85,208.001 L196.85,208.001"/>
            <path d="M196.85,208.001 L197.512,207.34"/>
            <path d="M197.512,304.031 L196.85,304.031"/>
            <path d="M196.85,304.031 L196.85,304.031"/>
            <path d="M196.85,304.031 L196.85,304.031"/>
            <path d="M191.029,304.956 L191.029,212.887"/>
            <path d="M191.029,304.956 L191.029,212.887"/>
            <path d="M196.85,207.066 L196.85,304.956"/>
            <path d="M196.85,304.956 L191.029,304.956"/>
            <path d="M191.029,304.956 L191.029,304.956"/>
            <path d="M196.85,304.956 L191.029,304.956"/>
            <path d="M196.85,304.956 L196.85,304.956"/>
            <path d="M196.85,207.066 L196.85,207.066"/>
            <path d="M191.029,212.887 L196.85,207.066"/>
            <path d="M191.029,212.887 L191.029,212.887"/>
            <path d="M191.029,212.887 L196.85,207.066"/>
            <path d="M190.5,311.306 L190.5,213.416"/>
            <path d="M190.5,311.306 L190.5,213.416"/>
            <path d="M191.029,212.887 L191.029,311.306"/>
            <path d="M191.029,311.306 L190.5,311.306"/>
            <path d="M190.5,311.306 L190.5,311.306"/>
            <path d="M191.029,311.306 L190.5,311.306"/>
            <path d="M191.029,212.887 L191.029,212.887"/>
            <path d="M190.5,213.416 L191.029,212.887"/>
            <path d="M190.5,213.416 L190.5,213.416"/>
            <path d="M190.5,213.416 L191.029,212.887"/>
            <path d="M189.442,214.474 L190.5,213.416"/>
            <path d="M189.442,214.474 L190.5,213.416"/>
            <path d="M189.442,214.474 L189.442,311.306"/>
            <path d="M189.442,311.306 L189.442,214.474"/>
            <path d="M189.442,214.474 L189.442,214.474"/>
            <path d="M190.5,213.416 L190.5,213.416"/>
            <path d="M190.5,213.416 L190.5,311.306"/>
            <path d="M190.5,311.306 L189.442,311.306"/>
            <path d="M189.442,311.306 L189.442,311.306"/>
            <path d="M190.5,311.306 L189.442,311.306"/>
            <path d="M190.5,311.306 L190.5,311.306"/>
            <path d="M185.738,218.179 L189.442,214.474"/>
            <path d="M189.442,311.306 L185.738,311.306"/>
            <path d="M185.738,311.306 L185.738,311.306"/>
            <path d="M185.738,311.306 L185.738,218.179"/>
            <path d="M185.738,218.179 L185.738,218.179"/>
            <path d="M185.738,218.179 L189.442,214.474"/>
            <path d="M185.738,218.179 L185.738,311.306"/>
            <path d="M185.738,311.306 L189.442,311.306"/>
            <path d="M189.442,214.474 L189.442,214.474"/>
            <path d="M189.442,214.474 L189.442,311.306"/>
            <path d="M189.442,311.306 L189.442,311.306"/>
        </g>
        <g id="product-7f4c2e04-e912-421e-9d9f-7a097ca1f2bb" class="IfcWall material-null predefinedtype-ELEMENTEDWALL projection" ifc:name="Cube" ifc:guid="1$J2u4wH927fsVUWbyeVAx">
            <path d="M437.489,207.34 L438.15,208.002"/>
            <path d="M437.489,304.032 L437.489,207.34"/>
            <path d="M438.15,304.032 L437.489,304.032"/>
            <path d="M438.15,208.002 L438.15,304.032"/>
            <path d="M438.15,207.066 L443.971,212.887"/>
            <path d="M438.15,304.956 L438.15,207.066"/>
            <path d="M443.971,304.956 L438.15,304.956"/>
            <path d="M443.971,212.887 L443.971,304.956"/>
            <path d="M444.5,213.416 L444.5,311.306"/>
            <path d="M443.971,212.887 L444.5,213.416"/>
            <path d="M443.971,311.306 L443.971,212.887"/>
            <path d="M444.5,311.306 L443.971,311.306"/>
            <path d="M445.558,311.306 L444.5,311.306"/>
            <path d="M445.558,214.474 L445.558,311.306"/>
            <path d="M445.558,214.474 L444.5,213.416"/>
            <path d="M444.5,311.306 L444.5,213.416"/>
            <path d="M449.263,311.306 L445.558,311.306"/>
            <path d="M449.263,218.179 L449.263,311.306"/>
            <path d="M449.263,218.179 L445.558,214.474"/>
            <path d="M445.558,311.306 L445.558,214.474"/>
        </g>
        <g id="product-bd933419-2e92-4186-b35b-13cf4399c256" class="IfcWall material-null predefinedtype-ELEMENTEDWALL projection" ifc:name="Cube" ifc:guid="2zapGPBf91XhDR4yz3cS9M">
            <path d="M437.489,332.34 L197.544,332.34"/>
            <path d="M437.489,431.956 L197.544,431.956"/>
            <path d="M197.544,332.34 L197.544,431.956"/>
            <path d="M196.85,431.956 L196.85,331.15"/>
            <path d="M196.85,331.15 L196.85,331.15"/>
            <path d="M438.15,331.15 L438.15,331.15"/>
            <path d="M196.85,431.956 L437.489,431.956"/>
            <path d="M195.792,431.956 L191.029,431.956"/>
            <path d="M191.029,431.956 L191.029,331.15"/>
            <path d="M443.971,311.306 L443.971,311.306"/>
            <path d="M444.5,311.306 L443.971,311.306"/>
            <path d="M196.85,438.306 L190.5,438.306"/>
            <path d="M190.5,311.306 L190.5,438.306"/>
            <path d="M445.558,311.306 L443.971,311.306"/>
            <path d="M196.85,438.306 L190.5,438.306"/>
            <path d="M189.442,311.306 L189.442,438.306"/>
        </g>
    <g ifc:guid="3Gs97s9FX5xhkZ3Xrd4JSk" ifc:name="Wall" class="IfcWall material-null predefinedtype-ELEMENTEDWALL cut"><path d="M438.1499389807383,436.1891430823593 L437.8853539625803,436.1891430823593"/><path d="M438.1499389807383,436.1891430823593 L438.1499389807383,476.9864958731918"/><path d="M437.8853539625803,436.1891430823593 L436.0332588354746,436.1891430823593"/><path d="M436.0332985719045,476.9349775918909 L436.0332588354746,436.1891430823593"/><path d="M438.1499389807383,476.9864958731918 L438.1499389807383,482.7558082549362"/><path d="M438.1499389807383,482.7558082549362 L437.8853539625803,482.7558082549362"/><path d="M437.8853539625803,482.7558082549362 L436.0332985719045,482.7558082549362"/><path d="M436.0332985719045,482.7558082549362 L436.0332985719045,476.9349775918909"/><path d="M444.4999794165293,431.95581259415434 L444.4999794165293,437.4917032528508"/><path d="M444.4999794165293,431.95581259415434 L443.8067376613617,431.95581259415434"/><path d="M443.8067376613617,431.95581259415434 L439.2083187898,431.95581259415434"/><path d="M439.2083187898,435.6345615991541 L439.2083187898,431.95581259415434"/><path d="M444.4999794165293,437.4917032528508 L444.4999794165293,438.305803359408"/><path d="M448.1905400753021,438.305803359408 L444.4999794165293,438.305803359408"/><path d="M448.73326023419696,438.305803359408 L448.1905400753021,438.305803359408"/><path d="M448.73326023419696,438.305803359408 L448.73326023419696,443.9087591775843"/><path d="M448.73326023419696,443.9087591775843 L448.73326023419696,482.7558082549362"/><path d="M448.73326023419696,482.7558082549362 L447.3407169183095,482.7558082549362"/><path d="M439.2083187898,436.1891430823593 L439.2083187898,435.6345615991541"/><path d="M439.2083187898,436.1891430823593 L439.0690426031748,436.1891430823593"/><path d="M447.3407169183095,482.7558082549362 L438.1499389807383,482.7558082549362"/><path d="M438.1499389807383,482.7558082549362 L438.1499389807383,476.6286097177454"/><path d="M438.1499389807383,476.6286097177454 L438.1499389807383,436.1891430823593"/><path d="M439.0690426031748,436.1891430823593 L438.1499389807383,436.1891430823593"/></g><g ifc:guid="2k9z8LflD7ruGMDoCmcFsa" ifc:name="Wall" class="IfcWall material-null predefinedtype-ELEMENTEDWALL cut"><path d="M196.8500316143036,448.44354015674077 L196.8500316143036,482.7558082549362"/><path d="M198.9666720231374,482.7558082549362 L198.96670182545978,448.44354015674077"/><path d="M198.9666720231374,482.7558082549362 L198.4096566836039,482.7558082549362"/><path d="M198.4096566836039,482.7558082549362 L196.8500316143036,482.7558082549362"/><path d="M196.8500316143036,436.1891430823593 L196.8500316143036,448.44354015674077"/><path d="M198.96670182545978,448.44354015674077 L198.96670182545978,436.1891430823593"/><path d="M198.96670182545978,436.1891430823593 L197.40705688794452,436.1891430823593"/><path d="M197.40705688794452,436.1891430823593 L196.8500316143036,436.1891430823593"/><path d="M196.8500216801961,482.7558082549362 L193.43604644139606,482.7558082549362"/><path d="M196.8500216801961,482.7558082549362 L196.8500216801961,448.74190114027147"/><path d="M196.8500216801961,448.74190114027147 L196.8500216801961,436.1891430823593"/><path d="M196.8500216801961,436.1891430823593 L196.5647240479787,436.1891430823593"/><path d="M196.5647240479787,436.1891430823593 L195.79165180524188,436.1891430823593"/><path d="M195.79165180524188,436.1891430823593 L195.79165180524188,435.0479922899195"/><path d="M190.49999117851257,433.8608068434982 L190.49999117851257,438.305803359408"/><path d="M190.49999117851257,438.305803359408 L189.23000494639078,438.305803359408"/><path d="M193.43604644139606,482.7558082549362 L186.26670042673746,482.7558082549362"/><path d="M189.23000494639078,438.305803359408 L186.26670042673746,438.305803359408"/><path d="M186.26670042673746,438.305803359408 L186.26670042673746,452.6445351251551"/><path d="M186.26670042673746,452.6445351251551 L186.26670042673746,482.7558082549362"/><path d="M195.79165180524188,435.0479922899195 L195.79165180524188,431.95581259415434"/><path d="M195.79165180524188,431.95581259415434 L194.36520338058472,431.95581259415434"/><path d="M194.36520338058472,431.95581259415434 L190.49999117851257,431.95581259415434"/><path d="M190.49999117851257,431.95581259415434 L190.49999117851257,433.8608068434982"/></g><g ifc:guid="0kDs$SHtXEThDalbYBn9J0" ifc:name="Cube" class="IfcSlab material-null predefinedtype-BASESLAB cut"><path d="M198.96670182545978,438.30582322762297 L198.96670182545978,439.36414343203984"/><path d="M198.96670182545978,438.30582322762297 L376.76669160525,438.30582322762297"/><path d="M421.2166368961334,438.30582322762297 L376.76669160525,438.30582322762297"/><path d="M436.0332588354746,438.30582322762297 L421.2166368961334,438.30582322762297"/><path d="M436.0332588354746,442.00999361361943 L436.0332588354746,438.30582322762297"/><path d="M198.96670182545978,439.36414343203984 L198.96670182545978,442.53914378172044"/><path d="M376.76669160525,442.53914378172044 L198.96670182545978,442.53914378172044"/><path d="M436.0332588354746,442.53914378172044 L436.0332588354746,442.00999361361943"/><path d="M436.0332588354746,442.53914378172044 L421.2166368961334,442.53914378172044"/><path d="M421.2166368961334,442.53914378172044 L376.76669160525,442.53914378172044"/><path d="M421.2166368961334,438.30582322762297 L376.76669160525,438.30582322762297"/><path d="M376.76669160525,438.30582322762297 L198.96670182545978,438.30582322762297"/><path d="M198.96670182545978,436.7183131186752 L198.96670182545978,438.30582322762297"/><path d="M198.96670182545978,436.1891629505742 L198.96670182545978,436.7183131186752"/><path d="M198.96670182545978,436.1891629505742 L376.76669160525,436.1891629505742"/><path d="M421.2166368961334,436.1891629505742 L376.76669160525,436.1891629505742"/><path d="M436.0332588354746,436.1891629505742 L421.2166368961334,436.1891629505742"/><path d="M436.0332588354746,438.30582322762297 L421.2166368961334,438.30582322762297"/><path d="M436.0332588354746,438.30582322762297 L436.0332588354746,438.041238209465"/><path d="M436.0332588354746,438.041238209465 L436.0332588354746,436.1891629505742"/><path d="M228.59996557235718,436.1891629505742 L195.79165180524188,436.1891629505742"/><path d="M195.79165180524188,432.52639792448167 L195.79165180524188,436.1891629505742"/><path d="M439.2083187898,436.1891629505742 L228.59996557235718,436.1891629505742"/><path d="M439.2083187898,436.1891629505742 L439.2083187898,435.6185676861394"/><path d="M439.2083187898,435.6185676861394 L439.2083187898,431.95582252826176"/><path d="M439.2083187898,431.95582252826176 L406.4000149567922,431.95582252826176"/><path d="M406.4000149567922,431.95582252826176 L195.79165180524188,431.95582252826176"/><path d="M195.79165180524188,431.95582252826176 L195.79165180524188,432.52639792448167"/></g><g ifc:guid="3WxiGpUWz6IBZXIAXmIaxN" ifc:name="Cube" class="IfcWall material-null predefinedtype-ELEMENTEDWALL cut"><path d="M197.5114941596985,278.5858978538304 L197.5114941596985,207.3400102266261"/><path d="M196.8500316143036,208.00146283791352 L196.8500316143036,233.27235949124784"/><path d="M196.8500316143036,208.00146283791352 L197.02410697937012,207.82737753873954"/><path d="M197.02410697937012,207.82737753873954 L197.5114941596985,207.3400102266261"/><path d="M196.8500316143036,233.27235949124784 L196.8500316143036,304.03087111399464"/><path d="M197.5114941596985,304.03087111399464 L197.5114941596985,278.5858978538304"/><path d="M197.5114941596985,304.03087111399464 L197.3374287287394,304.03087111399464"/><path d="M197.3374287287394,304.03087111399464 L196.8500316143036,304.03087111399464"/><path d="M191.02920095125833,240.23787748898954 L191.02920095125833,304.95580605751167"/><path d="M196.8500316143036,304.95580605751167 L196.8500316143036,275.875574693937"/><path d="M196.8500316143036,304.95580605751167 L195.12083133061725,304.95580605751167"/><path d="M195.12083133061725,304.95580605751167 L191.02920095125833,304.95580605751167"/><path d="M191.02920095125833,212.8868582058538 L191.02920095125833,240.23787748898954"/><path d="M196.8500316143036,275.875574693937 L196.8500316143036,207.06600767459364"/><path d="M196.8500316143036,207.06600767459364 L195.12083133061725,208.7951980241725"/><path d="M195.12083133061725,208.7951980241725 L191.02920095125833,212.8868582058538"/><path d="M190.5000309149424,242.78295608446885 L190.5000309149424,311.3058191745072"/><path d="M191.02920095125833,311.3058191745072 L191.02920095125833,281.78013063555846"/><path d="M191.02920095125833,311.3058191745072 L190.87045391400653,311.3058191745072"/><path d="M190.87045391400653,311.3058191745072 L190.5000309149424,311.3058191745072"/><path d="M190.5000309149424,213.41602824216972 L190.5000309149424,242.78295608446885"/><path d="M191.02920095125833,281.78013063555846 L191.02920095125833,212.8868582058538"/><path d="M191.02920095125833,212.8868582058538 L190.87045391400653,213.0456052431056"/><path d="M190.87045391400653,213.0456052431056 L190.5000309149424,213.41602824216972"/><path d="M189.44170077641803,214.47434844658662 L190.17640749613443,213.73964172687025"/><path d="M189.44170077641803,214.47434844658662 L189.44170077641803,244.08396653419624"/><path d="M190.17640749613443,213.73964172687025 L190.5000309149424,213.41602824216972"/><path d="M190.5000309149424,281.37257394279925 L190.5000309149424,213.41602824216972"/><path d="M189.44170077641803,244.08396653419624 L189.44170077641803,311.3058191745072"/><path d="M190.5000309149424,311.3058191745072 L190.5000309149424,281.37257394279925"/><path d="M190.5000309149424,311.3058191745072 L190.17640749613443,311.3058191745072"/><path d="M190.17640749613443,311.3058191745072 L189.44170077641803,311.3058191745072"/><path d="M188.23673327763873,311.3058191745072 L185.73753039042154,311.3058191745072"/><path d="M185.73753039042154,218.17851883258314 L188.23673327763873,215.67931594536591"/><path d="M185.73753039042154,218.17851883258314 L185.73753039042154,248.47293592578063"/><path d="M185.73753039042154,248.47293592578063 L185.73753039042154,311.3058191745072"/><path d="M188.23673327763873,215.67931594536591 L189.44170077641803,214.47434844658662"/><path d="M189.44170077641803,311.3058191745072 L188.23673327763873,311.3058191745072"/><path d="M189.44170077641803,311.3058191745072 L189.44170077641803,279.80642216489605"/><path d="M189.44170077641803,279.80642216489605 L189.44170077641803,214.47434844658662"/></g><g ifc:guid="25DYs7hzr09O0UCFZ8Ri2b" ifc:name="Cube" class="IfcSlab material-null predefinedtype-ROOF cut"><path d="M318.021395127289,68.97807937945814 L317.84368387889117,68.79954360014091"/><path d="M317.84368387889117,68.79954360014091 L317.50059955951804,68.4549095440496"/><path d="M264.6675805250803,121.28793023115287 L317.50059955951804,68.4549095440496"/><path d="M318.0606050494437,69.01745818143974 L318.021395127289,68.97807937945814"/><path d="M204.41568891207376,182.6623561192144 L318.0606050494437,69.01745818143974"/><path d="M151.58305565516153,235.4949769584923 L204.41568891207376,182.6623561192144"/><path d="M151.02178851763406,234.9337197550723 L264.6675805250803,121.28793023115287"/><path d="M151.02178851763406,234.9337197550723 L151.40493710835773,235.31685841168851"/><path d="M151.40493710835773,235.31685841168851 L151.58305565516153,235.4949769584923"/><path d="M323.243606214722,75.3287953345566 L317.5095899265822,69.56844351774345"/><path d="M264.851838350296,122.22618681277723 L317.5095899265822,69.56844351774345"/><path d="M325.90931467711926,78.00671281502535 L323.243606214722,75.3287953345566"/><path d="M212.65369653701782,191.26233281777192 L325.90931467711926,78.00671281502535"/><path d="M151.58305565516153,235.4949769584923 L264.851838350296,122.22618681277723"/><path d="M151.58305565516153,235.4949769584923 L157.33022491137186,241.2421561488101"/><path d="M157.33022491137186,241.2421561488101 L160.00205278396606,243.91397408729682"/><path d="M160.00205278396606,243.91397408729682 L212.65369653701782,191.26233281777192"/><path d="M317.75974069023505,86.67596997902682 L317.50050021844345,86.41553741778822"/><path d="M263.878067334493,140.03796202029676 L317.50050021844345,86.41553741778822"/><path d="M317.96713503232843,86.88434781716158 L317.75974069023505,86.67596997902682"/><path d="M250.679870446523,154.1715942033717 L317.96713503232843,86.88434781716158"/><path d="M196.85004154841104,208.00142310148368 L250.679870446523,154.1715942033717"/><path d="M196.8500216801961,207.06600767459364 L263.878067334493,140.03796202029676"/><path d="M196.8500216801961,207.06600767459364 L196.8500316143036,207.58568070417533"/><path d="M196.8500316143036,207.58568070417533 L196.85004154841104,208.00142310148368"/><path d="M317.8828938010459,67.71636825885267 L317.5006094936255,67.3323951372096"/><path d="M264.48946694533026,120.34353437111666 L317.5006094936255,67.3323951372096"/><path d="M150.4605213801066,234.3724625516523 L264.48946694533026,120.34353437111666"/><path d="M150.4605213801066,234.3724625516523 L150.84366997083026,234.7556012082685"/><path d="M150.84366997083026,234.7556012082685 L151.02178851763406,234.9337197550723"/><path d="M318.0606050494437,67.89490403816988 L317.8828938010459,67.71636825885267"/><path d="M204.03255025545755,181.92296050077567 L318.0606050494437,67.89490403816988"/><path d="M151.02178851763406,234.9337197550723 L204.03255025545755,181.92296050077567"/></g><g ifc:guid="3OtnJyFKvEM9X75sTFJeC7" ifc:name="Cube" class="IfcWall material-null predefinedtype-ELEMENTEDWALL cut"><path d="M438.15003832181293,332.3402188428828 L438.0643467108408,332.3402188428828"/><path d="M438.15003832181293,332.3402188428828 L438.15003832181293,345.2097358513463"/><path d="M438.15003832181293,345.2097358513463 L438.15003832181293,431.95582252826176"/><path d="M438.0643467108408,431.95582252826176 L438.15003832181293,431.95582252826176"/><path d="M438.0643467108408,332.3402188428828 L437.4886055787404,332.3402188428828"/><path d="M437.4886055787404,431.95582252826176 L438.0643467108408,431.95582252826176"/><path d="M437.4886055787404,431.95582252826176 L437.4886055787404,345.24521054909513"/><path d="M437.4886055787404,345.24521054909513 L437.4886055787404,332.3402188428828"/><path d="M443.20498903592426,331.14959619527946 L438.15003832181293,331.14959619527946"/><path d="M438.15003832181293,344.4135767428665 L438.15003832181293,331.14959619527946"/><path d="M438.15003832181293,431.95582252826176 L438.15003832181293,344.4135767428665"/><path d="M438.15003832181293,431.95582252826176 L443.20498903592426,431.95582252826176"/><path d="M443.20498903592426,431.95582252826176 L443.9708888530731,431.95582252826176"/><path d="M443.9708888530731,331.14959619527946 L443.20498903592426,331.14959619527946"/><path d="M443.9708888530731,331.14959619527946 L443.9708888530731,419.00427959447984"/><path d="M443.9708888530731,419.00427959447984 L443.9708888530731,431.95582252826176"/><path d="M444.4214403629303,431.95582252826176 L444.5000390211741,431.95582252826176"/><path d="M444.5000390211741,311.3058191745072 L444.4214403629303,311.3058191745072"/><path d="M444.5000390211741,311.3058191745072 L444.5000390211741,414.0724323400446"/><path d="M444.5000390211741,414.0724323400446 L444.5000390211741,431.95582252826176"/><path d="M444.4214403629303,311.3058191745072 L443.9708888530731,311.3058191745072"/><path d="M443.9708888530731,431.95582252826176 L444.4214403629303,431.95582252826176"/><path d="M443.9708888530731,431.95582252826176 L443.9708888530731,329.2266311455358"/><path d="M443.9708888530731,329.2266311455358 L443.9708888530731,311.3058191745072"/><path d="M445.39963205655414,311.3058191745072 L444.5000390211741,311.3058191745072"/><path d="M444.5000390211741,330.3558113384832 L444.5000390211741,311.3058191745072"/><path d="M444.5000390211741,438.30582322762297 L444.5000390211741,330.3558113384832"/><path d="M444.5000390211741,438.30582322762297 L445.39963205655414,438.30582322762297"/><path d="M445.39963205655414,438.30582322762297 L445.5583790938059,438.30582322762297"/><path d="M445.5583790938059,311.3058191745072 L445.39963205655414,311.3058191745072"/><path d="M445.5583790938059,311.3058191745072 L445.5583790938059,330.276775579511"/><path d="M445.5583790938059,330.276775579511 L445.5583790938059,438.30582322762297"/><path d="M445.5583790938059,311.3058191745072 L445.5583790938059,418.88847770378874"/><path d="M448.69622588157654,311.3058191745072 L445.5583790938059,311.3058191745072"/><path d="M445.5583790938059,418.88847770378874 L445.5583790938059,438.30582322762297"/><path d="M445.5583790938059,438.30582322762297 L448.69622588157654,438.30582322762297"/><path d="M448.69622588157654,438.30582322762297 L449.26256934801734,438.30582322762297"/><path d="M449.26256934801734,311.3058191745072 L448.69622588157654,311.3058191745072"/><path d="M449.26256934801734,311.3058191745072 L449.26256934801734,419.16531147644804"/><path d="M449.26256934801734,419.16531147644804 L449.26256934801734,438.30582322762297"/></g><g ifc:guid="1Q$YJci5DD8OOfcXUsCdWB" ifc:name="Cube" class="IfcWall material-null predefinedtype-ELEMENTEDWALL cut"><path d="M197.3374287287394,431.95581259415434 L196.8500316143036,431.95581259415434"/><path d="M196.8500316143036,358.5548482545802 L196.8500316143036,431.95581259415434"/><path d="M197.5114941596985,431.95581259415434 L197.3374287287394,431.95581259415434"/><path d="M197.5114941596985,431.95581259415434 L197.5114941596985,405.74117324834947"/><path d="M196.8500316143036,332.34020890877537 L196.8500316143036,358.5548482545802"/><path d="M197.5114941596985,405.74117324834947 L197.5114941596985,332.34020890877537"/><path d="M197.5114941596985,332.34020890877537 L197.02410697937012,332.34020890877537"/><path d="M197.02410697937012,332.34020890877537 L196.8500316143036,332.34020890877537"/><path d="M195.12083133061725,431.95581259415434 L191.02920095125833,431.95581259415434"/><path d="M191.02920095125833,361.096201559761 L191.02920095125833,431.95581259415434"/><path d="M191.02920095125833,331.14957632706455 L191.02920095125833,361.096201559761"/><path d="M192.75840123494464,331.14957632706455 L191.02920095125833,331.14957632706455"/><path d="M196.8500316143036,331.14957632706455 L192.75840123494464,331.14957632706455"/><path d="M196.8500316143036,431.95581259415434 L195.12083133061725,431.95581259415434"/><path d="M196.8500316143036,431.95581259415434 L196.8500316143036,402.0091873614578"/><path d="M196.8500316143036,402.0091873614578 L196.8500316143036,331.14957632706455"/><path d="M190.87045391400653,431.95581259415434 L190.5000309149424,431.95581259415434"/><path d="M190.65878788630167,311.3058191745072 L190.5000309149424,311.3058191745072"/><path d="M190.5000309149424,311.3058191745072 L190.5000309149424,347.50082912133024"/><path d="M190.5000309149424,347.50082912133024 L190.5000309149424,431.95581259415434"/><path d="M191.02920095125833,311.3058191745072 L190.65878788630167,311.3058191745072"/><path d="M191.02920095125833,431.95581259415434 L190.87045391400653,431.95581259415434"/><path d="M191.02920095125833,431.95581259415434 L191.02920095125833,395.76081258143864"/><path d="M191.02920095125833,395.76081258143864 L191.02920095125833,311.3058191745072"/><path d="M190.17640749613443,438.30582322762297 L189.44170077641803,438.30582322762297"/><path d="M189.76532419522601,311.3058191745072 L189.44170077641803,311.3058191745072"/><path d="M189.44170077641803,311.3058191745072 L189.44170077641803,350.1405300903905"/><path d="M189.44170077641803,350.1405300903905 L189.44170077641803,438.30582322762297"/><path d="M190.5000309149424,311.3058191745072 L189.76532419522601,311.3058191745072"/><path d="M190.5000309149424,438.30582322762297 L190.17640749613443,438.30582322762297"/><path d="M190.5000309149424,438.30582322762297 L190.5000309149424,399.47111231173955"/><path d="M190.5000309149424,399.47111231173955 L190.5000309149424,311.3058191745072"/><path d="M188.23673327763873,438.30582322762297 L185.73753039042154,438.30582322762297"/><path d="M186.9425078233083,311.3058191745072 L185.73753039042154,311.3058191745072"/><path d="M185.73753039042154,311.3058191745072 L185.73753039042154,352.61907996819303"/><path d="M185.73753039042154,352.61907996819303 L185.73753039042154,438.30582322762297"/><path d="M189.44170077641803,311.3058191745072 L186.9425078233083,311.3058191745072"/><path d="M189.44170077641803,438.30582322762297 L188.23673327763873,438.30582322762297"/><path d="M189.44170077641803,438.30582322762297 L189.44170077641803,396.99256243393705"/><path d="M189.44170077641803,396.99256243393705 L189.44170077641803,311.3058191745072"/></g><g ifc:guid="3ldSFfzS19ixSPhu5bd0sV" ifc:name="Cube" class="IfcSlab material-null predefinedtype-ROOF cut"><path d="M483.97814234097797,234.9337197550723 L483.8000237941742,235.11183830187608"/><path d="M483.97814234097797,234.9337197550723 L458.7803781032562,209.7359580008774"/><path d="M458.7803781032562,209.7359580008774 L456.0917317867279,207.04729181613416"/><path d="M456.0917317867279,207.04729181613416 L410.602996746699,161.5585766443202"/><path d="M410.602996746699,161.5585766443202 L404.01272972424823,154.96830962186942"/><path d="M483.8000237941742,235.11183830187608 L483.416885137558,235.4949769584923"/><path d="M483.416885137558,235.4949769584923 L458.6264987786611,210.70459308312226"/><path d="M458.6264987786611,210.70459308312226 L455.93787233034766,208.0159865030238"/><path d="M455.93787233034766,208.0159865030238 L410.4491372903188,162.5272514629949"/><path d="M403.83461117744446,155.91272535012055 L410.4491372903188,162.5272514629949"/><path d="M404.01272972424823,154.96830962186942 L318.06123089821386,69.01682239856214"/><path d="M317.4999737107598,69.57809947019706 L403.83461117744446,155.91272535012055"/><path d="M317.4999737107598,69.57809947019706 L317.8831123514101,69.19492107715101"/><path d="M317.8831123514101,69.19492107715101 L318.06123089821386,69.01682239856214"/><path d="M483.416885137558,235.4949769584923 L480.74506719907123,238.16679489697904"/><path d="M483.416885137558,235.4949769584923 L458.6264987786611,210.70459308312226"/><path d="M458.6264987786611,210.70459308312226 L455.93787233034766,208.01596663480888"/><path d="M455.93787233034766,208.01596663480888 L412.7573271592458,164.83542146370698"/><path d="M412.7573271592458,164.83542146370698 L406.50640924771625,158.58450355217744"/><path d="M444.29201881090796,213.20806763654838 L443.9708888530731,212.88695754692841"/><path d="M443.9708888530731,212.88695754692841 L392.957458893458,161.87352758731336"/><path d="M480.74506719907123,238.16679489697904 L474.9978880087534,243.91397408729682"/><path d="M474.9978880087534,243.91397408729682 L462.69624431927997,231.61233039782334"/><path d="M444.50005888938904,213.41612758324433 L444.29201881090796,213.20806763654838"/><path d="M462.69624431927997,231.61233039782334 L447.5740293661753,216.49009806003065"/><path d="M447.5740293661753,216.49009806003065 L445.183128118515,214.0991769441554"/><path d="M445.183128118515,214.0991769441554 L444.50005888938904,213.41612758324433"/><path d="M406.50640924771625,158.58450355217744 L325.918930893143,77.99701712614188"/><path d="M317.49998364486606,86.41605399137626 L392.957458893458,161.87352758731336"/><path d="M322.523085710903,81.39297189400484 L317.49998364486606,86.41605399137626"/><path d="M325.918930893143,77.99701712614188 L322.523085710903,81.39297189400484"/><path d="M365.0287886460622,134.88031250323743 L317.49999357897366,87.35148928648124"/><path d="M317.49999357897366,87.35148928648124 L317.78346333885565,87.06800959592948"/><path d="M438.15005819002783,207.63306639677177 L438.15005819002783,208.00158204720307"/><path d="M438.15005819002783,208.00158204720307 L365.0287886460622,134.88031250323743"/><path d="M438.15005819002783,207.63306639677177 L438.15005819002783,207.0661268838832"/><path d="M317.78346333885565,87.06800959592948 L317.96769134234637,86.88379150714368"/><path d="M317.96769134234637,86.88379150714368 L365.31224846839905,134.22831716225434"/><path d="M438.15005819002783,207.0661268838832 L365.31224846839905,134.22831716225434"/><path d="M465.12829264005023,234.9798140136986 L449.26256934801734,219.11409320519257"/><path d="M449.26256934801734,218.76602194791923 L449.26256934801734,219.11409320519257"/><path d="M449.26256934801734,218.1786579100876 L449.26256934801734,218.76602194791923"/><path d="M465.4219845930735,234.33805080340196 L449.26256934801734,218.1786579100876"/><path d="M474.9979078769684,243.91399395551176 L465.4219845930735,234.33805080340196"/><path d="M474.9979078769684,243.91399395551176 L474.8494724432627,244.06242938921739"/><path d="M474.8494724432627,244.06242938921739 L474.5301902294159,244.38171160306425"/><path d="M474.5301902294159,244.38171160306425 L465.12829264005023,234.9798140136986"/><path d="M484.36129093170166,234.5505810984561 L483.97814234097797,234.9337197550723"/><path d="M483.97814234097797,234.9337197550723 L458.7803781032562,209.7359580008774"/><path d="M458.7803781032562,209.7359580008774 L413.1377637386322,164.09334363625337"/><path d="M484.53940947850543,234.3724625516523 L484.36129093170166,234.5505810984561"/><path d="M484.53940947850543,234.3724625516523 L458.9342574278513,208.7673030504176"/><path d="M458.9342574278513,208.7673030504176 L413.2916430632273,163.1247085540085"/><path d="M317.4999935789735,68.45554532692721 L413.1377637386322,164.09334363625337"/><path d="M317.4999935789735,68.45554532692721 L317.6538729070065,68.301685870547"/><path d="M317.6538729070065,68.301685870547 L318.06123089821386,67.89430799172213"/><path d="M413.2916430632273,163.1247085540085 L318.06123089821386,67.89430799172213"/></g><g ifc:guid="1$J2u4wH927fsVUWbyeVAx" ifc:name="Cube" class="IfcWall material-null predefinedtype-ELEMENTEDWALL cut"><path d="M437.4886055787404,304.0320234704603 L437.4886055787404,265.45421928376845"/><path d="M437.4886055787404,304.0320234704603 L437.752495209376,304.0320234704603"/><path d="M437.4886055787404,265.45421928376845 L437.4886055787404,207.34012943591566"/><path d="M437.4886055787404,207.34012943591566 L437.752495209376,207.60401906655122"/><path d="M437.752495209376,304.0320234704603 L438.15005819002783,304.0320234704603"/><path d="M437.752495209376,207.60401906655122 L438.15005819002783,208.00158204720307"/><path d="M438.15005819002783,208.00158204720307 L438.15005819002783,265.71812886022917"/><path d="M438.15005819002783,265.71812886022917 L438.15005819002783,304.0320234704603"/><path d="M440.4431084791819,209.35917717303724 L438.15005819002783,207.06610701566825"/><path d="M438.15005819002783,207.06610701566825 L438.15005819002783,266.3932606986874"/><path d="M443.9708888530731,212.8869376787135 L440.4431084791819,209.35917717303724"/><path d="M443.9708888530731,212.8869376787135 L443.9708888530731,268.6863109490364"/><path d="M443.9708888530731,268.6863109490364 L443.9708888530731,304.95581599161915"/><path d="M438.15005819002783,304.95581599161915 L438.15005819002783,266.3932606986874"/><path d="M438.15005819002783,304.95581599161915 L440.4431084791819,304.95581599161915"/><path d="M440.4431084791819,304.95581599161915 L443.9708888530731,304.95581599161915"/><path d="M444.2865947882334,213.20268335030366 L443.9708888530731,212.88697741514335"/><path d="M443.9708888530731,252.5852590509841 L443.9708888530731,212.88697741514335"/><path d="M443.9708888530731,252.5852590509841 L443.9708888530731,252.58529878741393"/><path d="M444.2865947882334,213.20268335030366 L444.5000390211741,213.41610771502943"/><path d="M444.5000390211741,213.41610771502943 L444.5000390211741,252.9009649861444"/><path d="M444.5000390211741,252.90100472257424 L444.5000390211741,252.9009649861444"/><path d="M444.5000390211741,311.3058191745072 L444.5000390211741,252.90100472257424"/><path d="M443.9708888530731,252.58529878741393 L443.9708888530731,311.3058191745072"/><path d="M443.9708888530731,311.3058191745072 L444.34284170468646,311.3058191745072"/><path d="M444.34284170468646,311.3058191745072 L444.5000390211741,311.3058191745072"/><path d="M445.558359225591,214.4744080512314 L444.87191239992774,213.78796122556815"/><path d="M445.558359225591,214.4744080512314 L445.558359225591,273.16511307742087"/><path d="M445.558359225591,273.16511307742087 L445.558359225591,307.1868973184217"/><path d="M445.558359225591,307.1868973184217 L445.558359225591,307.4312465596784"/><path d="M445.558359225591,307.4312465596784 L445.5583790938059,311.3058191745072"/><path d="M445.24088501930237,311.3058191745072 L445.5583790938059,311.3058191745072"/><path d="M444.50005888938904,213.41610771502943 L444.87191239992774,213.78796122556815"/><path d="M444.5000390211741,311.3058191745072 L445.24088501930237,311.3058191745072"/><path d="M444.50005888938904,213.41610771502943 L444.50005888938904,272.79325956688217"/><path d="M444.50005888938904,307.49581825818507 L444.5000390211741,311.3058191745072"/><path d="M444.50005888938904,307.1868973184217 L444.50005888938904,272.79325956688217"/><path d="M444.50005888938904,307.1868973184217 L444.50005888938904,307.4312465596784"/><path d="M444.50005888938904,307.4312465596784 L444.50005888938904,307.49581825818507"/><path d="M447.80517617861426,216.72126474068452 L449.26256934801734,218.1786380418727"/><path d="M449.26256934801734,218.1786380418727 L449.26256934801734,254.81876430000753"/><path d="M449.26256934801734,254.81876430000753 L449.26256934801734,311.3058191745072"/><path d="M446.6910660266876,311.3058191745072 L449.26256934801734,311.3058191745072"/><path d="M447.80517617861426,216.72126474068452 L445.5583790938059,214.47446765587617"/><path d="M445.5583790938059,311.3058191745072 L446.6910660266876,311.3058191745072"/><path d="M445.5583790938059,252.5719870834141 L445.5583790938059,311.3058191745072"/><path d="M445.5583790938059,252.5719870834141 L445.5583790938059,214.47446765587617"/></g><g ifc:guid="2DZinlHOD7BQQmwy__xPfi" ifc:name="Cube" class="IfcSlab material-null predefinedtype-FLOOR cut"><path d="M437.4886055787404,303.7912505078901 L437.4886055787404,303.6329008349368"/><path d="M437.4886055787404,303.6329008349368 L365.3727273146311,303.6329008349368"/><path d="M197.51150409380594,303.6329008349368 L197.51150409380594,303.7357287812818"/><path d="M262.93449103832245,303.6329008349368 L197.51150409380594,303.6329008349368"/><path d="M269.62737242380774,303.6329008349368 L365.3727273146311,303.6329008349368"/><path d="M269.62737242380774,303.6329008349368 L263.5473509629567,303.6329008349368"/><path d="M263.5473509629567,303.6329008349368 L262.93449103832245,303.6329008349368"/><path d="M437.4886055787404,304.0297783621737 L437.4886055787404,303.7912505078901"/><path d="M437.4886055787404,304.0297783621737 L365.3727273146311,304.0297783621737"/><path d="M365.3727273146311,304.0297783621737 L269.62737242380774,304.0297783621737"/><path d="M263.5473509629567,304.0297783621737 L269.62737242380774,304.0297783621737"/><path d="M197.51150409380594,303.7357287812818 L197.51150409380594,304.0297783621737"/><path d="M197.51150409380594,304.0297783621737 L262.93449103832245,304.0297783621737"/><path d="M262.93449103832245,304.0297783621737 L263.5473509629567,304.0297783621737"/><path d="M438.1500979264577,304.87563781028877 L438.1500979264577,304.8235334166476"/><path d="M438.1500979264577,304.8235334166476 L365.028848250707,304.8235334166476"/><path d="M196.8500514825185,304.8235334166476 L196.8500514825185,304.8583425291964"/><path d="M263.26289772987366,304.8235334166476 L196.8500514825185,304.8235334166476"/><path d="M269.97125645478565,304.8235334166476 L365.028848250707,304.8235334166476"/><path d="M269.97125645478565,304.8235334166476 L263.8778289159139,304.8235334166476"/><path d="M263.8778289159139,304.8235334166476 L263.26289772987366,304.8235334166476"/><path d="M438.1500979264577,304.95581599161915 L438.1500979264577,304.87563781028877"/><path d="M438.1500979264577,304.95581599161915 L365.028848250707,304.9558259257266"/><path d="M365.028848250707,304.9558259257266 L269.97125645478565,304.9558259257266"/><path d="M263.87782394886017,304.95581599161915 L269.97125645478565,304.9558259257266"/><path d="M196.8500514825185,304.8583425291964 L196.8500514825185,304.95581599161915"/><path d="M196.8500514825185,304.95581599161915 L263.26289772987366,304.95581599161915"/><path d="M263.26289772987366,304.95581599161915 L263.87782394886017,304.95581599161915"/><path d="M365.028848250707,304.8235334166476 L269.97125645478565,304.8235334166476"/><path d="M263.87782394886017,304.8235334166476 L269.97125645478565,304.8235334166476"/><path d="M196.8500514825185,304.2386628397891 L196.8500514825185,304.8235334166476"/><path d="M196.8500514825185,304.8235334166476 L263.26289772987366,304.8235334166476"/><path d="M263.26289772987366,304.8235334166476 L263.87782394886017,304.8235334166476"/><path d="M438.1500979264577,304.8235334166476 L365.028848250707,304.8235334166476"/><path d="M438.1500979264577,304.8235334166476 L438.1500979264577,304.3424742627729"/><path d="M438.1500979264577,304.3424742627729 L438.1500979264577,304.0297783621737"/><path d="M438.1500979264577,304.0297783621737 L365.028848250707,304.0297783621737"/><path d="M196.8500514825185,304.0297783621737 L196.8500514825185,304.2386628397891"/><path d="M263.26289772987366,304.0297783621737 L196.8500514825185,304.0297783621737"/><path d="M269.97125645478565,304.0297783621737 L365.028848250707,304.0297783621737"/><path d="M269.97125645478565,304.0297783621737 L263.87782394886017,304.0297783621737"/><path d="M263.87782394886017,304.0297783621737 L263.26289772987366,304.0297783621737"/><path d="M422.2749372323354,331.14957632706455 L374.6499915917714,331.14957632706455"/><path d="M196.8500514825185,331.14957632706455 L374.6499915917714,331.14957632706455"/><path d="M196.8500514825185,331.14957632706455 L196.8500514825185,331.28883264547477"/><path d="M438.1499389807383,331.14957632706455 L422.2749372323354,331.14957632706455"/><path d="M438.1499389807383,331.60911820417533 L438.1499389807383,331.14957632706455"/><path d="M438.1499389807383,331.67874636338047 L438.1499389807383,331.60911820417533"/><path d="M438.1499389807383,331.67874636338047 L422.2749372323354,331.67874636338047"/><path d="M196.8500514825185,331.28883264547477 L196.8500514825185,331.67874636338047"/><path d="M374.6499915917714,331.67874636338047 L196.8500514825185,331.67874636338047"/><path d="M422.2749372323354,331.67874636338047 L374.6499915917714,331.67874636338047"/><path d="M266.48660004138947,304.9558259257266 L368.51345499356586,304.9558259257266"/><path d="M266.48660004138947,304.9558259257266 L265.8577859401703,304.9558259257266"/><path d="M406.4000149567922,305.749571046093 L191.02920095125833,305.749571046093"/><path d="M265.8577859401703,304.9558259257266 L191.02920095125833,304.9558259257266"/><path d="M191.02920095125833,304.9558259257266 L191.02920095125833,305.0737239130923"/><path d="M191.02920095125833,305.0737239130923 L191.02920095125833,305.749571046093"/><path d="M443.97082924842834,305.749571046093 L406.4000149567922,305.749571046093"/><path d="M443.97082924842834,305.749571046093 L443.97082924842834,305.2759922751376"/><path d="M443.97082924842834,305.2759922751376 L443.97082924842834,304.9558259257266"/><path d="M443.97082924842834,304.9558259257266 L368.51345499356586,304.9558259257266"/><path d="M406.4000149567922,331.14957632706455 L191.02920095125833,331.14957632706455"/><path d="M228.6000351111094,305.749571046093 L191.02920095125833,305.749571046093"/><path d="M191.02920095125833,305.749571046093 L191.02920095125833,309.52237866407523"/><path d="M191.02920095125833,309.52237866407523 L191.02920095125833,331.14957632706455"/><path d="M443.97082924842834,305.749571046093 L228.6000351111094,305.749571046093"/><path d="M443.97082924842834,331.14957632706455 L406.4000149567922,331.14957632706455"/><path d="M443.97082924842834,331.14957632706455 L443.97082924842834,327.37677119260917"/><path d="M443.97082924842834,327.37677119260917 L443.97082924842834,305.749571046093"/><path d="M422.2749372323354,332.34020890877537 L374.6499915917714,332.34020890877537"/><path d="M422.2749372323354,331.6787562974879 L374.6499915917714,331.6787562974879"/><path d="M374.6499915917714,332.34020890877537 L196.8500514825185,332.34020890877537"/><path d="M196.8500514825185,331.6787562974879 L374.6499915917714,331.6787562974879"/><path d="M196.8500514825185,331.6787562974879 L196.8500514825185,331.852821728447"/><path d="M196.8500514825185,331.852821728447 L196.8500514825185,332.34020890877537"/><path d="M438.1499389807383,331.6787562974879 L422.2749372323354,331.6787562974879"/><path d="M438.1499389807383,332.34020890877537 L422.2749372323354,332.34020890877537"/><path d="M438.1499389807383,332.34020890877537 L438.1499389807383,332.2531761932958"/><path d="M438.1499389807383,332.2531761932958 L438.1499389807383,331.6787562974879"/></g></g>
</svg>