<svg xmlns="http://www.w3.org/2000/svg" xmlns:xlink="http://www.w3.org/1999/xlink" xmlns:ifc="http://www.ifcopenshell.org/ns" width="635mm" height="533.685mm" viewBox="0 0 635 533.685">
    <defs>
        <marker id="arrowend" markerWidth="10" markerHeight="7" refX="10" refY="3.5" orient="auto">
          <polygon points="0 0, 10 3.5, 0 7"/>
        </marker>
        <marker id="arrowstart" markerWidth="10" markerHeight="7" refX="0" refY="3.5" orient="auto">
          <polygon points="10 0, 0 3.5, 10 7"/>
        </marker>
    </defs>
    <g ifc:name="Elevation SECTION - WEST - BUTTED ROOF_layers" class="section" ifc:plane="[[1.000000,0.000000,0.000000,0.000000],[0.000000,1.000000,0.000000,0.000000],[0.000000,0.000000,1.000000,0.000000],[0.000000,0.000000,0.000000,1.000000]]" ifc:matrix3="[[41.666668,0.000000,190.500003],[0.000000,41.666668,431.942329],[0.000000,0.000000,1.000000]]">
        <g id="product-d0d891f6-24f8-45ee-bba3-0e1d6711372e" class="IfcWall material-null predefinedtype-ELEMENTEDWALL projection" ifc:name="Wall" ifc:guid="3Gs97s9FX5xhkZ3Xrd4JSk">
            <path d="M438.15,436.176 L436.033,436.176"/>
            <path d="M438.15,436.176 L438.15,436.176"/>
            <path d="M438.15,482.742 L438.15,436.176"/>
            <path d="M438.15,436.176 L436.033,436.176"/>
            <path d="M438.15,436.176 L438.15,482.742"/>
            <path d="M436.033,436.176 L436.033,436.176"/>
            <path d="M436.033,436.176 L436.033,482.742"/>
            <path d="M436.033,436.176 L436.033,436.176"/>
            <path d="M436.033,442.526 L436.033,482.742"/>
            <path d="M436.033,482.742 L438.15,482.742"/>
            <path d="M438.15,482.742 L438.15,482.742"/>
            <path d="M436.033,482.742 L438.15,482.742"/>
            <path d="M436.033,482.742 L436.033,482.742"/>
            <path d="M444.5,438.292 L444.5,431.942"/>
            <path d="M444.5,431.942 L444.5,431.942"/>
            <path d="M444.5,431.942 L439.208,431.942"/>
            <path d="M439.208,431.942 L439.208,431.942"/>
            <path d="M439.208,431.942 L439.208,436.176"/>
            <path d="M444.5,438.292 L444.5,438.292"/>
            <path d="M448.733,438.292 L444.5,438.292"/>
            <path d="M448.733,438.292 L448.733,438.292"/>
            <path d="M448.733,482.742 L448.733,438.292"/>
            <path d="M443.971,431.942 L444.5,431.942"/>
            <path d="M444.5,431.942 L444.5,438.292"/>
            <path d="M444.5,438.292 L448.733,438.292"/>
            <path d="M448.733,438.292 L448.733,482.742"/>
            <path d="M448.733,482.742 L448.733,482.742"/>
            <path d="M448.733,482.742 L438.15,482.742"/>
            <path d="M438.15,482.742 L448.733,482.742"/>
            <path d="M439.208,436.176 L438.15,436.176"/>
            <path d="M439.208,436.176 L438.15,436.176"/>
            <path d="M439.208,436.176 L439.208,436.176"/>
            <path d="M438.15,436.176 L438.15,482.742"/>
            <path d="M438.15,482.742 L438.15,482.742"/>
            <path d="M438.15,436.176 L438.15,436.176"/>
            <path d="M438.15,436.176 L438.15,436.176"/>
        </g>
        <g id="product-ae27d215-a6f3-47d7-8416-37233098fda4" class="IfcWall material-null predefinedtype-ELEMENTEDWALL projection" ifc:name="Wall" ifc:guid="2k9z8LflD7ruGMDoCmcFsa">
            <path d="M196.85,482.742 L196.85,436.176"/>
            <path d="M196.85,482.742 L196.85,436.176"/>
            <path d="M198.967,436.176 L198.967,482.742"/>
            <path d="M198.967,482.742 L198.967,468.09"/>
            <path d="M198.967,436.176 L198.967,436.176"/>
            <path d="M198.967,482.742 L196.85,482.742"/>
            <path d="M196.85,482.742 L196.85,482.742"/>
            <path d="M198.967,482.742 L196.85,482.742"/>
            <path d="M198.967,482.742 L198.967,482.742"/>
            <path d="M198.967,436.176 L196.85,436.176"/>
            <path d="M196.85,436.176 L196.85,436.176"/>
            <path d="M196.85,436.176 L198.967,436.176"/>
            <path d="M198.967,436.176 L198.967,436.176"/>
            <path d="M196.85,482.742 L186.267,482.742"/>
            <path d="M196.85,482.742 L196.85,482.742"/>
            <path d="M196.85,436.176 L196.85,482.742"/>
            <path d="M195.792,431.942 L195.792,436.176"/>
            <path d="M190.5,438.292 L190.5,431.942"/>
            <path d="M196.85,482.742 L186.267,482.742"/>
            <path d="M195.792,436.176 L196.85,436.176"/>
            <path d="M196.85,436.176 L196.85,436.176"/>
            <path d="M195.792,436.176 L195.792,436.176"/>
            <path d="M189.442,438.292 L186.267,438.292"/>
            <path d="M186.267,438.292 L190.5,438.292"/>
            <path d="M190.5,438.292 L190.5,438.292"/>
            <path d="M195.792,436.176 L195.792,431.942"/>
            <path d="M196.85,436.176 L196.85,431.942"/>
            <path d="M195.792,436.176 L196.85,436.176"/>
            <path d="M186.267,482.742 L186.267,438.292"/>
            <path d="M186.267,482.742 L186.267,482.742"/>
            <path d="M186.267,482.742 L186.267,438.292"/>
            <path d="M186.267,438.292 L186.267,438.292"/>
            <path d="M196.85,431.942 L195.792,431.942"/>
            <path d="M196.85,431.942 L196.85,431.942"/>
            <path d="M190.5,431.942 L190.5,431.942"/>
            <path d="M190.5,431.942 L195.792,431.942"/>
            <path d="M195.792,431.942 L195.792,431.942"/>
            <path d="M190.5,431.942 L190.5,438.292"/>
            <path d="M190.5,438.292 L196.85,438.292"/>
            <path d="M190.5,431.942 L191.029,431.942"/>
        </g>
        <g id="product-476b1527-9c27-47cb-93e9-6a0894831a55" class="IfcWall material-null predefinedtype-ELEMENTEDWALL projection" ifc:name="Wall" ifc:guid="17QnKdd2T7ovFfQWYKWnfL">
            <path d="M438.15,482.742 L438.15,436.176"/>
            <path d="M198.967,482.742 L198.967,436.176"/>
            <path d="M198.967,482.742 L438.15,482.742"/>
            <path d="M438.15,436.176 L438.15,436.176"/>
            <path d="M436.033,436.176 L198.967,436.176"/>
            <path d="M448.733,482.742 L196.85,482.742"/>
            <path d="M448.733,482.742 L448.733,438.292"/>
            <path d="M439.208,436.176 L438.15,436.176"/>
            <path d="M436.033,436.176 L198.967,436.176"/>
            <path d="M196.85,436.176 L196.85,436.176"/>
            <path d="M448.733,438.292 L448.733,438.292"/>
            <path d="M448.733,438.292 L448.733,438.292"/>
            <path d="M439.208,436.176 L439.208,431.942"/>
            <path d="M196.85,431.942 L196.85,431.942"/>
            <path d="M196.85,482.742 L196.85,436.176"/>
        </g>
        <g id="product-85362d87-afdd-4025-801e-30f8c86ec0a5" class="IfcSlab material-null predefinedtype-ROOF projection" ifc:name="Cube" ifc:guid="25DYs7hzr09O0UCFZ8Ri2b">
            <path d="M317.501,68.4414 L318.061,69.0039"/>
            <path d="M151.022,234.92 L317.501,68.4414"/>
            <path d="M318.061,69.0039 L151.583,235.481"/>
            <path d="M317.5,69.5646 L151.583,235.481"/>
            <path d="M318.061,69.0039 L317.785,68.7271"/>
            <path d="M317.5,68.442 L151.022,234.92"/>
            <path d="M151.022,234.92 L151.022,234.92"/>
            <path d="M151.583,235.481 L151.022,234.92"/>
            <path d="M151.583,235.481 L151.583,235.481"/>
            <path d="M151.583,235.481 L151.022,234.92"/>
            <path d="M317.51,69.5549 L325.909,77.9932"/>
            <path d="M321.709,73.7732 L325.909,77.9931"/>
            <path d="M151.583,235.481 L317.51,69.5549"/>
            <path d="M317.5,69.5646 L151.583,235.481"/>
            <path d="M325.909,77.9932 L160.002,243.9"/>
            <path d="M243.021,160.882 L160.002,243.9"/>
            <path d="M151.583,235.481 L151.583,235.481"/>
            <path d="M160.002,243.9 L151.583,235.481"/>
            <path d="M160.002,243.9 L160.002,243.9"/>
            <path d="M160.002,243.9 L151.583,235.481"/>
            <path d="M317.501,86.402 L317.967,86.8708"/>
            <path d="M196.85,207.052 L317.501,86.402"/>
            <path d="M317.967,86.8708 L196.85,207.988"/>
            <path d="M317.5,87.338 L196.85,207.988"/>
            <path d="M317.967,86.8708 L317.735,86.6373"/>
            <path d="M317.5,86.4025 L196.85,207.053"/>
            <path d="M196.85,207.052 L196.85,207.053"/>
            <path d="M196.85,207.988 L196.85,207.053"/>
            <path d="M196.85,207.988 L196.85,207.988"/>
            <path d="M196.85,207.988 L196.85,207.052"/>
            <path d="M317.501,67.3188 L318.061,67.8814"/>
            <path d="M317.501,67.3188 L318.061,67.8814"/>
            <path d="M317.501,67.3188 L150.461,234.359"/>
            <path d="M150.461,234.359 L317.501,67.3188"/>
            <path d="M317.501,67.3188 L317.501,67.3188"/>
            <path d="M150.461,234.359 L151.022,234.92"/>
            <path d="M151.022,234.92 L150.461,234.359"/>
            <path d="M150.461,234.359 L150.461,234.359"/>
            <path d="M318.061,67.8814 L151.022,234.92"/>
            <path d="M151.022,234.92 L151.022,234.92"/>
            <path d="M317.5,68.442 L151.022,234.92"/>
        </g>
        <g id="product-e0eec433-7a0f-4648-b8e1-48a8704a4ed7" class="IfcWall material-null predefinedtype-ELEMENTEDWALL projection" ifc:name="Cube" ifc:guid="3WxiGpUWz6IBZXIAXmIaxN">
            <path d="M196.85,207.988 L196.85,304.017"/>
            <path d="M196.85,304.017 L196.85,207.988"/>
            <path d="M197.512,207.326 L197.512,304.016"/>
            <path d="M197.512,207.326 L197.512,304.017"/>
            <path d="M197.512,207.326 L197.512,207.326"/>
            <path d="M196.85,207.988 L197.512,207.326"/>
            <path d="M196.85,207.988 L196.85,207.988"/>
            <path d="M196.85,207.988 L197.512,207.326"/>
            <path d="M197.512,304.017 L196.85,304.017"/>
            <path d="M196.85,304.017 L196.85,304.017"/>
            <path d="M196.85,304.017 L196.85,304.017"/>
            <path d="M191.029,304.942 L191.029,212.873"/>
            <path d="M191.029,304.942 L191.029,212.873"/>
            <path d="M196.85,207.053 L196.85,304.942"/>
            <path d="M196.85,304.942 L191.029,304.942"/>
            <path d="M191.029,304.942 L191.029,304.942"/>
            <path d="M196.85,304.942 L191.029,304.942"/>
            <path d="M196.85,304.942 L196.85,304.942"/>
            <path d="M196.85,207.053 L196.85,207.053"/>
            <path d="M191.029,212.873 L196.85,207.053"/>
            <path d="M191.029,212.873 L191.029,212.873"/>
            <path d="M191.029,212.873 L196.85,207.053"/>
            <path d="M190.5,311.292 L190.5,213.403"/>
            <path d="M190.5,311.292 L190.5,213.403"/>
            <path d="M191.029,212.873 L191.029,311.292"/>
            <path d="M191.029,311.292 L190.5,311.292"/>
            <path d="M190.5,311.292 L190.5,311.292"/>
            <path d="M191.029,311.292 L190.5,311.292"/>
            <path d="M191.029,212.873 L191.029,212.873"/>
            <path d="M190.5,213.403 L191.029,212.873"/>
            <path d="M190.5,213.403 L190.5,213.403"/>
            <path d="M190.5,213.403 L191.029,212.873"/>
            <path d="M189.442,214.461 L190.5,213.403"/>
            <path d="M189.442,214.461 L190.5,213.403"/>
            <path d="M189.442,214.461 L189.442,311.292"/>
            <path d="M189.442,311.292 L189.442,214.461"/>
            <path d="M189.442,214.461 L189.442,214.461"/>
            <path d="M190.5,213.403 L190.5,213.403"/>
            <path d="M190.5,213.403 L190.5,311.292"/>
            <path d="M190.5,311.292 L189.442,311.292"/>
            <path d="M189.442,311.292 L189.442,311.292"/>
            <path d="M190.5,311.292 L189.442,311.292"/>
            <path d="M190.5,311.292 L190.5,311.292"/>
            <path d="M185.738,218.165 L189.442,214.461"/>
            <path d="M189.442,311.292 L185.738,311.292"/>
            <path d="M185.738,311.292 L185.738,311.292"/>
            <path d="M185.738,311.292 L185.738,218.165"/>
            <path d="M185.738,218.165 L185.738,218.165"/>
            <path d="M185.738,218.165 L189.442,214.461"/>
            <path d="M185.738,218.165 L185.738,311.292"/>
            <path d="M185.738,311.292 L189.442,311.292"/>
            <path d="M189.442,214.461 L189.442,214.461"/>
            <path d="M189.442,214.461 L189.442,311.292"/>
            <path d="M189.442,311.292 L189.442,311.292"/>
        </g>
        <g id="product-2e376fdc-4778-4e76-b364-be588bc494c0" class="IfcSlab material-null predefinedtype-BASESLAB projection" ifc:name="Cube" ifc:guid="0kDs$SHtXEThDalbYBn9J0">
            <path d="M198.967,442.526 L198.967,438.292"/>
            <path d="M198.967,438.292 L436.033,438.292"/>
            <path d="M198.967,438.292 L198.967,438.292"/>
            <path d="M436.033,438.292 L436.033,438.292"/>
            <path d="M436.033,438.292 L436.033,442.526"/>
            <path d="M198.967,438.292 L198.967,442.526"/>
            <path d="M436.033,438.292 L436.033,442.526"/>
            <path d="M198.967,438.292 L436.033,438.292"/>
            <path d="M436.033,442.526 L198.967,442.526"/>
            <path d="M198.967,442.526 L198.967,442.526"/>
            <path d="M436.033,442.526 L198.967,442.526"/>
            <path d="M436.033,442.526 L436.033,442.526"/>
            <path d="M436.033,438.292 L198.967,438.292"/>
            <path d="M198.967,438.292 L198.967,438.292"/>
            <path d="M198.967,438.292 L198.967,436.176"/>
            <path d="M198.967,436.176 L436.033,436.176"/>
            <path d="M198.967,436.176 L198.967,436.176"/>
            <path d="M436.033,438.292 L436.033,438.292"/>
            <path d="M436.033,436.176 L436.033,436.176"/>
            <path d="M436.033,436.176 L436.033,438.292"/>
            <path d="M198.967,436.176 L198.967,438.292"/>
            <path d="M198.967,438.292 L436.033,438.292"/>
            <path d="M436.033,438.292 L436.033,436.176"/>
            <path d="M198.967,436.176 L436.033,436.176"/>
            <path d="M195.792,436.176 L195.792,431.942"/>
            <path d="M439.208,436.176 L195.792,436.176"/>
            <path d="M195.792,436.176 L195.792,436.176"/>
            <path d="M439.208,436.176 L439.208,436.176"/>
            <path d="M439.208,431.942 L439.208,436.176"/>
            <path d="M195.792,436.176 L195.792,431.942"/>
            <path d="M195.792,436.176 L196.85,436.176"/>
            <path d="M195.792,431.942 L439.208,431.942"/>
            <path d="M439.208,431.942 L439.208,431.942"/>
            <path d="M195.792,431.942 L196.85,431.942"/>
            <path d="M195.792,431.942 L195.792,431.942"/>
        </g>
        <g id="product-5afe24e6-b053-4d21-8629-9a17b632780b" class="IfcWall material-null predefinedtype-ELEMENTEDWALL projection" ifc:name="Cube" ifc:guid="1Q$YJci5DD8OOfcXUsCdWB">
            <path d="M196.85,431.942 L197.512,431.942"/>
            <path d="M197.512,431.942 L196.85,431.942"/>
            <path d="M196.85,431.942 L196.85,332.327"/>
            <path d="M196.85,431.942 L196.85,431.942"/>
            <path d="M196.85,431.942 L196.85,332.327"/>
            <path d="M197.512,431.942 L197.512,332.327"/>
            <path d="M197.512,332.327 L197.512,431.942"/>
            <path d="M197.512,431.942 L197.512,431.942"/>
            <path d="M196.85,332.327 L196.85,332.327"/>
            <path d="M196.85,332.327 L196.85,332.327"/>
            <path d="M196.85,332.327 L197.512,332.327"/>
            <path d="M191.029,431.942 L196.85,431.942"/>
            <path d="M196.85,431.942 L191.029,431.942"/>
            <path d="M191.029,431.942 L191.029,331.136"/>
            <path d="M191.029,431.942 L191.029,431.942"/>
            <path d="M191.029,431.942 L191.029,331.136"/>
            <path d="M191.029,331.136 L191.029,331.136"/>
            <path d="M191.029,331.136 L196.85,331.136"/>
            <path d="M191.029,331.136 L196.85,331.136"/>
            <path d="M196.85,431.942 L196.85,431.942"/>
            <path d="M196.85,331.136 L196.85,331.136"/>
            <path d="M196.85,331.136 L196.85,331.136"/>
            <path d="M196.85,331.136 L196.85,431.942"/>
            <path d="M190.5,311.292 L191.029,311.292"/>
            <path d="M190.5,311.292 L191.029,311.292"/>
            <path d="M190.5,431.942 L191.029,431.942"/>
            <path d="M191.029,431.942 L190.5,431.942"/>
            <path d="M190.5,431.942 L190.5,311.292"/>
            <path d="M190.5,431.942 L190.5,431.942"/>
            <path d="M190.5,431.942 L190.5,311.292"/>
            <path d="M190.5,311.292 L190.5,311.292"/>
            <path d="M191.029,431.942 L191.029,431.942"/>
            <path d="M191.029,311.292 L191.029,431.942"/>
            <path d="M189.442,438.292 L190.5,438.292"/>
            <path d="M190.5,438.292 L189.442,438.292"/>
            <path d="M189.442,311.292 L190.5,311.292"/>
            <path d="M189.442,311.292 L190.5,311.292"/>
            <path d="M189.442,438.292 L189.442,311.292"/>
            <path d="M189.442,438.292 L189.442,438.292"/>
            <path d="M189.442,438.292 L189.442,311.292"/>
            <path d="M189.442,311.292 L189.442,311.292"/>
            <path d="M190.5,438.292 L190.5,438.292"/>
            <path d="M190.5,311.292 L190.5,311.292"/>
            <path d="M190.5,311.292 L190.5,438.292"/>
            <path d="M185.738,311.292 L189.442,311.292"/>
            <path d="M189.442,438.292 L185.738,438.292"/>
            <path d="M185.738,438.292 L186.267,438.292"/>
            <path d="M185.738,311.292 L189.442,311.292"/>
            <path d="M185.738,438.292 L185.738,311.292"/>
            <path d="M185.738,438.292 L185.738,438.292"/>
            <path d="M185.738,438.292 L185.738,311.292"/>
            <path d="M185.738,311.292 L185.738,311.292"/>
            <path d="M189.442,438.292 L189.442,438.292"/>
            <path d="M189.442,311.292 L189.442,311.292"/>
            <path d="M189.442,311.292 L189.442,438.292"/>
        </g>
        <g id="product-46af7981-84fa-427d-9902-91ec2e72c8bd" class="IfcWall material-null predefinedtype-ELEMENTEDWALL projection" ifc:name="Cube" ifc:guid="16htc1XFf2VPa2aUmkSiYz">
            <path d="M382.869,152.707 L317.5,87.3381"/>
            <path d="M317.5,87.3381 L317.5,303.619"/>
            <path d="M317.968,86.8703 L317.741,86.644"/>
            <path d="M317.741,86.644 L317.968,86.8703"/>
            <path d="M317.5,87.3381 L317.5,303.619"/>
            <path d="M317.739,86.6414 L317.968,86.8703"/>
            <path d="M443.971,212.873 L444.4,213.303"/>
            <path d="M444.5,213.403 L444.5,213.403"/>
        </g>
        <g id="product-d8df14fc-3d4e-4e58-9847-17674f4e8307" class="IfcWall material-null predefinedtype-ELEMENTEDWALL projection" ifc:name="Cube" ifc:guid="3OtnJyFKvEM9X75sTFJeC7">
            <path d="M437.489,332.327 L438.15,332.327"/>
            <path d="M438.15,332.327 L438.15,332.327"/>
            <path d="M438.15,332.327 L438.15,431.942"/>
            <path d="M438.15,431.942 L437.489,431.942"/>
            <path d="M438.15,431.942 L438.15,431.942"/>
            <path d="M437.489,431.942 L437.489,332.327"/>
            <path d="M437.489,332.327 L437.489,332.327"/>
            <path d="M437.489,431.942 L437.489,431.942"/>
            <path d="M437.489,332.327 L437.489,431.942"/>
            <path d="M437.489,431.942 L438.15,431.942"/>
            <path d="M438.15,431.942 L438.15,332.327"/>
            <path d="M437.489,332.327 L438.15,332.327"/>
            <path d="M438.15,331.136 L443.971,331.136"/>
            <path d="M438.15,431.942 L438.15,331.136"/>
            <path d="M438.15,331.136 L438.15,331.136"/>
            <path d="M443.971,431.942 L438.15,431.942"/>
            <path d="M438.15,431.942 L438.15,431.942"/>
            <path d="M443.971,331.136 L443.971,431.942"/>
            <path d="M443.971,431.942 L443.971,431.942"/>
            <path d="M443.971,331.136 L443.971,331.136"/>
            <path d="M438.15,431.942 L443.971,431.942"/>
            <path d="M443.971,431.942 L443.971,331.136"/>
            <path d="M443.971,331.136 L438.15,331.136"/>
            <path d="M438.15,332.327 L438.15,331.136"/>
            <path d="M443.971,311.292 L444.5,311.292"/>
            <path d="M444.5,431.942 L443.971,431.942"/>
            <path d="M444.5,431.942 L444.5,431.942"/>
            <path d="M444.5,311.292 L444.5,311.292"/>
            <path d="M444.5,311.292 L444.5,431.942"/>
            <path d="M444.5,431.942 L444.5,431.942"/>
            <path d="M444.5,431.942 L444.5,311.292"/>
            <path d="M444.5,311.292 L443.971,311.292"/>
            <path d="M443.971,431.942 L443.971,431.942"/>
            <path d="M443.971,431.942 L443.971,311.292"/>
            <path d="M443.971,311.292 L443.971,311.292"/>
            <path d="M443.971,331.136 L443.971,311.292"/>
            <path d="M444.5,311.292 L445.558,311.292"/>
            <path d="M444.5,438.292 L444.5,311.292"/>
            <path d="M444.5,311.292 L444.5,311.292"/>
            <path d="M445.558,438.292 L444.5,438.292"/>
            <path d="M444.5,438.292 L444.5,438.292"/>
            <path d="M445.558,311.292 L445.558,438.292"/>
            <path d="M445.558,438.292 L445.558,438.292"/>
            <path d="M445.558,311.292 L445.558,311.292"/>
            <path d="M444.5,431.942 L444.5,438.292"/>
            <path d="M445.558,438.292 L445.558,311.292"/>
            <path d="M444.5,311.292 L445.558,311.292"/>
            <path d="M445.558,438.292 L445.558,311.292"/>
            <path d="M445.558,311.292 L445.558,311.292"/>
            <path d="M445.558,311.292 L449.263,311.292"/>
            <path d="M449.263,438.292 L445.558,438.292"/>
            <path d="M445.558,438.292 L445.558,438.292"/>
            <path d="M449.263,311.292 L449.263,438.292"/>
            <path d="M449.263,438.292 L449.263,438.292"/>
            <path d="M449.263,311.292 L449.263,311.292"/>
            <path d="M448.733,438.292 L449.263,438.292"/>
            <path d="M449.263,438.292 L449.263,311.292"/>
            <path d="M445.558,311.292 L449.263,311.292"/>
        </g>
        <g id="product-ecf3b84c-62e0-480e-9b8e-0fb8ee0dd302" class="IfcWall material-null predefinedtype-ELEMENTEDWALL projection" ifc:name="Cube" ifc:guid="3iyxXCOk183fkE3xZk3TC2">
            <path d="M317.5,87.338 L197.544,207.294"/>
            <path d="M317.5,87.338 L317.5,303.619"/>
            <path d="M317.5,303.619 L317.5,87.3381"/>
            <path d="M289.333,115.504 L197.544,207.294"/>
            <path d="M197.544,207.294 L197.544,303.619"/>
            <path d="M197.544,304.016 L197.544,304.016"/>
            <path d="M317.5,86.4025 L237.375,166.528"/>
            <path d="M317.5,87.3381 L317.5,303.619"/>
            <path d="M196.85,207.052 L196.85,207.975"/>
            <path d="M196.85,207.988 L196.85,304.942"/>
            <path d="M317.5,86.4025 L223.249,180.654"/>
            <path d="M196.85,207.053 L191.029,212.873"/>
            <path d="M317.5,87.3381 L317.5,303.619"/>
            <path d="M317.5,304.942 L317.5,304.942"/>
            <path d="M191.029,212.873 L191.029,305.736"/>
            <path d="M191.029,212.873 L190.5,213.402"/>
            <path d="M191.029,311.292 L190.5,311.292"/>
            <path d="M190.5,213.402 L190.5,311.292"/>
            <path d="M189.442,214.461 L190.5,213.403"/>
            <path d="M190.5,311.292 L189.442,311.292"/>
            <path d="M189.442,311.292 L189.442,214.461"/>
            <path d="M189.442,214.461 L190.5,213.403"/>
        </g>
        <g id="product-7f4c2e04-e912-421e-9d9f-7a097ca1f2bb" class="IfcWall material-null predefinedtype-ELEMENTEDWALL projection" ifc:name="Cube" ifc:guid="1$J2u4wH927fsVUWbyeVAx">
            <path d="M437.489,207.327 L438.15,207.988"/>
            <path d="M437.489,304.019 L437.489,207.327"/>
            <path d="M438.15,304.019 L437.489,304.019"/>
            <path d="M438.15,207.988 L438.15,304.019"/>
            <path d="M438.15,207.053 L443.971,212.873"/>
            <path d="M438.15,304.942 L438.15,207.053"/>
            <path d="M443.971,304.942 L438.15,304.942"/>
            <path d="M443.971,212.873 L443.971,304.942"/>
            <path d="M444.5,213.403 L444.5,311.292"/>
            <path d="M443.971,212.873 L444.5,213.403"/>
            <path d="M443.971,311.292 L443.971,212.873"/>
            <path d="M444.5,311.292 L443.971,311.292"/>
            <path d="M445.558,311.292 L444.5,311.292"/>
            <path d="M445.558,214.461 L445.558,311.292"/>
            <path d="M445.558,214.461 L444.5,213.403"/>
            <path d="M444.5,311.292 L444.5,213.403"/>
            <path d="M449.263,311.292 L445.558,311.292"/>
            <path d="M449.263,218.165 L449.263,311.292"/>
            <path d="M449.263,218.165 L445.558,214.461"/>
            <path d="M445.558,311.292 L445.558,214.461"/>
        </g>
        <g id="product-8d8ecc6f-4583-472d-a6b0-ebcfbeed9a6c" class="IfcSlab material-null predefinedtype-FLOOR projection" ifc:name="Cube" ifc:guid="2DZinlHOD7BQQmwy__xPfi">
            <path d="M437.489,303.619 L437.489,304.016"/>
            <path d="M197.512,303.619 L437.489,303.619"/>
            <path d="M197.512,304.016 L197.512,303.619"/>
            <path d="M437.489,304.016 L197.512,304.016"/>
            <path d="M438.15,304.81 L438.15,304.942"/>
            <path d="M196.85,304.81 L438.15,304.81"/>
            <path d="M196.85,304.942 L196.85,304.81"/>
            <path d="M438.15,304.942 L196.85,304.942"/>
            <path d="M196.85,304.81 L196.85,304.016"/>
            <path d="M438.15,304.81 L196.85,304.81"/>
            <path d="M438.15,304.016 L438.15,304.81"/>
            <path d="M196.85,304.016 L438.15,304.016"/>
            <path d="M438.15,331.136 L438.15,331.665"/>
            <path d="M196.85,331.136 L438.15,331.136"/>
            <path d="M196.85,331.665 L196.85,331.136"/>
            <path d="M438.15,331.665 L196.85,331.665"/>
            <path d="M191.029,304.942 L443.971,304.942"/>
            <path d="M191.029,305.736 L191.029,304.942"/>
            <path d="M443.971,305.736 L191.029,305.736"/>
            <path d="M443.971,304.942 L443.971,305.736"/>
            <path d="M191.029,305.736 L443.971,305.736"/>
            <path d="M191.029,331.136 L191.029,305.736"/>
            <path d="M443.971,331.136 L191.029,331.136"/>
            <path d="M443.971,305.736 L443.971,331.136"/>
            <path d="M196.85,331.665 L438.15,331.665"/>
            <path d="M196.85,332.327 L196.85,331.665"/>
            <path d="M438.15,332.327 L196.85,332.327"/>
            <path d="M438.15,331.665 L438.15,332.327"/>
        </g>
        <g id="product-ef9dc3e9-f5c0-49b3-b719-af81659c0d9f" class="IfcSlab material-null predefinedtype-ROOF projection" ifc:name="Cube" ifc:guid="3ldSFfzS19ixSPhu5bd0sV">
            <path d="M483.417,235.481 L317.5,69.5646"/>
            <path d="M483.978,234.92 L483.417,235.481"/>
            <path d="M318.061,69.0033 L483.978,234.92"/>
            <path d="M317.5,69.5646 L318.061,69.0033"/>
            <path d="M474.998,243.9 L317.5,86.4025"/>
            <path d="M483.417,235.481 L474.998,243.9"/>
            <path d="M325.919,77.9835 L483.417,235.481"/>
            <path d="M317.5,86.4025 L325.919,77.9835"/>
            <path d="M317.5,87.338 L317.968,86.8703"/>
            <path d="M443.971,213.809 L317.5,87.338"/>
            <path d="M443.971,213.809 L443.971,212.873"/>
            <path d="M317.968,86.8703 L443.971,212.873"/>
            <path d="M444.5,213.403 L474.998,243.9"/>
            <path d="M444.5,213.403 L444.5,214.338"/>
            <path d="M474.53,244.368 L444.5,214.338"/>
            <path d="M474.998,243.9 L474.53,244.368"/>
            <path d="M317.5,68.442 L318.061,67.8808"/>
            <path d="M483.978,234.92 L317.5,68.442"/>
            <path d="M484.539,234.359 L483.978,234.92"/>
            <path d="M318.061,67.8808 L484.539,234.359"/>
        </g>
        <g id="product-bd933419-2e92-4186-b35b-13cf4399c256" class="IfcWall material-null predefinedtype-ELEMENTEDWALL projection" ifc:name="Cube" ifc:guid="2zapGPBf91XhDR4yz3cS9M">
            <path d="M437.489,332.327 L197.544,332.327"/>
            <path d="M437.489,431.942 L197.544,431.942"/>
            <path d="M197.544,332.327 L197.544,431.942"/>
            <path d="M196.85,431.942 L196.85,331.136"/>
            <path d="M196.85,331.136 L196.85,331.136"/>
            <path d="M438.15,331.136 L438.15,331.136"/>
            <path d="M196.85,431.942 L437.489,431.942"/>
            <path d="M195.792,431.942 L191.029,431.942"/>
            <path d="M191.029,431.942 L191.029,331.136"/>
            <path d="M443.971,311.292 L443.971,311.292"/>
            <path d="M444.5,311.292 L443.971,311.292"/>
            <path d="M196.85,438.292 L190.5,438.292"/>
            <path d="M190.5,311.292 L190.5,438.292"/>
            <path d="M445.558,311.292 L443.971,311.292"/>
            <path d="M196.85,438.292 L190.5,438.292"/>
            <path d="M189.442,311.292 L189.442,438.292"/>
        </g>
    <g ifc:guid="3Gs97s9FX5xhkZ3Xrd4JSk" ifc:name="Wall" class="IfcWall material-null predefinedtype-ELEMENTEDWALL cut"><path d="M438.1499389807383,436.1756307635177 L437.8853539625803,436.1756307635177"/><path d="M438.1499389807383,436.1756307635177 L438.1499389807383,476.9729835543502"/><path d="M437.8853539625803,436.1756307635177 L436.0332588354746,436.1756307635177"/><path d="M436.0332985719045,476.9214652730493 L436.0332588354746,436.1756307635177"/><path d="M438.1499389807383,476.9729835543502 L438.1499389807383,482.7422959360946"/><path d="M438.1499389807383,482.7422959360946 L437.8853539625803,482.7422959360946"/><path d="M437.8853539625803,482.7422959360946 L436.0332985719045,482.7422959360946"/><path d="M436.0332985719045,482.7422959360946 L436.0332985719045,476.9214652730493"/><path d="M444.4999794165293,431.94230027531273 L444.4999794165293,437.4781909340092"/><path d="M444.4999794165293,431.94230027531273 L443.8067376613617,431.94230027531273"/><path d="M443.8067376613617,431.94230027531273 L439.2083187898,431.94230027531273"/><path d="M439.2083187898,435.6210492803125 L439.2083187898,431.94230027531273"/><path d="M444.4999794165293,437.4781909340092 L444.4999794165293,438.2922910405664"/><path d="M448.1905400753021,438.2922910405664 L444.4999794165293,438.2922910405664"/><path d="M448.73326023419696,438.2922910405664 L448.1905400753021,438.2922910405664"/><path d="M448.73326023419696,438.2922910405664 L448.73326023419696,443.89524685874267"/><path d="M448.73326023419696,443.89524685874267 L448.73326023419696,482.7422959360946"/><path d="M448.73326023419696,482.7422959360946 L447.3407169183095,482.7422959360946"/><path d="M439.2083187898,436.1756307635177 L439.2083187898,435.6210492803125"/><path d="M439.2083187898,436.1756307635177 L439.0690426031748,436.1756307635177"/><path d="M447.3407169183095,482.7422959360946 L438.1499389807383,482.7422959360946"/><path d="M438.1499389807383,482.7422959360946 L438.1499389807383,476.6150973989038"/><path d="M438.1499389807383,476.6150973989038 L438.1499389807383,436.1756307635177"/><path d="M439.0690426031748,436.1756307635177 L438.1499389807383,436.1756307635177"/></g><g ifc:guid="2k9z8LflD7ruGMDoCmcFsa" ifc:name="Wall" class="IfcWall material-null predefinedtype-ELEMENTEDWALL cut"><path d="M196.8500316143036,448.43002783789916 L196.8500316143036,482.7422959360946"/><path d="M198.9666720231374,482.7422959360946 L198.96670182545978,448.43002783789916"/><path d="M198.9666720231374,482.7422959360946 L198.4096566836039,482.7422959360946"/><path d="M198.4096566836039,482.7422959360946 L196.8500316143036,482.7422959360946"/><path d="M196.8500316143036,436.1756307635177 L196.8500316143036,448.43002783789916"/><path d="M198.96670182545978,448.43002783789916 L198.96670182545978,436.1756307635177"/><path d="M198.96670182545978,436.1756307635177 L197.40705688794452,436.1756307635177"/><path d="M197.40705688794452,436.1756307635177 L196.8500316143036,436.1756307635177"/><path d="M196.8500216801961,482.7422959360946 L193.43604644139606,482.7422959360946"/><path d="M196.8500216801961,482.7422959360946 L196.8500216801961,448.72838882142986"/><path d="M196.8500216801961,448.72838882142986 L196.8500216801961,436.1756307635177"/><path d="M196.8500216801961,436.1756307635177 L196.5647240479787,436.1756307635177"/><path d="M196.5647240479787,436.1756307635177 L195.79165180524188,436.1756307635177"/><path d="M195.79165180524188,436.1756307635177 L195.79165180524188,435.0344799710779"/><path d="M190.49999117851257,433.8472945246566 L190.49999117851257,438.2922910405664"/><path d="M190.49999117851257,438.2922910405664 L189.23000494639078,438.2922910405664"/><path d="M193.43604644139606,482.7422959360946 L186.26670042673746,482.7422959360946"/><path d="M189.23000494639078,438.2922910405664 L186.26670042673746,438.2922910405664"/><path d="M186.26670042673746,438.2922910405664 L186.26670042673746,452.63102280631347"/><path d="M186.26670042673746,452.63102280631347 L186.26670042673746,482.7422959360946"/><path d="M195.79165180524188,435.0344799710779 L195.79165180524188,431.94230027531273"/><path d="M195.79165180524188,431.94230027531273 L194.36520338058472,431.94230027531273"/><path d="M194.36520338058472,431.94230027531273 L190.49999117851257,431.94230027531273"/><path d="M190.49999117851257,431.94230027531273 L190.49999117851257,433.8472945246566"/></g><g ifc:guid="25DYs7hzr09O0UCFZ8Ri2b" ifc:name="Cube" class="IfcSlab material-null predefinedtype-ROOF cut"><path d="M318.021395127289,68.96456706061645 L317.84368387889117,68.78603128129923"/><path d="M317.84368387889117,68.78603128129923 L317.50059955951804,68.44139722520792"/><path d="M264.6675805250803,121.2744179123112 L317.50059955951804,68.44139722520792"/><path d="M318.0606050494437,69.00394586259806 L318.021395127289,68.96456706061645"/><path d="M204.41568891207376,182.6488438003727 L318.0606050494437,69.00394586259806"/><path d="M151.58305565516153,235.4814646396506 L204.41568891207376,182.6488438003727"/><path d="M151.02178851763406,234.9202074362306 L264.6675805250803,121.2744179123112"/><path d="M151.02178851763406,234.9202074362306 L151.40493710835773,235.30334609284682"/><path d="M151.40493710835773,235.30334609284682 L151.58305565516153,235.4814646396506"/><path d="M323.243606214722,75.31528301571491 L317.5095899265822,69.55493119890177"/><path d="M264.851838350296,122.21267449393554 L317.5095899265822,69.55493119890177"/><path d="M325.90931467711926,77.99320049618366 L323.243606214722,75.31528301571491"/><path d="M212.65369653701782,191.24882049893023 L325.90931467711926,77.99320049618366"/><path d="M151.58305565516153,235.4814646396506 L264.851838350296,122.21267449393554"/><path d="M151.58305565516153,235.4814646396506 L157.33022491137186,241.2286438299684"/><path d="M157.33022491137186,241.2286438299684 L160.00205278396606,243.90046176845513"/><path d="M160.00205278396606,243.90046176845513 L212.65369653701782,191.24882049893023"/><path d="M317.75974069023505,86.66245766018513 L317.50050021844345,86.40202509894652"/><path d="M263.878067334493,140.02444970145507 L317.50050021844345,86.40202509894652"/><path d="M317.96713503232843,86.87083549831989 L317.75974069023505,86.66245766018513"/><path d="M250.679870446523,154.15808188453002 L317.96713503232843,86.87083549831989"/><path d="M196.85004154841104,207.987910782642 L250.679870446523,154.15808188453002"/><path d="M196.8500216801961,207.05249535575194 L263.878067334493,140.02444970145507"/><path d="M196.8500216801961,207.05249535575194 L196.8500316143036,207.57216838533364"/><path d="M196.8500316143036,207.57216838533364 L196.85004154841104,207.987910782642"/><path d="M317.8828938010459,67.70285594001098 L317.5006094936255,67.31888281836791"/><path d="M264.48946694533026,120.33002205227497 L317.5006094936255,67.31888281836791"/><path d="M150.4605213801066,234.3589502328106 L264.48946694533026,120.33002205227497"/><path d="M150.4605213801066,234.3589502328106 L150.84366997083026,234.7420888894268"/><path d="M150.84366997083026,234.7420888894268 L151.02178851763406,234.9202074362306"/><path d="M318.0606050494437,67.88139171932819 L317.8828938010459,67.70285594001098"/><path d="M204.03255025545755,181.90944818193398 L318.0606050494437,67.88139171932819"/><path d="M151.02178851763406,234.9202074362306 L204.03255025545755,181.90944818193398"/></g><g ifc:guid="0kDs$SHtXEThDalbYBn9J0" ifc:name="Cube" class="IfcSlab material-null predefinedtype-BASESLAB cut"><path d="M198.96670182545978,438.29231090878136 L198.96670182545978,439.35063111319823"/><path d="M198.96670182545978,438.29231090878136 L376.76669160525,438.29231090878136"/><path d="M421.2166368961334,438.29231090878136 L376.76669160525,438.29231090878136"/><path d="M436.0332588354746,438.29231090878136 L421.2166368961334,438.29231090878136"/><path d="M436.0332588354746,441.9964812947778 L436.0332588354746,438.29231090878136"/><path d="M198.96670182545978,439.35063111319823 L198.96670182545978,442.52563146287883"/><path d="M376.76669160525,442.52563146287883 L198.96670182545978,442.52563146287883"/><path d="M436.0332588354746,442.52563146287883 L436.0332588354746,441.9964812947778"/><path d="M436.0332588354746,442.52563146287883 L421.2166368961334,442.52563146287883"/><path d="M421.2166368961334,442.52563146287883 L376.76669160525,442.52563146287883"/><path d="M421.2166368961334,438.29231090878136 L376.76669160525,438.29231090878136"/><path d="M376.76669160525,438.29231090878136 L198.96670182545978,438.29231090878136"/><path d="M198.96670182545978,436.7048007998336 L198.96670182545978,438.29231090878136"/><path d="M198.96670182545978,436.1756506317326 L198.96670182545978,436.7048007998336"/><path d="M198.96670182545978,436.1756506317326 L376.76669160525,436.1756506317326"/><path d="M421.2166368961334,436.1756506317326 L376.76669160525,436.1756506317326"/><path d="M436.0332588354746,436.1756506317326 L421.2166368961334,436.1756506317326"/><path d="M436.0332588354746,438.29231090878136 L421.2166368961334,438.29231090878136"/><path d="M436.0332588354746,438.29231090878136 L436.0332588354746,438.0277258906234"/><path d="M436.0332588354746,438.0277258906234 L436.0332588354746,436.1756506317326"/><path d="M228.59996557235718,436.1756506317326 L195.79165180524188,436.1756506317326"/><path d="M195.79165180524188,432.51288560564007 L195.79165180524188,436.1756506317326"/><path d="M439.2083187898,436.1756506317326 L228.59996557235718,436.1756506317326"/><path d="M439.2083187898,436.1756506317326 L439.2083187898,435.6050553672978"/><path d="M439.2083187898,435.6050553672978 L439.2083187898,431.94231020942016"/><path d="M439.2083187898,431.94231020942016 L406.4000149567922,431.94231020942016"/><path d="M406.4000149567922,431.94231020942016 L195.79165180524188,431.94231020942016"/><path d="M195.79165180524188,431.94231020942016 L195.79165180524188,432.51288560564007"/></g><g ifc:guid="3WxiGpUWz6IBZXIAXmIaxN" ifc:name="Cube" class="IfcWall material-null predefinedtype-ELEMENTEDWALL cut"><path d="M197.5114941596985,278.57238553498865 L197.5114941596985,207.32649790778441"/><path d="M196.8500316143036,207.98795051907183 L196.8500316143036,233.25884717240615"/><path d="M196.8500316143036,207.98795051907183 L197.02410697937012,207.81386521989785"/><path d="M197.02410697937012,207.81386521989785 L197.5114941596985,207.32649790778441"/><path d="M196.8500316143036,233.25884717240615 L196.8500316143036,304.0173587951529"/><path d="M197.5114941596985,304.0173587951529 L197.5114941596985,278.57238553498865"/><path d="M197.5114941596985,304.0173587951529 L197.3374287287394,304.0173587951529"/><path d="M197.3374287287394,304.0173587951529 L196.8500316143036,304.0173587951529"/><path d="M191.02920095125833,240.22436517014785 L191.02920095125833,304.94229373866995"/><path d="M196.8500316143036,304.94229373866995 L196.8500316143036,275.8620623750953"/><path d="M196.8500316143036,304.94229373866995 L195.12083133061725,304.94229373866995"/><path d="M195.12083133061725,304.94229373866995 L191.02920095125833,304.94229373866995"/><path d="M191.02920095125833,212.8733458870121 L191.02920095125833,240.22436517014785"/><path d="M196.8500316143036,275.8620623750953 L196.8500316143036,207.05249535575194"/><path d="M196.8500316143036,207.05249535575194 L195.12083133061725,208.7816857053308"/><path d="M195.12083133061725,208.7816857053308 L191.02920095125833,212.8733458870121"/><path d="M190.5000309149424,242.76944376562716 L190.5000309149424,311.29230685566546"/><path d="M191.02920095125833,311.29230685566546 L191.02920095125833,281.76661831671674"/><path d="M191.02920095125833,311.29230685566546 L190.87045391400653,311.29230685566546"/><path d="M190.87045391400653,311.29230685566546 L190.5000309149424,311.29230685566546"/><path d="M190.5000309149424,213.40251592332802 L190.5000309149424,242.76944376562716"/><path d="M191.02920095125833,281.76661831671674 L191.02920095125833,212.8733458870121"/><path d="M191.02920095125833,212.8733458870121 L190.87045391400653,213.0320929242639"/><path d="M190.87045391400653,213.0320929242639 L190.5000309149424,213.40251592332802"/><path d="M189.44170077641803,214.46083612774493 L190.17640749613443,213.72612940802856"/><path d="M189.44170077641803,214.46083612774493 L189.44170077641803,244.07045421535454"/><path d="M190.17640749613443,213.72612940802856 L190.5000309149424,213.40251592332802"/><path d="M190.5000309149424,281.3590616239576 L190.5000309149424,213.40251592332802"/><path d="M189.44170077641803,244.07045421535454 L189.44170077641803,311.29230685566546"/><path d="M190.5000309149424,311.29230685566546 L190.5000309149424,281.3590616239576"/><path d="M190.5000309149424,311.29230685566546 L190.17640749613443,311.29230685566546"/><path d="M190.17640749613443,311.29230685566546 L189.44170077641803,311.29230685566546"/><path d="M188.23673327763873,311.29230685566546 L185.73753039042154,311.29230685566546"/><path d="M185.73753039042154,218.16500651374145 L188.23673327763873,215.66580362652422"/><path d="M185.73753039042154,218.16500651374145 L185.73753039042154,248.45942360693894"/><path d="M185.73753039042154,248.45942360693894 L185.73753039042154,311.29230685566546"/><path d="M188.23673327763873,215.66580362652422 L189.44170077641803,214.46083612774493"/><path d="M189.44170077641803,311.29230685566546 L188.23673327763873,311.29230685566546"/><path d="M189.44170077641803,311.29230685566546 L189.44170077641803,279.79290984605433"/><path d="M189.44170077641803,279.79290984605433 L189.44170077641803,214.46083612774493"/></g><g ifc:guid="1Q$YJci5DD8OOfcXUsCdWB" ifc:name="Cube" class="IfcWall material-null predefinedtype-ELEMENTEDWALL cut"><path d="M197.3374287287394,431.94230027531273 L196.8500316143036,431.94230027531273"/><path d="M196.8500316143036,358.5413359357385 L196.8500316143036,431.94230027531273"/><path d="M197.5114941596985,431.94230027531273 L197.3374287287394,431.94230027531273"/><path d="M197.5114941596985,431.94230027531273 L197.5114941596985,405.72766092950786"/><path d="M196.8500316143036,332.32669658993365 L196.8500316143036,358.5413359357385"/><path d="M197.5114941596985,405.72766092950786 L197.5114941596985,332.32669658993365"/><path d="M197.5114941596985,332.32669658993365 L197.02410697937012,332.32669658993365"/><path d="M197.02410697937012,332.32669658993365 L196.8500316143036,332.32669658993365"/><path d="M195.12083133061725,431.94230027531273 L191.02920095125833,431.94230027531273"/><path d="M191.02920095125833,361.0826892409194 L191.02920095125833,431.94230027531273"/><path d="M191.02920095125833,331.13606400822283 L191.02920095125833,361.0826892409194"/><path d="M192.75840123494464,331.13606400822283 L191.02920095125833,331.13606400822283"/><path d="M196.8500316143036,331.13606400822283 L192.75840123494464,331.13606400822283"/><path d="M196.8500316143036,431.94230027531273 L195.12083133061725,431.94230027531273"/><path d="M196.8500316143036,431.94230027531273 L196.8500316143036,401.9956750426162"/><path d="M196.8500316143036,401.9956750426162 L196.8500316143036,331.13606400822283"/><path d="M190.87045391400653,431.94230027531273 L190.5000309149424,431.94230027531273"/><path d="M190.65878788630167,311.29230685566546 L190.5000309149424,311.29230685566546"/><path d="M190.5000309149424,311.29230685566546 L190.5000309149424,347.48731680248864"/><path d="M190.5000309149424,347.48731680248864 L190.5000309149424,431.94230027531273"/><path d="M191.02920095125833,311.29230685566546 L190.65878788630167,311.29230685566546"/><path d="M191.02920095125833,431.94230027531273 L190.87045391400653,431.94230027531273"/><path d="M191.02920095125833,431.94230027531273 L191.02920095125833,395.74730026259704"/><path d="M191.02920095125833,395.74730026259704 L191.02920095125833,311.29230685566546"/><path d="M190.17640749613443,438.29231090878136 L189.44170077641803,438.29231090878136"/><path d="M189.76532419522601,311.29230685566546 L189.44170077641803,311.29230685566546"/><path d="M189.44170077641803,311.29230685566546 L189.44170077641803,350.1270177715489"/><path d="M189.44170077641803,350.1270177715489 L189.44170077641803,438.29231090878136"/><path d="M190.5000309149424,311.29230685566546 L189.76532419522601,311.29230685566546"/><path d="M190.5000309149424,438.29231090878136 L190.17640749613443,438.29231090878136"/><path d="M190.5000309149424,438.29231090878136 L190.5000309149424,399.45759999289794"/><path d="M190.5000309149424,399.45759999289794 L190.5000309149424,311.29230685566546"/><path d="M188.23673327763873,438.29231090878136 L185.73753039042154,438.29231090878136"/><path d="M186.9425078233083,311.29230685566546 L185.73753039042154,311.29230685566546"/><path d="M185.73753039042154,311.29230685566546 L185.73753039042154,352.6055676493514"/><path d="M185.73753039042154,352.6055676493514 L185.73753039042154,438.29231090878136"/><path d="M189.44170077641803,311.29230685566546 L186.9425078233083,311.29230685566546"/><path d="M189.44170077641803,438.29231090878136 L188.23673327763873,438.29231090878136"/><path d="M189.44170077641803,438.29231090878136 L189.44170077641803,396.97905011509545"/><path d="M189.44170077641803,396.97905011509545 L189.44170077641803,311.29230685566546"/></g><g ifc:guid="3OtnJyFKvEM9X75sTFJeC7" ifc:name="Cube" class="IfcWall material-null predefinedtype-ELEMENTEDWALL cut"><path d="M438.15003832181293,332.32670652404113 L438.0643467108408,332.32670652404113"/><path d="M438.15003832181293,332.32670652404113 L438.15003832181293,345.1962235325047"/><path d="M438.15003832181293,345.1962235325047 L438.15003832181293,431.94231020942016"/><path d="M438.0643467108408,431.94231020942016 L438.15003832181293,431.94231020942016"/><path d="M438.0643467108408,332.32670652404113 L437.4886055787404,332.32670652404113"/><path d="M437.4886055787404,431.94231020942016 L438.0643467108408,431.94231020942016"/><path d="M437.4886055787404,431.94231020942016 L437.4886055787404,345.2316982302535"/><path d="M437.4886055787404,345.2316982302535 L437.4886055787404,332.32670652404113"/><path d="M443.20498903592426,331.13608387643774 L438.15003832181293,331.13608387643774"/><path d="M438.15003832181293,344.4000644240249 L438.15003832181293,331.13608387643774"/><path d="M438.15003832181293,431.94231020942016 L438.15003832181293,344.4000644240249"/><path d="M438.15003832181293,431.94231020942016 L443.20498903592426,431.94231020942016"/><path d="M443.20498903592426,431.94231020942016 L443.9708888530731,431.94231020942016"/><path d="M443.9708888530731,331.13608387643774 L443.20498903592426,331.13608387643774"/><path d="M443.9708888530731,331.13608387643774 L443.9708888530731,418.99076727563823"/><path d="M443.9708888530731,418.99076727563823 L443.9708888530731,431.94231020942016"/><path d="M444.4214403629303,431.94231020942016 L444.5000390211741,431.94231020942016"/><path d="M444.5000390211741,311.29230685566546 L444.4214403629303,311.29230685566546"/><path d="M444.5000390211741,311.29230685566546 L444.5000390211741,414.058920021203"/><path d="M444.5000390211741,414.058920021203 L444.5000390211741,431.94231020942016"/><path d="M444.4214403629303,311.29230685566546 L443.9708888530731,311.29230685566546"/><path d="M443.9708888530731,431.94231020942016 L444.4214403629303,431.94231020942016"/><path d="M443.9708888530731,431.94231020942016 L443.9708888530731,329.2131188266941"/><path d="M443.9708888530731,329.2131188266941 L443.9708888530731,311.29230685566546"/><path d="M445.39963205655414,311.29230685566546 L444.5000390211741,311.29230685566546"/><path d="M444.5000390211741,330.3422990196415 L444.5000390211741,311.29230685566546"/><path d="M444.5000390211741,438.29231090878136 L444.5000390211741,330.3422990196415"/><path d="M444.5000390211741,438.29231090878136 L445.39963205655414,438.29231090878136"/><path d="M445.39963205655414,438.29231090878136 L445.5583790938059,438.29231090878136"/><path d="M445.5583790938059,311.29230685566546 L445.39963205655414,311.29230685566546"/><path d="M445.5583790938059,311.29230685566546 L445.5583790938059,330.2632632606693"/><path d="M445.5583790938059,330.2632632606693 L445.5583790938059,438.29231090878136"/><path d="M445.5583790938059,311.29230685566546 L445.5583790938059,418.87496538494713"/><path d="M448.69622588157654,311.29230685566546 L445.5583790938059,311.29230685566546"/><path d="M445.5583790938059,418.87496538494713 L445.5583790938059,438.29231090878136"/><path d="M445.5583790938059,438.29231090878136 L448.69622588157654,438.29231090878136"/><path d="M448.69622588157654,438.29231090878136 L449.26256934801734,438.29231090878136"/><path d="M449.26256934801734,311.29230685566546 L448.69622588157654,311.29230685566546"/><path d="M449.26256934801734,311.29230685566546 L449.26256934801734,419.15179915760643"/><path d="M449.26256934801734,419.15179915760643 L449.26256934801734,438.29231090878136"/></g><g ifc:guid="1$J2u4wH927fsVUWbyeVAx" ifc:name="Cube" class="IfcWall material-null predefinedtype-ELEMENTEDWALL cut"><path d="M437.4886055787404,304.01851115161855 L437.4886055787404,265.44070696492673"/><path d="M437.4886055787404,304.01851115161855 L437.752495209376,304.01851115161855"/><path d="M437.4886055787404,265.44070696492673 L437.4886055787404,207.32661711707397"/><path d="M437.4886055787404,207.32661711707397 L437.752495209376,207.59050674770953"/><path d="M437.752495209376,304.01851115161855 L438.15005819002783,304.01851115161855"/><path d="M437.752495209376,207.59050674770953 L438.15005819002783,207.98806972836138"/><path d="M438.15005819002783,207.98806972836138 L438.15005819002783,265.70461654138745"/><path d="M438.15005819002783,265.70461654138745 L438.15005819002783,304.01851115161855"/><path d="M440.4431084791819,209.34566485419555 L438.15005819002783,207.05259469682656"/><path d="M438.15005819002783,207.05259469682656 L438.15005819002783,266.37974837984575"/><path d="M443.9708888530731,212.87342535987182 L440.4431084791819,209.34566485419555"/><path d="M443.9708888530731,212.87342535987182 L443.9708888530731,268.6727986301947"/><path d="M443.9708888530731,268.6727986301947 L443.9708888530731,304.9423036727774"/><path d="M438.15005819002783,304.9423036727774 L438.15005819002783,266.37974837984575"/><path d="M438.15005819002783,304.9423036727774 L440.4431084791819,304.9423036727774"/><path d="M440.4431084791819,304.9423036727774 L443.9708888530731,304.9423036727774"/><path d="M444.2865947882334,213.18917103146197 L443.9708888530731,212.87346509630166"/><path d="M443.9708888530731,252.5717467321424 L443.9708888530731,212.87346509630166"/><path d="M443.9708888530731,252.5717467321424 L443.9708888530731,252.57178646857224"/><path d="M444.2865947882334,213.18917103146197 L444.5000390211741,213.40259539618773"/><path d="M444.5000390211741,213.40259539618773 L444.5000390211741,252.8874526673027"/><path d="M444.5000390211741,252.88749240373255 L444.5000390211741,252.8874526673027"/><path d="M444.5000390211741,311.29230685566546 L444.5000390211741,252.88749240373255"/><path d="M443.9708888530731,252.57178646857224 L443.9708888530731,311.29230685566546"/><path d="M443.9708888530731,311.29230685566546 L444.34284170468646,311.29230685566546"/><path d="M444.34284170468646,311.29230685566546 L444.5000390211741,311.29230685566546"/><path d="M445.558359225591,214.4608957323897 L444.87191239992774,213.77444890672646"/><path d="M445.558359225591,214.4608957323897 L445.558359225591,273.1516007585792"/><path d="M445.558359225591,273.1516007585792 L445.558359225591,307.17338499958"/><path d="M445.558359225591,307.17338499958 L445.558359225591,307.4177342408367"/><path d="M445.558359225591,307.4177342408367 L445.5583790938059,311.29230685566546"/><path d="M445.24088501930237,311.29230685566546 L445.5583790938059,311.29230685566546"/><path d="M444.50005888938904,213.40259539618773 L444.87191239992774,213.77444890672646"/><path d="M444.5000390211741,311.29230685566546 L445.24088501930237,311.29230685566546"/><path d="M444.50005888938904,213.40259539618773 L444.50005888938904,272.77974724804045"/><path d="M444.50005888938904,307.4823059393434 L444.5000390211741,311.29230685566546"/><path d="M444.50005888938904,307.17338499958 L444.50005888938904,272.77974724804045"/><path d="M444.50005888938904,307.17338499958 L444.50005888938904,307.4177342408367"/><path d="M444.50005888938904,307.4177342408367 L444.50005888938904,307.4823059393434"/><path d="M447.80517617861426,216.70775242184283 L449.26256934801734,218.165125723031"/><path d="M449.26256934801734,218.165125723031 L449.26256934801734,254.80525198116584"/><path d="M449.26256934801734,254.80525198116584 L449.26256934801734,311.29230685566546"/><path d="M446.6910660266876,311.29230685566546 L449.26256934801734,311.29230685566546"/><path d="M447.80517617861426,216.70775242184283 L445.5583790938059,214.46095533703448"/><path d="M445.5583790938059,311.29230685566546 L446.6910660266876,311.29230685566546"/><path d="M445.5583790938059,252.5584747645724 L445.5583790938059,311.29230685566546"/><path d="M445.5583790938059,252.5584747645724 L445.5583790938059,214.46095533703448"/></g><g ifc:guid="3ldSFfzS19ixSPhu5bd0sV" ifc:name="Cube" class="IfcSlab material-null predefinedtype-ROOF cut"><path d="M483.97814234097797,234.9202074362306 L483.8000237941742,235.09832598303439"/><path d="M483.97814234097797,234.9202074362306 L458.7803781032562,209.7224456820357"/><path d="M458.7803781032562,209.7224456820357 L456.0917317867279,207.03377949729247"/><path d="M456.0917317867279,207.03377949729247 L410.602996746699,161.5450643254785"/><path d="M410.602996746699,161.5450643254785 L404.01272972424823,154.95479730302773"/><path d="M483.8000237941742,235.09832598303439 L483.416885137558,235.4814646396506"/><path d="M483.416885137558,235.4814646396506 L458.6264987786611,210.69108076428057"/><path d="M458.6264987786611,210.69108076428057 L455.93787233034766,208.00247418418212"/><path d="M455.93787233034766,208.00247418418212 L410.4491372903188,162.51373914415322"/><path d="M403.83461117744446,155.8992130312789 L410.4491372903188,162.51373914415322"/><path d="M404.01272972424823,154.95479730302773 L318.06123089821386,69.00331007972045"/><path d="M317.4999737107598,69.56458715135538 L403.83461117744446,155.8992130312789"/><path d="M317.4999737107598,69.56458715135538 L317.8831123514101,69.18140875830932"/><path d="M317.8831123514101,69.18140875830932 L318.06123089821386,69.00331007972045"/><path d="M483.416885137558,235.4814646396506 L480.74506719907123,238.15328257813735"/><path d="M483.416885137558,235.4814646396506 L458.6264987786611,210.69108076428057"/><path d="M458.6264987786611,210.69108076428057 L455.93787233034766,208.00245431596719"/><path d="M455.93787233034766,208.00245431596719 L412.7573271592458,164.82190914486532"/><path d="M412.7573271592458,164.82190914486532 L406.50640924771625,158.57099123333577"/><path d="M444.29201881090796,213.1945553177067 L443.9708888530731,212.87344522808672"/><path d="M443.9708888530731,212.87344522808672 L392.957458893458,161.86001526847167"/><path d="M480.74506719907123,238.15328257813735 L474.9978880087534,243.90046176845513"/><path d="M474.9978880087534,243.90046176845513 L462.69624431927997,231.59881807898165"/><path d="M444.50005888938904,213.40261526440264 L444.29201881090796,213.1945553177067"/><path d="M462.69624431927997,231.59881807898165 L447.5740293661753,216.47658574118896"/><path d="M447.5740293661753,216.47658574118896 L445.183128118515,214.0856646253137"/><path d="M445.183128118515,214.0856646253137 L444.50005888938904,213.40261526440264"/><path d="M406.50640924771625,158.57099123333577 L325.918930893143,77.9835048073002"/><path d="M317.49998364486606,86.40254167253458 L392.957458893458,161.86001526847167"/><path d="M322.523085710903,81.37945957516315 L317.49998364486606,86.40254167253458"/><path d="M325.918930893143,77.9835048073002 L322.523085710903,81.37945957516315"/><path d="M365.0287886460622,134.86680018439574 L317.49999357897366,87.33797696763956"/><path d="M317.49999357897366,87.33797696763956 L317.78346333885565,87.0544972770878"/><path d="M438.15005819002783,207.61955407793008 L438.15005819002783,207.98806972836138"/><path d="M438.15005819002783,207.98806972836138 L365.0287886460622,134.86680018439574"/><path d="M438.15005819002783,207.61955407793008 L438.15005819002783,207.0526145650415"/><path d="M317.78346333885565,87.0544972770878 L317.96769134234637,86.87027918830199"/><path d="M317.96769134234637,86.87027918830199 L365.31224846839905,134.21480484341268"/><path d="M438.15005819002783,207.0526145650415 L365.31224846839905,134.21480484341268"/><path d="M465.12829264005023,234.9663016948569 L449.26256934801734,219.10058088635088"/><path d="M449.26256934801734,218.75250962907754 L449.26256934801734,219.10058088635088"/><path d="M449.26256934801734,218.1651455912459 L449.26256934801734,218.75250962907754"/><path d="M465.4219845930735,234.32453848456026 L449.26256934801734,218.1651455912459"/><path d="M474.9979078769684,243.90048163667007 L465.4219845930735,234.32453848456026"/><path d="M474.9979078769684,243.90048163667007 L474.8494724432627,244.0489170703757"/><path d="M474.8494724432627,244.0489170703757 L474.5301902294159,244.36819928422256"/><path d="M474.5301902294159,244.36819928422256 L465.12829264005023,234.9663016948569"/><path d="M484.36129093170166,234.5370687796144 L483.97814234097797,234.9202074362306"/><path d="M483.97814234097797,234.9202074362306 L458.7803781032562,209.7224456820357"/><path d="M458.7803781032562,209.7224456820357 L413.1377637386322,164.0798313174117"/><path d="M484.53940947850543,234.3589502328106 L484.36129093170166,234.5370687796144"/><path d="M484.53940947850543,234.3589502328106 L458.9342574278513,208.75379073157592"/><path d="M458.9342574278513,208.75379073157592 L413.2916430632273,163.11119623516683"/><path d="M317.4999935789735,68.44203300808552 L413.1377637386322,164.0798313174117"/><path d="M317.4999935789735,68.44203300808552 L317.6538729070065,68.28817355170531"/><path d="M317.6538729070065,68.28817355170531 L318.06123089821386,67.88079567288044"/><path d="M413.2916430632273,163.11119623516683 L318.06123089821386,67.88079567288044"/></g><g ifc:guid="2DZinlHOD7BQQmwy__xPfi" ifc:name="Cube" class="IfcSlab material-null predefinedtype-FLOOR cut"><path d="M437.4886055787404,303.77773818904836 L437.4886055787404,303.6193885160951"/><path d="M437.4886055787404,303.6193885160951 L365.3727273146311,303.6193885160951"/><path d="M197.51150409380594,303.6193885160951 L197.51150409380594,303.7222164624401"/><path d="M262.93449103832245,303.6193885160951 L197.51150409380594,303.6193885160951"/><path d="M269.62737242380774,303.6193885160951 L365.3727273146311,303.6193885160951"/><path d="M269.62737242380774,303.6193885160951 L263.5473509629567,303.6193885160951"/><path d="M263.5473509629567,303.6193885160951 L262.93449103832245,303.6193885160951"/><path d="M437.4886055787404,304.01626604333205 L437.4886055787404,303.77773818904836"/><path d="M437.4886055787404,304.01626604333205 L365.3727273146311,304.01626604333205"/><path d="M365.3727273146311,304.01626604333205 L269.62737242380774,304.01626604333205"/><path d="M263.5473509629567,304.01626604333205 L269.62737242380774,304.01626604333205"/><path d="M197.51150409380594,303.7222164624401 L197.51150409380594,304.01626604333205"/><path d="M197.51150409380594,304.01626604333205 L262.93449103832245,304.01626604333205"/><path d="M262.93449103832245,304.01626604333205 L263.5473509629567,304.01626604333205"/><path d="M438.1500979264577,304.86212549144705 L438.1500979264577,304.81002109780593"/><path d="M438.1500979264577,304.81002109780593 L365.028848250707,304.81002109780593"/><path d="M196.8500514825185,304.81002109780593 L196.8500514825185,304.84483021035476"/><path d="M263.26289772987366,304.81002109780593 L196.8500514825185,304.81002109780593"/><path d="M269.97125645478565,304.81002109780593 L365.028848250707,304.81002109780593"/><path d="M269.97125645478565,304.81002109780593 L263.8778289159139,304.81002109780593"/><path d="M263.8778289159139,304.81002109780593 L263.26289772987366,304.81002109780593"/><path d="M438.1500979264577,304.9423036727774 L438.1500979264577,304.86212549144705"/><path d="M438.1500979264577,304.9423036727774 L365.028848250707,304.9423136068849"/><path d="M365.028848250707,304.9423136068849 L269.97125645478565,304.9423136068849"/><path d="M263.87782394886017,304.9423036727774 L269.97125645478565,304.9423136068849"/><path d="M196.8500514825185,304.84483021035476 L196.8500514825185,304.9423036727774"/><path d="M196.8500514825185,304.9423036727774 L263.26289772987366,304.9423036727774"/><path d="M263.26289772987366,304.9423036727774 L263.87782394886017,304.9423036727774"/><path d="M365.028848250707,304.81002109780593 L269.97125645478565,304.81002109780593"/><path d="M263.87782394886017,304.81002109780593 L269.97125645478565,304.81002109780593"/><path d="M196.8500514825185,304.2251505209474 L196.8500514825185,304.81002109780593"/><path d="M196.8500514825185,304.81002109780593 L263.26289772987366,304.81002109780593"/><path d="M263.26289772987366,304.81002109780593 L263.87782394886017,304.81002109780593"/><path d="M438.1500979264577,304.81002109780593 L365.028848250707,304.81002109780593"/><path d="M438.1500979264577,304.81002109780593 L438.1500979264577,304.3289619439312"/><path d="M438.1500979264577,304.3289619439312 L438.1500979264577,304.01626604333205"/><path d="M438.1500979264577,304.01626604333205 L365.028848250707,304.01626604333205"/><path d="M196.8500514825185,304.01626604333205 L196.8500514825185,304.2251505209474"/><path d="M263.26289772987366,304.01626604333205 L196.8500514825185,304.01626604333205"/><path d="M269.97125645478565,304.01626604333205 L365.028848250707,304.01626604333205"/><path d="M269.97125645478565,304.01626604333205 L263.87782394886017,304.01626604333205"/><path d="M263.87782394886017,304.01626604333205 L263.26289772987366,304.01626604333205"/><path d="M422.2749372323354,331.13606400822283 L374.6499915917714,331.13606400822283"/><path d="M196.8500514825185,331.13606400822283 L374.6499915917714,331.13606400822283"/><path d="M196.8500514825185,331.13606400822283 L196.8500514825185,331.27532032663305"/><path d="M438.1499389807383,331.13606400822283 L422.2749372323354,331.13606400822283"/><path d="M438.1499389807383,331.5956058853336 L438.1499389807383,331.13606400822283"/><path d="M438.1499389807383,331.66523404453875 L438.1499389807383,331.5956058853336"/><path d="M438.1499389807383,331.66523404453875 L422.2749372323354,331.66523404453875"/><path d="M196.8500514825185,331.27532032663305 L196.8500514825185,331.66523404453875"/><path d="M374.6499915917714,331.66523404453875 L196.8500514825185,331.66523404453875"/><path d="M422.2749372323354,331.66523404453875 L374.6499915917714,331.66523404453875"/><path d="M266.48660004138947,304.9423136068849 L368.51345499356586,304.9423136068849"/><path d="M266.48660004138947,304.9423136068849 L265.8577859401703,304.9423136068849"/><path d="M406.4000149567922,305.7360587272513 L191.02920095125833,305.7360587272513"/><path d="M265.8577859401703,304.9423136068849 L191.02920095125833,304.9423136068849"/><path d="M191.02920095125833,304.9423136068849 L191.02920095125833,305.06021159425063"/><path d="M191.02920095125833,305.06021159425063 L191.02920095125833,305.7360587272513"/><path d="M443.97082924842834,305.7360587272513 L406.4000149567922,305.7360587272513"/><path d="M443.97082924842834,305.7360587272513 L443.97082924842834,305.2624799562959"/><path d="M443.97082924842834,305.2624799562959 L443.97082924842834,304.9423136068849"/><path d="M443.97082924842834,304.9423136068849 L368.51345499356586,304.9423136068849"/><path d="M406.4000149567922,331.13606400822283 L191.02920095125833,331.13606400822283"/><path d="M228.6000351111094,305.7360587272513 L191.02920095125833,305.7360587272513"/><path d="M191.02920095125833,305.7360587272513 L191.02920095125833,309.5088663452335"/><path d="M191.02920095125833,309.5088663452335 L191.02920095125833,331.13606400822283"/><path d="M443.97082924842834,305.7360587272513 L228.6000351111094,305.7360587272513"/><path d="M443.97082924842834,331.13606400822283 L406.4000149567922,331.13606400822283"/><path d="M443.97082924842834,331.13606400822283 L443.97082924842834,327.36325887376745"/><path d="M443.97082924842834,327.36325887376745 L443.97082924842834,305.7360587272513"/><path d="M422.2749372323354,332.32669658993365 L374.6499915917714,332.32669658993365"/><path d="M422.2749372323354,331.66524397864623 L374.6499915917714,331.66524397864623"/><path d="M374.6499915917714,332.32669658993365 L196.8500514825185,332.32669658993365"/><path d="M196.8500514825185,331.66524397864623 L374.6499915917714,331.66524397864623"/><path d="M196.8500514825185,331.66524397864623 L196.8500514825185,331.8393094096053"/><path d="M196.8500514825185,331.8393094096053 L196.8500514825185,332.32669658993365"/><path d="M438.1499389807383,331.66524397864623 L422.2749372323354,331.66524397864623"/><path d="M438.1499389807383,332.32669658993365 L422.2749372323354,332.32669658993365"/><path d="M438.1499389807383,332.32669658993365 L438.1499389807383,332.2396638744541"/><path d="M438.1499389807383,332.2396638744541 L438.1499389807383,331.66524397864623"/></g></g>
</svg>