<svg xmlns="http://www.w3.org/2000/svg" xmlns:xlink="http://www.w3.org/1999/xlink" xmlns:ifc="http://www.ifcopenshell.org/ns" width="508mm" height="533.4mm" viewBox="0 0 508 533.4">
    <defs>
        <marker id="arrowend" markerWidth="10" markerHeight="7" refX="10" refY="3.5" orient="auto">
          <polygon points="0 0, 10 3.5, 0 7"/>
        </marker>
        <marker id="arrowstart" markerWidth="10" markerHeight="7" refX="0" refY="3.5" orient="auto">
          <polygon points="10 0, 0 3.5, 10 7"/>
        </marker>
    </defs>
    <g ifc:name="Elevation SECTION - WEST - MITER ROOF_layers" class="section" ifc:plane="[[1.000000,0.000000,0.000000,0.000000],[0.000000,1.000000,0.000000,0.000000],[0.000000,0.000000,1.000000,0.000000],[0.000000,0.000000,0.000000,1.000000]]" ifc:matrix3="[[41.666668,0.000000,127.000017],[0.000000,41.666668,431.800029],[0.000000,0.000000,1.000000]]">
        <g id="product-d0d891f6-24f8-45ee-bba3-0e1d6711372e" class="IfcWall material-null predefinedtype-ELEMENTEDWALL projection" ifc:name="Wall" ifc:guid="3Gs97s9FX5xhkZ3Xrd4JSk">
            <path d="M374.65,436.033 L372.533,436.033"/>
            <path d="M374.65,436.033 L374.65,436.033"/>
            <path d="M374.65,482.6 L374.65,436.033"/>
            <path d="M374.65,436.033 L372.533,436.033"/>
            <path d="M374.65,436.033 L374.65,482.6"/>
            <path d="M372.533,436.033 L372.533,436.033"/>
            <path d="M372.533,436.033 L372.533,482.6"/>
            <path d="M372.533,436.033 L372.533,436.033"/>
            <path d="M372.533,442.383 L372.533,482.6"/>
            <path d="M372.533,482.6 L374.65,482.6"/>
            <path d="M374.65,482.6 L374.65,482.6"/>
            <path d="M372.533,482.6 L374.65,482.6"/>
            <path d="M372.533,482.6 L372.533,482.6"/>
            <path d="M381,438.15 L381,431.8"/>
            <path d="M381,431.8 L381,431.8"/>
            <path d="M381,431.8 L375.708,431.8"/>
            <path d="M375.708,431.8 L375.708,431.8"/>
            <path d="M375.708,431.8 L375.708,436.033"/>
            <path d="M381,438.15 L381,438.15"/>
            <path d="M385.233,438.15 L381,438.15"/>
            <path d="M385.233,438.15 L385.233,438.15"/>
            <path d="M385.233,482.6 L385.233,438.15"/>
            <path d="M380.471,431.8 L381,431.8"/>
            <path d="M381,431.8 L381,438.15"/>
            <path d="M381,438.15 L385.233,438.15"/>
            <path d="M385.233,438.15 L385.233,482.6"/>
            <path d="M385.233,482.6 L385.233,482.6"/>
            <path d="M385.233,482.6 L374.65,482.6"/>
            <path d="M374.65,482.6 L385.233,482.6"/>
            <path d="M375.708,436.033 L374.65,436.033"/>
            <path d="M375.708,436.033 L374.65,436.033"/>
            <path d="M375.708,436.033 L375.708,436.033"/>
            <path d="M374.65,436.033 L374.65,482.6"/>
            <path d="M374.65,482.6 L374.65,482.6"/>
            <path d="M374.65,436.033 L374.65,436.033"/>
            <path d="M374.65,436.033 L374.65,436.033"/>
        </g>
        <g id="product-476b1527-9c27-47cb-93e9-6a0894831a55" class="IfcWall material-null predefinedtype-ELEMENTEDWALL projection" ifc:name="Wall" ifc:guid="17QnKdd2T7ovFfQWYKWnfL">
            <path d="M374.65,482.6 L374.65,436.033"/>
            <path d="M135.467,482.6 L135.467,436.033"/>
            <path d="M135.467,482.6 L374.65,482.6"/>
            <path d="M374.65,436.033 L374.65,436.033"/>
            <path d="M372.533,436.033 L135.467,436.033"/>
            <path d="M385.233,482.6 L133.35,482.6"/>
            <path d="M385.233,482.6 L385.233,438.15"/>
            <path d="M375.708,436.033 L374.65,436.033"/>
            <path d="M372.533,436.033 L135.467,436.033"/>
            <path d="M133.35,436.033 L133.35,436.033"/>
            <path d="M385.233,438.15 L385.233,438.15"/>
            <path d="M385.233,438.15 L385.233,438.15"/>
            <path d="M375.708,436.033 L375.708,431.8"/>
            <path d="M133.35,431.8 L133.35,431.8"/>
            <path d="M133.35,482.6 L133.35,436.033"/>
        </g>
        <g id="product-ae27d215-a6f3-47d7-8416-37233098fda4" class="IfcWall material-null predefinedtype-ELEMENTEDWALL projection" ifc:name="Wall" ifc:guid="2k9z8LflD7ruGMDoCmcFsa">
            <path d="M133.35,482.6 L133.35,436.033"/>
            <path d="M133.35,482.6 L133.35,436.033"/>
            <path d="M135.467,436.033 L135.467,482.6"/>
            <path d="M135.467,482.6 L135.467,467.948"/>
            <path d="M135.467,436.033 L135.467,436.033"/>
            <path d="M135.467,482.6 L133.35,482.6"/>
            <path d="M133.35,482.6 L133.35,482.6"/>
            <path d="M135.467,482.6 L133.35,482.6"/>
            <path d="M135.467,482.6 L135.467,482.6"/>
            <path d="M135.467,436.033 L133.35,436.033"/>
            <path d="M133.35,436.033 L133.35,436.033"/>
            <path d="M133.35,436.033 L135.467,436.033"/>
            <path d="M135.467,436.033 L135.467,436.033"/>
            <path d="M133.35,482.6 L122.767,482.6"/>
            <path d="M133.35,482.6 L133.35,482.6"/>
            <path d="M133.35,436.033 L133.35,482.6"/>
            <path d="M132.292,431.8 L132.292,436.033"/>
            <path d="M127,438.15 L127,431.8"/>
            <path d="M133.35,482.6 L122.767,482.6"/>
            <path d="M132.292,436.033 L133.35,436.033"/>
            <path d="M133.35,436.033 L133.35,436.033"/>
            <path d="M132.292,436.033 L132.292,436.033"/>
            <path d="M125.942,438.15 L122.767,438.15"/>
            <path d="M122.767,438.15 L127,438.15"/>
            <path d="M127,438.15 L127,438.15"/>
            <path d="M132.292,436.033 L132.292,431.8"/>
            <path d="M133.35,436.033 L133.35,431.8"/>
            <path d="M132.292,436.033 L133.35,436.033"/>
            <path d="M122.767,482.6 L122.767,438.15"/>
            <path d="M122.767,482.6 L122.767,482.6"/>
            <path d="M122.767,482.6 L122.767,438.15"/>
            <path d="M122.767,438.15 L122.767,438.15"/>
            <path d="M133.35,431.8 L132.292,431.8"/>
            <path d="M133.35,431.8 L133.35,431.8"/>
            <path d="M127,431.8 L127,431.8"/>
            <path d="M127,431.8 L132.292,431.8"/>
            <path d="M132.292,431.8 L132.292,431.8"/>
            <path d="M127,431.8 L127,438.15"/>
            <path d="M127,438.15 L133.35,438.15"/>
            <path d="M127,431.8 L127.529,431.8"/>
        </g>
        <g id="product-e8c5619c-d890-4412-92e0-191ad0fb7a31" class="IfcSlab material-null predefinedtype-ROOF projection" ifc:name="Cube" ifc:guid="3enM6Ss9144fBW6HhG_ten">
            <path d="M254,30.1997 L254,31.3222"/>
            <path d="M254,31.3222 L254,31.3222"/>
            <path d="M254,31.3222 L96.9697,188.352"/>
            <path d="M96.9697,188.352 L96.9697,188.352"/>
            <path d="M96.9697,188.352 L96.9697,187.23"/>
            <path d="M96.9697,188.352 L96.9697,187.23"/>
            <path d="M96.9697,188.352 L254,31.3222"/>
            <path d="M254,31.3222 L254,30.1997"/>
            <path d="M254,30.1997 L254,30.1997"/>
            <path d="M96.9697,187.23 L254,30.1997"/>
            <path d="M96.9697,187.23 L96.9697,187.23"/>
            <path d="M96.9697,187.23 L254,30.1997"/>
            <path d="M254,31.3222 L254,48.1602"/>
            <path d="M254,48.1602 L254,48.1602"/>
            <path d="M254,48.1602 L96.9697,205.19"/>
            <path d="M96.9697,205.19 L96.9697,205.19"/>
            <path d="M96.9697,205.19 L96.9697,188.352"/>
            <path d="M96.9697,205.19 L96.9697,188.352"/>
            <path d="M96.9697,205.19 L254,48.1602"/>
            <path d="M254,48.1602 L254,31.3222"/>
            <path d="M254,31.3222 L254,31.3222"/>
            <path d="M96.9697,188.352 L254,31.3222"/>
            <path d="M96.9697,188.352 L96.9697,188.352"/>
            <path d="M96.9697,188.352 L254,31.3222"/>
            <path d="M254,49.0956 L96.9697,206.126"/>
            <path d="M96.9697,206.126 L254,49.0956"/>
            <path d="M96.9697,205.19 L254,48.1602"/>
            <path d="M96.9697,205.19 L254,48.1602"/>
            <path d="M96.9697,206.126 L96.9697,206.126"/>
            <path d="M96.9697,206.126 L96.9697,205.19"/>
            <path d="M96.9697,205.19 L96.9697,205.19"/>
            <path d="M96.9697,206.126 L96.9697,205.19"/>
            <path d="M254,48.1602 L254,48.1602"/>
            <path d="M254,48.1602 L254,49.0956"/>
            <path d="M254,48.1602 L254,48.1602"/>
            <path d="M254,29.0771 L254,30.1997"/>
            <path d="M254,30.1997 L254,30.1997"/>
            <path d="M254,30.1997 L96.9697,187.23"/>
            <path d="M96.9697,187.23 L96.9697,187.23"/>
            <path d="M96.9697,187.23 L96.9697,186.107"/>
            <path d="M96.9697,187.23 L96.9697,186.107"/>
            <path d="M96.9697,187.23 L254,30.1997"/>
            <path d="M254,30.1997 L254,29.5076"/>
            <path d="M254,29.0772 L254,29.0771"/>
            <path d="M254,29.0771 L254,29.0771"/>
            <path d="M96.9697,186.107 L254,29.0771"/>
            <path d="M96.9697,186.107 L96.9697,186.107"/>
            <path d="M96.9697,186.107 L254,29.0771"/>
        </g>
        <g id="product-85362d87-afdd-4025-801e-30f8c86ec0a5" class="IfcSlab material-null predefinedtype-ROOF projection" ifc:name="Cube" ifc:guid="25DYs7hzr09O0UCFZ8Ri2b">
            <path d="M254,68.2997 L87.5218,234.778"/>
            <path d="M254,69.4223 L88.0831,235.339"/>
            <path d="M87.5218,234.778 L88.0831,235.339"/>
            <path d="M88.0831,235.339 L88.0831,235.339"/>
            <path d="M88.0831,235.339 L87.5218,234.778"/>
            <path d="M88.0831,235.339 L88.0831,235.339"/>
            <path d="M254,69.4223 L88.0831,235.339"/>
            <path d="M96.5021,243.758 L96.5021,243.758"/>
            <path d="M254,86.2603 L96.5021,243.758"/>
            <path d="M88.0831,235.339 L96.5021,243.758"/>
            <path d="M96.5021,243.758 L96.5021,243.758"/>
            <path d="M96.5021,243.758 L88.0831,235.339"/>
            <path d="M88.0831,235.339 L88.0831,235.339"/>
            <path d="M254,86.2603 L133.35,206.91"/>
            <path d="M254,87.1957 L133.35,207.846"/>
            <path d="M133.35,207.846 L133.35,207.846"/>
            <path d="M133.35,206.91 L133.35,207.846"/>
            <path d="M133.35,207.846 L133.35,207.846"/>
            <path d="M133.35,207.846 L133.35,206.91"/>
            <path d="M86.9605,234.217 L86.9605,234.217"/>
            <path d="M86.9605,234.217 L87.5218,234.778"/>
            <path d="M86.9605,234.217 L86.9605,234.217"/>
            <path d="M86.9605,234.217 L87.5218,234.778"/>
            <path d="M254,67.1772 L86.9605,234.217"/>
            <path d="M87.5218,234.778 L87.5218,234.778"/>
            <path d="M87.5218,234.778 L87.5218,234.778"/>
            <path d="M87.5218,234.778 L254,68.2997"/>
        </g>
        <g id="product-2e376fdc-4778-4e76-b364-be588bc494c0" class="IfcSlab material-null predefinedtype-BASESLAB projection" ifc:name="Cube" ifc:guid="0kDs$SHtXEThDalbYBn9J0">
            <path d="M135.467,442.383 L135.467,438.15"/>
            <path d="M135.467,438.15 L372.533,438.15"/>
            <path d="M135.467,438.15 L135.467,438.15"/>
            <path d="M372.533,438.15 L372.533,438.15"/>
            <path d="M372.533,438.15 L372.533,442.383"/>
            <path d="M135.467,438.15 L135.467,442.383"/>
            <path d="M372.533,438.15 L372.533,442.383"/>
            <path d="M135.467,438.15 L372.533,438.15"/>
            <path d="M372.533,442.383 L135.467,442.383"/>
            <path d="M135.467,442.383 L135.467,442.383"/>
            <path d="M372.533,442.383 L135.467,442.383"/>
            <path d="M372.533,442.383 L372.533,442.383"/>
            <path d="M372.533,438.15 L135.467,438.15"/>
            <path d="M135.467,438.15 L135.467,438.15"/>
            <path d="M135.467,438.15 L135.467,436.033"/>
            <path d="M135.467,436.033 L372.533,436.033"/>
            <path d="M135.467,436.033 L135.467,436.033"/>
            <path d="M372.533,438.15 L372.533,438.15"/>
            <path d="M372.533,436.033 L372.533,436.033"/>
            <path d="M372.533,436.033 L372.533,438.15"/>
            <path d="M135.467,436.033 L135.467,438.15"/>
            <path d="M135.467,438.15 L372.533,438.15"/>
            <path d="M372.533,438.15 L372.533,436.033"/>
            <path d="M135.467,436.033 L372.533,436.033"/>
            <path d="M132.292,436.033 L132.292,431.8"/>
            <path d="M375.708,436.033 L132.292,436.033"/>
            <path d="M132.292,436.033 L132.292,436.033"/>
            <path d="M375.708,436.033 L375.708,436.033"/>
            <path d="M375.708,431.8 L375.708,436.033"/>
            <path d="M132.292,436.033 L132.292,431.8"/>
            <path d="M132.292,436.033 L133.35,436.033"/>
            <path d="M132.292,431.8 L375.708,431.8"/>
            <path d="M375.708,431.8 L375.708,431.8"/>
            <path d="M132.292,431.8 L133.35,431.8"/>
            <path d="M132.292,431.8 L132.292,431.8"/>
        </g>
        <g id="product-5afe24e6-b053-4d21-8629-9a17b632780b" class="IfcWall material-null predefinedtype-ELEMENTEDWALL projection" ifc:name="Cube" ifc:guid="1Q$YJci5DD8OOfcXUsCdWB">
            <path d="M133.35,431.8 L134.012,431.8"/>
            <path d="M134.012,431.8 L133.35,431.8"/>
            <path d="M133.35,431.8 L133.35,332.184"/>
            <path d="M133.35,431.8 L133.35,431.8"/>
            <path d="M133.35,431.8 L133.35,332.184"/>
            <path d="M134.012,431.8 L134.012,332.184"/>
            <path d="M134.012,332.184 L134.012,431.8"/>
            <path d="M134.012,431.8 L134.012,431.8"/>
            <path d="M134.012,332.184 L133.35,332.184"/>
            <path d="M133.35,332.184 L133.35,332.184"/>
            <path d="M133.35,332.184 L134.012,332.184"/>
            <path d="M134.012,332.184 L134.012,332.184"/>
            <path d="M127.529,431.8 L133.35,431.8"/>
            <path d="M133.35,431.8 L127.529,431.8"/>
            <path d="M127.529,431.8 L127.529,330.994"/>
            <path d="M127.529,431.8 L127.529,431.8"/>
            <path d="M127.529,431.8 L127.529,330.994"/>
            <path d="M127.529,330.994 L127.529,330.994"/>
            <path d="M127.529,330.994 L133.35,330.994"/>
            <path d="M127.529,330.994 L133.35,330.994"/>
            <path d="M133.35,431.8 L133.35,431.8"/>
            <path d="M133.35,330.994 L133.35,330.994"/>
            <path d="M133.35,330.994 L133.35,330.994"/>
            <path d="M133.35,330.994 L133.35,431.8"/>
            <path d="M127,311.15 L127.529,311.15"/>
            <path d="M127,311.15 L127.529,311.15"/>
            <path d="M127,431.8 L127.529,431.8"/>
            <path d="M127.529,431.8 L127,431.8"/>
            <path d="M127,431.8 L127,311.15"/>
            <path d="M127,431.8 L127,431.8"/>
            <path d="M127,431.8 L127,311.15"/>
            <path d="M127,311.15 L127,311.15"/>
            <path d="M127.529,431.8 L127.529,431.8"/>
            <path d="M127.529,311.15 L127.529,431.8"/>
            <path d="M125.942,438.15 L127,438.15"/>
            <path d="M127,438.15 L125.942,438.15"/>
            <path d="M125.942,311.15 L127,311.15"/>
            <path d="M125.942,311.15 L127,311.15"/>
            <path d="M125.942,438.15 L125.942,311.15"/>
            <path d="M125.942,438.15 L125.942,438.15"/>
            <path d="M125.942,438.15 L125.942,311.15"/>
            <path d="M125.942,311.15 L125.942,311.15"/>
            <path d="M127,438.15 L127,438.15"/>
            <path d="M127,311.15 L127,311.15"/>
            <path d="M127,311.15 L127,438.15"/>
            <path d="M122.238,311.15 L125.942,311.15"/>
            <path d="M125.942,438.15 L122.238,438.15"/>
            <path d="M122.238,438.15 L122.767,438.15"/>
            <path d="M122.238,311.15 L125.942,311.15"/>
            <path d="M122.238,438.15 L122.238,311.15"/>
            <path d="M122.238,438.15 L122.238,438.15"/>
            <path d="M122.238,438.15 L122.238,311.15"/>
            <path d="M122.238,311.15 L122.238,311.15"/>
            <path d="M125.942,438.15 L125.942,438.15"/>
            <path d="M125.942,311.15 L125.942,311.15"/>
            <path d="M125.942,311.15 L125.942,438.15"/>
        </g>
        <g id="product-d8df14fc-3d4e-4e58-9847-17674f4e8307" class="IfcWall material-null predefinedtype-ELEMENTEDWALL projection" ifc:name="Cube" ifc:guid="3OtnJyFKvEM9X75sTFJeC7">
            <path d="M373.989,332.184 L374.65,332.184"/>
            <path d="M374.65,332.184 L374.65,332.184"/>
            <path d="M374.65,332.184 L374.65,431.8"/>
            <path d="M374.65,431.8 L373.989,431.8"/>
            <path d="M374.65,431.8 L374.65,431.8"/>
            <path d="M373.989,431.8 L373.989,332.184"/>
            <path d="M373.989,332.184 L373.989,332.184"/>
            <path d="M373.989,431.8 L373.989,431.8"/>
            <path d="M373.989,332.184 L373.989,431.8"/>
            <path d="M373.989,431.8 L374.65,431.8"/>
            <path d="M374.65,431.8 L374.65,332.184"/>
            <path d="M373.989,332.184 L374.65,332.184"/>
            <path d="M374.65,330.994 L380.471,330.994"/>
            <path d="M374.65,431.8 L374.65,330.994"/>
            <path d="M374.65,330.994 L374.65,330.994"/>
            <path d="M380.471,431.8 L374.65,431.8"/>
            <path d="M374.65,431.8 L374.65,431.8"/>
            <path d="M380.471,330.994 L380.471,431.8"/>
            <path d="M380.471,431.8 L380.471,431.8"/>
            <path d="M380.471,330.994 L380.471,330.994"/>
            <path d="M374.65,431.8 L380.471,431.8"/>
            <path d="M380.471,431.8 L380.471,330.994"/>
            <path d="M380.471,330.994 L374.65,330.994"/>
            <path d="M374.65,332.184 L374.65,330.994"/>
            <path d="M380.471,311.15 L381,311.15"/>
            <path d="M381,431.8 L380.471,431.8"/>
            <path d="M381,431.8 L381,431.8"/>
            <path d="M381,311.15 L381,311.15"/>
            <path d="M381,311.15 L381,431.8"/>
            <path d="M381,431.8 L381,431.8"/>
            <path d="M381,431.8 L381,311.15"/>
            <path d="M381,311.15 L380.471,311.15"/>
            <path d="M380.471,431.8 L380.471,431.8"/>
            <path d="M380.471,431.8 L380.471,311.15"/>
            <path d="M380.471,311.15 L380.471,311.15"/>
            <path d="M380.471,330.994 L380.471,311.15"/>
            <path d="M381,311.15 L382.058,311.15"/>
            <path d="M381,438.15 L381,311.15"/>
            <path d="M381,311.15 L381,311.15"/>
            <path d="M382.058,438.15 L381,438.15"/>
            <path d="M381,438.15 L381,438.15"/>
            <path d="M382.058,311.15 L382.058,438.15"/>
            <path d="M382.058,438.15 L382.058,438.15"/>
            <path d="M382.058,311.15 L382.058,311.15"/>
            <path d="M381,431.8 L381,438.15"/>
            <path d="M382.058,438.15 L382.058,311.15"/>
            <path d="M381,311.15 L382.058,311.15"/>
            <path d="M382.058,438.15 L382.058,311.15"/>
            <path d="M382.058,311.15 L382.058,311.15"/>
            <path d="M382.058,311.15 L385.763,311.15"/>
            <path d="M385.763,438.15 L382.058,438.15"/>
            <path d="M382.058,438.15 L382.058,438.15"/>
            <path d="M385.763,311.15 L385.763,438.15"/>
            <path d="M385.763,438.15 L385.763,438.15"/>
            <path d="M385.763,311.15 L385.763,311.15"/>
            <path d="M385.233,438.15 L385.763,438.15"/>
            <path d="M385.763,438.15 L385.763,311.15"/>
            <path d="M382.058,311.15 L385.763,311.15"/>
        </g>
        <g id="product-ecf3b84c-62e0-480e-9b8e-0fb8ee0dd302" class="IfcWall material-null predefinedtype-ELEMENTEDWALL projection" ifc:name="Cube" ifc:guid="3iyxXCOk183fkE3xZk3TC2">
            <path d="M254,87.1957 L134.044,207.152"/>
            <path d="M216.493,124.702 L134.044,207.152"/>
            <path d="M134.044,207.152 L134.044,303.477"/>
            <path d="M134.044,303.874 L134.044,303.874"/>
            <path d="M175.065,165.195 L173.875,166.386"/>
            <path d="M133.35,207.519 L133.35,207.833"/>
            <path d="M133.35,207.846 L133.35,304.8"/>
            <path d="M161.149,179.111 L159.749,180.512"/>
            <path d="M133.35,206.91 L127.529,212.731"/>
            <path d="M127.529,212.731 L127.529,305.594"/>
            <path d="M127.529,212.731 L127,213.26"/>
            <path d="M127.529,311.15 L127,311.15"/>
            <path d="M127,213.26 L127,311.15"/>
            <path d="M125.942,214.319 L127,213.26"/>
            <path d="M127,311.15 L125.942,311.15"/>
            <path d="M125.942,311.15 L125.942,214.319"/>
            <path d="M125.942,214.319 L127,213.26"/>
        </g>
        <g id="product-7f4c2e04-e912-421e-9d9f-7a097ca1f2bb" class="IfcWall material-null predefinedtype-ELEMENTEDWALL projection" ifc:name="Cube" ifc:guid="1$J2u4wH927fsVUWbyeVAx">
            <path d="M380.471,174.631 L374.65,168.81"/>
            <path d="M374.65,304.8 L374.65,168.81"/>
            <path d="M380.471,304.8 L374.65,304.8"/>
            <path d="M380.471,174.631 L380.471,304.8"/>
            <path d="M381,175.16 L381,311.15"/>
            <path d="M381,175.16 L380.471,174.631"/>
            <path d="M380.471,311.15 L380.471,174.631"/>
            <path d="M381,311.15 L380.471,311.15"/>
            <path d="M382.058,311.15 L381,311.15"/>
            <path d="M382.058,176.219 L382.058,311.15"/>
            <path d="M381,175.16 L382.058,176.219"/>
            <path d="M381,311.15 L381,175.16"/>
            <path d="M385.763,311.15 L382.058,311.15"/>
            <path d="M385.763,179.923 L385.763,311.15"/>
            <path d="M382.058,176.219 L385.763,179.923"/>
            <path d="M382.058,311.15 L382.058,176.219"/>
        </g>
        <g id="product-46af7981-84fa-427d-9902-91ec2e72c8bd" class="IfcWall material-null predefinedtype-ELEMENTEDWALL projection" ifc:name="Cube" ifc:guid="16htc1XFf2VPa2aUmkSiYz">
            <path d="M382.058,311.15 L382.058,311.15"/>
            <path d="M385.763,311.15 L385.763,311.15"/>
        </g>
        <g id="product-ef9dc3e9-f5c0-49b3-b719-af81659c0d9f" class="IfcSlab material-null predefinedtype-ROOF projection" ifc:name="Cube" ifc:guid="3ldSFfzS19ixSPhu5bd0sV">
            <path d="M420.478,234.778 L385.763,200.062"/>
            <path d="M419.917,235.339 L420.478,234.778"/>
            <path d="M419.917,235.339 L385.763,201.185"/>
            <path d="M381,196.422 L381,196.422"/>
            <path d="M254,69.4223 L254,69.4223"/>
            <path d="M419.916,235.338 L419.917,235.339"/>
            <path d="M411.498,243.758 L419.917,235.339"/>
            <path d="M419.917,235.339 L419.917,235.339"/>
            <path d="M385.763,218.958 L411.03,244.226"/>
            <path d="M411.03,244.226 L411.498,243.758"/>
            <path d="M381,213.26 L381,213.26"/>
            <path d="M385.763,218.023 L411.498,243.758"/>
            <path d="M421.039,234.217 L385.763,198.94"/>
            <path d="M421.039,234.217 L420.478,234.778"/>
            <path d="M254,68.2997 L254,68.2997"/>
            <path d="M381,195.3 L381,195.3"/>
            <path d="M385.763,200.062 L420.478,234.778"/>
            <path d="M254,68.2997 L254,68.2997"/>
        </g>
        <g id="product-9b68de88-278b-4aa7-bc16-d6b3b1303df2" class="IfcSlab material-null predefinedtype-ROOF projection" ifc:name="Cube" ifc:guid="2RQDw89ujAfxmMrhEnC3to">
            <path d="M254,31.3222 L254,30.1997"/>
            <path d="M411.03,188.352 L254,31.3222"/>
            <path d="M411.03,187.23 L411.03,188.352"/>
            <path d="M254,30.1997 L411.03,187.23"/>
            <path d="M254,48.1602 L254,31.3222"/>
            <path d="M411.03,205.19 L254,48.1602"/>
            <path d="M411.03,188.352 L411.03,205.19"/>
            <path d="M254,31.3222 L411.03,188.352"/>
            <path d="M411.03,205.19 L411.03,206.126"/>
            <path d="M381,175.16 L411.03,205.19"/>
            <path d="M381,175.16 L381,176.096"/>
            <path d="M411.03,206.126 L381,176.096"/>
            <path d="M381,175.16 L381,175.16"/>
            <path d="M380.471,175.567 L254,49.0956"/>
            <path d="M380.471,175.567 L380.471,174.631"/>
            <path d="M254,48.1602 L380.471,174.631"/>
            <path d="M254,49.0956 L254,48.1602"/>
            <path d="M254,30.1997 L254,29.0772"/>
            <path d="M411.03,187.23 L254,30.1997"/>
            <path d="M411.03,186.107 L411.03,187.23"/>
            <path d="M254,29.0772 L411.03,186.107"/>
        </g>
        <g id="product-8d8ecc6f-4583-472d-a6b0-ebcfbeed9a6c" class="IfcSlab material-null predefinedtype-FLOOR projection" ifc:name="Cube" ifc:guid="2DZinlHOD7BQQmwy__xPfi">
            <path d="M373.989,303.477 L373.989,303.874"/>
            <path d="M134.012,303.477 L373.989,303.477"/>
            <path d="M134.012,303.874 L134.012,303.477"/>
            <path d="M373.989,303.874 L134.012,303.874"/>
            <path d="M374.65,304.668 L374.65,304.8"/>
            <path d="M133.35,304.668 L374.65,304.668"/>
            <path d="M133.35,304.8 L133.35,304.668"/>
            <path d="M374.65,304.8 L133.35,304.8"/>
            <path d="M133.35,304.668 L133.35,303.874"/>
            <path d="M374.65,304.668 L133.35,304.668"/>
            <path d="M374.65,303.874 L374.65,304.668"/>
            <path d="M133.35,303.874 L374.65,303.874"/>
            <path d="M374.65,330.994 L374.65,331.523"/>
            <path d="M133.35,330.994 L374.65,330.994"/>
            <path d="M133.35,331.523 L133.35,330.994"/>
            <path d="M374.65,331.523 L133.35,331.523"/>
            <path d="M127.529,304.8 L380.471,304.8"/>
            <path d="M127.529,305.594 L127.529,304.8"/>
            <path d="M380.471,305.594 L127.529,305.594"/>
            <path d="M380.471,304.8 L380.471,305.594"/>
            <path d="M127.529,305.594 L380.471,305.594"/>
            <path d="M127.529,330.994 L127.529,305.594"/>
            <path d="M380.471,330.994 L127.529,330.994"/>
            <path d="M380.471,305.594 L380.471,330.994"/>
            <path d="M133.35,331.523 L374.65,331.523"/>
            <path d="M133.35,332.184 L133.35,331.523"/>
            <path d="M374.65,332.184 L133.35,332.184"/>
            <path d="M374.65,331.523 L374.65,332.184"/>
        </g>
        <g id="product-e0eec433-7a0f-4648-b8e1-48a8704a4ed7" class="IfcWall material-null predefinedtype-ELEMENTEDWALL projection" ifc:name="Cube" ifc:guid="3WxiGpUWz6IBZXIAXmIaxN">
            <path d="M133.35,207.846 L133.35,303.875"/>
            <path d="M133.35,303.875 L133.35,207.846"/>
            <path d="M134.012,207.184 L134.012,303.874"/>
            <path d="M134.012,207.184 L134.012,303.875"/>
            <path d="M134.012,207.184 L134.012,207.184"/>
            <path d="M133.35,207.846 L134.012,207.184"/>
            <path d="M133.35,207.846 L133.35,207.846"/>
            <path d="M133.35,207.846 L134.012,207.184"/>
            <path d="M134.012,303.875 L133.35,303.875"/>
            <path d="M133.35,303.875 L133.35,303.875"/>
            <path d="M133.35,303.875 L133.35,303.875"/>
            <path d="M127.529,304.8 L127.529,212.731"/>
            <path d="M127.529,304.8 L127.529,212.731"/>
            <path d="M133.35,206.91 L133.35,304.8"/>
            <path d="M133.35,304.8 L127.529,304.8"/>
            <path d="M127.529,304.8 L127.529,304.8"/>
            <path d="M133.35,304.8 L127.529,304.8"/>
            <path d="M133.35,304.8 L133.35,304.8"/>
            <path d="M133.35,206.91 L133.35,206.91"/>
            <path d="M127.529,212.731 L133.35,206.91"/>
            <path d="M127.529,212.731 L127.529,212.731"/>
            <path d="M127.529,212.731 L133.35,206.91"/>
            <path d="M127,311.15 L127,213.26"/>
            <path d="M127,311.15 L127,213.26"/>
            <path d="M127.529,212.731 L127.529,311.15"/>
            <path d="M127.529,311.15 L127,311.15"/>
            <path d="M127,311.15 L127,311.15"/>
            <path d="M127.529,311.15 L127,311.15"/>
            <path d="M127.529,212.731 L127.529,212.731"/>
            <path d="M127,213.26 L127.529,212.731"/>
            <path d="M127,213.26 L127,213.26"/>
            <path d="M127,213.26 L127.529,212.731"/>
            <path d="M125.942,214.319 L127,213.26"/>
            <path d="M125.942,214.319 L127,213.26"/>
            <path d="M125.942,214.319 L125.942,311.15"/>
            <path d="M125.942,311.15 L125.942,214.319"/>
            <path d="M125.942,214.319 L125.942,214.319"/>
            <path d="M127,213.26 L127,213.26"/>
            <path d="M127,213.26 L127,311.15"/>
            <path d="M127,311.15 L125.942,311.15"/>
            <path d="M125.942,311.15 L125.942,311.15"/>
            <path d="M127,311.15 L125.942,311.15"/>
            <path d="M127,311.15 L127,311.15"/>
            <path d="M122.238,218.023 L125.942,214.319"/>
            <path d="M125.942,311.15 L122.238,311.15"/>
            <path d="M122.238,311.15 L122.238,311.15"/>
            <path d="M122.238,311.15 L122.238,218.023"/>
            <path d="M122.238,218.023 L122.238,218.023"/>
            <path d="M122.238,218.023 L125.942,214.319"/>
            <path d="M122.238,218.023 L122.238,311.15"/>
            <path d="M122.238,311.15 L125.942,311.15"/>
            <path d="M125.942,214.319 L125.942,214.319"/>
            <path d="M125.942,214.319 L125.942,311.15"/>
            <path d="M125.942,311.15 L125.942,311.15"/>
        </g>
        <g id="product-97e442c2-2d55-446b-b835-9c1c458632aa" class="IfcWall material-null predefinedtype-ELEMENTEDWALL projection" ifc:name="Cube" ifc:guid="2Nv4B2BLL4QxWrd1n5XZAg">
            <path d="M254,49.0958 L373.989,169.084"/>
            <path d="M373.989,169.084 L373.989,303.874"/>
            <path d="M254,49.0958 L254,303.477"/>
            <path d="M374.65,304.8 L374.65,304.8"/>
            <path d="M254,49.0957 L254,303.477"/>
            <path d="M254,304.8 L254,304.8"/>
            <path d="M380.471,304.8 L380.471,304.8"/>
            <path d="M381,195.3 L381,195.3"/>
            <path d="M254,69.4222 L254,69.4223"/>
            <path d="M254,49.0957 L254,69.4223"/>
            <path d="M381,175.16 L381,175.16"/>
            <path d="M254,86.2602 L254,86.2601"/>
            <path d="M254,69.4223 L254,86.2602"/>
            <path d="M254,69.4223 L254,69.4223"/>
            <path d="M254,86.2602 L254,303.477"/>
            <path d="M254,304.8 L254,304.8"/>
            <path d="M380.471,304.8 L380.471,304.8"/>
        </g>
        <g id="product-bd933419-2e92-4186-b35b-13cf4399c256" class="IfcWall material-null predefinedtype-ELEMENTEDWALL projection" ifc:name="Cube" ifc:guid="2zapGPBf91XhDR4yz3cS9M">
            <path d="M373.989,332.184 L134.044,332.184"/>
            <path d="M373.989,431.8 L134.044,431.8"/>
            <path d="M134.044,332.184 L134.044,431.8"/>
            <path d="M133.35,431.8 L133.35,330.994"/>
            <path d="M133.35,330.994 L133.35,330.994"/>
            <path d="M374.65,330.994 L374.65,330.994"/>
            <path d="M133.35,431.8 L373.989,431.8"/>
            <path d="M132.292,431.8 L127.529,431.8"/>
            <path d="M127.529,431.8 L127.529,330.994"/>
            <path d="M380.471,311.15 L380.471,311.15"/>
            <path d="M381,311.15 L380.471,311.15"/>
            <path d="M133.35,438.15 L127,438.15"/>
            <path d="M127,311.15 L127,438.15"/>
            <path d="M382.058,311.15 L380.471,311.15"/>
            <path d="M133.35,438.15 L127,438.15"/>
            <path d="M125.942,311.15 L125.942,438.15"/>
        </g>
    <g ifc:guid="3Gs97s9FX5xhkZ3Xrd4JSk" ifc:name="Wall" class="IfcWall material-null predefinedtype-ELEMENTEDWALL cut"><path d="M374.64995280144706,436.03332837422687 L373.8183885339707,436.03332837422687"/><path d="M374.64995280144706,436.03332837422687 L374.64995280144706,464.4678433736165"/><path d="M373.8183885339707,436.03332837422687 L372.5332726561834,436.03332837422687"/><path d="M372.5332925243983,464.30595715840656 L372.5332726561834,436.03332837422687"/><path d="M374.64995280144706,464.4678433736165 L374.64995280144706,482.5999935468038"/><path d="M374.64995280144706,482.5999935468038 L373.8184084021856,482.5999935468038"/><path d="M373.8184084021856,482.5999935468038 L372.5332925243983,482.5999935468038"/><path d="M372.5332925243983,482.5999935468038 L372.5332925243983,464.30595715840656"/><path d="M380.9999932372381,431.7999978860219 L380.9999932372381,435.707688331604"/><path d="M380.9999932372381,431.7999978860219 L378.92028783995005,431.7999978860219"/><path d="M378.92028783995005,431.7999978860219 L375.70833261050876,431.7999978860219"/><path d="M375.70833261050876,434.3695640563965 L375.70833261050876,431.7999978860219"/><path d="M380.9999932372381,435.707688331604 L380.9999932372381,438.14998865127563"/><path d="M383.6050937100062,438.14998865127563 L380.9999932372381,438.14998865127563"/><path d="M385.23327405490573,438.14998865127563 L383.6050937100062,438.14998865127563"/><path d="M385.23327405490573,438.14998865127563 L385.23327405490573,454.9588163693746"/><path d="M385.23327405490573,454.9588163693746 L385.23327405490573,482.5999935468038"/><path d="M385.23327405490573,482.5999935468038 L381.0556441072434,482.5999935468038"/><path d="M375.70833261050876,436.03332837422687 L375.70833261050876,434.3695640563965"/><path d="M375.70833261050876,436.03332837422687 L375.2905437870631,436.03332837422687"/><path d="M381.0556441072434,482.5999935468038 L374.64995280144706,482.5999935468038"/><path d="M374.64995280144706,482.5999935468038 L374.64995280144706,464.2184178034464"/><path d="M374.64995280144706,464.2184178034464 L374.64995280144706,436.03332837422687"/><path d="M375.2905437870631,436.03332837422687 L374.64995280144706,436.03332837422687"/></g><g ifc:guid="2k9z8LflD7ruGMDoCmcFsa" ifc:name="Wall" class="IfcWall material-null predefinedtype-ELEMENTEDWALL cut"><path d="M133.35004543501233,472.7964997291565 L133.35004543501233,482.5999935468038"/><path d="M135.4667057120611,482.5999935468038 L135.46671564616855,472.7964997291565"/><path d="M135.4667057120611,482.5999935468038 L133.79564975935315,482.5999935468038"/><path d="M133.79564975935315,482.5999935468038 L133.35004543501233,482.5999935468038"/><path d="M133.35004543501233,436.03332837422687 L133.35004543501233,472.7964997291565"/><path d="M135.46671564616855,472.7964997291565 L135.46671564616855,436.03332837422687"/><path d="M135.46671564616855,436.03332837422687 L135.02110138772028,436.03332837422687"/><path d="M135.02110138772028,436.03332837422687 L133.35004543501233,436.03332837422687"/><path d="M133.35004543501233,482.5999935468038 L124.81509740390476,482.5999935468038"/><path d="M133.35004543501233,482.5999935468038 L133.35004543501233,472.8817343711853"/><path d="M133.35004543501233,472.8817343711853 L133.35004543501233,436.03332837422687"/><path d="M133.35004543501233,436.03332837422687 L132.51254057127332,436.03332837422687"/><path d="M132.51254057127332,436.03332837422687 L132.29166562595066,436.03332837422687"/><path d="M132.29166562595066,436.03332837422687 L132.29166562595066,432.68346786499023"/><path d="M127.00000499922133,436.8799924850464 L127.00000499922133,438.14998865127563"/><path d="M127.00000499922133,438.14998865127563 L123.61336842415825,438.14998865127563"/><path d="M124.81509740390476,482.5999935468038 L122.76671424744622,482.5999935468038"/><path d="M123.61336842415825,438.14998865127563 L122.76671424744622,438.14998865127563"/><path d="M122.76671424744622,438.14998865127563 L122.76671424744622,473.99677832921344"/><path d="M122.76671424744622,473.99677832921344 L122.76671424744622,482.5999935468038"/><path d="M132.29166562595066,432.68346786499023 L132.29166562595066,431.7999978860219"/><path d="M132.29166562595066,431.7999978860219 L128.1043499235123,431.7999978860219"/><path d="M128.1043499235123,431.7999978860219 L127.00000499922133,431.7999978860219"/><path d="M127.00000499922133,431.7999978860219 L127.00000499922133,436.8799924850464"/></g><g ifc:guid="3enM6Ss9144fBW6HhG_ten" ifc:name="Cube" class="IfcSlab material-null predefinedtype-ROOF cut"><path d="M135.34451619027155,149.97762441635132 L253.99993508525523,31.322201093037922"/><path d="M253.99992515114775,31.047900517781574 L253.99993508525523,31.322201093037922"/><path d="M96.96972464758254,188.35242092609406 L135.34451619027155,149.97762441635132"/><path d="M96.96972464758254,188.07810048262277 L96.96972464758254,188.35242092609406"/><path d="M96.96972464758254,187.22988665103912 L96.96972464758254,188.07810048262277"/><path d="M253.99993508525523,30.199686686197914 L253.99992515114775,31.047900517781574"/><path d="M135.34451619027155,148.8550901412964 L253.99993508525523,30.199686686197914"/><path d="M96.96972464758254,187.22988665103912 L135.34451619027155,148.8550901412964"/><path d="M135.34450625616407,166.81561867396036 L253.99993508525523,48.16019535064697"/><path d="M253.99993508525523,48.16019535064697 L253.99994501936268,44.045329093933105"/><path d="M96.96973458168999,205.19039531548816 L135.34450625616407,166.81561867396036"/><path d="M96.96972464758254,201.07554892698923 L96.96973458168999,205.19039531548816"/><path d="M96.96973458168999,188.35240105787912 L96.96972464758254,201.07554892698923"/><path d="M253.99994501936268,44.045329093933105 L253.99992515114775,31.322201093037922"/><path d="M135.34450625616407,149.97762441635132 L253.99992515114775,31.322201093037922"/><path d="M96.96973458168999,188.35240105787912 L135.34450625616407,149.97762441635132"/><path d="M96.96972464758254,205.19039531548816 L135.34448638794916,166.8156385421753"/><path d="M96.96972464758254,206.12583061059314 L135.34448638794916,167.75107383728027"/><path d="M96.96972464758254,206.12583061059314 L96.96972464758254,205.89724679787952"/><path d="M96.96972464758254,205.89724679787952 L96.96972464758254,205.19039531548816"/><path d="M135.34448638794916,166.8156385421753 L253.99993508525523,48.16019535064697"/><path d="M135.34448638794916,167.75107383728027 L253.99993508525523,49.09563064575195"/><path d="M253.99993508525523,49.09563064575195 L253.99992515114775,48.8670269648234"/><path d="M253.99992515114775,48.8670269648234 L253.99993508525523,48.16019535064697"/><path d="M135.34450625616407,148.8551100095113 L253.99993508525523,30.199686686197914"/><path d="M253.99992515114775,29.925386110941567 L253.99993508525523,30.199686686197914"/><path d="M96.96971471347507,187.22988665103912 L135.34450625616407,148.8551100095113"/><path d="M96.96971471347507,187.22988665103912 L96.96972464758254,186.95556620756784"/><path d="M96.96972464758254,186.95556620756784 L96.96972464758254,186.1073523759842"/><path d="M253.99994501936268,29.07713254292806 L253.99992515114775,29.925386110941567"/><path d="M135.34450625616407,147.73257573445636 L253.99994501936268,29.07713254292806"/><path d="M96.96972464758254,186.1073523759842 L135.34450625616407,147.73257573445636"/></g><g ifc:guid="0kDs$SHtXEThDalbYBn9J0" ifc:name="Cube" class="IfcSlab material-null predefinedtype-BASESLAB cut"><path d="M135.46671564616855,438.15000851949054 L135.46671564616855,441.47618611653644"/><path d="M135.46671564616855,438.15000851949054 L186.26671627400415,438.15000851949054"/><path d="M325.96666212119754,438.15000851949054 L186.26671627400415,438.15000851949054"/><path d="M372.5332726561834,438.15000851949054 L325.96666212119754,438.15000851949054"/><path d="M372.5332726561834,440.72024027506507 L372.5332726561834,438.15000851949054"/><path d="M135.46671564616855,441.47618611653644 L135.46671564616855,442.383329073588"/><path d="M186.2667113069504,442.383329073588 L135.46671564616855,442.383329073588"/><path d="M372.5332726561834,442.383329073588 L372.5332726561834,440.72024027506507"/><path d="M372.5332726561834,442.383329073588 L325.96666212119754,442.383329073588"/><path d="M325.96666212119754,442.383329073588 L186.2667113069504,442.383329073588"/><path d="M325.96666212119754,438.15000851949054 L186.26671627400415,438.15000851949054"/><path d="M186.26671627400415,438.15000851949054 L135.46671564616855,438.15000851949054"/><path d="M135.46671564616855,437.6964370409647 L135.46671564616855,438.15000851949054"/><path d="M135.46671564616855,436.03332837422687 L135.46671564616855,437.6964370409647"/><path d="M135.46671564616855,436.03332837422687 L186.26671627400415,436.03332837422687"/><path d="M325.96666212119754,436.03332837422687 L186.26671627400415,436.03332837422687"/><path d="M372.5332726561834,436.03332837422687 L325.96666212119754,436.03332837422687"/><path d="M372.5332726561834,438.15000851949054 L325.96666212119754,438.15000851949054"/><path d="M372.5332726561834,438.15000851949054 L372.5332726561834,437.31846412022907"/><path d="M372.5332726561834,437.31846412022907 L372.5332726561834,436.03332837422687"/><path d="M228.59993174908652,436.03332837422687 L132.29166562595066,436.03332837422687"/><path d="M132.29166562595066,433.4749380747477 L132.29166562595066,436.03332837422687"/><path d="M375.70833261050876,436.03332837422687 L228.59993174908652,436.03332837422687"/><path d="M375.70833261050876,436.03332837422687 L375.70833261050876,434.3584179878235"/><path d="M375.70833261050876,434.3584179878235 L375.70833261050876,431.8000078201294"/><path d="M375.70833261050876,431.8000078201294 L279.4000366850505,431.8000078201294"/><path d="M279.4000366850505,431.8000078201294 L132.29166562595066,431.8000078201294"/><path d="M132.29166562595066,431.8000078201294 L132.29166562595066,433.4749380747477"/></g><g ifc:guid="3WxiGpUWz6IBZXIAXmIaxN" ifc:name="Cube" class="IfcWall material-null predefinedtype-ELEMENTEDWALL cut"><path d="M134.01150798040723,227.54015028476715 L134.01150798040723,207.1841905514399"/><path d="M133.35004543501233,207.84564316272736 L133.35004543501233,283.65834057331085"/><path d="M133.35004543501233,207.84564316272736 L133.872251661997,207.32342700163522"/><path d="M133.872251661997,207.32342700163522 L134.01150798040723,207.1841905514399"/><path d="M133.35004543501233,283.65834057331085 L133.35004543501233,303.87505392233527"/><path d="M134.01150798040723,303.87505392233527 L134.01150798040723,227.54015028476715"/><path d="M134.01150798040723,303.87505392233527 L133.48930175342258,303.87505392233527"/><path d="M133.48930175342258,303.87505392233527 L133.35004543501233,303.87505392233527"/><path d="M127.52921477196709,286.3091578086217 L127.52921477196709,304.79998886585236"/><path d="M133.35004543501233,304.79998886585236 L133.35004543501233,226.57006482283273"/><path d="M133.35004543501233,304.79998886585236 L128.6982506040543,304.79998886585236"/><path d="M128.6982506040543,304.79998886585236 L127.52921477196709,304.79998886585236"/><path d="M127.52921477196709,212.7310385306676 L127.52921477196709,286.3091578086217"/><path d="M133.35004543501233,226.57006482283273 L133.35004543501233,206.91018799940744"/><path d="M133.35004543501233,206.91018799940744 L128.6982506040543,211.56199276447296"/><path d="M128.6982506040543,211.56199276447296 L127.52921477196709,212.7310385306676"/><path d="M127.00004473565117,291.57204926013947 L127.00004473565117,311.149999499321"/><path d="M127.52921477196709,311.149999499321 L127.52921477196709,232.41481681664783"/><path d="M127.52921477196709,311.149999499321 L127.10588271655735,311.149999499321"/><path d="M127.10588271655735,311.149999499321 L127.00004473565117,311.149999499321"/><path d="M127.00004473565117,213.26020856698352 L127.00004473565117,291.57204926013947"/><path d="M127.52921477196709,232.41481681664783 L127.52921477196709,212.7310385306676"/><path d="M127.52921477196709,212.7310385306676 L127.10588271655735,213.15435071786243"/><path d="M127.10588271655735,213.15435071786243 L127.00004473565117,213.26020856698352"/><path d="M125.9417145971268,214.31852877140045 L126.15163222191826,214.10862108071643"/><path d="M125.9417145971268,214.31852877140045 L125.9417145971268,291.9437537590662"/><path d="M126.15163222191826,214.10862108071643 L127.00004473565117,213.26020856698352"/><path d="M127.00004473565117,232.67636199792224 L127.00004473565117,213.26020856698352"/><path d="M125.9417145971268,291.9437537590662 L125.9417145971268,311.149999499321"/><path d="M127.00004473565117,311.149999499321 L127.00004473565117,232.67636199792224"/><path d="M127.00004473565117,311.149999499321 L126.15163222191826,311.149999499321"/><path d="M126.15163222191826,311.149999499321 L125.9417145971268,311.149999499321"/><path d="M122.95159792143203,311.149999499321 L122.2375442111303,311.149999499321"/><path d="M122.2375442111303,218.02269915739694 L122.95159792143203,217.30863551298776"/><path d="M122.2375442111303,218.02269915739694 L122.2375442111303,293.1977460781733"/><path d="M122.2375442111303,293.1977460781733 L122.2375442111303,311.149999499321"/><path d="M122.95159792143203,217.30863551298776 L125.9417145971268,214.31852877140045"/><path d="M125.9417145971268,311.149999499321 L122.95159792143203,311.149999499321"/><path d="M125.9417145971268,311.149999499321 L125.9417145971268,232.98483590284982"/><path d="M125.9417145971268,232.98483590284982 L125.9417145971268,214.31852877140045"/></g><g ifc:guid="3OtnJyFKvEM9X75sTFJeC7" ifc:name="Cube" class="IfcWall material-null predefinedtype-ELEMENTEDWALL cut"><path d="M374.6500521425217,332.1843991676966 L374.38934142627414,332.1843991676966"/><path d="M374.6500521425217,332.1843991676966 L374.6500521425217,371.3406125704447"/><path d="M374.6500521425217,371.3406125704447 L374.6500521425217,431.8000078201294"/><path d="M374.38934142627414,431.8000078201294 L374.6500521425217,431.8000078201294"/><path d="M374.38934142627414,332.1843991676966 L373.9886193994492,332.1843991676966"/><path d="M373.9886193994492,431.8000078201294 L374.38934142627414,431.8000078201294"/><path d="M373.9886193994492,431.8000078201294 L373.9886193994492,371.44853671391803"/><path d="M373.9886193994492,371.44853671391803 L373.9886193994492,332.1843991676966"/><path d="M378.1732032223353,330.99377652009326 L374.6500521425217,330.99377652009326"/><path d="M374.6500521425217,370.7857032616933 L374.6500521425217,330.99377652009326"/><path d="M374.6500521425217,431.8000078201294 L374.6500521425217,370.7857032616933"/><path d="M374.6500521425217,431.8000078201294 L378.1732032223353,431.8000078201294"/><path d="M378.1732032223353,431.8000078201294 L380.47090267378184,431.8000078201294"/><path d="M380.47090267378184,330.99377652009326 L378.1732032223353,330.99377652009326"/><path d="M380.47090267378184,330.99377652009326 L380.47090267378184,392.9453690846761"/><path d="M380.47090267378184,392.9453690846761 L380.47090267378184,431.8000078201294"/><path d="M380.78861529864963,431.8000078201294 L381.00005284188285,431.8000078201294"/><path d="M381.00005284188285,311.149999499321 L380.78861529864963,311.149999499321"/><path d="M381.00005284188285,311.149999499321 L381.00005284188285,383.69114200274146"/><path d="M381.00005284188285,383.69114200274146 L381.00005284188285,431.8000078201294"/><path d="M380.78861529864963,311.149999499321 L380.47090267378184,311.149999499321"/><path d="M380.47090267378184,431.8000078201294 L380.78861529864963,431.8000078201294"/><path d="M380.47090267378184,431.8000078201294 L380.47090267378184,359.3595127264658"/><path d="M380.47090267378184,359.3595127264658 L380.47090267378184,311.149999499321"/><path d="M381.63506085910495,311.149999499321 L381.00005284188285,311.149999499321"/><path d="M381.00005284188285,361.9499901930491 L381.00005284188285,311.149999499321"/><path d="M381.00005284188285,438.15000851949054 L381.00005284188285,361.9499901930491"/><path d="M381.00005284188285,438.15000851949054 L381.63506085910495,438.15000851949054"/><path d="M381.63506085910495,438.15000851949054 L382.0583929145147,438.15000851949054"/><path d="M382.0583929145147,311.149999499321 L381.63506085910495,311.149999499321"/><path d="M382.0583929145147,311.149999499321 L382.0583929145147,361.7391983668009"/><path d="M382.0583929145147,361.7391983668009 L382.0583929145147,438.15000851949054"/><path d="M382.0583929145147,311.149999499321 L382.0583929145147,387.2450590133667"/><path d="M384.27783146737113,311.149999499321 L382.0583929145147,311.149999499321"/><path d="M382.0583929145147,387.2450590133667 L382.0583929145147,438.15000851949054"/><path d="M382.0583929145147,438.15000851949054 L384.27783146737113,438.15000851949054"/><path d="M384.27783146737113,438.15000851949054 L385.7625831687261,438.15000851949054"/><path d="M385.7625831687261,311.149999499321 L384.27783146737113,311.149999499321"/><path d="M385.7625831687261,311.149999499321 L385.7625831687261,387.9707952340444"/><path d="M385.7625831687261,387.9707952340444 L385.7625831687261,438.15000851949054"/></g><g ifc:guid="1Q$YJci5DD8OOfcXUsCdWB" ifc:name="Cube" class="IfcWall material-null predefinedtype-ELEMENTEDWALL cut"><path d="M133.48930175342258,431.7999978860219 L133.35004543501233,431.7999978860219"/><path d="M133.35004543501233,410.82831223805744 L133.35004543501233,431.7999978860219"/><path d="M134.01150798040723,431.7999978860219 L133.48930175342258,431.7999978860219"/><path d="M134.01150798040723,431.7999978860219 L134.01150798040723,353.15607984860736"/><path d="M133.35004543501233,332.1843892335892 L133.35004543501233,410.82831223805744"/><path d="M134.01150798040723,353.15607984860736 L134.01150798040723,332.1843892335892"/><path d="M134.01150798040723,332.1843892335892 L133.872251661997,332.1843892335892"/><path d="M133.872251661997,332.1843892335892 L133.35004543501233,332.1843892335892"/><path d="M128.6982506040543,431.7999978860219 L127.52921477196709,431.7999978860219"/><path d="M127.52921477196709,411.55440608660376 L127.52921477196709,431.7999978860219"/><path d="M127.52921477196709,330.99375665187836 L127.52921477196709,411.55440608660376"/><path d="M132.18100960292514,330.99375665187836 L127.52921477196709,330.99375665187836"/><path d="M133.35004543501233,330.99375665187836 L132.18100960292514,330.99375665187836"/><path d="M133.35004543501233,431.7999978860219 L128.6982506040543,431.7999978860219"/><path d="M133.35004543501233,431.7999978860219 L133.35004543501233,351.23934348424274"/><path d="M133.35004543501233,351.23934348424274 L133.35004543501233,330.99375665187836"/><path d="M127.10588271655735,431.7999978860219 L127.00004473565117,431.7999978860219"/><path d="M127.42337679106093,311.149999499321 L127.00004473565117,311.149999499321"/><path d="M127.00004473565117,311.149999499321 L127.00004473565117,407.6700210571289"/><path d="M127.00004473565117,407.6700210571289 L127.00004473565117,431.7999978860219"/><path d="M127.52921477196709,311.149999499321 L127.42337679106093,311.149999499321"/><path d="M127.52921477196709,431.7999978860219 L127.10588271655735,431.7999978860219"/><path d="M127.52921477196709,431.7999978860219 L127.52921477196709,335.279976328214"/><path d="M127.52921477196709,335.279976328214 L127.52921477196709,311.149999499321"/><path d="M126.15163222191826,438.15000851949054 L125.9417145971268,438.15000851949054"/><path d="M126.79012711085971,311.149999499321 L125.9417145971268,311.149999499321"/><path d="M125.9417145971268,311.149999499321 L125.9417145971268,412.95994321505225"/><path d="M125.9417145971268,412.95994321505225 L125.9417145971268,438.15000851949054"/><path d="M127.00004473565117,311.149999499321 L126.79012711085971,311.149999499321"/><path d="M127.00004473565117,438.15000851949054 L126.15163222191826,438.15000851949054"/><path d="M127.00004473565117,438.15000851949054 L127.00004473565117,336.3400648037592"/><path d="M127.00004473565117,336.3400648037592 L127.00004473565117,311.149999499321"/><path d="M122.95159792143203,438.15000851949054 L122.2375442111303,438.15000851949054"/><path d="M125.22765095271762,311.149999499321 L122.2375442111303,311.149999499321"/><path d="M122.2375442111303,311.149999499321 L122.2375442111303,413.66809606552124"/><path d="M122.2375442111303,413.66809606552124 L122.2375442111303,438.15000851949054"/><path d="M125.9417145971268,311.149999499321 L125.22765095271762,311.149999499321"/><path d="M125.9417145971268,438.15000851949054 L122.95159792143203,438.15000851949054"/><path d="M125.9417145971268,438.15000851949054 L125.9417145971268,335.6319119532903"/><path d="M125.9417145971268,335.6319119532903 L125.9417145971268,311.149999499321"/></g><g ifc:guid="1$J2u4wH927fsVUWbyeVAx" ifc:name="Cube" class="IfcWall material-null predefinedtype-ELEMENTEDWALL cut"><path d="M374.6500918789515,184.17838712533313 L374.6500918789515,265.31506127988297"/><path d="M374.6500918789515,168.81032784779865 L374.6500918789515,184.17838712533313"/><path d="M374.6500918789515,168.81032784779865 L376.9979983095139,171.158234278361"/><path d="M376.9979983095139,171.158234278361 L380.4709225419968,174.6311585108439"/><path d="M380.4709225419968,174.6311585108439 L380.4709225419968,189.9992177883784"/><path d="M380.4709225419968,189.9992177883784 L380.4709225419968,267.66296778805554"/><path d="M380.4709225419968,267.66296778805554 L380.4709225419968,304.7999987999598"/><path d="M374.6500918789515,304.7999987999598 L374.6500918789515,265.31506127988297"/><path d="M374.6500918789515,304.7999987999598 L378.1230161114344,304.7999987999598"/><path d="M378.1230161114344,304.7999987999598 L380.4709225419968,304.7999987999598"/><path d="M380.4709225419968,271.7824435482422 L380.4709225419968,189.871147274971"/><path d="M380.4709225419968,189.871147274971 L380.4709225419968,174.6311585108439"/><path d="M380.4709225419968,174.6311585108439 L380.6825786355942,174.84283447265625"/><path d="M380.6825786355942,174.84283447265625 L381.0000925783127,175.16032854715982"/><path d="M381.0000925783127,175.16032854715982 L381.0000925783127,190.40031731128693"/><path d="M381.0000925783127,190.40031731128693 L381.0000925783127,271.9941095759471"/><path d="M381.0000925783127,271.9941095759471 L381.0000925783127,311.149999499321"/><path d="M380.4709225419968,311.149999499321 L380.4709225419968,271.7824435482422"/><path d="M380.4709225419968,311.149999499321 L380.5771976236313,311.149999499321"/><path d="M380.5771976236313,311.149999499321 L381.0000925783127,311.149999499321"/><path d="M381.63510059553477,175.7953365643819 L382.0584127827296,176.21864875157672"/><path d="M382.0584127827296,176.21864875157672 L382.0584127827296,184.27443007628122"/><path d="M382.0584127827296,184.27443007628122 L382.0584127827296,184.72343186537424"/><path d="M382.0584127827296,184.72343186537424 L382.0584127827296,191.4586176474889"/><path d="M382.0584127827296,191.4586176474889 L382.0584127827296,272.4174714336792"/><path d="M382.0584127827296,272.4174714336792 L382.0584127827296,308.6516410112381"/><path d="M382.0584127827296,308.6516410112381 L382.0584127827296,311.149999499321"/><path d="M381.21174867191013,311.149999499321 L382.0584127827296,311.149999499321"/><path d="M381.0000925783127,183.66511166095734 L381.0000925783127,190.400297443072"/><path d="M381.0000925783127,175.16034841537476 L381.63510059553477,175.7953365643819"/><path d="M381.0000925783127,175.16034841537476 L381.0000925783127,183.21609497070312"/><path d="M381.0000925783127,183.21609497070312 L381.0000925783127,183.66511166095734"/><path d="M381.0000925783127,190.400297443072 L381.0000925783127,271.994149312377"/><path d="M381.0000925783127,308.6100071668625 L381.0000925783127,271.994149312377"/><path d="M381.0000925783127,308.6100071668625 L381.0000925783127,311.149999499321"/><path d="M381.0000925783127,311.149999499321 L381.21174867191013,311.149999499321"/><path d="M385.762603036941,273.89914356172085 L385.762603036941,195.16280790170032"/><path d="M385.762603036941,188.42760225137073 L385.762603036941,195.16280790170032"/><path d="M385.762603036941,179.92281913757324 L384.3843052311549,178.5445213317871"/><path d="M385.762603036941,179.92281913757324 L385.762603036941,187.9786004622777"/><path d="M385.762603036941,187.9786004622777 L385.762603036941,188.42760225137073"/><path d="M385.762603036941,273.89914356172085 L385.762603036941,311.149999499321"/><path d="M385.02789631722464,311.149999499321 L385.762603036941,311.149999499321"/><path d="M384.3843052311549,178.5445213317871 L382.0584127827296,176.21864875157672"/><path d="M382.0584127827296,184.27443007628122 L382.0584127827296,176.21864875157672"/><path d="M382.0584127827296,184.72345173358917 L382.0584127827296,184.27443007628122"/><path d="M382.0584127827296,191.4586176474889 L382.0584127827296,184.72345173358917"/><path d="M382.0584127827296,311.149999499321 L385.02789631722464,311.149999499321"/><path d="M382.0584127827296,311.149999499321 L382.0584127827296,272.4174714336792"/><path d="M382.0584127827296,272.4174714336792 L382.0584127827296,191.4586176474889"/></g><g ifc:guid="2RQDw89ujAfxmMrhEnC3to" ifc:name="Cube" class="IfcSlab material-null predefinedtype-ROOF cut"><path d="M292.3748055620799,69.69706217447916 L253.99997482168507,31.32224082946777"/><path d="M253.99996488757762,30.474026997884113 L253.99997482168507,31.32224082946777"/><path d="M411.0301841819097,188.35244079430896 L292.3748055620799,69.69706217447916"/><path d="M411.0302040501246,187.50424683094025 L411.0301841819097,188.35244079430896"/><path d="M411.0302040501246,187.22990651925403 L411.0302040501246,187.50424683094025"/><path d="M253.99997482168507,30.199686686197914 L253.99996488757762,30.474026997884113"/><path d="M292.37479562797245,68.5745080312093 L253.99997482168507,30.199686686197914"/><path d="M411.0302040501246,187.22990651925403 L292.37479562797245,68.5745080312093"/><path d="M254.0000443604373,48.16035429636637 L254.0000443604373,45.061707496643066"/><path d="M254.0000443604373,48.16035429636637 L254.0000443604373,48.16031455993652"/><path d="M386.0307047291407,180.19098043441772 L357.4614434961289,151.62171920140582"/><path d="M357.4614434961289,151.62171920140582 L254.0000443604373,48.16031455993652"/><path d="M411.0301841819097,205.1904151837031 L386.0307047291407,180.19098043441772"/><path d="M411.0301841819097,192.46728718280792 L411.0301841819097,205.1904151837031"/><path d="M411.0301841819097,188.35242092609406 L411.0301841819097,192.46728718280792"/><path d="M254.0000443604373,45.061707496643066 L253.99997482168507,31.32224082946777"/><path d="M292.3748055620799,69.69706217447916 L253.99997482168507,31.32224082946777"/><path d="M411.0301841819097,188.35242092609406 L292.3748055620799,69.69706217447916"/><path d="M411.0301841819097,205.1904151837031 L411.0301841819097,205.41901886463165"/><path d="M411.0301841819097,205.1904151837031 L393.78139471250864,187.94162571430206"/><path d="M393.78139471250864,187.94162571430206 L385.762603036941,179.92281913757324"/><path d="M385.762603036941,179.92281913757324 L385.762603036941,180.2708903948466"/><path d="M374.6501117471665,169.33002074559528 L374.6501117471665,168.81034771601358"/><path d="M374.6501117471665,168.81034771601358 L321.0279404643982,115.18820126851399"/><path d="M411.0301841819097,205.41901886463165 L411.0301841819097,206.125870347023"/><path d="M385.762603036941,180.2708903948466 L385.762603036941,180.85827430089313"/><path d="M393.78139471250864,188.87708087762195 L385.762603036941,180.85827430089313"/><path d="M411.0301841819097,206.125870347023 L393.78139471250864,188.87708087762195"/><path d="M374.6501117471665,169.33002074559528 L374.6501117471665,169.74576314290363"/><path d="M374.6501117471665,169.74576314290363 L321.02792059618326,116.12355709075928"/><path d="M321.0279404643982,115.18820126851399 L254.0000443604373,48.16035429636637"/><path d="M253.99999468990117,49.09563064575195 L321.02792059618326,116.12355709075928"/><path d="M253.99999468990117,49.09563064575195 L254.00005429454478,48.30833276112874"/><path d="M254.00005429454478,48.30833276112874 L254.0000443604373,48.16035429636637"/><path d="M292.37479562797245,68.57454776763916 L253.99997482168507,30.199726422627766"/><path d="M253.99997482168507,29.351512591044106 L253.99997482168507,30.199726422627766"/><path d="M411.0302040501246,187.22992638746896 L292.37479562797245,68.57454776763916"/><path d="M411.0302040501246,187.22992638746896 L411.0301841819097,186.38171255588531"/><path d="M411.0301841819097,186.38171255588531 L411.0301841819097,186.10739211241403"/><path d="M253.99995495347014,29.07717227935791 L253.99997482168507,29.351512591044106"/><path d="M292.37479562797245,67.4519936243693 L253.99995495347014,29.07717227935791"/><path d="M411.0301841819097,186.10739211241403 L292.37479562797245,67.4519936243693"/></g><g ifc:guid="2DZinlHOD7BQQmwy__xPfi" ifc:name="Cube" class="IfcSlab material-null predefinedtype-FLOOR cut"><path d="M373.9886193994492,303.655539949735 L373.9886193994492,303.47708364327747"/><path d="M373.9886193994492,303.47708364327747 L320.0358807567566,303.47708364327747"/><path d="M320.0358807567566,303.47708364327747 L275.4900216583222,303.47708364327747"/><path d="M275.4900216583222,303.47708364327747 L232.51005605099692,303.47708364327747"/><path d="M232.51005605099692,303.47708364327747 L187.9642168207774,303.47708364327747"/><path d="M134.0115179145147,303.47708364327747 L134.0115179145147,303.7899484237035"/><path d="M134.0115179145147,303.47708364327747 L182.41024608649906,303.47708364327747"/><path d="M182.41024608649906,303.47708364327747 L187.9642168207774,303.47708364327747"/><path d="M373.9886193994492,303.8739611705144 L373.9886193994492,303.655539949735"/><path d="M373.9886193994492,303.8739611705144 L320.0358807567566,303.8739611705144"/><path d="M134.0115179145147,303.7899484237035 L134.0115179145147,303.8739611705144"/><path d="M182.4102510535528,303.8739611705144 L134.0115179145147,303.8739611705144"/><path d="M187.9642168207774,303.8739611705144 L182.4102510535528,303.8739611705144"/><path d="M275.4900216583222,303.8739611705144 L320.0358807567566,303.8739611705144"/><path d="M275.4900216583222,303.8739611705144 L232.51005605099692,303.8739611705144"/><path d="M232.51005605099692,303.8739611705144 L187.9642168207774,303.8739611705144"/><path d="M374.6501117471665,304.7265062729517 L374.6501117471665,304.6677162249883"/><path d="M374.6501117471665,304.6677162249883 L321.0278411233236,304.6677162249883"/><path d="M321.0278411233236,304.6677162249883 L275.86820319531455,304.6677162249883"/><path d="M275.86820319531455,304.6677162249883 L232.13187451400455,304.6677162249883"/><path d="M232.13187451400455,304.6677162249883 L186.97227135537165,304.6677162249883"/><path d="M133.35006530322727,304.6677162249883 L133.35006530322727,304.77215349674225"/><path d="M133.35006530322727,304.6677162249883 L182.01559876638746,304.6677162249883"/><path d="M182.01559876638746,304.6677162249883 L186.97227135537165,304.6677162249883"/><path d="M374.6501117471665,304.7999987999598 L374.6501117471665,304.7265062729517"/><path d="M374.6501117471665,304.7999987999598 L321.0278411233236,304.7999987999598"/><path d="M133.35006530322727,304.77215349674225 L133.35006530322727,304.7999987999598"/><path d="M182.01559379933374,304.7999987999598 L133.35006530322727,304.7999987999598"/><path d="M186.9722663883179,304.7999987999598 L182.01559379933374,304.7999987999598"/><path d="M275.86820319531455,304.80000873406726 L321.0278411233236,304.7999987999598"/><path d="M275.86820319531455,304.80000873406726 L232.13187451400455,304.80000873406726"/><path d="M232.13187451400455,304.80000873406726 L186.9722663883179,304.7999987999598"/><path d="M374.6501117471665,304.6677162249883 L374.6501117471665,304.22674119472504"/><path d="M374.6501117471665,304.6677162249883 L321.0278411233236,304.6677162249883"/><path d="M133.35006530322727,304.5006146033605 L133.35006530322727,304.6677162249883"/><path d="M182.01559876638746,304.6677162249883 L133.35006530322727,304.6677162249883"/><path d="M186.9722663883179,304.6677162249883 L182.01559876638746,304.6677162249883"/><path d="M275.86820319531455,304.6677162249883 L321.0278411233236,304.6677162249883"/><path d="M275.86820319531455,304.6677162249883 L232.131884448112,304.6677162249883"/><path d="M232.131884448112,304.6677162249883 L186.9722663883179,304.6677162249883"/><path d="M374.6501117471665,304.22674119472504 L374.6501117471665,303.8739611705144"/><path d="M374.6501117471665,303.8739611705144 L374.3526845697373,303.8739611705144"/><path d="M374.3526845697373,303.8739611705144 L320.39992605882975,303.8739611705144"/><path d="M320.39992605882975,303.8739611705144 L275.4900216583222,303.8739611705144"/><path d="M275.4900216583222,303.8739611705144 L232.51005605099692,303.8739611705144"/><path d="M232.51005605099692,303.8739611705144 L187.6001814528117,303.8739611705144"/><path d="M133.35006530322727,303.8739611705144 L133.35006530322727,304.5006146033605"/><path d="M133.35006530322727,303.8739611705144 L182.01559876638746,303.8739611705144"/><path d="M182.01559876638746,303.8739611705144 L187.6001814528117,303.8739611705144"/><path d="M327.0249624573995,330.99375665187836 L184.15004606284793,330.99375665187836"/><path d="M133.35006530322727,330.99375665187836 L184.15004606284793,330.99375665187836"/><path d="M133.35006530322727,330.99375665187836 L133.35006530322727,331.4115156730016"/><path d="M374.64995280144706,330.99375665187836 L327.0249624573995,330.99375665187836"/><path d="M374.64995280144706,331.3140422105789 L374.64995280144706,330.99375665187836"/><path d="M374.64995280144706,331.5229266881943 L374.64995280144706,331.3140422105789"/><path d="M374.64995280144706,331.5229266881943 L327.0249624573995,331.5229266881943"/><path d="M133.35006530322727,331.4115156730016 L133.35006530322727,331.5229266881943"/><path d="M184.15005102990168,331.5229266881943 L133.35006530322727,331.5229266881943"/><path d="M327.0249624573995,331.5229266881943 L184.15005102990168,331.5229266881943"/><path d="M279.08224458732303,304.80000873406726 L228.91784305610355,304.80000873406726"/><path d="M279.400026750943,305.59375385443366 L127.52921477196709,305.59375385443366"/><path d="M228.91784305610355,304.80000873406726 L127.52921477196709,304.80000873406726"/><path d="M127.52921477196709,304.80000873406726 L127.52921477196709,305.1171749830246"/><path d="M127.52921477196709,305.1171749830246 L127.52921477196709,305.59375385443366"/><path d="M380.47084306913706,305.59375385443366 L279.400026750943,305.59375385443366"/><path d="M380.47084306913706,305.59375385443366 L380.47084306913706,304.9591928720474"/><path d="M380.47084306913706,304.9591928720474 L380.47084306913706,304.95742460091907"/><path d="M380.47084306913706,304.95742460091907 L380.47084306913706,304.80000873406726"/><path d="M380.47084306913706,304.80000873406726 L279.08224458732303,304.80000873406726"/><path d="M279.4000068827281,330.99375665187836 L127.52921477196709,330.99375665187836"/><path d="M228.60004102426862,305.59375385443366 L127.52921477196709,305.59375385443366"/><path d="M127.52921477196709,305.59375385443366 L127.52921477196709,315.7431334257126"/><path d="M127.52921477196709,315.7431334257126 L127.52921477196709,330.99375665187836"/><path d="M380.47084306913706,305.59375385443366 L228.60004102426862,305.59375385443366"/><path d="M380.47084306913706,330.99375665187836 L279.4000068827281,330.99375665187836"/><path d="M380.47084306913706,330.99375665187836 L380.47084306913706,320.8443870147069"/><path d="M380.47084306913706,320.8443870147069 L380.47084306913706,305.59375385443366"/><path d="M327.0249624573995,332.1843892335892 L184.15004606284793,332.1843892335892"/><path d="M327.0249624573995,331.5229366223017 L184.15004606284793,331.5229366223017"/><path d="M184.15004606284793,332.1843892335892 L133.35006530322727,332.1843892335892"/><path d="M133.35006530322727,331.5229366223017 L184.15004606284793,331.5229366223017"/><path d="M133.35006530322727,331.5229366223017 L133.35006530322727,332.0451329151789"/><path d="M133.35006530322727,332.0451329151789 L133.35006530322727,332.1843892335892"/><path d="M374.64995280144706,331.5229366223017 L327.0249624573995,331.5229366223017"/><path d="M374.64995280144706,332.1843892335892 L327.0249624573995,332.1843892335892"/><path d="M374.64995280144706,332.1843892335892 L374.64995280144706,331.9232811530431"/><path d="M374.64995280144706,331.9232811530431 L374.64995280144706,331.5229366223017"/></g></g>
</svg>