<svg xmlns="http://www.w3.org/2000/svg" xmlns:xlink="http://www.w3.org/1999/xlink" xmlns:ifc="http://www.ifcopenshell.org/ns" width="635mm" height="533.685mm" viewBox="0 0 635 533.685">
    <defs>
        <marker id="arrowend" markerWidth="10" markerHeight="7" refX="10" refY="3.5" orient="auto">
          <polygon points="0 0, 10 3.5, 0 7"/>
        </marker>
        <marker id="arrowstart" markerWidth="10" markerHeight="7" refX="0" refY="3.5" orient="auto">
          <polygon points="10 0, 0 3.5, 10 7"/>
        </marker>
    </defs>
    <g ifc:name="Elevation SECTION - WEST - BUTTED ROOF (layers)" class="section" ifc:plane="[[1.000000,0.000000,0.000000,0.000000],[0.000000,1.000000,0.000000,0.000000],[0.000000,0.000000,1.000000,0.000000],[0.000000,0.000000,0.000000,1.000000]]" ifc:matrix3="[[41.666668,0.000000,190.500003],[0.000000,41.666668,431.942329],[0.000000,0.000000,1.000000]]">
        <g id="product-476b1527-9c27-47cb-93e9-6a0894831a55" class="IfcWall material-null predefinedtype-ELEMENTEDWALL projection" ifc:name="Wall" ifc:guid="17QnKdd2T7ovFfQWYKWnfL">
            <path d="M438.15,482.742 L438.15,436.176"/>
            <path d="M198.967,482.742 L198.967,436.176"/>
            <path d="M198.967,482.742 L438.15,482.742"/>
            <path d="M438.15,436.176 L438.15,436.176"/>
            <path d="M436.033,436.176 L198.967,436.176"/>
            <path d="M448.733,482.742 L196.85,482.742"/>
            <path d="M448.733,482.742 L448.733,438.292"/>
            <path d="M439.208,436.176 L438.15,436.176"/>
            <path d="M436.033,436.176 L198.967,436.176"/>
            <path d="M196.85,436.176 L196.85,436.176"/>
            <path d="M448.733,438.292 L448.733,438.292"/>
            <path d="M448.733,438.292 L448.733,438.292"/>
            <path d="M439.208,436.176 L439.208,431.942"/>
            <path d="M196.85,431.942 L196.85,431.942"/>
            <path d="M196.85,482.742 L196.85,436.176"/>
        </g>
        <g id="product-ae27d215-a6f3-47d7-8416-37233098fda4" class="IfcWall material-null predefinedtype-ELEMENTEDWALL projection" ifc:name="Wall" ifc:guid="2k9z8LflD7ruGMDoCmcFsa">
            <path d="M196.85,482.742 L196.85,436.176"/>
            <path d="M196.85,482.742 L196.85,436.176"/>
            <path d="M198.967,436.176 L198.967,482.742"/>
            <path d="M198.967,482.742 L198.967,468.09"/>
            <path d="M198.967,436.176 L198.967,436.176"/>
            <path d="M198.967,482.742 L196.85,482.742"/>
            <path d="M196.85,482.742 L196.85,482.742"/>
            <path d="M198.967,482.742 L196.85,482.742"/>
            <path d="M198.967,482.742 L198.967,482.742"/>
            <path d="M198.967,436.176 L196.85,436.176"/>
            <path d="M196.85,436.176 L196.85,436.176"/>
            <path d="M196.85,436.176 L198.967,436.176"/>
            <path d="M198.967,436.176 L198.967,436.176"/>
            <path d="M196.85,482.742 L186.267,482.742"/>
            <path d="M196.85,482.742 L196.85,482.742"/>
            <path d="M196.85,436.176 L196.85,482.742"/>
            <path d="M195.792,431.942 L195.792,436.176"/>
            <path d="M190.5,438.292 L190.5,431.942"/>
            <path d="M196.85,482.742 L186.267,482.742"/>
            <path d="M195.792,436.176 L196.85,436.176"/>
            <path d="M196.85,436.176 L196.85,436.176"/>
            <path d="M195.792,436.176 L195.792,436.176"/>
            <path d="M189.442,438.292 L186.267,438.292"/>
            <path d="M186.267,438.292 L190.5,438.292"/>
            <path d="M190.5,438.292 L190.5,438.292"/>
            <path d="M195.792,436.176 L195.792,431.942"/>
            <path d="M196.85,436.176 L196.85,431.942"/>
            <path d="M195.792,436.176 L196.85,436.176"/>
            <path d="M186.267,482.742 L186.267,438.292"/>
            <path d="M186.267,482.742 L186.267,482.742"/>
            <path d="M186.267,482.742 L186.267,438.292"/>
            <path d="M186.267,438.292 L186.267,438.292"/>
            <path d="M196.85,431.942 L195.792,431.942"/>
            <path d="M196.85,431.942 L196.85,431.942"/>
            <path d="M190.5,431.942 L190.5,431.942"/>
            <path d="M190.5,431.942 L195.792,431.942"/>
            <path d="M195.792,431.942 L195.792,431.942"/>
            <path d="M190.5,431.942 L190.5,438.292"/>
            <path d="M190.5,438.292 L196.85,438.292"/>
            <path d="M190.5,431.942 L191.029,431.942"/>
        </g>
        <g id="product-d0d891f6-24f8-45ee-bba3-0e1d6711372e" class="IfcWall material-null predefinedtype-ELEMENTEDWALL projection" ifc:name="Wall" ifc:guid="3Gs97s9FX5xhkZ3Xrd4JSk">
            <path d="M438.15,436.176 L436.033,436.176"/>
            <path d="M438.15,436.176 L438.15,436.176"/>
            <path d="M438.15,482.742 L438.15,436.176"/>
            <path d="M438.15,436.176 L436.033,436.176"/>
            <path d="M438.15,436.176 L438.15,482.742"/>
            <path d="M436.033,436.176 L436.033,436.176"/>
            <path d="M436.033,436.176 L436.033,482.742"/>
            <path d="M436.033,436.176 L436.033,436.176"/>
            <path d="M436.033,442.526 L436.033,482.742"/>
            <path d="M436.033,482.742 L438.15,482.742"/>
            <path d="M438.15,482.742 L438.15,482.742"/>
            <path d="M436.033,482.742 L438.15,482.742"/>
            <path d="M436.033,482.742 L436.033,482.742"/>
            <path d="M444.5,438.292 L444.5,431.942"/>
            <path d="M444.5,431.942 L444.5,431.942"/>
            <path d="M444.5,431.942 L439.208,431.942"/>
            <path d="M439.208,431.942 L439.208,431.942"/>
            <path d="M439.208,431.942 L439.208,436.176"/>
            <path d="M444.5,438.292 L444.5,438.292"/>
            <path d="M448.733,438.292 L444.5,438.292"/>
            <path d="M448.733,438.292 L448.733,438.292"/>
            <path d="M448.733,482.742 L448.733,438.292"/>
            <path d="M443.971,431.942 L444.5,431.942"/>
            <path d="M444.5,431.942 L444.5,438.292"/>
            <path d="M444.5,438.292 L448.733,438.292"/>
            <path d="M448.733,438.292 L448.733,482.742"/>
            <path d="M448.733,482.742 L448.733,482.742"/>
            <path d="M448.733,482.742 L438.15,482.742"/>
            <path d="M438.15,482.742 L448.733,482.742"/>
            <path d="M439.208,436.176 L438.15,436.176"/>
            <path d="M439.208,436.176 L438.15,436.176"/>
            <path d="M439.208,436.176 L439.208,436.176"/>
            <path d="M438.15,436.176 L438.15,482.742"/>
            <path d="M438.15,482.742 L438.15,482.742"/>
            <path d="M438.15,436.176 L438.15,436.176"/>
            <path d="M438.15,436.176 L438.15,436.176"/>
        </g>
        <g id="product-2e376fdc-4778-4e76-b364-be588bc494c0" class="IfcSlab material-null predefinedtype-BASESLAB projection" ifc:name="Cube" ifc:guid="0kDs$SHtXEThDalbYBn9J0">
            <path d="M198.967,442.526 L198.967,438.292"/>
            <path d="M198.967,438.292 L436.033,438.292"/>
            <path d="M198.967,438.292 L198.967,438.292"/>
            <path d="M436.033,438.292 L436.033,438.292"/>
            <path d="M436.033,438.292 L436.033,442.526"/>
            <path d="M198.967,438.292 L198.967,442.526"/>
            <path d="M436.033,438.292 L436.033,442.526"/>
            <path d="M198.967,438.292 L436.033,438.292"/>
            <path d="M436.033,442.526 L198.967,442.526"/>
            <path d="M198.967,442.526 L198.967,442.526"/>
            <path d="M436.033,442.526 L198.967,442.526"/>
            <path d="M436.033,442.526 L436.033,442.526"/>
            <path d="M436.033,438.292 L198.967,438.292"/>
            <path d="M198.967,438.292 L198.967,438.292"/>
            <path d="M198.967,438.292 L198.967,436.176"/>
            <path d="M198.967,436.176 L436.033,436.176"/>
            <path d="M198.967,436.176 L198.967,436.176"/>
            <path d="M436.033,438.292 L436.033,438.292"/>
            <path d="M436.033,436.176 L436.033,436.176"/>
            <path d="M436.033,436.176 L436.033,438.292"/>
            <path d="M198.967,436.176 L198.967,438.292"/>
            <path d="M198.967,438.292 L436.033,438.292"/>
            <path d="M436.033,438.292 L436.033,436.176"/>
            <path d="M198.967,436.176 L436.033,436.176"/>
            <path d="M195.792,436.176 L195.792,431.942"/>
            <path d="M439.208,436.176 L195.792,436.176"/>
            <path d="M195.792,436.176 L195.792,436.176"/>
            <path d="M439.208,436.176 L439.208,436.176"/>
            <path d="M439.208,431.942 L439.208,436.176"/>
            <path d="M195.792,436.176 L195.792,431.942"/>
            <path d="M195.792,436.176 L196.85,436.176"/>
            <path d="M195.792,431.942 L439.208,431.942"/>
            <path d="M439.208,431.942 L439.208,431.942"/>
            <path d="M195.792,431.942 L196.85,431.942"/>
            <path d="M195.792,431.942 L195.792,431.942"/>
        </g>
        <g id="product-85362d87-afdd-4025-801e-30f8c86ec0a5" class="IfcSlab material-null predefinedtype-ROOF projection" ifc:name="Cube" ifc:guid="25DYs7hzr09O0UCFZ8Ri2b">
            <path d="M317.501,68.4414 L318.061,69.0039"/>
            <path d="M151.022,234.92 L317.501,68.4414"/>
            <path d="M318.061,69.0039 L151.583,235.481"/>
            <path d="M317.5,69.5646 L151.583,235.481"/>
            <path d="M318.061,69.0039 L317.783,68.7253"/>
            <path d="M317.5,68.442 L151.022,234.92"/>
            <path d="M151.022,234.92 L151.022,234.92"/>
            <path d="M151.583,235.481 L151.022,234.92"/>
            <path d="M151.583,235.481 L151.583,235.481"/>
            <path d="M151.583,235.481 L151.022,234.92"/>
            <path d="M317.51,69.5549 L325.909,77.9932"/>
            <path d="M321.707,73.7715 L325.909,77.9932"/>
            <path d="M151.583,235.481 L317.51,69.5549"/>
            <path d="M317.5,69.5646 L151.583,235.481"/>
            <path d="M325.909,77.9932 L160.002,243.9"/>
            <path d="M243.021,160.882 L160.002,243.9"/>
            <path d="M151.583,235.481 L151.583,235.481"/>
            <path d="M160.002,243.9 L151.583,235.481"/>
            <path d="M160.002,243.9 L160.002,243.9"/>
            <path d="M160.002,243.9 L151.583,235.481"/>
            <path d="M317.501,86.402 L317.967,86.8708"/>
            <path d="M196.85,207.052 L317.501,86.402"/>
            <path d="M317.967,86.8708 L196.85,207.988"/>
            <path d="M317.5,87.338 L196.85,207.988"/>
            <path d="M317.967,86.8708 L317.733,86.6356"/>
            <path d="M317.5,86.4025 L196.85,207.053"/>
            <path d="M196.85,207.052 L196.85,207.053"/>
            <path d="M196.85,207.988 L196.85,207.053"/>
            <path d="M196.85,207.988 L196.85,207.988"/>
            <path d="M196.85,207.988 L196.85,207.052"/>
            <path d="M317.501,67.3188 L318.061,67.8814"/>
            <path d="M317.501,67.3188 L318.061,67.8814"/>
            <path d="M317.501,67.3188 L150.461,234.359"/>
            <path d="M150.461,234.359 L317.501,67.3188"/>
            <path d="M317.501,67.3188 L317.501,67.3188"/>
            <path d="M150.461,234.359 L151.022,234.92"/>
            <path d="M151.022,234.92 L150.461,234.359"/>
            <path d="M150.461,234.359 L150.461,234.359"/>
            <path d="M318.061,67.8814 L151.022,234.92"/>
            <path d="M151.022,234.92 L151.022,234.92"/>
            <path d="M317.5,68.442 L151.022,234.92"/>
        </g>
        <g id="product-e8c5619c-d890-4412-92e0-191ad0fb7a31" class="IfcSlab material-null predefinedtype-ROOF projection" ifc:name="Cube" ifc:guid="3enM6Ss9144fBW6HhG_ten">
            <path d="M317.5,30.342 L317.5,31.4645"/>
            <path d="M317.5,31.4645 L317.5,31.4645"/>
            <path d="M317.5,31.4645 L160.47,188.495"/>
            <path d="M160.47,188.495 L160.47,188.495"/>
            <path d="M160.47,188.495 L160.47,187.372"/>
            <path d="M160.47,188.495 L160.47,187.372"/>
            <path d="M160.47,188.495 L317.5,31.4645"/>
            <path d="M317.5,31.4645 L317.5,30.342"/>
            <path d="M160.47,187.372 L317.5,30.342"/>
            <path d="M160.47,187.372 L160.47,187.372"/>
            <path d="M160.47,187.372 L317.5,30.342"/>
            <path d="M317.5,31.4645 L317.5,48.3025"/>
            <path d="M317.5,48.3025 L160.47,205.333"/>
            <path d="M160.47,205.333 L160.47,205.333"/>
            <path d="M160.47,205.333 L160.47,188.495"/>
            <path d="M160.47,205.333 L160.47,188.495"/>
            <path d="M160.47,205.333 L317.5,48.3025"/>
            <path d="M317.5,48.3025 L317.5,31.4645"/>
            <path d="M317.5,31.4645 L317.5,31.4645"/>
            <path d="M160.47,188.495 L317.5,31.4645"/>
            <path d="M160.47,188.495 L160.47,188.495"/>
            <path d="M160.47,188.495 L317.5,31.4645"/>
            <path d="M317.5,49.2379 L160.47,206.268"/>
            <path d="M160.47,206.268 L317.5,49.2379"/>
            <path d="M160.47,205.333 L317.5,48.3025"/>
            <path d="M160.47,205.333 L317.5,48.3025"/>
            <path d="M160.47,206.268 L160.47,206.268"/>
            <path d="M160.47,206.268 L160.47,205.333"/>
            <path d="M160.47,205.333 L160.47,205.333"/>
            <path d="M160.47,206.268 L160.47,205.333"/>
            <path d="M317.5,48.3025 L317.5,48.3025"/>
            <path d="M317.5,48.3025 L317.5,49.2379"/>
            <path d="M317.5,48.3025 L317.5,48.3025"/>
            <path d="M317.5,29.2194 L317.5,30.342"/>
            <path d="M317.5,30.342 L317.5,30.342"/>
            <path d="M317.5,30.342 L160.47,187.372"/>
            <path d="M160.47,187.372 L160.47,187.372"/>
            <path d="M160.47,187.372 L160.47,186.25"/>
            <path d="M160.47,187.372 L160.47,186.25"/>
            <path d="M160.47,187.372 L317.5,30.342"/>
            <path d="M317.5,30.342 L317.5,29.2194"/>
            <path d="M317.5,29.2194 L317.5,29.2194"/>
            <path d="M160.47,186.25 L317.5,29.2194"/>
            <path d="M160.47,186.25 L160.47,186.25"/>
            <path d="M160.47,186.25 L317.5,29.2194"/>
        </g>
        <g id="product-e0eec433-7a0f-4648-b8e1-48a8704a4ed7" class="IfcWall material-null predefinedtype-ELEMENTEDWALL projection" ifc:name="Cube" ifc:guid="3WxiGpUWz6IBZXIAXmIaxN">
            <path d="M196.85,207.988 L196.85,304.017"/>
            <path d="M196.85,304.017 L196.85,207.988"/>
            <path d="M197.512,207.326 L197.512,304.016"/>
            <path d="M197.512,207.327 L197.512,304.017"/>
            <path d="M197.512,207.327 L197.512,207.326"/>
            <path d="M196.85,207.988 L197.512,207.326"/>
            <path d="M196.85,207.988 L196.85,207.988"/>
            <path d="M196.85,207.988 L197.512,207.327"/>
            <path d="M197.512,304.017 L196.85,304.017"/>
            <path d="M196.85,304.017 L196.85,304.017"/>
            <path d="M196.85,304.017 L196.85,304.017"/>
            <path d="M191.029,304.942 L191.029,212.873"/>
            <path d="M191.029,304.942 L191.029,212.873"/>
            <path d="M196.85,207.053 L196.85,304.942"/>
            <path d="M196.85,304.942 L191.029,304.942"/>
            <path d="M191.029,304.942 L191.029,304.942"/>
            <path d="M196.85,304.942 L191.029,304.942"/>
            <path d="M196.85,304.942 L196.85,304.942"/>
            <path d="M196.85,207.053 L196.85,207.053"/>
            <path d="M191.029,212.873 L196.85,207.053"/>
            <path d="M191.029,212.873 L191.029,212.873"/>
            <path d="M191.029,212.873 L196.85,207.053"/>
            <path d="M190.5,311.292 L190.5,213.403"/>
            <path d="M190.5,311.292 L190.5,213.403"/>
            <path d="M191.029,212.873 L191.029,311.292"/>
            <path d="M191.029,311.292 L190.5,311.292"/>
            <path d="M190.5,311.292 L190.5,311.292"/>
            <path d="M191.029,311.292 L190.5,311.292"/>
            <path d="M191.029,212.873 L191.029,212.873"/>
            <path d="M190.5,213.403 L191.029,212.873"/>
            <path d="M190.5,213.403 L190.5,213.403"/>
            <path d="M190.5,213.403 L191.029,212.873"/>
            <path d="M189.442,214.461 L190.5,213.403"/>
            <path d="M189.442,214.461 L190.5,213.403"/>
            <path d="M189.442,214.461 L189.442,311.292"/>
            <path d="M189.442,311.292 L189.442,214.461"/>
            <path d="M189.442,214.461 L189.442,214.461"/>
            <path d="M190.5,213.403 L190.5,213.403"/>
            <path d="M190.5,213.403 L190.5,311.292"/>
            <path d="M190.5,311.292 L189.442,311.292"/>
            <path d="M189.442,311.292 L189.442,311.292"/>
            <path d="M190.5,311.292 L189.442,311.292"/>
            <path d="M190.5,311.292 L190.5,311.292"/>
            <path d="M185.738,218.165 L189.442,214.461"/>
            <path d="M189.442,311.292 L185.738,311.292"/>
            <path d="M185.738,311.292 L185.738,311.292"/>
            <path d="M185.738,311.292 L185.738,218.165"/>
            <path d="M185.738,218.165 L185.738,218.165"/>
            <path d="M185.738,218.165 L189.442,214.461"/>
            <path d="M185.738,218.165 L185.738,311.292"/>
            <path d="M185.738,311.292 L189.442,311.292"/>
            <path d="M189.442,214.461 L189.442,214.461"/>
            <path d="M189.442,214.461 L189.442,311.292"/>
            <path d="M189.442,311.292 L189.442,311.292"/>
        </g>
        <g id="product-46af7981-84fa-427d-9902-91ec2e72c8bd" class="IfcWall material-null predefinedtype-ELEMENTEDWALL projection" ifc:name="Cube" ifc:guid="16htc1XFf2VPa2aUmkSiYz">
            <path d="M408.779,178.617 L317.5,87.3381"/>
            <path d="M317.5,87.3381 L317.5,303.619"/>
            <path d="M317.968,86.8703 L317.741,86.644"/>
            <path d="M317.741,86.644 L317.968,86.8703"/>
            <path d="M317.5,87.3381 L317.5,303.619"/>
            <path d="M317.739,86.6414 L317.968,86.8703"/>
            <path d="M444.5,213.403 L444.5,213.403"/>
            <path d="M445.558,311.292 L445.558,311.292"/>
            <path d="M449.263,311.292 L449.263,311.292"/>
        </g>
        <g id="product-ecf3b84c-62e0-480e-9b8e-0fb8ee0dd302" class="IfcWall material-null predefinedtype-ELEMENTEDWALL projection" ifc:name="Cube" ifc:guid="3iyxXCOk183fkE3xZk3TC2">
            <path d="M317.5,87.338 L197.544,207.294"/>
            <path d="M317.5,87.338 L317.5,303.619"/>
            <path d="M317.5,303.619 L317.5,87.3381"/>
            <path d="M197.544,207.294 L197.544,303.619"/>
            <path d="M197.544,304.016 L197.544,304.016"/>
            <path d="M317.5,86.4025 L237.375,166.528"/>
            <path d="M317.5,87.3381 L317.5,303.619"/>
            <path d="M196.85,207.052 L196.85,207.975"/>
            <path d="M196.85,207.988 L196.85,304.942"/>
            <path d="M317.5,86.4025 L223.249,180.654"/>
            <path d="M196.85,207.053 L191.029,212.873"/>
            <path d="M317.5,87.3381 L317.5,303.619"/>
            <path d="M317.5,304.942 L317.5,304.942"/>
            <path d="M191.029,212.873 L191.029,305.736"/>
            <path d="M191.029,212.873 L190.5,213.402"/>
            <path d="M191.029,311.292 L190.5,311.292"/>
            <path d="M190.5,213.402 L190.5,311.292"/>
            <path d="M189.442,214.461 L190.5,213.403"/>
            <path d="M190.5,311.292 L189.442,311.292"/>
            <path d="M189.442,311.292 L189.442,214.461"/>
            <path d="M189.442,214.461 L190.5,213.403"/>
        </g>
        <g id="product-d8df14fc-3d4e-4e58-9847-17674f4e8307" class="IfcWall material-null predefinedtype-ELEMENTEDWALL projection" ifc:name="Cube" ifc:guid="3OtnJyFKvEM9X75sTFJeC7">
            <path d="M437.489,332.327 L438.15,332.327"/>
            <path d="M438.15,332.327 L438.15,332.327"/>
            <path d="M438.15,332.327 L438.15,431.942"/>
            <path d="M438.15,431.942 L437.489,431.942"/>
            <path d="M438.15,431.942 L438.15,431.942"/>
            <path d="M437.489,431.942 L437.489,332.327"/>
            <path d="M437.489,332.327 L437.489,332.327"/>
            <path d="M437.489,431.942 L437.489,431.942"/>
            <path d="M437.489,332.327 L437.489,431.942"/>
            <path d="M437.489,431.942 L438.15,431.942"/>
            <path d="M438.15,431.942 L438.15,332.327"/>
            <path d="M437.489,332.327 L438.15,332.327"/>
            <path d="M438.15,331.136 L443.971,331.136"/>
            <path d="M438.15,431.942 L438.15,331.136"/>
            <path d="M438.15,331.136 L438.15,331.136"/>
            <path d="M443.971,431.942 L438.15,431.942"/>
            <path d="M438.15,431.942 L438.15,431.942"/>
            <path d="M443.971,331.136 L443.971,431.942"/>
            <path d="M443.971,431.942 L443.971,431.942"/>
            <path d="M443.971,331.136 L443.971,331.136"/>
            <path d="M438.15,431.942 L443.971,431.942"/>
            <path d="M443.971,431.942 L443.971,331.136"/>
            <path d="M443.971,331.136 L438.15,331.136"/>
            <path d="M438.15,332.327 L438.15,331.136"/>
            <path d="M443.971,311.292 L444.5,311.292"/>
            <path d="M444.5,431.942 L443.971,431.942"/>
            <path d="M444.5,431.942 L444.5,431.942"/>
            <path d="M444.5,311.292 L444.5,311.292"/>
            <path d="M444.5,311.292 L444.5,431.942"/>
            <path d="M444.5,431.942 L444.5,431.942"/>
            <path d="M444.5,431.942 L444.5,311.292"/>
            <path d="M444.5,311.292 L443.971,311.292"/>
            <path d="M443.971,431.942 L443.971,431.942"/>
            <path d="M443.971,431.942 L443.971,311.292"/>
            <path d="M443.971,311.292 L443.971,311.292"/>
            <path d="M443.971,331.136 L443.971,311.292"/>
            <path d="M444.5,311.292 L445.558,311.292"/>
            <path d="M444.5,438.292 L444.5,311.292"/>
            <path d="M444.5,311.292 L444.5,311.292"/>
            <path d="M445.558,438.292 L444.5,438.292"/>
            <path d="M444.5,438.292 L444.5,438.292"/>
            <path d="M445.558,311.292 L445.558,438.292"/>
            <path d="M445.558,438.292 L445.558,438.292"/>
            <path d="M445.558,311.292 L445.558,311.292"/>
            <path d="M444.5,431.942 L444.5,438.292"/>
            <path d="M445.558,438.292 L445.558,311.292"/>
            <path d="M444.5,311.292 L445.558,311.292"/>
            <path d="M445.558,438.292 L445.558,311.292"/>
            <path d="M445.558,311.292 L445.558,311.292"/>
            <path d="M445.558,311.292 L449.263,311.292"/>
            <path d="M449.263,438.292 L445.558,438.292"/>
            <path d="M445.558,438.292 L445.558,438.292"/>
            <path d="M449.263,311.292 L449.263,438.292"/>
            <path d="M449.263,438.292 L449.263,438.292"/>
            <path d="M449.263,311.292 L449.263,311.292"/>
            <path d="M448.733,438.292 L449.263,438.292"/>
            <path d="M449.263,438.292 L449.263,311.292"/>
            <path d="M445.558,311.292 L449.263,311.292"/>
        </g>
        <g id="product-8d8ecc6f-4583-472d-a6b0-ebcfbeed9a6c" class="IfcSlab material-null predefinedtype-FLOOR projection" ifc:name="Cube" ifc:guid="2DZinlHOD7BQQmwy__xPfi">
            <path d="M437.489,303.619 L437.489,304.016"/>
            <path d="M197.512,303.619 L437.489,303.619"/>
            <path d="M197.512,304.016 L197.512,303.619"/>
            <path d="M437.489,304.016 L197.512,304.016"/>
            <path d="M438.15,304.81 L438.15,304.942"/>
            <path d="M196.85,304.81 L438.15,304.81"/>
            <path d="M196.85,304.942 L196.85,304.81"/>
            <path d="M438.15,304.942 L196.85,304.942"/>
            <path d="M196.85,304.81 L196.85,304.016"/>
            <path d="M438.15,304.81 L196.85,304.81"/>
            <path d="M438.15,304.016 L438.15,304.81"/>
            <path d="M196.85,304.016 L438.15,304.016"/>
            <path d="M438.15,331.136 L438.15,331.665"/>
            <path d="M196.85,331.136 L438.15,331.136"/>
            <path d="M196.85,331.665 L196.85,331.136"/>
            <path d="M438.15,331.665 L196.85,331.665"/>
            <path d="M191.029,304.942 L443.971,304.942"/>
            <path d="M191.029,305.736 L191.029,304.942"/>
            <path d="M443.971,305.736 L191.029,305.736"/>
            <path d="M443.971,304.942 L443.971,305.736"/>
            <path d="M191.029,305.736 L443.971,305.736"/>
            <path d="M191.029,331.136 L191.029,305.736"/>
            <path d="M443.971,331.136 L191.029,331.136"/>
            <path d="M443.971,305.736 L443.971,331.136"/>
            <path d="M196.85,331.665 L438.15,331.665"/>
            <path d="M196.85,332.327 L196.85,331.665"/>
            <path d="M438.15,332.327 L196.85,332.327"/>
            <path d="M438.15,331.665 L438.15,332.327"/>
        </g>
        <g id="product-ef9dc3e9-f5c0-49b3-b719-af81659c0d9f" class="IfcSlab material-null predefinedtype-ROOF projection" ifc:name="Cube" ifc:guid="3ldSFfzS19ixSPhu5bd0sV">
            <path d="M483.417,235.481 L317.5,69.5646"/>
            <path d="M483.978,234.92 L483.417,235.481"/>
            <path d="M318.061,69.0033 L483.978,234.92"/>
            <path d="M317.5,69.5646 L318.061,69.0033"/>
            <path d="M474.998,243.9 L317.5,86.4025"/>
            <path d="M483.417,235.481 L474.998,243.9"/>
            <path d="M325.919,77.9835 L483.417,235.481"/>
            <path d="M317.5,86.4025 L325.919,77.9835"/>
            <path d="M317.5,87.338 L317.968,86.8703"/>
            <path d="M443.971,213.809 L317.5,87.338"/>
            <path d="M443.971,213.809 L443.971,212.873"/>
            <path d="M317.968,86.8703 L443.971,212.873"/>
            <path d="M444.5,213.403 L474.998,243.9"/>
            <path d="M444.5,213.403 L444.5,214.338"/>
            <path d="M474.53,244.368 L444.5,214.338"/>
            <path d="M474.998,243.9 L474.53,244.368"/>
            <path d="M317.5,68.442 L318.061,67.8808"/>
            <path d="M483.978,234.92 L317.5,68.442"/>
            <path d="M484.539,234.359 L483.978,234.92"/>
            <path d="M318.061,67.8808 L484.539,234.359"/>
        </g>
        <g id="product-9b68de88-278b-4aa7-bc16-d6b3b1303df2" class="IfcSlab material-null predefinedtype-ROOF projection" ifc:name="Cube" ifc:guid="2RQDw89ujAfxmMrhEnC3to">
            <path d="M317.5,31.4645 L317.5,30.342"/>
            <path d="M474.53,188.495 L317.5,31.4645"/>
            <path d="M474.53,187.372 L474.53,188.495"/>
            <path d="M317.5,30.342 L474.53,187.372"/>
            <path d="M317.5,48.3025 L317.5,31.4645"/>
            <path d="M474.53,205.333 L317.5,48.3025"/>
            <path d="M474.53,188.495 L474.53,205.333"/>
            <path d="M317.5,31.4645 L474.53,188.495"/>
            <path d="M474.53,205.333 L474.53,206.268"/>
            <path d="M317.5,48.3025 L474.53,205.333"/>
            <path d="M317.5,49.2379 L317.5,48.3025"/>
            <path d="M474.53,206.268 L317.5,49.2379"/>
            <path d="M317.5,30.342 L317.5,29.2195"/>
            <path d="M474.53,187.372 L317.5,30.342"/>
            <path d="M474.53,186.25 L474.53,187.372"/>
            <path d="M317.5,29.2195 L474.53,186.25"/>
        </g>
        <g id="product-7f4c2e04-e912-421e-9d9f-7a097ca1f2bb" class="IfcWall material-null predefinedtype-ELEMENTEDWALL projection" ifc:name="Cube" ifc:guid="1$J2u4wH927fsVUWbyeVAx">
            <path d="M437.489,207.327 L438.15,207.988"/>
            <path d="M437.489,304.019 L437.489,207.327"/>
            <path d="M438.15,304.019 L437.489,304.019"/>
            <path d="M438.15,207.988 L438.15,304.019"/>
            <path d="M438.15,207.053 L443.971,212.873"/>
            <path d="M438.15,304.942 L438.15,207.053"/>
            <path d="M443.971,304.942 L438.15,304.942"/>
            <path d="M443.971,212.873 L443.971,304.942"/>
            <path d="M444.5,213.403 L444.5,311.292"/>
            <path d="M443.971,212.873 L444.5,213.403"/>
            <path d="M443.971,311.292 L443.971,212.873"/>
            <path d="M444.5,311.292 L443.971,311.292"/>
            <path d="M445.558,311.292 L444.5,311.292"/>
            <path d="M445.558,214.461 L445.558,311.292"/>
            <path d="M445.558,214.461 L444.5,213.403"/>
            <path d="M444.5,311.292 L444.5,213.403"/>
            <path d="M449.263,311.292 L445.558,311.292"/>
            <path d="M449.263,218.165 L449.263,311.292"/>
            <path d="M449.263,218.165 L445.558,214.461"/>
            <path d="M445.558,311.292 L445.558,214.461"/>
        </g>
        <g id="product-5afe24e6-b053-4d21-8629-9a17b632780b" class="IfcWall material-null predefinedtype-ELEMENTEDWALL projection" ifc:name="Cube" ifc:guid="1Q$YJci5DD8OOfcXUsCdWB">
            <path d="M196.85,431.942 L197.512,431.942"/>
            <path d="M197.512,431.942 L196.85,431.942"/>
            <path d="M196.85,431.942 L196.85,332.327"/>
            <path d="M196.85,431.942 L196.85,431.942"/>
            <path d="M196.85,431.942 L196.85,332.327"/>
            <path d="M197.512,431.942 L197.512,332.327"/>
            <path d="M197.512,332.327 L197.512,431.942"/>
            <path d="M197.512,431.942 L197.512,431.942"/>
            <path d="M196.85,332.327 L196.85,332.327"/>
            <path d="M196.85,332.327 L196.85,332.327"/>
            <path d="M196.85,332.327 L197.512,332.327"/>
            <path d="M191.029,431.942 L196.85,431.942"/>
            <path d="M196.85,431.942 L191.029,431.942"/>
            <path d="M191.029,431.942 L191.029,331.136"/>
            <path d="M191.029,431.942 L191.029,431.942"/>
            <path d="M191.029,431.942 L191.029,331.136"/>
            <path d="M191.029,331.136 L191.029,331.136"/>
            <path d="M191.029,331.136 L196.85,331.136"/>
            <path d="M191.029,331.136 L196.85,331.136"/>
            <path d="M196.85,431.942 L196.85,431.942"/>
            <path d="M196.85,331.136 L196.85,331.136"/>
            <path d="M196.85,331.136 L196.85,331.136"/>
            <path d="M196.85,331.136 L196.85,431.942"/>
            <path d="M190.5,311.292 L191.029,311.292"/>
            <path d="M190.5,311.292 L191.029,311.292"/>
            <path d="M190.5,431.942 L191.029,431.942"/>
            <path d="M191.029,431.942 L190.5,431.942"/>
            <path d="M190.5,431.942 L190.5,311.292"/>
            <path d="M190.5,431.942 L190.5,431.942"/>
            <path d="M190.5,431.942 L190.5,311.292"/>
            <path d="M190.5,311.292 L190.5,311.292"/>
            <path d="M191.029,431.942 L191.029,431.942"/>
            <path d="M191.029,311.292 L191.029,431.942"/>
            <path d="M189.442,438.292 L190.5,438.292"/>
            <path d="M190.5,438.292 L189.442,438.292"/>
            <path d="M189.442,311.292 L190.5,311.292"/>
            <path d="M189.442,311.292 L190.5,311.292"/>
            <path d="M189.442,438.292 L189.442,311.292"/>
            <path d="M189.442,438.292 L189.442,438.292"/>
            <path d="M189.442,438.292 L189.442,311.292"/>
            <path d="M189.442,311.292 L189.442,311.292"/>
            <path d="M190.5,438.292 L190.5,438.292"/>
            <path d="M190.5,311.292 L190.5,311.292"/>
            <path d="M190.5,311.292 L190.5,438.292"/>
            <path d="M185.738,311.292 L189.442,311.292"/>
            <path d="M189.442,438.292 L185.738,438.292"/>
            <path d="M185.738,438.292 L186.267,438.292"/>
            <path d="M185.738,311.292 L189.442,311.292"/>
            <path d="M185.738,438.292 L185.738,311.292"/>
            <path d="M185.738,438.292 L185.738,438.292"/>
            <path d="M185.738,438.292 L185.738,311.292"/>
            <path d="M185.738,311.292 L185.738,311.292"/>
            <path d="M189.442,438.292 L189.442,438.292"/>
            <path d="M189.442,311.292 L189.442,311.292"/>
            <path d="M189.442,311.292 L189.442,438.292"/>
        </g>
        <g id="product-bd933419-2e92-4186-b35b-13cf4399c256" class="IfcWall material-null predefinedtype-ELEMENTEDWALL projection" ifc:name="Cube" ifc:guid="2zapGPBf91XhDR4yz3cS9M">
            <path d="M437.489,332.327 L197.544,332.327"/>
            <path d="M437.489,431.942 L197.544,431.942"/>
            <path d="M197.544,332.327 L197.544,431.942"/>
            <path d="M196.85,431.942 L196.85,331.136"/>
            <path d="M196.85,331.136 L196.85,331.136"/>
            <path d="M438.15,331.136 L438.15,331.136"/>
            <path d="M196.85,431.942 L437.489,431.942"/>
            <path d="M195.792,431.942 L191.029,431.942"/>
            <path d="M191.029,431.942 L191.029,331.136"/>
            <path d="M443.971,311.292 L443.971,311.292"/>
            <path d="M444.5,311.292 L443.971,311.292"/>
            <path d="M196.85,438.292 L190.5,438.292"/>
            <path d="M190.5,311.292 L190.5,438.292"/>
            <path d="M445.558,311.292 L443.971,311.292"/>
            <path d="M196.85,438.292 L190.5,438.292"/>
            <path d="M189.442,311.292 L189.442,438.292"/>
        </g>
    <g ifc:guid="3Gs97s9FX5xhkZ3Xrd4JSk" ifc:name="Wall" class="IfcWall material-null predefinedtype-ELEMENTEDWALL cut"><path d="M438.1499389807383,436.1756307635177 L437.7719461917877,436.1756307635177"/><path d="M438.1499389807383,436.1756307635177 L438.1499389807383,474.5004239433476"/><path d="M437.7719461917877,436.1756307635177 L436.0332588354746,436.1756307635177"/><path d="M436.0332787036896,474.4268320752649 L436.0332588354746,436.1756307635177"/><path d="M438.1499389807383,474.5004239433476 L438.1499389807383,482.7422959360946"/><path d="M438.1499389807383,482.7422959360946 L437.7719461917877,482.7422959360946"/><path d="M437.7719461917877,482.7422959360946 L436.0332985719045,482.7422959360946"/><path d="M436.0332985719045,482.7422959360946 L436.0332787036896,474.4268320752649"/><path d="M444.4999794165293,431.94230027531273 L444.4999794165293,437.15255089138634"/><path d="M444.4999794165293,431.94230027531273 L443.5294568538666,431.94230027531273"/><path d="M443.5294568538666,431.94230027531273 L439.2083187898,431.94230027531273"/><path d="M439.2083187898,435.39922066067345 L439.2083187898,431.94230027531273"/><path d="M444.4999794165293,437.15255089138634 L444.4999794165293,438.2922910405664"/><path d="M447.9734400908152,438.2922910405664 L444.4999794165293,438.2922910405664"/><path d="M448.73326023419696,438.2922910405664 L447.9734400908152,438.2922910405664"/><path d="M448.73326023419696,438.2922910405664 L448.73326023419696,446.1364212387272"/><path d="M448.73326023419696,446.1364212387272 L448.73326023419696,482.7422959360946"/><path d="M448.73326023419696,482.7422959360946 L446.7837115128835,482.7422959360946"/><path d="M439.2083187898,436.1756307635177 L439.2083187898,435.39922066067345"/><path d="M439.2083187898,436.1756307635177 L439.0133519967397,436.1756307635177"/><path d="M446.7837115128835,482.7422959360946 L438.1499389807383,482.7422959360946"/><path d="M438.1499389807383,482.7422959360946 L438.1499389807383,474.1642338785995"/><path d="M438.1499389807383,474.1642338785995 L438.1499389807383,436.1756307635177"/><path d="M439.0133519967397,436.1756307635177 L438.1499389807383,436.1756307635177"/></g><g ifc:guid="2k9z8LflD7ruGMDoCmcFsa" ifc:name="Wall" class="IfcWall material-null predefinedtype-ELEMENTEDWALL cut"><path d="M196.8500316143036,453.33177474672283 L196.8500316143036,482.7422959360946"/><path d="M198.96668195724487,482.7422959360946 L198.96670182545978,453.33177474672283"/><path d="M198.96668195724487,482.7422959360946 L198.1868545214335,482.7422959360946"/><path d="M198.1868545214335,482.7422959360946 L196.8500316143036,482.7422959360946"/><path d="M196.8500316143036,436.1756307635177 L196.8500316143036,453.33177474672283"/><path d="M198.96670182545978,453.33177474672283 L198.96670182545978,436.1756307635177"/><path d="M198.96670182545978,436.1756307635177 L197.62985905011493,436.1756307635177"/><path d="M197.62985905011493,436.1756307635177 L196.8500316143036,436.1756307635177"/><path d="M196.8500216801961,482.7422959360946 L192.41184989611307,482.7422959360946"/><path d="M196.8500216801961,482.7422959360946 L196.8500216801961,453.5875184092391"/><path d="M196.8500216801961,453.5875184092391 L196.8500216801961,436.1756307635177"/><path d="M196.8500216801961,436.1756307635177 L196.45428657531738,436.1756307635177"/><path d="M196.45428657531738,436.1756307635177 L195.79165180524188,436.1756307635177"/><path d="M195.79165180524188,436.1756307635177 L195.79165180524188,434.59273008043255"/><path d="M190.49999117851257,434.48230254187865 L190.49999117851257,438.2922910405664"/><path d="M190.49999117851257,438.2922910405664 L188.80667289098102,438.2922910405664"/><path d="M192.41184989611307,482.7422959360946 L186.26670042673746,482.7422959360946"/><path d="M188.80667289098102,438.2922910405664 L186.26670042673746,438.2922910405664"/><path d="M186.26670042673746,438.2922910405664 L186.26670042673746,456.93263041510863"/><path d="M186.26670042673746,456.93263041510863 L186.26670042673746,482.7422959360946"/><path d="M195.79165180524188,434.59273008043255 L195.79165180524188,431.94230027531273"/><path d="M195.79165180524188,431.94230027531273 L193.81303588549295,431.94230027531273"/><path d="M193.81303588549295,431.94230027531273 L190.49999117851257,431.94230027531273"/><path d="M190.49999117851257,431.94230027531273 L190.49999117851257,434.48230254187865"/></g><g ifc:guid="3enM6Ss9144fBW6HhG_ten" ifc:name="Cube" class="IfcSlab material-null predefinedtype-ROOF cut"><path d="M163.16420833269754,185.80022084250731 L317.49992348508727,31.464503482328688"/><path d="M317.4999135509798,31.445231313851313 L317.49992348508727,31.464503482328688"/><path d="M160.46971082687378,188.49470841422362 L163.16420833269754,185.80022084250731"/><path d="M160.46971082687378,188.47545611396117 L160.46971082687378,188.49470841422362"/><path d="M160.46971082687378,187.3721741391687 L160.46971082687378,188.47545611396117"/><path d="M317.49992348508727,30.341949339058832 L317.4999135509798,31.445231313851313"/><path d="M163.16420833269754,184.67768656745238 L317.49992348508727,30.341949339058832"/><path d="M160.46971082687378,187.3721741391687 L163.16420833269754,184.67768656745238"/><path d="M163.16420833269754,202.63819523190142 L317.49992348508727,48.30245800350789"/><path d="M317.49992348508727,48.30245800350789 L317.49992348508727,48.01353442206664"/><path d="M160.46972076098123,205.33268280361773 L163.16420833269754,202.63819523190142"/><path d="M160.46972076098123,205.0437592221765 L160.46972076098123,205.33268280361773"/><path d="M160.46972076098123,188.4946885460087 L160.46972076098123,205.0437592221765"/><path d="M317.49992348508727,48.01353442206664 L317.4999135509798,31.464503482328688"/><path d="M163.164218266805,185.80020097429238 L317.4999135509798,31.464503482328688"/><path d="M160.46972076098123,188.4946885460087 L163.164218266805,185.80020097429238"/><path d="M160.46971082687378,205.33270267183266 L163.1641983985901,202.63821510011635"/><path d="M160.46971082687378,206.26813796693764 L163.1641983985901,203.57365039522134"/><path d="M160.46971082687378,206.26813796693764 L160.46971082687378,206.25208444927813"/><path d="M160.46971082687378,206.25208444927813 L160.46971082687378,205.33270267183266"/><path d="M163.1641983985901,202.63821510011635 L317.4999135509798,48.302497739937735"/><path d="M163.1641983985901,203.57365039522134 L317.49992348508727,49.237933035042715"/><path d="M317.49992348508727,49.237933035042715 L317.4999135509798,49.221879517383215"/><path d="M317.4999135509798,49.221879517383215 L317.4999135509798,48.302497739937735"/><path d="M163.1641983985901,184.6777064356673 L317.4999135509798,30.341989075488684"/><path d="M317.4999135509798,30.322716907011305 L317.4999135509798,30.341989075488684"/><path d="M160.4697008927663,187.3721940073836 L163.1641983985901,184.6777064356673"/><path d="M160.4697008927663,187.3721940073836 L160.4697008927663,187.35294170712115"/><path d="M160.4697008927663,187.35294170712115 L160.46971082687378,186.24965973232867"/><path d="M317.4999334191947,29.219434932218824 L317.4999135509798,30.322716907011305"/><path d="M163.16420833269754,183.55517216061236 L317.4999334191947,29.219434932218824"/><path d="M160.46971082687378,186.24965973232867 L163.16420833269754,183.55517216061236"/></g><g ifc:guid="0kDs$SHtXEThDalbYBn9J0" ifc:name="Cube" class="IfcSlab material-null predefinedtype-BASESLAB cut"><path d="M198.96670182545978,438.29231090878136 L198.96670182545978,439.80420259172405"/><path d="M198.96670182545978,438.29231090878136 L351.36667639017105,438.29231090878136"/><path d="M414.8666361967722,438.29231090878136 L351.36667639017105,438.29231090878136"/><path d="M436.0332588354746,438.29231090878136 L414.8666361967722,438.29231090878136"/><path d="M436.0332588354746,441.76968562140746 L436.0332588354746,438.29231090878136"/><path d="M198.96670182545978,439.80420259172405 L198.96670182545978,442.52563146287883"/><path d="M351.3666565219561,442.52563146287883 L198.96670182545978,442.52563146287883"/><path d="M436.0332588354746,442.52563146287883 L436.0332588354746,441.76968562140746"/><path d="M436.0332588354746,442.52563146287883 L414.8666361967722,442.52563146287883"/><path d="M414.8666361967722,442.52563146287883 L351.3666565219561,442.52563146287883"/><path d="M414.8666361967722,438.29231090878136 L351.36667639017105,438.29231090878136"/><path d="M351.36667639017105,438.29231090878136 L198.96670182545978,438.29231090878136"/><path d="M198.96670182545978,436.93159647320397 L198.96670182545978,438.29231090878136"/><path d="M198.96670182545978,436.1756506317326 L198.96670182545978,436.93159647320397"/><path d="M198.96670182545978,436.1756506317326 L351.36667639017105,436.1756506317326"/><path d="M414.8666361967722,436.1756506317326 L351.36667639017105,436.1756506317326"/><path d="M436.0332588354746,436.1756506317326 L414.8666361967722,436.1756506317326"/><path d="M436.0332588354746,438.29231090878136 L414.8666361967722,438.29231090878136"/><path d="M436.0332588354746,438.29231090878136 L436.0332588354746,437.91433798804565"/><path d="M436.0332588354746,437.91433798804565 L436.0332588354746,436.1756506317326"/><path d="M241.2999669710795,436.1756506317326 L195.79165180524188,436.1756506317326"/><path d="M195.79165180524188,432.73376055096276 L195.79165180524188,436.1756506317326"/><path d="M439.2083187898,436.1756506317326 L241.2999669710795,436.1756506317326"/><path d="M439.2083187898,436.1756506317326 L439.2083187898,435.38420029019005"/><path d="M439.2083187898,435.38420029019005 L439.2083187898,431.94231020942016"/><path d="M439.2083187898,431.94231020942016 L393.7000135580698,431.94231020942016"/><path d="M393.7000135580698,431.94231020942016 L195.79165180524188,431.94231020942016"/><path d="M195.79165180524188,431.94231020942016 L195.79165180524188,432.73376055096276"/></g><g ifc:guid="3WxiGpUWz6IBZXIAXmIaxN" ifc:name="Cube" class="IfcWall material-null predefinedtype-ELEMENTEDWALL cut"><path d="M197.5114941596985,268.39440473700245 L197.5114941596985,207.32649790778441"/><path d="M196.8500316143036,207.98795051907183 L196.8500316143036,243.36719887986465"/><path d="M196.8500316143036,207.98795051907183 L197.09372520446777,207.7442469948002"/><path d="M197.09372520446777,207.7442469948002 L197.5114941596985,207.32649790778441"/><path d="M196.8500316143036,243.36719887986465 L196.8500316143036,304.0173587951529"/><path d="M197.5114941596985,304.0173587951529 L197.5114941596985,268.39440473700245"/><path d="M197.5114941596985,304.0173587951529 L197.2678005695343,304.0173587951529"/><path d="M197.2678005695343,304.0173587951529 L196.8500316143036,304.0173587951529"/><path d="M191.02920095125833,249.46978069876315 L191.02920095125833,304.94229373866995"/><path d="M196.8500316143036,304.94229373866995 L196.8500316143036,266.0321236529418"/><path d="M196.8500316143036,304.94229373866995 L194.53631838162738,304.94229373866995"/><path d="M194.53631838162738,304.94229373866995 L191.02920095125833,304.94229373866995"/><path d="M191.02920095125833,212.8733458870121 L191.02920095125833,249.46978069876315"/><path d="M196.8500316143036,266.0321236529418 L196.8500316143036,207.05249535575194"/><path d="M196.8500316143036,207.05249535575194 L194.53630844751993,209.36620858842812"/><path d="M194.53630844751993,209.36620858842812 L191.02920095125833,212.8733458870121"/><path d="M190.5000309149424,252.5584337863791 L190.5000309149424,311.29230685566546"/><path d="M191.02920095125833,311.29230685566546 L191.02920095125833,271.92471830829663"/><path d="M191.02920095125833,311.29230685566546 L190.81753492355347,311.29230685566546"/><path d="M190.81753492355347,311.29230685566546 L190.5000309149424,311.29230685566546"/><path d="M190.5000309149424,213.40251592332802 L190.5000309149424,252.5584337863791"/><path d="M191.02920095125833,271.92471830829663 L191.02920095125833,212.8733458870121"/><path d="M191.02920095125833,212.8733458870121 L190.81753492355347,213.08500198060952"/><path d="M190.81753492355347,213.08500198060952 L190.5000309149424,213.40251592332802"/><path d="M189.44170077641803,214.46083612774493 L190.07145365079242,213.83107331926308"/><path d="M189.44170077641803,214.46083612774493 L189.44170077641803,253.6735770854819"/><path d="M190.07145365079242,213.83107331926308 L190.5000309149424,213.40251592332802"/><path d="M190.5000309149424,271.65097404305817 L190.5000309149424,213.40251592332802"/><path d="M189.44170077641803,253.6735770854819 L189.44170077641803,311.29230685566546"/><path d="M190.5000309149424,311.29230685566546 L190.5000309149424,271.65097404305817"/><path d="M190.5000309149424,311.29230685566546 L190.07145365079242,311.29230685566546"/><path d="M190.07145365079242,311.29230685566546 L189.44170077641803,311.29230685566546"/><path d="M187.87970145543414,311.29230685566546 L185.73753039042154,311.29230685566546"/><path d="M185.73753039042154,218.16500651374145 L187.87970145543414,216.0228354487288"/><path d="M185.73753039042154,218.16500651374145 L185.73753039042154,257.43554410869564"/><path d="M185.73753039042154,257.43554410869564 L185.73753039042154,311.29230685566546"/><path d="M187.87970145543414,216.0228354487288 L189.44170077641803,214.46083612774493"/><path d="M189.44170077641803,311.29230685566546 L187.87970145543414,311.29230685566546"/><path d="M189.44170077641803,311.29230685566546 L189.44170077641803,270.4597553490071"/><path d="M189.44170077641803,270.4597553490071 L189.44170077641803,214.46083612774493"/></g><g ifc:guid="25DYs7hzr09O0UCFZ8Ri2b" ifc:name="Cube" class="IfcSlab material-null predefinedtype-ROOF cut"><path d="M318.0123048756892,68.95542768175089 L317.9234343503291,68.86613992387736"/><path d="M317.9234343503291,68.86613992387736 L317.5005990043852,68.44139722520792"/><path d="M291.08408838510513,94.85789763465209 L317.5005990043852,68.44139722520792"/><path d="M318.06060450617224,69.00394586259806 L318.0123048756892,68.95542768175089"/><path d="M177.99938718477884,209.06514552766762 L318.06060450617224,69.00394586259806"/><path d="M151.58305565516153,235.48148450786553 L177.99938718477884,209.06514552766762"/><path d="M151.02179845174152,234.9202074362306 L291.08408838510513,94.85789763465209"/><path d="M151.02179845174152,234.9202074362306 L151.49399638175964,235.39241530035616"/><path d="M151.49399638175964,235.39241530035616 L151.58305565516153,235.48148450786553"/><path d="M324.5764647920926,76.65424175594929 L317.5095893717904,69.55493119890177"/><path d="M291.18072738250095,95.88381278052611 L317.5095893717904,69.55493119890177"/><path d="M325.9093140562375,77.99320049618366 L324.5764647920926,76.65424175594929"/><path d="M186.32789452870685,217.5746225072412 L325.9093140562375,77.99320049618366"/><path d="M151.58305565516153,235.4814646396506 L291.18072738250095,95.88381278052611"/><path d="M151.58305565516153,235.4814646396506 L158.6661438147227,242.56456273331924"/><path d="M158.6661438147227,242.56456273331924 L160.00205278396606,243.90046176845513"/><path d="M160.00205278396606,243.90046176845513 L186.32789452870685,217.5746225072412"/><path d="M317.8634422753627,86.76664657925251 L317.5004996633106,86.40202509894652"/><path d="M290.68928708632785,113.21322746609333 L317.5004996633106,86.40202509894652"/><path d="M317.9671444231644,86.87083549831989 L317.8634422753627,86.76664657925251"/><path d="M223.7649659315745,181.07299633358602 L317.9671444231644,86.87083549831989"/><path d="M196.85004154841104,207.987910782642 L223.7649659315745,181.07299633358602"/><path d="M196.8500216801961,207.05249535575194 L290.68928708632785,113.21322746609333"/><path d="M196.8500216801961,207.05249535575194 L196.85004154841104,207.78004951809527"/><path d="M196.85004154841104,207.78004951809527 L196.85004154841104,207.987910782642"/><path d="M317.97175384902704,67.79214369788451 L317.50061887260017,67.31888281836791"/><path d="M290.9950589140256,93.82443256710651 L317.50061887260017,67.31888281836791"/><path d="M150.4605213801066,234.3589502328106 L290.9950589140256,93.82443256710651"/><path d="M150.4605213801066,234.3589502328106 L150.93272924423218,234.83115809693618"/><path d="M150.93272924423218,234.83115809693618 L151.02178851763406,234.92022730444552"/><path d="M318.06060450617224,67.88139171932819 L317.97175384902704,67.79214369788451"/><path d="M177.52717932065326,208.41483898495318 L318.06060450617224,67.88139171932819"/><path d="M151.02178851763406,234.92022730444552 L177.52717932065326,208.41483898495318"/></g><g ifc:guid="3OtnJyFKvEM9X75sTFJeC7" ifc:name="Cube" class="IfcWall material-null predefinedtype-ELEMENTEDWALL cut"><path d="M438.15003832181293,332.32670652404113 L438.02933891614276,332.32670652404113"/><path d="M438.15003832181293,332.32670652404113 L438.15003832181293,350.45356181795086"/><path d="M438.15003832181293,350.45356181795086 L438.15003832181293,431.94231020942016"/><path d="M438.02933891614276,431.94231020942016 L438.15003832181293,431.94231020942016"/><path d="M438.02933891614276,332.32670652404113 L437.4886055787404,332.32670652404113"/><path d="M437.4886055787404,431.94231020942016 L438.02933891614276,431.94231020942016"/><path d="M437.4886055787404,431.94231020942016 L437.4886055787404,350.5035204443801"/><path d="M437.4886055787404,350.5035204443801 L437.4886055787404,332.32670652404113"/><path d="M442.89862116177875,331.13608387643774 L438.15003832181293,331.13608387643774"/><path d="M438.15003832181293,349.70564770236297 L438.15003832181293,331.13608387643774"/><path d="M438.15003832181293,431.94231020942016 L438.15003832181293,349.70564770236297"/><path d="M438.15003832181293,431.94231020942016 L442.89862116177875,431.94231020942016"/><path d="M442.89862116177875,431.94231020942016 L443.9708888530731,431.94231020942016"/><path d="M443.9708888530731,331.13608387643774 L442.89862116177875,331.13608387643774"/><path d="M443.9708888530731,331.13608387643774 L443.9708888530731,413.8101501021255"/><path d="M443.9708888530731,413.8101501021255 L443.9708888530731,431.94231020942016"/><path d="M444.3948765595754,431.94231020942016 L444.5000390211741,431.94231020942016"/><path d="M444.5000390211741,311.29230685566546 L444.3948765595754,311.29230685566546"/><path d="M444.5000390211741,311.29230685566546 L444.5000390211741,408.01382688219036"/><path d="M444.5000390211741,408.01382688219036 L444.5000390211741,431.94231020942016"/><path d="M444.3948765595754,311.29230685566546 L443.9708888530731,311.29230685566546"/><path d="M443.9708888530731,431.94231020942016 L444.3948765595754,431.94231020942016"/><path d="M443.9708888530731,431.94231020942016 L443.9708888530731,335.27085808450664"/><path d="M443.9708888530731,335.27085808450664 L443.9708888530731,311.29230685566546"/><path d="M445.3467031319936,311.29230685566546 L444.5000390211741,311.29230685566546"/><path d="M444.5000390211741,336.6922997190027 L444.5000390211741,311.29230685566546"/><path d="M444.5000390211741,438.29231090878136 L444.5000390211741,336.6922997190027"/><path d="M444.5000390211741,438.29231090878136 L445.3467031319936,438.29231090878136"/><path d="M445.3467031319936,438.29231090878136 L445.5583790938059,438.29231090878136"/><path d="M445.5583790938059,311.29230685566546 L445.3467031319936,311.29230685566546"/><path d="M445.5583790938059,311.29230685566546 L445.5583790938059,336.58690877293236"/><path d="M445.5583790938059,336.58690877293236 L445.5583790938059,438.29231090878136"/><path d="M445.5583790938059,311.29230685566546 L445.5583790938059,412.57744657531066"/><path d="M448.5125442345937,311.29230685566546 L445.5583790938059,311.29230685566546"/><path d="M445.5583790938059,412.57744657531066 L445.5583790938059,438.29231090878136"/><path d="M445.5583790938059,438.29231090878136 L448.5125442345937,438.29231090878136"/><path d="M448.5125442345937,438.29231090878136 L449.26256934801734,438.29231090878136"/><path d="M449.26256934801734,311.29230685566546 L448.5125442345937,311.29230685566546"/><path d="M449.26256934801734,311.29230685566546 L449.26256934801734,412.9440548771092"/><path d="M449.26256934801734,412.9440548771092 L449.26256934801734,438.29231090878136"/></g><g ifc:guid="1Q$YJci5DD8OOfcXUsCdWB" ifc:name="Cube" class="IfcWall material-null predefinedtype-ELEMENTEDWALL cut"><path d="M197.2678005695343,431.94230027531273 L196.8500316143036,431.94230027531273"/><path d="M196.8500316143036,369.02719366088195 L196.8500316143036,431.94230027531273"/><path d="M197.5114941596985,431.94230027531273 L197.2678005695343,431.94230027531273"/><path d="M197.5114941596985,431.94230027531273 L197.5114941596985,395.24179327025695"/><path d="M196.8500316143036,332.32669658993365 L196.8500316143036,369.02719366088195"/><path d="M197.5114941596985,395.24179327025695 L197.5114941596985,332.32669658993365"/><path d="M197.5114941596985,332.32669658993365 L197.09372520446777,332.32669658993365"/><path d="M197.09372520446777,332.32669658993365 L196.8500316143036,332.32669658993365"/><path d="M194.53630844751993,431.94230027531273 L191.02920095125833,431.94230027531273"/><path d="M191.02920095125833,371.20549507473595 L191.02920095125833,431.94230027531273"/><path d="M191.02920095125833,331.13606400822283 L191.02920095125833,371.20549507473595"/><path d="M193.342924118042,331.13606400822283 L191.02920095125833,331.13606400822283"/><path d="M196.8500316143036,331.13606400822283 L193.342924118042,331.13606400822283"/><path d="M196.8500316143036,431.94230027531273 L194.53630844751993,431.94230027531273"/><path d="M196.8500316143036,431.94230027531273 L196.8500316143036,391.87286920879967"/><path d="M196.8500316143036,391.87286920879967 L196.8500316143036,331.13606400822283"/><path d="M190.81753492355347,431.94230027531273 L190.5000309149424,431.94230027531273"/><path d="M190.71169694264728,311.29230685566546 L190.5000309149424,311.29230685566546"/><path d="M190.5000309149424,311.29230685566546 L190.5000309149424,359.5523201180963"/><path d="M190.5000309149424,359.5523201180963 L190.5000309149424,431.94230027531273"/><path d="M191.02920095125833,311.29230685566546 L190.71169694264728,311.29230685566546"/><path d="M191.02920095125833,431.94230027531273 L190.81753492355347,431.94230027531273"/><path d="M191.02920095125833,431.94230027531273 L191.02920095125833,383.6822870128819"/><path d="M191.02920095125833,383.6822870128819 L191.02920095125833,311.29230685566546"/><path d="M190.07145365079242,438.29231090878136 L189.44170077641803,438.29231090878136"/><path d="M189.87027804056802,311.29230685566546 L189.44170077641803,311.29230685566546"/><path d="M189.44170077641803,311.29230685566546 L189.44170077641803,362.7220653249292"/><path d="M189.44170077641803,362.7220653249292 L189.44170077641803,438.29231090878136"/><path d="M190.5000309149424,311.29230685566546 L189.87027804056802,311.29230685566546"/><path d="M190.5000309149424,438.29231090878136 L190.07145365079242,438.29231090878136"/><path d="M190.5000309149424,438.29231090878136 L190.5000309149424,386.86255243951763"/><path d="M190.5000309149424,386.86255243951763 L190.5000309149424,311.29230685566546"/><path d="M187.87970145543414,438.29231090878136 L185.73753039042154,438.29231090878136"/><path d="M187.29952971140543,311.29230685566546 L185.73753039042154,311.29230685566546"/><path d="M185.73753039042154,311.29230685566546 L185.73753039042154,364.84653381044353"/><path d="M185.73753039042154,364.84653381044353 L185.73753039042154,438.29231090878136"/><path d="M189.44170077641803,311.29230685566546 L187.29952971140543,311.29230685566546"/><path d="M189.44170077641803,438.29231090878136 L187.87970145543414,438.29231090878136"/><path d="M189.44170077641803,438.29231090878136 L189.44170077641803,384.7380839540033"/><path d="M189.44170077641803,384.7380839540033 L189.44170077641803,311.29230685566546"/></g><g ifc:guid="3ldSFfzS19ixSPhu5bd0sV" ifc:name="Cube" class="IfcSlab material-null predefinedtype-ROOF cut"><path d="M483.9781622091929,234.9202074362306 L483.88909300168353,235.00927664373995"/><path d="M483.9781622091929,234.9202074362306 L452.9232680797577,203.86531579032226"/><path d="M452.9232680797577,203.86531579032226 L449.60964719454444,200.55169490510903"/><path d="M449.60964719454444,200.55169490510903 L432.11399515469867,183.05604286526324"/><path d="M432.11399515469867,183.05604286526324 L423.9918490250905,174.9338967356551"/><path d="M483.88909300168353,235.00927664373995 L483.416885137558,235.4814646396506"/><path d="M483.416885137558,235.4814646396506 L452.8640806674957,204.92866265311523"/><path d="M452.8640806674957,204.92866265311523 L449.55049951871234,201.61508150433184"/><path d="M449.55049951871234,201.61508150433184 L432.0548276106516,184.11940959627114"/><path d="M423.9027798175812,175.96736180320067 L432.0548276106516,184.11940959627114"/><path d="M423.9918490250905,174.9338967356551 L318.0612402890498,69.00331007972045"/><path d="M317.49998308973085,69.56458715135538 L423.9027798175812,175.96736180320067"/><path d="M317.49998308973085,69.56458715135538 L317.97218101564795,69.09235941901488"/><path d="M317.97218101564795,69.09235941901488 L318.0612402890498,69.00331007972045"/><path d="M483.416885137558,235.4814646396506 L482.08098610242206,236.81736367478652"/><path d="M483.416885137558,235.4814646396506 L452.8640806674957,204.92866265311523"/><path d="M452.8640806674957,204.92866265311523 L449.55049951871234,201.61508150433184"/><path d="M449.55049951871234,201.61508150433184 L432.9425791899363,185.0071611755558"/><path d="M432.9425791899363,185.0071611755558 L425.23865898450214,177.30324097012166"/><path d="M444.4005787372589,213.3031152440576 L443.9708888530731,212.87344522808672"/><path d="M443.9708888530731,212.87344522808672 L418.46419374148047,187.36675011649413"/><path d="M482.08098610242206,236.81736367478652 L474.9978880087534,243.90046176845513"/><path d="M474.9978880087534,243.90046176845513 L468.84708603223163,237.7496399237184"/><path d="M444.50005888938904,213.40261526440264 L444.4005787372589,213.3031152440576"/><path d="M468.84708603223163,237.7496399237184 L448.61313700675964,217.51567351355834"/><path d="M448.61313700675964,217.51567351355834 L445.4140563805898,214.31657301917357"/><path d="M445.4140563805898,214.31657301917357 L444.50005888938904,213.40261526440264"/><path d="M425.23865898450214,177.30324097012166 L325.91894020636875,77.9835048073002"/><path d="M317.49997315562456,86.40254167253458 L418.46419374148047,187.36675011649413"/><path d="M324.2210124929746,79.68148219123168 L317.49997315562456,86.40254167253458"/><path d="M325.91894020636875,77.9835048073002 L324.2210124929746,79.68148219123168"/><path d="M335.7803001999855,105.61830428773844 L317.4999930238387,87.33797696763956"/><path d="M317.4999930238387,87.33797696763956 L317.89684074465185,86.94112924272501"/><path d="M438.15005819002783,207.8463298830855 L438.15005819002783,207.98806972836138"/><path d="M438.15005819002783,207.98806972836138 L335.7803001999855,105.61830428773844"/><path d="M438.15005819002783,207.8463298830855 L438.15005819002783,207.0526145650415"/><path d="M317.89684074465185,86.94112924272501 L317.9677106672898,86.87023945187214"/><path d="M317.9677106672898,86.87023945187214 L336.1771379907926,105.07967698111815"/><path d="M438.15005819002783,207.0526145650415 L336.1771379907926,105.07967698111815"/><path d="M469.8292513688405,239.66726042364718 L449.26256934801734,219.10058088635088"/><path d="M449.26256934801734,218.92653532360674 L449.26256934801734,219.10058088635088"/><path d="M449.26256934801734,218.1651455912459 L449.26256934801734,218.92653532360674"/><path d="M470.20994623502094,239.11251999472262 L449.26256934801734,218.1651455912459"/><path d="M474.9979078769684,243.90048163667007 L470.20994623502094,239.11251999472262"/><path d="M474.9979078769684,243.90048163667007 L474.923700094223,243.97468941941543"/><path d="M474.923700094223,243.97468941941543 L474.5301902294159,244.36819928422256"/><path d="M474.5301902294159,244.36819928422256 L469.8292513688405,239.66726042364718"/><path d="M484.450360139211,234.44801944031997 L483.9781622091929,234.9202074362306"/><path d="M483.9781622091929,234.9202074362306 L452.9232680797577,203.86531579032226"/><path d="M452.9232680797577,203.86531579032226 L435.3684286276499,186.3104763382145"/><path d="M484.53940947850543,234.3589502328106 L484.450360139211,234.44801944031997"/><path d="M484.53940947850543,234.3589502328106 L452.98245549201965,202.8019887957442"/><path d="M452.98245549201965,202.8019887957442 L435.42759617169696,185.24712947542153"/><path d="M317.5000029579464,68.44203300808552 L435.3684286276499,186.3104763382145"/><path d="M317.5000029579464,68.44203300808552 L317.55919037095737,68.38286546403849"/><path d="M317.55919037095737,68.38286546403849 L318.0612402890498,67.8807559364506"/><path d="M435.42759617169696,185.24712947542153 L318.0612402890498,67.8807559364506"/></g><g ifc:guid="1$J2u4wH927fsVUWbyeVAx" ifc:name="Cube" class="IfcWall material-null predefinedtype-ELEMENTEDWALL cut"><path d="M437.4886055787404,304.01851115161855 L437.4886055787404,289.18092824553133"/><path d="M437.4886055787404,304.01851115161855 L437.5901122887929,304.01851115161855"/><path d="M437.4886055787404,289.18092824553133 L437.4886055787404,207.32661711707397"/><path d="M437.4886055787404,207.32661711707397 L437.5901122887929,207.42810395891152"/><path d="M437.5901122887929,304.01851115161855 L438.15005819002783,304.01851115161855"/><path d="M437.5901122887929,207.42810395891152 L438.15005819002783,207.98806972836138"/><path d="M438.15005819002783,207.98806972836138 L438.15005819002783,289.28242502147634"/><path d="M438.15005819002783,289.28242502147634 L438.15005819002783,304.01851115161855"/><path d="M439.0320082505544,207.93454475735308 L438.15005819002783,207.05259469682656"/><path d="M438.15005819002783,207.05259469682656 L438.15005819002783,290.1105918242006"/><path d="M443.9708888530731,212.87342535987182 L439.0320082505544,207.93454475735308"/><path d="M443.9708888530731,212.87342535987182 L443.9708888530731,290.99252201651217"/><path d="M443.9708888530731,290.99252201651217 L443.9708888530731,304.9423036727774"/><path d="M438.15005819002783,304.9423036727774 L438.15005819002783,290.1105918242006"/><path d="M438.15005819002783,304.9423036727774 L439.0320082505544,304.9423036727774"/><path d="M439.0320082505544,304.9423036727774 L443.9708888530731,304.9423036727774"/><path d="M444.3933268388112,213.29590308203979 L443.9708888530731,212.87344522808672"/><path d="M443.9708888530731,232.72252457871718 L443.9708888530731,212.87344522808672"/><path d="M443.9708888530731,232.72252457871718 L443.9708888530731,232.72258418336196"/><path d="M444.3933268388112,213.29590308203979 L444.5000390211741,213.40259539618773"/><path d="M444.5000390211741,213.40259539618773 L444.5000390211741,233.14498243267022"/><path d="M444.5000390211741,233.145042037315 L444.5000390211741,233.14498243267022"/><path d="M444.5000390211741,311.29230685566546 L444.5000390211741,233.145042037315"/><path d="M443.9708888530731,232.72258418336196 L443.9708888530731,311.29230685566546"/><path d="M443.9708888530731,311.29230685566546 L444.2897140979767,311.29230685566546"/><path d="M444.2897140979767,311.29230685566546 L444.5000390211741,311.29230685566546"/><path d="M445.558359225591,214.4608758641748 L444.643090168635,213.5456068072188"/><path d="M445.558359225591,214.4608758641748 L445.558359225591,292.71514592105825"/><path d="M445.558359225591,292.71514592105825 L445.558359225591,305.80042180950124"/><path d="M445.558359225591,305.80042180950124 L445.558359225591,306.1262108637361"/><path d="M445.558359225591,306.1262108637361 L445.5583790938059,311.29230685566546"/><path d="M445.1350470383962,311.29230685566546 L445.5583790938059,311.29230685566546"/><path d="M444.50007875760394,213.40259539618773 L444.643090168635,213.5456068072188"/><path d="M444.5000390211741,311.29230685566546 L445.1350470383962,311.29230685566546"/><path d="M444.50007875760394,213.40259539618773 L444.50005888938904,292.5721245759197"/><path d="M444.50007875760394,306.21230977311416 L444.5000390211741,311.29230685566546"/><path d="M444.50005888938904,305.80042180950124 L444.50005888938904,292.5721245759197"/><path d="M444.50005888938904,305.80042180950124 L444.50007875760394,306.1262108637361"/><path d="M444.50007875760394,306.1262108637361 L444.50007875760394,306.21230977311416"/><path d="M448.5338826974233,217.4364390724369 L449.26256934801734,218.165125723031"/><path d="M449.26256934801734,218.165125723031 L449.26256934801734,236.4851273848085"/><path d="M449.26256934801734,236.4851273848085 L449.26256934801734,311.29230685566546"/><path d="M447.05842932065326,311.29230685566546 L449.26256934801734,311.29230685566546"/><path d="M448.5338826974233,217.4364390724369 L445.5583790938059,214.46093546881957"/><path d="M445.5583790938059,311.29230685566546 L447.05842932065326,311.29230685566546"/><path d="M445.5583790938059,233.509663517621 L445.5583790938059,311.29230685566546"/><path d="M445.5583790938059,233.509663517621 L445.5583790938059,214.46093546881957"/></g><g ifc:guid="2RQDw89ujAfxmMrhEnC3to" ifc:name="Cube" class="IfcSlab material-null predefinedtype-ROOF cut"><path d="M320.19452036668855,34.15911026333455 L317.4999731556222,31.46454321875854"/><path d="M317.49995328740965,30.36126124396606 L317.4999731556222,31.46454321875854"/><path d="M474.53017036120093,188.49474815065346 L320.19452036668855,34.15911026333455"/><path d="M474.5301902294159,187.39150591229082 L474.53017036120093,188.49474815065346"/><path d="M474.5301902294159,187.37223374381347 L474.5301902294159,187.39150591229082"/><path d="M317.49996322151475,30.34202881191853 L317.49995328740965,30.36126124396606"/><path d="M320.19451043258107,33.036556120064695 L317.49996322151475,30.34202881191853"/><path d="M474.5301902294159,187.37223374381347 L320.19451043258107,33.036556120064695"/><path d="M467.66025821367896,198.46283026074053 L467.4404164155324,198.24298846259398"/><path d="M317.49998308973085,48.30257721279744 L317.49998308973085,35.37091242804809"/><path d="M317.49998308973085,48.30257721279744 L346.8407765030861,77.64336096778197"/><path d="M467.4404164155324,198.24298846259398 L346.8407765030861,77.64336096778197"/><path d="M474.53017036120093,205.3327225400476 L467.66025821367896,198.46283026074053"/><path d="M474.53017036120093,188.78369160030962 L474.53017036120093,205.3327225400476"/><path d="M474.53017036120093,188.49474815065346 L474.53017036120093,188.78369160030962"/><path d="M317.49998308973085,35.37091242804809 L317.4999731556222,31.46454321875854"/><path d="M320.19452036668855,34.15911026333455 L317.4999731556222,31.46454321875854"/><path d="M474.53017036120093,188.49474815065346 L320.19452036668855,34.15911026333455"/><path d="M317.4999731556222,48.93319435452107 L317.4999731556222,48.30257721279744"/><path d="M474.53017036120093,205.3327424082625 L474.53017036120093,205.34879592592202"/><path d="M474.53017036120093,205.3327424082625 L473.319003979365,204.12157602642657"/><path d="M360.43338974316913,91.2359617902307 L317.4999731556222,48.30257721279744"/><path d="M360.43338974316913,91.2359617902307 L466.29688143730164,197.09945348436318"/><path d="M473.319003979365,204.12157602642657 L466.29688143730164,197.09945348436318"/><path d="M317.4999731556222,49.23797277147257 L317.4999731556222,48.93319435452107"/><path d="M474.53017036120093,205.34879592592202 L474.53017036120093,206.26817770336748"/><path d="M317.4999731556222,49.23797277147257 L360.43338974316913,92.17139708533568"/><path d="M474.53017036120093,206.26817770336748 L473.319003979365,205.05701132153155"/><path d="M473.319003979365,205.05701132153155 L466.29688143730164,198.03488877946816"/><path d="M466.29688143730164,198.03488877946816 L360.43338974316913,92.17139708533568"/><path d="M320.19450049847364,33.036556120064695 L317.49995328740965,30.34202881191853"/><path d="M317.49995328740965,29.23874683712605 L317.49995328740965,30.34202881191853"/><path d="M474.5301902294159,187.37223374381347 L320.19450049847364,33.036556120064695"/><path d="M474.5301902294159,187.37223374381347 L474.53017036120093,186.2689716372359"/><path d="M474.53017036120093,186.2689716372359 L474.53017036120093,186.24969946875854"/><path d="M317.49995328740965,29.219474668648676 L317.49995328740965,29.23874683712605"/><path d="M320.19450049847364,31.914041713224684 L317.49995328740965,29.219474668648676"/><path d="M474.53017036120093,186.24969946875854 L320.19450049847364,31.914041713224684"/></g><g ifc:guid="2DZinlHOD7BQQmwy__xPfi" ifc:name="Cube" class="IfcSlab material-null predefinedtype-FLOOR cut"><path d="M437.4886055787404,303.6802945289481 L437.4886055787404,303.6193885160951"/><path d="M437.4886055787404,303.6193885160951 L335.9125927090645,303.6193885160951"/><path d="M197.51150409380594,303.6193885160951 L197.51150409380594,303.7642278028993"/><path d="M289.6604811151822,303.6193885160951 L197.51150409380594,303.6193885160951"/><path d="M299.0874722599983,303.6193885160951 L335.9125927090645,303.6193885160951"/><path d="M299.0874722599983,303.6193885160951 L290.52369544903434,303.6193885160951"/><path d="M290.52369544903434,303.6193885160951 L289.6604811151822,303.6193885160951"/><path d="M437.4886055787404,304.01626604333205 L437.4886055787404,303.6802945289481"/><path d="M437.4886055787404,304.01626604333205 L335.9125927090645,304.01626604333205"/><path d="M335.9125927090645,304.01626604333205 L299.0874722599983,304.01626604333205"/><path d="M290.5237053831418,304.01626604333205 L299.0874722599983,304.01626604333205"/><path d="M197.51150409380594,303.7642278028993 L197.51150409380594,304.01626604333205"/><path d="M197.51150409380594,304.01626604333205 L289.6604811151822,304.01626604333205"/><path d="M289.6604811151822,304.01626604333205 L290.5237053831418,304.01626604333205"/><path d="M438.1500979264577,304.8300581925579 L438.1500979264577,304.81002109780593"/><path d="M438.1500979264577,304.81002109780593 L335.7803399364153,304.81002109780593"/><path d="M196.8500514825185,304.81002109780593 L196.8500514825185,304.85875782901724"/><path d="M289.82802977164584,304.81002109780593 L196.8500514825185,304.81002109780593"/><path d="M299.2197349667549,304.81002109780593 L335.7803399364153,304.81002109780593"/><path d="M299.2197349667549,304.81002109780593 L290.6889393925667,304.81002109780593"/><path d="M290.6889393925667,304.81002109780593 L289.82802977164584,304.81002109780593"/><path d="M438.1500979264577,304.9423036727774 L438.1500979264577,304.8300581925579"/><path d="M438.1500979264577,304.9423036727774 L335.7803399364153,304.9423136068849"/><path d="M335.7803399364153,304.9423136068849 L299.21974490086234,304.9423136068849"/><path d="M290.6889393925667,304.9423136068849 L299.21974490086234,304.9423136068849"/><path d="M196.8500514825185,304.85875782901724 L196.8500514825185,304.9423036727774"/><path d="M196.8500514825185,304.9423036727774 L289.8280397057533,304.9423136068849"/><path d="M289.8280397057533,304.9423136068849 L290.6889393925667,304.9423136068849"/><path d="M335.7803399364153,304.81002109780593 L299.21974490086234,304.81002109780593"/><path d="M290.6889393925667,304.81002109780593 L299.21974490086234,304.81002109780593"/><path d="M196.8500514825185,304.308706298815 L196.8500514825185,304.81002109780593"/><path d="M196.8500514825185,304.81002109780593 L289.82802977164584,304.81002109780593"/><path d="M289.82802977164584,304.81002109780593 L290.6889393925667,304.81002109780593"/><path d="M438.1500979264577,304.81002109780593 L335.7803399364153,304.81002109780593"/><path d="M438.1500979264577,304.81002109780593 L438.1500979264577,304.1365382823813"/><path d="M438.1500979264577,304.1365382823813 L438.1500979264577,304.01626604333205"/><path d="M438.1500979264577,304.01626604333205 L335.7803399364153,304.01626604333205"/><path d="M196.8500514825185,304.01626604333205 L196.8500514825185,304.308706298815"/><path d="M289.82802977164584,304.01626604333205 L196.8500514825185,304.01626604333205"/><path d="M299.21974490086234,304.01626604333205 L335.7803399364153,304.01626604333205"/><path d="M299.21974490086234,304.01626604333205 L290.6889393925667,304.01626604333205"/><path d="M290.6889393925667,304.01626604333205 L289.82802977164584,304.01626604333205"/><path d="M415.92493653297424,331.13606400822283 L349.2499962449074,331.13606400822283"/><path d="M196.8500514825185,331.13606400822283 L349.2499962449074,331.13606400822283"/><path d="M196.8500514825185,331.13606400822283 L196.8500514825185,331.33102086717565"/><path d="M438.1499389807383,331.13606400822283 L415.92493653297424,331.13606400822283"/><path d="M438.1499389807383,331.5677506480086 L438.1499389807383,331.13606400822283"/><path d="M438.1499389807383,331.66523404453875 L438.1499389807383,331.5677506480086"/><path d="M438.1499389807383,331.66523404453875 L415.92493653297424,331.66523404453875"/><path d="M196.8500514825185,331.33102086717565 L196.8500514825185,331.66523404453875"/><path d="M349.2499863107999,331.66523404453875 L196.8500514825185,331.66523404453875"/><path d="M415.92493653297424,331.66523404453875 L349.2499863107999,331.66523404453875"/><path d="M291.99333737293875,304.9423136068849 L343.006727596124,304.9423136068849"/><path d="M291.99333737293875,304.9423136068849 L291.1519681413968,304.9423136068849"/><path d="M393.7000135580698,305.7360587272513 L191.02920095125833,305.7360587272513"/><path d="M291.1519681413968,304.9423136068849 L191.02920095125833,304.9423136068849"/><path d="M191.02920095125833,304.9423136068849 L191.02920095125833,305.1000672333904"/><path d="M191.02920095125833,305.1000672333904 L191.02920095125833,305.7360587272513"/><path d="M443.97082924842834,305.7360587272513 L393.7000135580698,305.7360587272513"/><path d="M443.97082924842834,305.7360587272513 L443.97082924842834,305.10239181453665"/><path d="M443.97082924842834,305.10239181453665 L443.97082924842834,304.9423136068849"/><path d="M443.97082924842834,304.9423136068849 L343.006727596124,304.9423136068849"/><path d="M393.6999936898549,331.13606400822283 L191.02920095125833,331.13606400822283"/><path d="M241.30003650983173,305.7360587272513 L191.02920095125833,305.7360587272513"/><path d="M191.02920095125833,305.7360587272513 L191.02920095125833,310.78417725895525"/><path d="M191.02920095125833,310.78417725895525 L191.02920095125833,331.13606400822283"/><path d="M443.97082924842834,305.7360587272513 L241.30003650983173,305.7360587272513"/><path d="M443.97082924842834,331.13606400822283 L393.6999936898549,331.13606400822283"/><path d="M443.97082924842834,331.13606400822283 L443.97082924842834,326.08794796004577"/><path d="M443.97082924842834,326.08794796004577 L443.97082924842834,305.7360587272513"/><path d="M415.92493653297424,332.32669658993365 L349.2499962449074,332.32669658993365"/><path d="M415.92493653297424,331.66524397864623 L349.2499962449074,331.66524397864623"/><path d="M349.2499962449074,332.32669658993365 L196.8500514825185,332.32669658993365"/><path d="M196.8500514825185,331.66524397864623 L349.2499962449074,331.66524397864623"/><path d="M196.8500514825185,331.66524397864623 L196.8500514825185,331.9089375688104"/><path d="M196.8500514825185,331.9089375688104 L196.8500514825185,332.32669658993365"/><path d="M438.1499389807383,331.66524397864623 L415.92493653297424,331.66524397864623"/><path d="M438.1499389807383,332.32669658993365 L415.92493653297424,332.32669658993365"/><path d="M438.1499389807383,332.32669658993365 L438.1499389807383,332.20484482779784"/><path d="M438.1499389807383,332.20484482779784 L438.1499389807383,331.66524397864623"/></g></g>
</svg>