<svg xmlns="http://www.w3.org/2000/svg" xmlns:xlink="http://www.w3.org/1999/xlink" xmlns:ifc="http://www.ifcopenshell.org/ns" width="616.787mm" height="783.431mm" viewBox="0 0 616.787 783.431">
    <defs>
        <marker id="arrowend" markerWidth="10" markerHeight="7" refX="10" refY="3.5" orient="auto">
          <polygon points="0 0, 10 3.5, 0 7"/>
        </marker>
        <marker id="arrowstart" markerWidth="10" markerHeight="7" refX="0" refY="3.5" orient="auto">
          <polygon points="10 0, 0 3.5, 10 7"/>
        </marker>
    </defs>
    <g ifc:name="Elevation WEST SECTION" class="section" ifc:plane="[[1.000000,0.000000,0.000000,0.000000],[0.000000,1.000000,0.000000,0.000000],[0.000000,0.000000,1.000000,0.000000],[0.000000,0.000000,0.000000,1.000000]]" ifc:matrix3="[[62.500000,0.000000,112.543519],[0.000000,62.500000,607.615657],[0.000000,0.000000,1.000000]]">
        <g id="product-0a49278c-83c7-4dea-9c2e-cc78eeed45f1" class="IfcVirtualElement material-null predefinedtype-REFERENCEPLAN projection" ifc:name="Plane.004" ifc:guid="0AIIUCWyTDwfmkp7ZkxKNn">
            <path d="M-10.613,764.591 L-10.613,-45.5256"/>
            <path d="M-10.613,-45.5256 L396.656,-45.5256"/>
            <path d="M396.656,-45.5256 L396.656,415.131"/>
            <path d="M396.656,458.192 L396.656,607.616"/>
            <path d="M396.656,623.491 L396.656,764.591"/>
            <path d="M-10.613,764.591 L396.656,764.591"/>
        </g>
        <g id="product-d2c0940e-88f3-474b-9424-9d98cd0e2b03" class="IfcVirtualElement material-null predefinedtype-REFERENCEPLAN projection" ifc:name="Plane.004" ifc:guid="3Im9GEYFD7IvGadPZD3Yi3">
            <path d="M493.544,-45.5256 L493.544,251.182"/>
            <path d="M493.544,281.209 L493.544,764.591"/>
            <path d="M493.544,764.591 L493.544,764.591"/>
            <path d="M493.544,764.591 L493.544,-45.5256"/>
            <path d="M493.544,-45.5256 L493.544,-45.5256"/>
        </g>
        <g id="product-9ea0dc31-05ea-403a-85a1-79317fa541d6" class="IfcVirtualElement material-null predefinedtype-REFERENCEPLAN projection" ifc:name="Plane.004" ifc:guid="2UeDmn1Uf0EeMXUJ5$fK7M">
            <path d="M303.044,764.591 L303.044,764.591"/>
            <path d="M303.044,764.591 L303.044,-45.5256"/>
            <path d="M303.044,-45.5256 L303.044,-45.5256"/>
        </g>
        <g id="product-a5c0aa5c-7fae-4800-8566-ace7a4b073fd" class="IfcVirtualElement material-null predefinedtype-REFERENCEPLAN projection" ifc:name="Plane.004" ifc:guid="2bmAfSVwv808LchEUai7Fz">
            <path d="M112.544,764.591 L112.544,764.591"/>
            <path d="M112.544,764.591 L112.544,-45.5256"/>
            <path d="M112.544,-45.5256 L112.544,-45.5256"/>
        </g>
        <g id="product-e31f6009-d23a-46ee-a411-19fa9bd18fcd" class="IfcVirtualElement material-null predefinedtype-REFERENCESECTION projection" ifc:name="Plane" ifc:guid="3Z7s09qZf6xgGH6VgRqO$D">
            <path d="M602.892,607.616 L492.75,607.616"/>
            <path d="M27.99,607.616 L27.99,607.616"/>
            <path d="M27.99,607.616 L602.892,607.616"/>
            <path d="M602.892,607.616 L602.892,607.616"/>
        </g>
        <g id="product-4fbf3ab6-22a7-4b71-ae5a-8a8a69d65c6f" class="IfcVirtualElement material-null predefinedtype-REFERENCESECTION projection" ifc:name="Plane" ifc:guid="1Flpgs8gTBSQvQYeffrbnl">
            <path d="M602.892,417.116 L396.656,417.116"/>
            <path d="M27.99,417.116 L27.99,417.116"/>
            <path d="M27.99,417.116 L602.892,417.116"/>
            <path d="M602.892,417.116 L602.892,417.116"/>
        </g>
        <g id="product-99ba2a4e-70d7-467d-a8bb-7816d5baa61a" class="IfcVirtualElement material-null predefinedtype-REFERENCESECTION projection" ifc:name="Plane" ifc:guid="2PkYfESDT6VQYxU1RLkgOQ">
            <path d="M602.892,236.141 L478.503,236.141"/>
            <path d="M448.475,236.141 L396.656,236.141"/>
            <path d="M27.99,236.141 L27.99,236.141"/>
            <path d="M27.99,236.141 L602.892,236.141"/>
            <path d="M602.892,236.141 L602.892,236.141"/>
        </g>
        <g id="product-ae27d215-a6f3-47d7-8416-37233098fda4" class="IfcWall material-null predefinedtype-ELEMENTEDWALL projection" ifc:name="Wall" ifc:guid="2k9z8LflD7ruGMDoCmcFsa">
            <path d="M125.244,613.966 L125.244,683.816"/>
            <path d="M125.244,683.816 L122.069,683.816"/>
            <path d="M122.069,683.816 L122.069,683.816"/>
            <path d="M125.244,683.816 L122.069,683.816"/>
            <path d="M125.244,683.816 L125.244,683.816"/>
            <path d="M125.244,613.966 L122.069,613.966"/>
            <path d="M122.069,613.966 L122.069,613.966"/>
            <path d="M122.069,613.966 L125.244,613.966"/>
            <path d="M125.244,613.966 L125.244,613.966"/>
            <path d="M112.544,617.141 L112.544,607.616"/>
            <path d="M122.069,683.816 L106.194,683.816"/>
            <path d="M120.481,613.966 L122.069,613.966"/>
            <path d="M122.069,683.816 L122.069,683.816"/>
            <path d="M122.069,613.966 L122.069,613.966"/>
            <path d="M122.069,613.966 L122.069,683.816"/>
            <path d="M122.069,613.966 L120.481,613.966"/>
            <path d="M106.194,683.816 L106.194,683.816"/>
            <path d="M106.194,683.816 L106.194,617.141"/>
            <path d="M112.544,607.616 L112.544,607.616"/>
            <path d="M112.544,607.616 L120.481,607.616"/>
            <path d="M122.069,607.616 L120.481,607.616"/>
            <path d="M106.194,617.141 L106.194,617.141"/>
            <path d="M106.194,617.141 L112.544,617.141"/>
            <path d="M112.544,617.141 L112.544,617.141"/>
            <path d="M112.544,607.616 L113.337,607.616"/>
            <path d="M112.544,607.616 L112.544,617.141"/>
            <path d="M112.544,617.141 L122.069,617.141"/>
            <path d="M125.244,613.966 L125.244,607.616"/>
            <path d="M122.069,683.816 L122.069,613.966"/>
            <path d="M122.069,613.966 L125.244,613.966"/>
            <path d="M122.069,683.816 L125.244,683.816"/>
            <path d="M120.481,607.616 L120.481,607.616"/>
            <path d="M120.481,607.616 L120.481,613.966"/>
            <path d="M120.481,613.966 L120.481,613.966"/>
            <path d="M120.481,607.616 L120.481,613.966"/>
        </g>
        <g id="product-5afe24e6-b053-4d21-8629-9a17b632780b" class="IfcWall material-null predefinedtype-ELEMENTEDWALL projection" ifc:name="Cube" ifc:guid="1Q$YJci5DD8OOfcXUsCdWB">
            <path d="M125.244,607.616 L125.244,458.192"/>
            <path d="M122.069,607.616 L122.069,458.192"/>
            <path d="M125.244,607.616 L123.061,607.616"/>
            <path d="M123.061,607.616 L122.069,607.616"/>
            <path d="M122.069,607.616 L122.069,607.616"/>
            <path d="M123.061,607.616 L123.061,458.192"/>
            <path d="M123.061,458.192 L123.061,607.616"/>
            <path d="M123.061,607.616 L123.061,607.616"/>
            <path d="M123.061,458.192 L125.244,458.192"/>
            <path d="M125.244,458.192 L125.244,458.192"/>
            <path d="M122.069,458.192 L122.069,458.192"/>
            <path d="M122.069,458.192 L123.061,458.192"/>
            <path d="M123.061,458.192 L123.061,458.192"/>
            <path d="M123.061,458.192 L122.069,458.192"/>
            <path d="M122.069,458.192 L122.069,607.616"/>
            <path d="M123.061,607.616 L122.069,607.616"/>
            <path d="M125.244,458.192 L125.244,456.406"/>
            <path d="M113.337,607.616 L113.337,456.406"/>
            <path d="M113.337,607.616 L113.337,607.616"/>
            <path d="M123.061,607.616 L122.069,607.616"/>
            <path d="M122.069,607.616 L113.337,607.616"/>
            <path d="M113.337,607.616 L113.337,456.406"/>
            <path d="M120.481,607.616 L113.337,607.616"/>
            <path d="M125.244,456.406 L122.069,456.406"/>
            <path d="M113.337,456.406 L122.069,456.406"/>
            <path d="M113.337,456.406 L113.337,456.406"/>
            <path d="M113.337,456.406 L122.069,456.406"/>
            <path d="M122.069,607.616 L122.069,607.616"/>
            <path d="M122.069,456.406 L122.069,607.616"/>
            <path d="M122.069,456.406 L122.069,456.406"/>
            <path d="M122.069,456.406 L122.069,607.616"/>
            <path d="M125.244,417.116 L125.244,456.406"/>
            <path d="M112.544,417.116 L113.337,417.116"/>
            <path d="M122.069,417.116 L113.337,417.116"/>
            <path d="M120.481,607.616 L113.337,607.616"/>
            <path d="M113.337,607.616 L112.544,607.616"/>
            <path d="M112.544,417.116 L112.544,417.116"/>
            <path d="M112.544,607.616 L112.544,607.616"/>
            <path d="M112.544,607.616 L112.544,417.116"/>
            <path d="M113.337,607.616 L113.337,607.616"/>
            <path d="M113.337,417.116 L113.337,607.616"/>
            <path d="M113.337,417.116 L113.337,417.116"/>
            <path d="M113.337,417.116 L113.337,607.616"/>
            <path d="M113.337,417.116 L112.544,417.116"/>
            <path d="M112.544,417.116 L112.544,607.616"/>
            <path d="M113.337,607.616 L112.544,607.616"/>
            <path d="M110.956,426.641 L112.544,426.641"/>
            <path d="M113.337,426.641 L112.544,426.641"/>
            <path d="M122.069,617.141 L112.544,617.141"/>
            <path d="M112.544,617.141 L110.956,617.141"/>
            <path d="M110.956,426.641 L110.956,426.641"/>
            <path d="M110.956,617.141 L110.956,617.141"/>
            <path d="M110.956,617.141 L110.956,426.641"/>
            <path d="M112.544,617.141 L112.544,617.141"/>
            <path d="M112.544,426.641 L112.544,617.141"/>
            <path d="M112.544,426.641 L112.544,426.641"/>
            <path d="M112.544,426.641 L112.544,617.141"/>
            <path d="M105.4,617.141 L105.4,426.641"/>
            <path d="M110.956,426.641 L110.956,617.141"/>
            <path d="M105.4,426.641 L105.4,426.641"/>
            <path d="M105.4,426.641 L110.956,426.641"/>
            <path d="M110.956,426.641 L110.956,426.641"/>
            <path d="M110.956,617.141 L110.956,617.141"/>
            <path d="M110.956,617.141 L105.4,617.141"/>
            <path d="M105.4,617.141 L105.4,617.141"/>
        </g>
        <g id="product-ef9dc3e9-f5c0-49b3-b719-af81659c0d9f" class="IfcSlab material-null predefinedtype-ROOF projection" ifc:name="Cube" ifc:guid="3ldSFfzS19ixSPhu5bd0sV">
            <path d="M317.215,76.5371 L552.761,312.083"/>
            <path d="M552.761,312.083 L396.656,155.978"/>
            <path d="M551.919,312.924 L396.656,157.662"/>
            <path d="M551.919,312.924 L316.373,77.379"/>
            <path d="M552.761,312.083 L552.761,312.083"/>
            <path d="M552.761,312.083 L551.919,312.924"/>
            <path d="M551.919,312.924 L551.919,312.924"/>
            <path d="M552.761,312.083 L551.919,312.924"/>
            <path d="M316.373,77.379 L316.373,77.379"/>
            <path d="M316.373,77.379 L317.215,76.5371"/>
            <path d="M317.215,76.5371 L317.215,76.5371"/>
            <path d="M315.672,76.6774 L551.919,312.924"/>
            <path d="M551.919,312.924 L396.656,157.662"/>
            <path d="M539.29,325.553 L396.656,182.919"/>
            <path d="M539.29,325.553 L303.043,89.3059"/>
            <path d="M551.919,312.924 L551.919,312.924"/>
            <path d="M551.919,312.924 L539.29,325.553"/>
            <path d="M539.29,325.553 L539.29,325.553"/>
            <path d="M551.919,312.924 L539.29,325.553"/>
            <path d="M303.043,89.3059 L303.043,89.3059"/>
            <path d="M303.043,89.3059 L315.672,76.6774"/>
            <path d="M315.672,76.6774 L315.672,76.6774"/>
            <path d="M303.043,90.7092 L303.745,90.0076"/>
            <path d="M303.745,90.0076 L303.745,90.0076"/>
            <path d="M303.745,90.0076 L539.29,325.553"/>
            <path d="M396.656,182.919 L539.29,325.553"/>
            <path d="M303.043,90.7092 L303.043,90.7092"/>
            <path d="M396.656,184.322 L538.589,326.254"/>
            <path d="M538.589,326.254 L303.043,90.7092"/>
            <path d="M539.29,325.553 L539.29,325.553"/>
            <path d="M539.29,325.553 L538.589,326.254"/>
            <path d="M538.589,326.254 L538.589,326.254"/>
            <path d="M539.29,325.553 L538.589,326.254"/>
            <path d="M318.057,75.6953 L553.603,311.241"/>
            <path d="M396.656,154.294 L553.603,311.241"/>
            <path d="M317.215,76.5372 L318.057,75.6953"/>
            <path d="M318.057,75.6953 L318.057,75.6953"/>
            <path d="M553.603,311.241 L553.603,311.241"/>
            <path d="M553.603,311.241 L552.761,312.083"/>
            <path d="M553.603,311.241 L552.761,312.083"/>
            <path d="M317.215,76.5372 L317.215,76.5372"/>
            <path d="M552.761,312.083 L396.656,155.978"/>
            <path d="M552.761,312.083 L552.761,312.083"/>
            <path d="M552.761,312.083 L317.215,76.5372"/>
        </g>
        <g id="product-85362d87-afdd-4025-801e-30f8c86ec0a5" class="IfcSlab material-null predefinedtype-ROOF projection" ifc:name="Cube" ifc:guid="25DYs7hzr09O0UCFZ8Ri2b">
            <path d="M316.374,77.379 L303.043,64.049"/>
            <path d="M317.215,76.5371 L316.374,77.379"/>
            <path d="M316.374,77.379 L316.374,77.379"/>
            <path d="M53.3262,312.083 L303.043,62.3652"/>
            <path d="M303.043,64.049 L54.1681,312.924"/>
            <path d="M303.043,64.049 L303.043,64.049"/>
            <path d="M303.043,62.3652 L303.043,62.3652"/>
            <path d="M303.043,62.3652 L317.215,76.5371"/>
            <path d="M317.215,76.5371 L317.215,76.5371"/>
            <path d="M53.3262,312.083 L53.3262,312.083"/>
            <path d="M54.1681,312.924 L54.1681,312.924"/>
            <path d="M54.1681,312.924 L53.3262,312.083"/>
            <path d="M54.1681,312.924 L303.043,64.049"/>
            <path d="M315.672,76.6775 L66.7966,325.553"/>
            <path d="M315.672,76.6775 L315.672,76.6775"/>
            <path d="M303.043,64.049 L303.043,64.049"/>
            <path d="M303.043,64.049 L315.672,76.6775"/>
            <path d="M54.1681,312.924 L54.1681,312.924"/>
            <path d="M66.7966,325.553 L66.7966,325.553"/>
            <path d="M66.7966,325.553 L54.1681,312.924"/>
            <path d="M122.069,270.281 L303.044,89.306"/>
            <path d="M303.745,90.0075 L122.77,270.983"/>
            <path d="M303.745,90.0075 L303.745,90.0075"/>
            <path d="M303.044,89.306 L303.044,89.306"/>
            <path d="M303.044,89.306 L303.745,90.0075"/>
            <path d="M303.745,90.0075 L303.044,89.306"/>
            <path d="M303.044,89.306 L122.069,270.281"/>
            <path d="M303.745,90.0075 L123.061,270.692"/>
            <path d="M123.061,270.692 L122.77,270.983"/>
            <path d="M122.069,270.281 L122.069,270.281"/>
            <path d="M122.77,270.983 L122.069,270.281"/>
            <path d="M122.77,270.983 L122.77,270.983"/>
            <path d="M122.77,270.983 L122.069,270.281"/>
            <path d="M318.057,75.6953 L317.215,76.5371"/>
            <path d="M317.215,76.5371 L317.215,76.5371"/>
            <path d="M303.885,63.2071 L303.044,62.3652"/>
            <path d="M303.885,63.2071 L303.885,63.2071"/>
            <path d="M53.3262,312.083 L52.4843,311.241"/>
            <path d="M52.4843,311.241 L303.044,60.6814"/>
            <path d="M52.4843,311.241 L52.4843,311.241"/>
            <path d="M303.044,62.3652 L53.3262,312.083"/>
            <path d="M53.3262,312.083 L53.3262,312.083"/>
            <path d="M303.044,62.3652 L303.043,62.3652"/>
            <path d="M318.057,75.6953 L318.057,75.6953"/>
            <path d="M303.044,60.6814 L303.043,60.6814"/>
            <path d="M303.044,60.6814 L318.057,75.6953"/>
        </g>
        <g id="product-21ac4cd6-1c9a-4153-848d-9111afd4c811" class="IfcWall material-null predefinedtype-ELEMENTEDWALL projection" ifc:name="Cube" ifc:guid="0Xh4pM79f1KuIDaH6lrCWH">
            <path d="M122.069,271.684 L123.061,270.692"/>
            <path d="M125.244,268.509 L125.244,268.509"/>
            <path d="M123.061,270.692 L123.061,270.692"/>
            <path d="M123.061,270.692 L123.061,415.727"/>
            <path d="M123.061,270.692 L123.061,415.727"/>
            <path d="M123.061,270.692 L125.244,268.509"/>
            <path d="M125.244,268.509 L125.244,415.727"/>
            <path d="M125.244,415.727 L123.061,415.727"/>
            <path d="M123.061,415.727 L123.061,415.727"/>
            <path d="M123.061,415.727 L122.069,415.727"/>
            <path d="M122.069,271.684 L122.069,271.684"/>
            <path d="M122.069,415.727 L122.069,415.727"/>
            <path d="M122.069,415.727 L122.069,271.684"/>
            <path d="M122.069,271.684 L122.069,415.727"/>
            <path d="M122.069,415.727 L123.061,415.727"/>
            <path d="M122.069,271.684 L123.061,270.692"/>
            <path d="M113.337,279.012 L122.069,270.281"/>
            <path d="M122.069,270.281 L122.069,270.281"/>
            <path d="M122.069,270.281 L122.069,417.116"/>
            <path d="M122.069,270.281 L122.069,270.281"/>
            <path d="M122.069,270.281 L122.069,417.116"/>
            <path d="M122.069,270.281 L125.244,267.106"/>
            <path d="M125.244,267.106 L125.244,267.106"/>
            <path d="M125.244,268.509 L125.244,415.131"/>
            <path d="M125.244,415.727 L125.244,417.116"/>
            <path d="M113.337,279.012 L113.337,279.012"/>
            <path d="M113.337,417.116 L113.337,279.012"/>
            <path d="M122.069,417.116 L113.337,417.116"/>
            <path d="M113.337,417.116 L113.337,417.116"/>
            <path d="M122.069,417.116 L125.244,417.116"/>
            <path d="M122.069,417.116 L122.069,417.116"/>
            <path d="M113.337,279.012 L113.337,417.116"/>
            <path d="M113.337,417.116 L122.069,417.116"/>
            <path d="M113.337,279.012 L125.244,267.106"/>
            <path d="M113.337,279.012 L113.337,417.116"/>
            <path d="M113.337,417.116 L113.337,279.012"/>
            <path d="M122.069,417.116 L113.337,417.116"/>
            <path d="M113.337,417.116 L113.337,417.116"/>
            <path d="M113.337,417.116 L112.544,417.116"/>
            <path d="M112.544,417.116 L112.544,417.116"/>
            <path d="M112.544,417.116 L112.544,279.806"/>
            <path d="M112.544,417.116 L112.544,279.806"/>
            <path d="M112.544,417.116 L113.337,417.116"/>
            <path d="M113.337,279.012 L113.337,279.012"/>
            <path d="M125.244,267.106 L113.337,279.012"/>
            <path d="M112.544,279.806 L113.337,279.012"/>
            <path d="M112.544,279.806 L112.544,279.806"/>
            <path d="M112.544,279.806 L113.337,279.012"/>
            <path d="M110.956,281.393 L110.956,426.641"/>
            <path d="M105.4,426.641 L105.4,286.95"/>
            <path d="M110.956,281.393 L110.956,281.393"/>
            <path d="M105.4,286.95 L105.4,286.95"/>
            <path d="M105.4,286.95 L110.956,281.393"/>
            <path d="M110.956,426.641 L110.956,426.641"/>
            <path d="M110.956,426.641 L105.4,426.641"/>
            <path d="M105.4,426.641 L105.4,426.641"/>
        </g>
        <g id="product-a9327ce8-ee51-40d2-84d4-59c3cf784176" class="IfcWall material-null predefinedtype-ELEMENTEDWALL projection" ifc:name="Cube" ifc:guid="2fCdpexb50qeJKMSFFU45s">
            <path d="M303.044,607.616 L303.044,458.192"/>
            <path d="M303.044,607.616 L125.244,607.616"/>
            <path d="M303.044,458.192 L125.244,458.192"/>
            <path d="M125.244,458.192 L125.244,456.406"/>
            <path d="M125.244,456.406 L303.044,456.406"/>
            <path d="M303.044,456.406 L303.044,458.192"/>
            <path d="M303.044,417.116 L303.044,456.406"/>
            <path d="M303.044,607.616 L303.044,607.616"/>
        </g>
        <g id="product-445e1497-61bf-4048-920f-0e595b3cd455" class="IfcWall material-null predefinedtype-ELEMENTEDWALL projection" ifc:name="Wall" ifc:guid="14NXINORz0I98F3bbRFDHL">
            <path d="M125.244,683.816 L125.244,613.966"/>
            <path d="M303.044,683.816 L303.044,623.491"/>
            <path d="M303.044,613.966 L303.044,613.966"/>
            <path d="M125.244,683.816 L303.044,683.816"/>
            <path d="M303.044,613.966 L125.244,613.966"/>
            <path d="M303.044,613.966 L303.044,607.616"/>
            <path d="M125.244,607.616 L125.244,613.966"/>
        </g>
        <g id="product-8d8ecc6f-4583-472d-a6b0-ebcfbeed9a6c" class="IfcSlab material-null predefinedtype-FLOOR projection" ifc:name="Cube" ifc:guid="2DZinlHOD7BQQmwy__xPfi">
            <path d="M123.061,415.131 L492.75,415.131"/>
            <path d="M492.75,415.727 L123.061,415.727"/>
            <path d="M123.061,415.131 L123.061,415.131"/>
            <path d="M123.061,415.727 L123.061,415.727"/>
            <path d="M123.061,415.727 L123.061,415.131"/>
            <path d="M492.75,415.727 L492.75,415.727"/>
            <path d="M492.75,415.131 L492.75,415.131"/>
            <path d="M492.75,415.131 L492.75,415.727"/>
            <path d="M123.061,415.131 L123.061,415.727"/>
            <path d="M123.061,415.727 L492.75,415.727"/>
            <path d="M492.75,415.727 L492.75,415.131"/>
            <path d="M123.061,415.131 L492.75,415.131"/>
            <path d="M122.069,416.917 L492.75,416.917"/>
            <path d="M492.75,417.116 L122.069,417.116"/>
            <path d="M122.069,416.917 L122.069,416.917"/>
            <path d="M122.069,417.116 L122.069,417.116"/>
            <path d="M122.069,417.116 L122.069,416.917"/>
            <path d="M492.75,417.116 L492.75,417.116"/>
            <path d="M492.75,416.917 L492.75,416.917"/>
            <path d="M492.75,416.917 L492.75,417.116"/>
            <path d="M122.069,416.917 L122.069,417.116"/>
            <path d="M122.069,417.116 L492.75,417.116"/>
            <path d="M492.75,417.116 L492.75,416.917"/>
            <path d="M122.069,416.917 L125.244,416.917"/>
            <path d="M303.044,416.917 L492.75,416.917"/>
            <path d="M122.069,415.727 L492.75,415.727"/>
            <path d="M492.75,416.917 L122.069,416.917"/>
            <path d="M122.069,415.727 L122.069,415.727"/>
            <path d="M122.069,416.917 L122.069,416.917"/>
            <path d="M122.069,416.917 L122.069,415.727"/>
            <path d="M492.75,416.917 L492.75,416.917"/>
            <path d="M492.75,415.727 L492.75,415.727"/>
            <path d="M492.75,415.727 L492.75,416.917"/>
            <path d="M122.069,415.727 L122.069,416.917"/>
            <path d="M122.069,416.917 L125.244,416.917"/>
            <path d="M303.044,416.917 L492.75,416.917"/>
            <path d="M492.75,416.917 L492.75,415.727"/>
            <path d="M122.069,456.406 L492.75,456.406"/>
            <path d="M492.75,457.2 L122.069,457.2"/>
            <path d="M122.069,456.406 L122.069,456.406"/>
            <path d="M122.069,457.2 L122.069,457.2"/>
            <path d="M122.069,457.2 L122.069,456.406"/>
            <path d="M492.75,457.2 L492.75,457.2"/>
            <path d="M492.75,456.406 L492.75,456.406"/>
            <path d="M492.75,456.406 L492.75,457.2"/>
            <path d="M122.069,456.406 L122.069,457.2"/>
            <path d="M122.069,457.2 L125.244,457.2"/>
            <path d="M303.044,457.2 L492.75,457.2"/>
            <path d="M492.75,457.2 L492.75,456.406"/>
            <path d="M122.069,456.406 L492.75,456.406"/>
            <path d="M113.337,417.116 L492.75,417.116"/>
            <path d="M492.75,418.306 L113.337,418.306"/>
            <path d="M113.337,417.116 L113.337,417.116"/>
            <path d="M113.337,418.306 L113.337,418.306"/>
            <path d="M113.337,418.306 L113.337,417.116"/>
            <path d="M492.75,418.306 L492.75,418.306"/>
            <path d="M492.75,417.116 L492.75,417.116"/>
            <path d="M492.75,417.116 L492.75,418.306"/>
            <path d="M113.337,417.116 L113.337,418.306"/>
            <path d="M113.337,418.306 L492.75,418.306"/>
            <path d="M492.75,418.306 L492.75,417.116"/>
            <path d="M113.337,417.116 L492.75,417.116"/>
            <path d="M113.337,418.306 L492.75,418.306"/>
            <path d="M492.75,456.406 L113.337,456.406"/>
            <path d="M113.337,418.306 L113.337,418.306"/>
            <path d="M113.337,456.406 L113.337,456.406"/>
            <path d="M113.337,456.406 L113.337,418.306"/>
            <path d="M492.75,456.406 L492.75,456.406"/>
            <path d="M492.75,418.306 L492.75,418.306"/>
            <path d="M492.75,418.306 L492.75,456.406"/>
            <path d="M492.75,456.406 L492.75,418.306"/>
            <path d="M122.069,457.2 L492.75,457.2"/>
            <path d="M122.069,457.2 L125.244,457.2"/>
            <path d="M303.044,457.2 L492.75,457.2"/>
            <path d="M122.069,458.192 L125.244,458.192"/>
            <path d="M303.044,458.192 L492.75,458.192"/>
            <path d="M492.75,458.192 L122.069,458.192"/>
            <path d="M122.069,458.192 L122.069,457.2"/>
            <path d="M122.069,458.192 L122.069,458.192"/>
            <path d="M122.069,458.192 L122.069,457.2"/>
            <path d="M122.069,457.2 L122.069,457.2"/>
            <path d="M492.75,458.192 L492.75,458.192"/>
            <path d="M492.75,457.2 L492.75,458.192"/>
            <path d="M492.75,457.2 L492.75,457.2"/>
            <path d="M492.75,457.2 L492.75,458.192"/>
        </g>
        <g id="product-2e376fdc-4778-4e76-b364-be588bc494c0" class="IfcSlab material-null predefinedtype-BASESLAB projection" ifc:name="Cube" ifc:guid="0kDs$SHtXEThDalbYBn9J0">
            <path d="M125.244,617.141 L492.75,617.141"/>
            <path d="M492.75,623.491 L125.244,623.491"/>
            <path d="M125.244,617.141 L125.244,617.141"/>
            <path d="M125.244,623.491 L125.244,623.491"/>
            <path d="M125.244,623.491 L125.244,617.141"/>
            <path d="M492.75,623.491 L492.75,623.491"/>
            <path d="M492.75,617.141 L492.75,617.141"/>
            <path d="M492.75,617.141 L492.75,623.491"/>
            <path d="M125.244,617.141 L125.244,623.491"/>
            <path d="M125.244,623.491 L492.75,623.491"/>
            <path d="M492.75,623.491 L492.75,617.141"/>
            <path d="M125.244,617.141 L492.75,617.141"/>
            <path d="M125.244,613.966 L492.75,613.966"/>
            <path d="M492.75,617.141 L125.244,617.141"/>
            <path d="M125.244,613.966 L125.244,613.966"/>
            <path d="M125.244,617.141 L125.244,617.141"/>
            <path d="M125.244,617.141 L125.244,613.966"/>
            <path d="M492.75,617.141 L492.75,617.141"/>
            <path d="M492.75,613.966 L492.75,613.966"/>
            <path d="M492.75,613.966 L492.75,617.141"/>
            <path d="M125.244,613.966 L125.244,617.141"/>
            <path d="M125.244,617.141 L492.75,617.141"/>
            <path d="M492.75,617.141 L492.75,613.966"/>
            <path d="M125.244,613.966 L492.75,613.966"/>
            <path d="M492.75,607.616 L492.75,613.966"/>
            <path d="M492.75,607.616 L492.75,613.966"/>
            <path d="M492.75,607.616 L120.481,607.616"/>
            <path d="M120.481,607.616 L492.75,607.616"/>
            <path d="M492.75,607.616 L492.75,607.616"/>
            <path d="M122.069,613.966 L120.481,613.966"/>
            <path d="M492.75,613.966 L492.75,613.966"/>
            <path d="M492.75,613.966 L120.481,613.966"/>
            <path d="M120.481,613.966 L120.481,607.616"/>
            <path d="M120.481,613.966 L120.481,613.966"/>
            <path d="M120.481,613.966 L120.481,607.616"/>
            <path d="M120.481,607.616 L120.481,607.616"/>
        </g>
        <g id="product-ed53d9df-06ab-4b26-be81-9e081611a216" class="IfcVirtualElement material-null predefinedtype-REFERENCESECTION projection" ifc:name="Plane" ifc:guid="3jKzdV1gjB9hw1dWWM4Q8M">
            <path d="M602.892,226.616 L468.978,226.616"/>
            <path d="M438.95,226.616 L396.656,226.616"/>
            <path d="M27.99,226.616 L27.99,226.616"/>
            <path d="M27.99,226.616 L602.892,226.616"/>
            <path d="M602.892,226.616 L602.892,226.616"/>
        </g>
        <g id="product-69dd3656-38ac-4b0b-af07-1fb0fb76169c" class="IfcWall material-null predefinedtype-ELEMENTEDWALL projection" ifc:name="Cube" ifc:guid="1ftJPMEAnB2wy77x3xTXQS">
            <path d="M303.044,415.131 L303.044,90.7092"/>
            <path d="M303.044,90.7092 L125.244,268.509"/>
            <path d="M303.044,89.306 L303.044,415.131"/>
            <path d="M303.044,415.727 L303.044,417.116"/>
            <path d="M303.044,417.116 L125.244,417.116"/>
            <path d="M125.244,268.509 L125.244,415.131"/>
            <path d="M125.244,415.727 L125.244,417.116"/>
            <path d="M125.244,267.106 L303.044,89.3059"/>
            <path d="M303.044,89.3059 L303.044,89.306"/>
        </g>
    <g ifc:guid="3Im9GEYFD7IvGadPZD3Yi3" ifc:name="Plane.004" class="IfcVirtualElement material-null predefinedtype-REFERENCEPLAN cut"><path d="M493.54349358922934,764.5911574363708 L493.54352339155173,344.5166349411011"/><path d="M493.54352339155173,344.5166349411011 L493.5435829961965,-45.52561044692993"/></g><g ifc:guid="2bmAfSVwv808LchEUai7Fz" ifc:name="Plane.004" class="IfcVirtualElement material-null predefinedtype-REFERENCEPLAN cut"><path d="M112.5434814298818,764.5911574363708 L112.54352613336538,344.51669454574585"/><path d="M112.54352613336538,344.51669454574585 L112.54355593568776,-45.52561044692993"/></g><g ifc:guid="2UeDmn1Uf0EeMXUJ5$fK7M" ifc:name="Plane.004" class="IfcVirtualElement material-null predefinedtype-REFERENCEPLAN cut"><path d="M303.0434861125717,764.5911574363708 L303.0435308160553,344.51666474342346"/><path d="M303.0435308160553,344.51666474342346 L303.0435755195389,-45.52561044692993"/></g><g ifc:guid="3Z7s09qZf6xgGH6VgRqO$D" ifc:name="Plane" class="IfcVirtualElement material-null predefinedtype-REFERENCESECTION cut"><path d="M27.989986380405174,607.6156497001648 L326.0971764380405,607.6156497001648"/><path d="M602.8918056095312,607.6156497001648 L326.0971764380405,607.6156497001648"/></g><g ifc:guid="3jKzdV1gjB9hw1dWWM4Q8M" ifc:name="Plane" class="IfcVirtualElement material-null predefinedtype-REFERENCESECTION cut"><path d="M27.989986380405174,226.61563754081726 L326.0971466357181,226.61563754081726"/><path d="M602.8918056095312,226.61563754081726 L326.0971466357181,226.61563754081726"/></g><g ifc:guid="1Flpgs8gTBSQvQYeffrbnl" ifc:name="Plane" class="IfcVirtualElement material-null predefinedtype-REFERENCESECTION cut"><path d="M27.989986380405174,417.1156417578459 L326.0971466357181,417.1156417578459"/><path d="M602.8918056095312,417.1156417578459 L326.0971466357181,417.1156417578459"/></g><g ifc:guid="2PkYfESDT6VQYxU1RLkgOQ" ifc:name="Plane" class="IfcVirtualElement material-null predefinedtype-REFERENCESECTION cut"><path d="M27.989986380405174,236.140638589859 L326.0971466357181,236.140638589859"/><path d="M602.8918056095312,236.140638589859 L326.0971466357181,236.140638589859"/></g><g ifc:guid="2k9z8LflD7ruGMDoCmcFsa" ifc:name="Wall" class="IfcWall material-null predefinedtype-ELEMENTEDWALL cut"><path d="M125.24353249914144,683.8156282901764 L125.24357720262502,622.6359307765961"/><path d="M125.24353249914144,683.8156282901764 L124.84942658788655,683.8156282901764"/><path d="M124.84942658788655,683.8156282901764 L122.0685718858907,683.8156282901764"/><path d="M125.24357720262502,622.6359307765961 L125.24357720262502,613.965630531311"/><path d="M125.24357720262502,613.965630531311 L122.46267779714559,613.965630531311"/><path d="M122.46267779714559,613.965630531311 L122.0685718858907,613.965630531311"/><path d="M122.0685718858907,613.965630531311 L121.87151893026326,613.965630531311"/><path d="M122.0685718858907,683.8156282901764 L120.09805723077748,683.8156282901764"/><path d="M122.0685718858907,683.8156282901764 L122.0685718858907,675.1453280448914"/><path d="M122.0685718858907,675.1453280448914 L122.0685718858907,613.965630531311"/><path d="M112.54351123220418,609.2285364866257 L112.54351123220418,617.1406358480453"/><path d="M112.54351123220418,617.1406358480453 L111.46825834161733,617.1406358480453"/><path d="M120.09805723077748,683.8156282901764 L106.19357510454152,683.8156282901764"/><path d="M111.46825834161733,617.1406358480453 L106.19357510454152,617.1406358480453"/><path d="M106.19357510454152,617.1406358480453 L106.19357510454152,630.2732676267624"/><path d="M106.19357510454152,630.2732676267624 L106.19357510454152,683.8156282901764"/><path d="M119.43325682527517,607.6156347990036 L112.54351123220418,607.6156347990036"/><path d="M112.54351123220418,607.6156347990036 L112.54351123220418,609.2285364866257"/><path d="M120.48100217229818,607.6156347990036 L119.43325682527517,607.6156347990036"/><path d="M121.87151893026326,613.965630531311 L120.48100217229818,613.965630531311"/><path d="M120.48100217229818,613.965630531311 L120.48100217229818,613.1274253129959"/><path d="M120.48100217229818,613.1274253129959 L120.48100217229818,607.6156347990036"/></g><g ifc:guid="0kDs$SHtXEThDalbYBn9J0" ifc:name="Cube" class="IfcSlab material-null predefinedtype-BASESLAB cut"><path d="M453.0794499719808,623.490646481514 L125.24357720262502,623.490646481514"/><path d="M164.91394027120566,617.1406507492065 L125.24357720262502,617.1406507492065"/><path d="M125.24357720262502,617.1406507492065 L125.24357720262502,617.8261041641235"/><path d="M125.24357720262502,617.8261041641235 L125.24357720262502,623.490646481514"/><path d="M492.74973853475547,617.1406507492065 L164.91394027120566,617.1406507492065"/><path d="M492.74973853475547,623.490646481514 L453.0794499719808,623.490646481514"/><path d="M492.74973853475547,623.490646481514 L492.74973853475547,622.805193066597"/><path d="M492.74973853475547,622.805193066597 L492.74973853475547,617.1406507492065"/><path d="M453.0794499719808,617.1406507492065 L125.24357720262502,617.1406507492065"/><path d="M164.91394027120566,613.9656454324722 L125.24357720262502,613.9656454324722"/><path d="M125.24357720262502,613.9656454324722 L125.24357720262502,614.3083721399307"/><path d="M125.24357720262502,614.3083721399307 L125.24357720262502,617.1406507492065"/><path d="M492.74973853475547,613.9656454324722 L164.91394027120566,613.9656454324722"/><path d="M492.74973853475547,617.1406507492065 L453.0794499719808,617.1406507492065"/><path d="M492.74973853475547,617.1406507492065 L492.74973853475547,616.797924041748"/><path d="M492.74973853475547,616.797924041748 L492.74973853475547,613.9656454324722"/><path d="M492.74973853475547,613.1274402141571 L492.74973853475547,607.6156497001648"/><path d="M492.74973853475547,607.6156497001648 L169.6206061447332,607.6156497001648"/><path d="M492.74973853475547,613.9656454324722 L492.74973853475547,613.1274402141571"/><path d="M492.74973853475547,613.9656454324722 L443.61017926580405,613.9656454324722"/><path d="M443.61017926580405,613.9656454324722 L120.48100217229818,613.9656454324722"/><path d="M169.6206061447332,607.6156497001648 L120.48100217229818,607.6156497001648"/><path d="M120.48100217229818,607.6156497001648 L120.48100217229818,608.4538549184799"/><path d="M120.48100217229818,608.4538549184799 L120.48100217229818,613.9656454324722"/></g><g ifc:guid="2DZinlHOD7BQQmwy__xPfi" ifc:name="Cube" class="IfcSlab material-null predefinedtype-FLOOR cut"><path d="M448.70738967306113,415.7265853136778 L123.06078060514425,415.7265853136778"/><path d="M167.10318907148337,415.1312690228224 L123.06078060514425,415.1312690228224"/><path d="M123.06078060514425,415.1312690228224 L123.06078060514425,415.2021985501051"/><path d="M123.06078060514425,415.2021985501051 L123.06078060514425,415.7265853136778"/><path d="M492.74976833707785,415.1312690228224 L167.10318907148337,415.1312690228224"/><path d="M492.74976833707785,415.7265853136778 L448.70738967306113,415.7265853136778"/><path d="M492.74976833707785,415.7265853136778 L492.74976833707785,415.6556557863951"/><path d="M492.74976833707785,415.6556557863951 L492.74976833707785,415.1312690228224"/><path d="M446.7381416166494,417.1156417578459 L122.06860168821309,417.1156417578459"/><path d="M168.08025821096396,416.9172178953886 L122.06860168821309,416.9172178953886"/><path d="M122.06860168821309,416.9172178953886 L122.06860168821309,416.94184951484203"/><path d="M122.06860168821309,416.94184951484203 L122.06860168821309,417.1156417578459"/><path d="M492.74976833707785,416.9172178953886 L168.08025821096396,416.9172178953886"/><path d="M492.74976833707785,417.1156417578459 L446.7381416166494,417.1156417578459"/><path d="M492.74976833707785,417.1156417578459 L492.74976833707785,417.09101013839245"/><path d="M492.74976833707785,417.09101013839245 L492.74976833707785,416.9172178953886"/><path d="M446.7381416166494,416.9172178953886 L122.06860168821309,416.9172178953886"/><path d="M168.08025821096396,415.7265853136778 L122.06860168821309,415.7265853136778"/><path d="M122.06860168821309,415.7265853136778 L122.06860168821309,415.87437503039837"/><path d="M122.06860168821309,415.87437503039837 L122.06860168821309,416.9172178953886"/><path d="M492.74976833707785,415.7265853136778 L168.08025821096396,415.7265853136778"/><path d="M492.74976833707785,416.9172178953886 L446.7381416166494,416.9172178953886"/><path d="M492.74976833707785,416.9172178953886 L492.74976833707785,416.769428178668"/><path d="M492.74976833707785,416.769428178668 L492.74976833707785,415.7265853136778"/><path d="M446.7381416166494,457.2000354528427 L122.06860168821309,457.2000354528427"/><path d="M168.08024330980277,456.40628039836884 L122.06860168821309,456.40628039836884"/><path d="M122.06860168821309,456.40628039836884 L122.06860168821309,456.50480687618256"/><path d="M122.06860168821309,456.50480687618256 L122.06860168821309,457.2000354528427"/><path d="M492.74976833707785,456.40628039836884 L168.08024330980277,456.40628039836884"/><path d="M492.74976833707785,457.2000354528427 L446.7381416166494,457.2000354528427"/><path d="M492.74976833707785,457.2000354528427 L492.74976833707785,457.101508975029"/><path d="M492.74976833707785,457.101508975029 L492.74976833707785,456.40628039836884"/><path d="M429.86391766912436,418.3062743395567 L113.33732589132283,418.3062743395567"/><path d="M176.22319146043753,417.1156566590071 L113.33732589132283,417.1156566590071"/><path d="M113.33732589132283,417.1156566590071 L113.33732589132283,417.3129927366972"/><path d="M113.33732589132283,417.3129927366972 L113.33732589132283,418.3062743395567"/><path d="M492.74976833707785,417.1156566590071 L176.22319146043753,417.1156566590071"/><path d="M492.74976833707785,418.3062743395567 L429.86391766912436,418.3062743395567"/><path d="M492.74976833707785,418.3062743395567 L492.74976833707785,418.10893826186657"/><path d="M492.74976833707785,418.10893826186657 L492.74976833707785,417.1156566590071"/><path d="M429.863887866802,456.40628039836884 L113.33732589132283,456.40628039836884"/><path d="M176.22322126275992,418.3062743395567 L113.33732589132283,418.3062743395567"/><path d="M113.33732589132283,418.3062743395567 L113.33732589132283,424.62117969989777"/><path d="M113.33732589132283,424.62117969989777 L113.33732589132283,456.40628039836884"/><path d="M492.74976833707785,418.3062743395567 L176.22322126275992,418.3062743395567"/><path d="M492.74976833707785,456.40628039836884 L429.863887866802,456.40628039836884"/><path d="M492.74976833707785,456.40628039836884 L492.74976833707785,450.0913769006729"/><path d="M492.74976833707785,450.0913769006729 L492.74976833707785,418.3062743395567"/><path d="M446.7381416166494,458.19222927093506 L122.06860168821309,458.19222927093506"/><path d="M168.08022840864157,457.2000503540039 L122.06860168821309,457.2000503540039"/><path d="M122.06860168821309,457.2000503540039 L122.06860168821309,457.32319355010986"/><path d="M122.06860168821309,457.32319355010986 L122.06860168821309,458.19222927093506"/><path d="M492.74976833707785,457.2000503540039 L168.08022840864157,457.2000503540039"/><path d="M492.74976833707785,458.19222927093506 L446.7381416166494,458.19222927093506"/><path d="M492.74976833707785,458.19222927093506 L492.74976833707785,458.0690711736679"/><path d="M492.74976833707785,458.0690711736679 L492.74976833707785,457.2000503540039"/></g><g ifc:guid="0Xh4pM79f1KuIDaH6lrCWH" ifc:name="Cube" class="IfcWall material-null predefinedtype-ELEMENTEDWALL cut"><path d="M105.39982005006765,286.9495749473572 L110.9560756290624,281.3933491706848"/><path d="M110.9560756290624,281.3933193683624 L112.54357083684896,279.80583906173706"/><path d="M112.54357083684896,279.80583906173706 L113.33732589132283,279.0120840072632"/><path d="M113.33732589132283,279.01211380958557 L122.0685718858907,270.2808380126953"/><path d="M122.0685718858907,271.68405055999756 L123.06076570398305,270.6918716430664"/><path d="M122.0685718858907,415.7265853136778 L122.0685718858907,271.68405055999756"/><path d="M123.06076570398305,415.7265853136778 L122.0685718858907,415.7265853136778"/><path d="M123.06076570398305,270.6918716430664 L123.06076570398305,415.7265853136778"/><path d="M113.33732589132283,417.1156268566847 L113.33732589132283,279.01211380958557"/><path d="M113.33732589132283,417.1156268566847 L122.0685718858907,417.1156268566847"/><path d="M122.0685718858907,270.2808380126953 L122.0685718858907,417.1156268566847"/><path d="M112.54357083684896,417.1156268566847 L112.54357083684896,279.80583906173706"/><path d="M113.33732589132283,417.1156268566847 L112.54357083684896,417.1156268566847"/><path d="M113.33732589132283,279.0120840072632 L113.33732589132283,417.1156268566847"/><path d="M110.9560756290624,426.6406446695328 L110.9560756290624,281.3933193683624"/><path d="M110.9560756290624,426.6406446695328 L112.54357083684896,426.6406446695328"/><path d="M112.54357083684896,279.80583906173706 L112.54357083684896,426.6406446695328"/><path d="M105.39982005006765,426.6406446695328 L105.39982005006765,286.9495749473572"/><path d="M110.9560756290624,426.6406446695328 L105.39982005006765,426.6406446695328"/><path d="M110.9560756290624,281.3933491706848 L110.9560756290624,426.6406446695328"/></g><g ifc:guid="1Q$YJci5DD8OOfcXUsCdWB" ifc:name="Cube" class="IfcWall material-null predefinedtype-ELEMENTEDWALL cut"><path d="M122.0685718858907,476.7397493124008 L122.0685718858907,607.6156347990036"/><path d="M122.94256969339345,607.6156347990036 L122.0685718858907,607.6156347990036"/><path d="M123.06076570398305,607.6156347990036 L122.94256969339345,607.6156347990036"/><path d="M123.06076570398305,607.6156347990036 L123.06076570398305,589.8142755031586"/><path d="M123.06076570398305,589.8142755031586 L123.06076570398305,458.19222927093506"/><path d="M123.06076570398305,458.19222927093506 L122.94256969339345,458.19222927093506"/><path d="M122.94256969339345,458.19222927093506 L122.0685718858907,458.19222927093506"/><path d="M122.0685718858907,458.19222927093506 L122.0685718858907,476.7397493124008"/><path d="M113.33732589132283,481.4685434103012 L113.33732589132283,607.6156347990036"/><path d="M120.98479553110097,607.6156347990036 L113.33732589132283,607.6156347990036"/><path d="M120.98479553110097,456.40628039836884 L113.33732589132283,456.40628039836884"/><path d="M113.33732589132283,456.40628039836884 L113.33732589132283,481.4685434103012"/><path d="M122.0685718858907,456.40628039836884 L120.98479553110097,456.40628039836884"/><path d="M122.0685718858907,607.6156347990036 L120.98479553110097,607.6156347990036"/><path d="M122.0685718858907,607.6156347990036 L122.0685718858907,588.846430182457"/><path d="M122.0685718858907,588.846430182457 L122.0685718858907,456.40628039836884"/><path d="M113.20576353914235,607.6156347990036 L112.54357083684896,607.6156347990036"/><path d="M113.20576353914235,417.1156268566847 L112.54357083684896,417.1156268566847"/><path d="M112.54357083684896,417.1156268566847 L112.54357083684896,449.3736922740936"/><path d="M112.54357083684896,449.3736922740936 L112.54357083684896,607.6156347990036"/><path d="M113.33732589132283,417.1156268566847 L113.20576353914235,417.1156268566847"/><path d="M113.33732589132283,607.6156347990036 L113.20576353914235,607.6156347990036"/><path d="M113.33732589132283,607.6156347990036 L113.33732589132283,576.0411322116852"/><path d="M113.33732589132283,576.0411322116852 L113.33732589132283,417.1156268566847"/><path d="M112.27475388891195,617.1406507492065 L110.9560756290624,617.1406507492065"/><path d="M112.27475388891195,426.6406446695328 L110.9560756290624,426.6406446695328"/><path d="M110.9560756290624,426.6406446695328 L110.9560756290624,460.24832129478455"/><path d="M110.9560756290624,460.24832129478455 L110.9560756290624,617.1406507492065"/><path d="M112.54357083684896,426.6406446695328 L112.27475388891195,426.6406446695328"/><path d="M112.54357083684896,617.1406507492065 L112.27475388891195,617.1406507492065"/><path d="M112.54357083684896,617.1406507492065 L112.54357083684896,584.8825871944427"/><path d="M112.54357083684896,584.8825871944427 L112.54357083684896,426.6406446695328"/><path d="M110.9560756290624,583.532989025116 L110.9560756290624,426.6406446695328"/><path d="M110.9560756290624,426.6406446695328 L109.97584744340871,426.6406446695328"/><path d="M109.97584744340871,426.6406446695328 L105.39982005006765,426.6406446695328"/><path d="M105.39982005006765,426.6406446695328 L105.39982005006765,464.79593217372894"/><path d="M105.39982005006765,464.79593217372894 L105.39982005006765,617.1406507492065"/><path d="M110.9560756290624,617.1406507492065 L110.9560756290624,583.532989025116"/><path d="M110.9560756290624,617.1406507492065 L109.97584744340871,617.1406507492065"/><path d="M109.97584744340871,617.1406507492065 L105.39982005006765,617.1406507492065"/></g><g ifc:guid="25DYs7hzr09O0UCFZ8Ri2b" ifc:name="Cube" class="IfcSlab material-null predefinedtype-ROOF cut"><path d="M316.37348423696255,77.37904787063599 L317.21538494325375,76.53719186782837"/><path d="M303.0434563102493,64.04906511306763 L316.37348423696255,77.37904787063599"/><path d="M317.21538494325375,76.53719186782837 L318.05730055070615,75.69527626037598"/><path d="M303.0434712114105,62.36523389816284 L303.8853570165405,63.207149505615234"/><path d="M303.0434712114105,62.36523389816284 L303.8853570165405,63.207149505615234"/><path d="M303.8853570165405,63.207149505615234 L317.21538494325375,76.53719186782837"/><path d="M54.16810794717763,312.9243850708008 L303.0434563102493,64.04906511306763"/><path d="M54.16810794717763,312.9243850708008 L53.32619233972524,312.0824992656708"/><path d="M303.0434712114105,62.36523389816284 L53.32619233972524,312.0824992656708"/><path d="M303.04342650792694,64.04906511306763 L315.6719222011337,76.67756080627441"/><path d="M66.79658873922322,325.55288076400757 L315.6719222011337,76.67756080627441"/><path d="M66.79658873922322,325.55288076400757 L54.16810794717763,312.9243850708008"/><path d="M303.04342650792694,64.04906511306763 L54.16810794717763,312.9243850708008"/><path d="M303.0434861125717,89.30599689483643 L303.74506258390045,90.00760316848755"/><path d="M122.77013345605825,270.9825038909912 L303.74506258390045,90.00760316848755"/><path d="M122.77013345605825,270.9825038909912 L122.06855698472951,270.2809274196625"/><path d="M303.0434861125717,89.30599689483643 L122.06855698472951,270.2809274196625"/><path d="M303.0434712114105,60.68146228790283 L318.05730055070615,75.69527626037598"/><path d="M53.32619233972524,312.0824992656708 L303.0434712114105,62.36523389816284"/><path d="M303.0434712114105,60.68146228790283 L52.484306534595234,311.24061346054077"/><path d="M53.32619233972524,312.0824992656708 L52.484306534595234,311.24061346054077"/></g><g ifc:guid="3ldSFfzS19ixSPhu5bd0sV" ifc:name="Cube" class="IfcSlab material-null predefinedtype-ROOF cut"><path d="M303.0434861125717,90.70920944213867 L303.74506258390045,90.00760316848755"/><path d="M303.04342650792694,89.30593729019165 L315.6719222011337,76.67744159698486"/><path d="M318.05731545186734,75.69527626037598 L317.21541474557614,76.53719186782837"/><path d="M317.21538494325375,76.5371322631836 L316.37348423696255,77.37904787063599"/><path d="M551.9188223684499,312.9243850708008 L316.37348423696255,77.37904787063599"/><path d="M551.9188223684499,312.9243850708008 L552.7607379759023,312.0824992656708"/><path d="M317.21538494325375,76.5371322631836 L552.7607379759023,312.0824992656708"/><path d="M539.2903564775655,325.55288076400757 L303.04342650792694,89.30593729019165"/><path d="M539.2903564775655,325.55288076400757 L551.9188521707723,312.9243850708008"/><path d="M315.6719222011337,76.67744159698486 L551.9188521707723,312.9243850708008"/><path d="M538.5887502039144,326.2544572353363 L303.0434861125717,90.70920944213867"/><path d="M538.5887502039144,326.2544572353363 L539.2903564775655,325.55288076400757"/><path d="M303.74506258390045,90.00760316848755 L539.2903564775655,325.55288076400757"/><path d="M552.7607379759023,312.0824992656708 L317.21541474557614,76.53719186782837"/><path d="M552.7607379759023,312.0824992656708 L553.6026237810323,311.24061346054077"/><path d="M318.05731545186734,75.69527626037598 L553.6026237810323,311.24061346054077"/></g></g>
</svg>